<?xml version="1.0" encoding="UTF-8"?>
<!DOCTYPE svg PUBLIC "-//W3C//DTD SVG 1.1//EN" "http://www.w3.org/Graphics/SVG/1.1/DTD/svg11.dtd">
<!-- Creator: CorelDRAW 2021.5 -->
<svg xmlns="http://www.w3.org/2000/svg" xml:space="preserve" width="798.875mm" height="868.298mm" version="1.1" style="shape-rendering:geometricPrecision; text-rendering:geometricPrecision; image-rendering:optimizeQuality; fill-rule:evenodd; clip-rule:evenodd"
viewBox="0 0 79887.5 86829.8"
 xmlns:xlink="http://www.w3.org/1999/xlink"
 xmlns:xodm="http://www.corel.com/coreldraw/odm/2003">
 <defs>
  <style type="text/css">
   <![CDATA[
    .fil0 {fill:#9F8613}
    .fil2 {fill:#EEE30D}
    .fil1 {fill:#EFB105}
   ]]>
  </style>
 </defs>
 <g id="Layer_x0020_1">
  <metadata id="CorelCorpID_0Corel-Layer"/>
  <path class="fil0" d="M589.32 57444.74c0,-13257.36 17617.59,-22305.06 39350.1,-22305.06 21732.5,0 39327.17,8951.68 39327.17,22209.04 0,1031.58 -103.69,2050.82 -310.57,3048.09 -2453.14,-11819.63 -18975.27,-19166.8 -39016.6,-19166.8 -19542.73,0 -35687.74,6669.73 -38753.02,18045.16 -78.07,289.86 -119.61,511.85 -180.62,805.86 -155.49,-708.68 -349.39,-1598.02 -416.46,-2636.29z"/>
  <path class="fil1" d="M79882.73 56310.75c0,-12103.06 -17883.19,-21914.47 -39943.31,-21914.47 -21240.99,0 -38609.45,9096.37 -39870.02,20576.12 -181.85,1657.96 -25.18,3277.13 425.92,4884.66 3696.96,13162.05 25620.17,19046.95 39444.1,19046.95 13922.91,0 37028.73,-6598.87 39690.94,-19441.51 112.37,-542.05 252.37,-1961.56 252.37,-3151.75zm-2309.78 6560.86c-6037.01,10152.93 -25412.94,15353.72 -37633.53,15353.72 -12165.99,0 -30656.42,-4673.38 -37175.32,-14970.12 -1549.27,-2447.08 -2632.04,-6154.07 -1778.8,-9386.5 2799.96,-10607.43 19124.1,-18793.76 38954.12,-18793.76 19863.79,0 36505.09,8076.76 38945.4,18762.24 548.08,2399.86 350.09,6239.41 -1311.87,9034.42z"/>
  <path class="fil2" d="M-2.2 56576.21c489.13,14429.16 22637.52,22327.78 39941.62,22327.78 17304.08,0 40422.02,-9025.52 39931.41,-21984.78l-28.47 8815.93c0,11028.04 -17842.82,21030.5 -39902.94,21030.5 -22060.14,0 -39943.31,-9001.6 -39943.31,-19956.18l1.69 -10233.25z"/>
  <path class="fil0" d="M589.32 40927.17c0,-13257.35 17617.59,-22305.05 39350.1,-22305.05 21732.5,0 39327.17,8951.67 39327.17,22209.04 0,1031.57 -103.69,2050.82 -310.57,3048.08 -2453.14,-11819.63 -18975.27,-19166.8 -39016.6,-19166.8 -19542.73,0 -35687.74,6669.73 -38753.02,18045.15 -78.07,289.88 -119.61,511.87 -180.62,805.87 -155.49,-708.68 -349.39,-1598.02 -416.46,-2636.29z"/>
  <path class="fil1" d="M79882.73 39793.18c0,-12103.05 -17883.19,-21914.48 -39943.31,-21914.48 -21240.99,0 -38609.45,9096.38 -39870.02,20576.14 -181.85,1657.95 -25.18,3277.12 425.92,4884.66 3696.96,13162.05 25620.17,19046.94 39444.1,19046.94 13922.91,0 37028.73,-6598.87 39690.94,-19441.5 112.37,-542.05 252.37,-1961.57 252.37,-3151.76zm-2309.78 6560.86c-6037.01,10152.94 -25412.94,15353.72 -37633.53,15353.72 -12165.99,0 -30656.42,-4673.37 -37175.32,-14970.11 -1549.27,-2447.08 -2632.04,-6154.08 -1778.8,-9386.5 2799.96,-10607.43 19124.1,-18793.76 38954.12,-18793.76 19863.79,0 36505.09,8076.76 38945.4,18762.24 548.08,2399.86 350.09,6239.41 -1311.87,9034.41z"/>
  <path class="fil2" d="M-2.2 40058.65c489.13,14429.15 22637.52,22327.77 39941.62,22327.77 17304.08,0 40422.02,-9025.52 39931.41,-21984.77l-28.47 8815.92c0,11028.04 -17842.82,21030.51 -39902.94,21030.51 -22060.14,0 -39943.31,-9001.6 -39943.31,-19956.18l1.69 -10233.25z"/>
  <path class="fil0" d="M589.32 22984.31c0,-13257.36 17617.59,-22305.06 39350.1,-22305.06 21732.5,0 39327.17,8951.68 39327.17,22209.04 0,1031.57 -103.69,2050.83 -310.57,3048.08 -2453.14,-11819.62 -18975.27,-19166.8 -39016.6,-19166.8 -19542.73,0 -35687.74,6669.74 -38753.02,18045.16 -78.07,289.86 -119.61,511.86 -180.62,805.86 -155.49,-708.67 -349.39,-1598.02 -416.46,-2636.28z"/>
  <path class="fil1" d="M79882.73 21850.32c0,-12103.06 -17883.19,-21914.48 -39943.31,-21914.48 -21240.99,0 -38609.45,9096.38 -39870.02,20576.12 -181.85,1657.97 -25.18,3277.14 425.92,4884.67 3696.96,13162.06 25620.17,19046.95 39444.1,19046.95 13922.91,0 37028.73,-6598.87 39690.94,-19441.51 112.37,-542.06 252.37,-1961.56 252.37,-3151.75zm-2309.78 6560.86c-6037.01,10152.94 -25412.94,15353.72 -37633.53,15353.72 -12165.99,0 -30656.42,-4673.37 -37175.32,-14970.12 -1549.27,-2447.09 -2632.04,-6154.08 -1778.8,-9386.5 2799.96,-10607.43 19124.1,-18793.76 38954.12,-18793.76 19863.79,0 36505.09,8076.75 38945.4,18762.25 548.08,2399.86 350.09,6239.39 -1311.87,9034.41z"/>
  <path class="fil2" d="M-2.2 22115.78c489.13,14429.15 22637.52,22327.78 39941.62,22327.78 17304.08,0 40422.02,-9025.53 39931.41,-21984.77l-28.47 8815.92c0,11028.04 -17842.82,21030.49 -39902.94,21030.49 -22060.14,0 -39943.31,-9001.59 -39943.31,-19956.16l1.69 -10233.26z"/>
 </g>
</svg>
