<?xml version="1.0" encoding="UTF-8"?>
<!DOCTYPE svg PUBLIC "-//W3C//DTD SVG 1.1//EN" "http://www.w3.org/Graphics/SVG/1.1/DTD/svg11.dtd">
<!-- Creator: CorelDRAW 2021.5 -->
<svg xmlns="http://www.w3.org/2000/svg" xml:space="preserve" width="816.677mm" height="1109.02mm" version="1.1" style="shape-rendering:geometricPrecision; text-rendering:geometricPrecision; image-rendering:optimizeQuality; fill-rule:evenodd; clip-rule:evenodd"
viewBox="0 0 81667.7 110902.2"
 xmlns:xlink="http://www.w3.org/1999/xlink"
 xmlns:xodm="http://www.corel.com/coreldraw/odm/2003">
 <defs>
  <style type="text/css">
   <![CDATA[
    .fil0 {fill:#D7ECE9;fill-rule:nonzero}
   ]]>
  </style>
 </defs>
 <g id="Layer_x0020_1">
  <metadata id="CorelCorpID_0Corel-Layer"/>
  <g id="_1802254856816">
   <path class="fil0" d="M71359.98 65092.25c-76.4,2673.6 -133.69,5098.92 -171.88,7256.89 -38.19,2177.06 -152.77,3991.28 -343.75,5499.94 -286.45,3208.31 -916.65,6034.67 -1833.31,8517.29 -935.75,2482.61 -1680.54,4144.06 -2215.27,4965.23 -534.71,821.17 -973.94,1413.18 -1317.68,1776.03 -401.05,381.94 -725.69,496.52 -954.86,362.84 -210.07,-114.58 -286.46,-343.74 -210.07,-630.19 0,-76.4 210.07,-1203.12 668.4,-3399.29 439.23,-2177.05 725.69,-4296.83 840.27,-6340.21 114.59,-2043.39 133.68,-4946.14 57.29,-8708.25 -76.39,-3743.03 19.1,-6607.59 267.36,-8574.59 152.78,-1164.91 401.04,-2348.93 763.88,-3590.25 343.75,-1222.2 744.78,-2444.41 1203.11,-3628.43 439.24,-1203.12 916.67,-2329.84 1413.18,-3399.27 515.63,-1050.34 973.96,-2005.19 1375,-2826.37 343.74,-515.62 630.19,-725.69 897.55,-611.1 267.37,114.58 381.95,324.64 343.75,611.1 -76.38,305.55 -171.87,1012.14 -248.26,2100.68 -95.49,1107.63 -190.97,2329.83 -267.35,3704.83 -76.4,1355.88 -133.68,2692.68 -190.98,3991.28 -57.29,1317.7 -76.38,2272.55 -76.38,2921.84z"/>
   <path class="fil0" d="M49651.05 77332.51c-420.14,-1222.22 -668.4,-2444.42 -782.98,-3666.64 -114.58,-1203.11 152.78,-2425.33 782.98,-3666.63 935.76,114.58 1928.8,286.46 2998.23,515.62 1050.34,210.07 1967.01,-496.52 2711.78,-2138.87 324.66,-897.57 553.83,-1890.61 668.41,-3017.34 152.77,-973.95 229.16,-2043.38 229.16,-3246.49l0 -6550.29c0,-592.01 38.19,-1489.57 114.58,-2673.58 114.59,-821.18 343.75,-1776.03 668.4,-2864.56 343.74,-993.06 840.27,-2234.36 1508.66,-3685.74 343.76,-706.59 668.41,-1374.98 954.85,-2024.29 305.56,-630.2 592.01,-1222.21 840.28,-1776.02 343.74,-706.59 649.3,-1374.99 954.85,-1966.99 458.33,-706.59 840.27,-973.96 1184.02,-782.99 210.06,190.98 248.26,649.31 114.58,1394.09 -190.97,744.78 -362.85,1642.35 -515.61,2692.68 -229.17,1012.14 -439.24,2998.23 -668.41,5977.38 -534.71,6951.33 -802.07,10312.41 -802.07,10083.24 -267.36,2234.36 -649.3,4220.45 -1164.92,5920.09 -725.69,2024.29 -1508.66,3781.21 -2348.94,5270.78 -1012.15,1795.12 -2157.97,3265.6 -3418.37,4411.42 -1336.79,1203.12 -2692.69,1795.13 -4029.48,1795.13z"/>
   <path class="fil0" d="M36597.73 52388.02c0,-821.17 687.5,-2597.2 2100.68,-5347.17 1394.09,-2749.97 2291.65,-4105.87 2711.78,-4105.87 821.18,-343.75 2005.2,286.46 3571.15,1871.52 1565.96,1585.05 2406.23,2826.36 2520.81,3723.92 0,1184.02 -649.3,2902.76 -1947.9,5137.11 -1317.69,2234.35 -2272.54,3361.08 -2864.55,3361.08 -229.16,-114.59 -993.05,-611.11 -2310.75,-1489.57 -1336.79,-878.47 -2310.74,-1527.76 -2940.94,-1986.09 -553.82,-362.85 -840.28,-763.89 -840.28,-1164.93z"/>
   <path class="fil0" d="M49612.86 77332.51c-1126.72,-190.98 -1967,-190.98 -2520.81,0 -1947.9,630.19 -3933.99,2730.88 -5996.48,6321.11 -2196.15,3571.15 -4659.67,5366.28 -7371.45,5366.28 -2769.08,-229.16 -4850.65,-1470.48 -6282.93,-3743.02 -1413.18,-2272.55 -2138.87,-5079.81 -2177.07,-8402.7 630.2,-2157.97 1336.8,-4029.48 2119.77,-5614.54 782.99,-1585.05 1699.64,-2673.58 2749.98,-3284.69 0,3743.02 916.65,6435.7 2749.98,8116.24 1374.98,1241.32 2979.14,1852.42 4812.45,1852.42 2520.81,0 4621.49,-1126.73 6263.83,-3361.08 1222.22,-1642.35 2272.55,-2807.27 3151.01,-3513.86 878.47,-725.69 1718.74,-1069.43 2501.72,-1069.43 57.29,152.78 190.97,687.49 381.94,1585.05 190.97,916.66 286.46,1737.84 286.46,2444.43 0,744.77 -76.39,1355.88 -229.16,1833.31 -114.59,458.33 -267.36,935.75 -439.24,1470.48z"/>
   <path class="fil0" d="M75655.06 11.08c248.26,-38.2 346.7,58.32 267.36,286.45 -73.41,211.11 -226.18,536.47 -458.33,935.75 -245.27,421.89 -583.53,889.41 -993.05,1432.28 -411.79,545.86 -739.61,1155.35 -1222.2,1661.45 -3839.49,4026.36 -8058.96,7657.91 -12432.18,11133.58 -362.85,38.2 -202.18,-642.22 630.19,-1909.71 849.38,-1293.35 3170.13,-3647.54 6817.66,-7161.39 3647.52,-3513.85 6111.05,-5633.63 7390.55,-6378.41z"/>
   <path class="fil0" d="M17548.91 94519.86c-114.58,-152.78 -190.97,-305.56 -229.17,-458.34 -76.38,-152.77 -152.76,-324.65 -229.16,-496.52 -95.48,-381.94 -171.87,-782.98 -210.07,-1241.31 -76.38,-439.23 -152.78,-916.66 -229.16,-1394.08 -190.97,-668.4 -114.58,-1279.5 229.16,-1795.13 229.17,-477.43 553.82,-916.65 1012.15,-1279.5l2501.71 -2081.58c2425.33,-2157.96 3991.29,-4965.24 4697.88,-8440.89 267.35,-1203.12 477.43,-2368.04 630.2,-3532.96 152.78,-1107.63 381.94,-3303.79 725.69,-6588.49 190.97,-2692.68 381.94,-4812.45 611.1,-6378.41 401.05,-3475.66 840.27,-5671.82 1279.5,-6607.58l1470.48 -3017.33 2291.64 -4315.94c286.46,-152.78 439.24,76.39 439.24,668.4 -38.2,305.56 -229.16,1279.51 -553.82,2921.85 -305.55,1374.99 -687.49,4029.48 -1184.02,7944.38 -401.03,3991.28 -630.19,7275.97 -668.39,9834.97l-897.56 11038.1c-114.58,553.81 -248.26,1355.89 -439.24,2387.13 -496.51,1604.15 -1145.82,2406.23 -1966.99,2406.23 -592.01,1050.34 -878.47,1565.95 -840.27,1565.95 -821.17,1164.93 -1718.73,2329.85 -2730.88,3475.67 -1203.12,1374.98 -2157.97,2387.13 -2921.85,3017.34 -706.59,649.3 -1623.24,1432.27 -2788.17,2368.04z"/>
   <path class="fil0" d="M37409.85 38718.26c1680.53,-1833.31 4602.39,-4392.32 8784.64,-7696.11 8534.31,-6702.73 17386.71,-14274.37 25431.09,-21615.33 6000.8,-5476.1 9109.29,-8345.41 9338.46,-8612.77 1050.33,-381.94 913.32,618.33 -343.75,3017.34 -1244.72,2375.44 -2501.52,4481.94 -4010.38,6111.06 -11259.69,12157.21 -25810.5,22935.65 -38856.31,33283.62 -1317.7,1069.44 -2406.24,1928.81 -3303.79,2559.01 -1012.15,859.36 -1585.06,1164.92 -1737.84,897.56 668.4,-1852.41 1355.89,-3399.27 2062.48,-4583.29 706.59,-1222.21 1585.05,-2348.94 2635.4,-3361.09z"/>
   <path class="fil0" d="M20012.44 95188.25c-1317.7,3609.34 -2520.82,6282.93 -3647.54,8001.66 -1107.63,1718.74 -1986.1,2769.08 -2616.3,3189.21 -649.3,401.04 -1585.06,840.27 -2864.56,1317.69 -1260.4,458.33 -3189.2,1107.64 -5786.4,1947.91 -2597.2,840.27 -4124.96,1260.4 -4621.49,1260.4 -286.46,0 -439.23,-76.38 -439.23,-229.16 -305.56,-401.05 1241.3,-1756.93 4640.58,-4029.48 3399.28,-2272.55 5595.44,-3762.12 6569.39,-4468.71 993.04,-706.59 2005.19,-1737.84 3017.33,-3112.82 1031.25,-1355.89 1795.12,-2902.75 2272.55,-4602.39 -515.61,-76.39 -1050.34,19.1 -1585.05,305.55 -553.82,267.36 -1088.53,420.14 -1604.16,420.14 -1374.98,-38.2 -2539.9,-496.53 -3475.65,-1355.9 -916.67,-840.27 -1317.7,-1795.11 -1164.93,-2845.46 152.78,-630.19 362.84,-1374.98 649.3,-2215.25 267.36,-840.27 859.37,-2177.06 1756.93,-3991.28 897.55,-1833.33 1795.12,-3341.99 2711.78,-4526.01 916.65,-1203.11 1814.22,-1795.12 2711.78,-1795.12 1527.76,0 2807.26,649.3 3838.51,1947.9 1031.24,1317.7 1527.76,2883.65 1527.76,4697.87 0,935.76 -57.29,1871.51 -152.78,2769.08 -114.58,916.66 -248.26,1680.53 -362.84,2310.74 -133.68,611.11 -324.65,1394.08 -572.91,2348.93 -229.16,935.76 -515.62,1833.33 -802.07,2654.5z"/>
  </g>
 </g>
</svg>
