<?xml version="1.0" encoding="UTF-8"?>
<!DOCTYPE svg PUBLIC "-//W3C//DTD SVG 1.1//EN" "http://www.w3.org/Graphics/SVG/1.1/DTD/svg11.dtd">
<!-- Creator: CorelDRAW 2021.5 -->
<svg xmlns="http://www.w3.org/2000/svg" xml:space="preserve" width="578.838mm" height="661.165mm" version="1.1" style="shape-rendering:geometricPrecision; text-rendering:geometricPrecision; image-rendering:optimizeQuality; fill-rule:evenodd; clip-rule:evenodd"
viewBox="0 0 57883.8 66116.5"
 xmlns:xlink="http://www.w3.org/1999/xlink"
 xmlns:xodm="http://www.corel.com/coreldraw/odm/2003">
 <defs>
  <style type="text/css">
   <![CDATA[
    .fil6 {fill:#28A73E}
    .fil8 {fill:#2A8D38}
    .fil7 {fill:#2C7B33}
    .fil9 {fill:#4AAC5B}
    .fil4 {fill:#837B18}
    .fil3 {fill:#8E8616}
    .fil2 {fill:#AFA60A}
    .fil1 {fill:#B7AD06}
    .fil5 {fill:#D3C80C}
    .fil0 {fill:#E8DE02}
   ]]>
  </style>
 </defs>
 <g id="Layer_x0020_1">
  <metadata id="CorelCorpID_0Corel-Layer"/>
  <g id="_2126956828784">
   <path class="fil0" d="M37905.9 0.51l19933.1 9899.14 37.62 5531.73 -26849.58 13516.28 -11063.55 18.77 -19933.1 -9899.13 -37.53 -5531.78 26849.58 -13516.28 11063.46 -18.73zm-2510.78 3060.2l-6000.32 10.18 -23281.5 11720.06 20.37 3000.15 16340.69 8115.09 6000.31 -10.18 23281.49 -11720.06 -20.35 -3000.15 -16340.69 -8115.09z"/>
   <polygon class="fil1" points="30.44,19067.28 19963.44,28966.43 31027.02,28947.66 57847.17,15446.32 57876.66,19772.36 31027.02,33288.62 19963.44,33307.39 30.44,23408.23 "/>
   <polygon class="fil2" points="42021.58,23413.04 45183.52,21821.16 53031.18,42963.12 49295.78,52045.4 45560.27,61127.82 36542.12,63622.37 27523.99,66117.04 18505.74,60562.7 9487.59,55008.22 5752.19,44658.49 2016.68,34308.76 5402.69,26076.31 8749.93,27738.6 5784.81,34948.02 8968.41,43768.8 12152.01,52589.58 19837.95,57323.47 27523.99,62057.33 35209.91,59931.26 42895.82,57805.18 46079.45,50064.47 49263.16,42323.86 "/>
   <polygon class="fil3" points="56007.02,41124.06 48536.13,59288.76 45560.27,61127.82 53031.18,42963.12 "/>
   <polygon class="fil4" points="10592.84,28653.79 8749.93,27738.6 5784.81,34948.02 12097.52,52721.84 27469.48,62189.58 42841.33,57937.44 43312.69,56791.19 30824.65,60245.71 15073.36,50882.78 8705.92,33241.22 "/>
   <polygon class="fil5" points="45183.52,21821.16 48447.21,20178.27 56007.02,41124.06 53031.18,42963.12 "/>
   <polygon class="fil6" points="33758.46,3922.91 29901.46,3953.24 12181.37,12873.66 12146.77,14802.38 24110.95,20744 27968.04,20713.63 45688.13,11793.2 45722.64,9864.53 "/>
   <polygon class="fil7" points="8899.84,15129.46 12181.33,12873.66 12146.77,14802.36 8858.57,17435.93 "/>
   <polygon class="fil8" points="8858.57,17435.93 12146.77,14802.36 24110.88,20743.98 23166.1,24541.36 "/>
   <polygon class="fil8" points="23166.1,24541.36 24110.88,20743.98 27968.06,20713.54 27778.66,24505.02 "/>
   <polygon class="fil9" points="45722.64,9864.53 49010.86,11531.02 48969.59,13837.35 45688.11,11793.12 "/>
   <polygon class="fil9" points="45688.11,11793.12 27968.06,20713.54 27778.66,24505.02 48969.59,13837.35 "/>
  </g>
 </g>
</svg>
