<?xml version="1.0" encoding="UTF-8"?>
<!DOCTYPE svg PUBLIC "-//W3C//DTD SVG 1.1//EN" "http://www.w3.org/Graphics/SVG/1.1/DTD/svg11.dtd">
<!-- Creator: CorelDRAW 2021.5 -->
<svg xmlns="http://www.w3.org/2000/svg" xml:space="preserve" width="804.628mm" height="743.502mm" version="1.1" style="shape-rendering:geometricPrecision; text-rendering:geometricPrecision; image-rendering:optimizeQuality; fill-rule:evenodd; clip-rule:evenodd"
viewBox="0 0 80462.8 74350.18"
 xmlns:xlink="http://www.w3.org/1999/xlink"
 xmlns:xodm="http://www.corel.com/coreldraw/odm/2003">
 <defs>
  <style type="text/css">
   <![CDATA[
    .fil0 {fill:#D7ECE9;fill-rule:nonzero}
   ]]>
  </style>
 </defs>
 <g id="Layer_x0020_1">
  <metadata id="CorelCorpID_0Corel-Layer"/>
  <g id="_1801701541504">
   <path class="fil0" d="M66858.19 4948.93c2482.28,0 4798.27,-450.77 6912.26,-1361.55 1247.32,-537.21 2393.19,-1175.86 3430.55,-1878.91 1047.96,-710.1 1746.59,-1162.19 2102.53,-1379.18 351.08,-213.92 655.41,-327.27 879.47,-327.27 206.86,0 291.98,172.45 275.66,516.91 -17.64,362.12 -190.98,764.81 -465.32,1241.14 -639.53,1110.15 -1490.78,2301 -2654.73,3568.16 -1163.51,1266.73 -2530.35,2420.09 -4119.92,3448.2 -2461.55,1591.34 -4671.25,2722.65 -6619.85,3395.27 -1947.27,672.17 -4396.47,980.03 -7325.54,844.62 -1174.09,-54.25 -2203.96,-283.6 -3102.83,-551.32 -894.04,-266.84 -1983.44,-491.78 -3274.86,-672.61 -1294.07,-181.28 -2447.43,-135.41 -3430.55,172.89 -999.44,312.71 -1848.48,683.64 -2533.89,1155.13 -693.34,476.79 -1322.73,953.57 -1912.86,1448.44 -582.2,487.8 -1034.73,619.68 -1345.24,430.47 -172,-241.7 -17.64,-758.62 431.36,-1568.84 448.12,-809.78 1067.36,-1624.86 1792.91,-2482.72 1635.88,-1934.04 3449.07,-3582.27 5498.67,-4895.3 2363.19,-1514.16 4395.59,-2275.43 6119.24,-2275.43 569.4,0 2272.78,288.46 5102.17,810.67 1376.53,253.61 2792.78,361.23 4240.77,361.23z"/>
   <path class="fil0" d="M61223.57 26531.26c-52.42,2257.66 -113.51,4306.48 -145.29,6129.12 -32.6,1839.15 -161.79,3367.93 -290.98,4645.76 -274.05,2707.13 -766.86,5100.17 -1548.17,7194.39 -783.37,2100 -1419.4,3500.41 -1870.93,4193.81 -452.36,694.22 -814.74,1201.89 -1113.15,1500.71 -331.01,330.6 -611.67,416.45 -806.48,306.66 -176.24,-99.88 -229.07,-288.09 -177.48,-532.84 13.21,-63.15 182.84,-1014.51 564.21,-2870.99 376.83,-1838.33 613.33,-3629.6 710.32,-5355.66 96.58,-1725.65 112.68,-4178.12 48.29,-7355.36 -64.39,-3161.97 12.79,-5581.84 225.77,-7242.69 126.29,-984.37 343.81,-1983.19 645.1,-3032.37 295.93,-1031.42 639.33,-2061.2 1016.57,-3064.97 380.54,-1013.68 764.39,-1972.88 1193.63,-2871.41 425.95,-892.33 785.44,-1713.26 1161.44,-2387.67 255.07,-457.72 531.6,-612.91 757.78,-515.92 225.77,96.58 336.8,276.12 290.57,515.92 -50.77,261.26 -138.27,855.6 -210.08,1774.35 -73.47,936.08 -160.15,1968.34 -225.36,3129.77 -64.38,1145.35 -114.33,2273.77 -161.79,3370.82 -48.7,1113.14 -51.59,1919.63 -63.97,2468.57z"/>
   <path class="fil0" d="M45194.05 46431.89c-1103.66,3062.09 -2123.12,5310.67 -3064.57,6758.96 -945.99,1455.72 -1690.15,2344.75 -2226.29,2693.51 -528.3,344.22 -1337.27,714.45 -2419.46,1113.15 -1063.21,391.69 -2693.93,935.67 -4887.62,1645.58 -2193.69,709.49 -3484.31,1064.85 -3903.65,1064.85 -241.45,0 -371.05,-64.79 -371.05,-193.98 -257.55,-338.86 1048.35,-1484.61 3919.34,-3403.42 2872.23,-1920.05 4724.17,-3181.37 5549.64,-3774.88 835.79,-600.53 1702.54,-1461.08 2564.74,-2613.03 864.27,-1154.83 1499.88,-2452.06 1902.71,-3903.65 -435.43,-64.8 -887.79,29.3 -1338.09,257.96 -468.86,238.56 -903.47,364.03 -1355.01,354.95 -1161.43,-23.11 -2141.68,-407.37 -2919.69,-1129.25 -786.26,-730.13 -1157.31,-1537.02 -1000.06,-2403.36 100.71,-554.3 313.68,-1158.96 548.12,-1871.34 233.19,-707.43 729.3,-1837.09 1484.19,-3371.22 761.5,-1546.94 1520.11,-2819.81 2290.69,-3823.17 778,-1013.27 1532.9,-1515.98 2289.85,-1515.98 1291.04,0 2375.71,545.22 3242.87,1645.16 875,1110.26 1306.72,2435.97 1306.72,3968.04 0,789.98 -48.29,1565.1 -145.28,2339.39 -96.58,773.88 -193.58,1419.4 -306.67,1935.32 -112.67,516.33 -281.48,1175.47 -483.72,1984.02 -201.42,804.83 -426.36,1545.69 -677.71,2242.39z"/>
   <path class="fil0" d="M9560.51 70626.04c0,-403.24 642.63,-1825.12 1935.73,-4258.61 1286.91,-2420.69 2081.01,-3629.18 2355.07,-3629.18 548.53,-226.18 1315.39,169.22 2338.97,1161.44 1024.41,991.8 1806.55,1854.42 2355.07,2612.62 629.01,-1032.26 1323.65,-2210.2 2097.11,-3500 774.3,-1290.22 1274.12,-1936.15 1532.49,-1936.15 790.39,0 1722.35,585.68 2806.6,1726.48 1092.93,1149.05 1697.17,2224.23 1726.06,3242.04 34.26,1192.39 -579.89,2613.85 -1741.74,4258.6 -1128.01,1596.88 -1968.34,2403.77 -2500.77,2403.77 -354.95,0 -988.5,-448.23 -1903.53,-1371.1 -906.78,-915.45 -1709.97,-1629.9 -2403.36,-2129.31 -1693.87,3435.62 -3048.88,5145.58 -4065.04,5145.58 -257.96,0 -604.65,-204.72 -1080.54,-613.33 -442.86,-380.54 -1132.96,-931.95 -2064.91,-1693.45 -921.64,-753.66 -1387.21,-1226.24 -1387.21,-1419.4z"/>
   <path class="fil0" d="M7537.38 23378.64c0,-769.55 652.3,-2431.44 1969.71,-5012.66 1313.74,-2573.43 2147.43,-3849.16 2541.36,-3849.16 770.49,-322.02 1880.85,269.35 3348.04,1754.87 1467.2,1485.06 2317.38,2643.98 2363.65,3490.95 60.46,1107.15 -616.11,2718.18 -1844.2,4815.69 -1223.96,2090.17 -2113.08,3150.6 -2667.34,3150.6 -215.29,-107.19 -930.33,-575.8 -2184.53,-1396.19 -1233.13,-807.12 -2136.44,-1450.71 -2739.26,-1861.6 -524.5,-357.3 -787.43,-716.42 -787.43,-1092.5z"/>
   <path class="fil0" d="M29841.1 28935.2c-1522.58,5628.89 -3329.12,8924.99 -5290.44,9888.73 -2731.9,1342.22 -4428.24,2199.88 -5016.8,2645.23 -604.66,457.31 -995.52,830.83 -1177.54,1080.54 -640.15,879.12 -1269.16,2005.48 -1839.15,3403.42 -1074.35,2634.9 -1856.9,4684.55 -2516.04,6098.17 -1018.21,2183.78 -2571.34,3748.87 -4629.65,4629.24 -957.96,409.43 -2261.79,690.92 -3871.88,999.64 -1664.56,319.46 -2968.8,465.57 -3919.33,516.75 -826.71,44.57 -1379.37,-79.66 -1564.68,-565.04 -105.66,-276.94 264.97,-668.21 951.76,-1177.12 248.47,-184.49 1125.12,-807.31 2596.94,-1903.95 173.35,-128.77 1312.08,-853.95 3403.83,-2209.78 1666.62,-1080.13 2403.36,-1628.66 2306.78,-1564.27 1838.74,-1452.01 3105.42,-2573.82 3790.56,-3403.42 234.44,-283.55 945.17,-1858.96 2226.3,-4727.06 1283.19,-2873.47 2261.79,-4722.94 2919.28,-5580.6 664.92,-867.98 1686.85,-1811.5 3129.77,-2693.93 510.56,-312.03 1443.75,-773.88 2774,-1452 1170.1,-595.99 1990.62,-1057.84 2468.16,-1467.69 441.63,-379.72 989.74,-1199.82 1693.87,-2468.16 683.07,-1231.19 1182.9,-1854.01 1468.1,-1790.86 298.82,66.45 379.71,692.57 96.16,1742.16z"/>
  </g>
 </g>
</svg>
