<?xml version="1.0" encoding="UTF-8"?>
<!DOCTYPE svg PUBLIC "-//W3C//DTD SVG 1.1//EN" "http://www.w3.org/Graphics/SVG/1.1/DTD/svg11.dtd">
<!-- Creator: CorelDRAW 2021.5 -->
<svg xmlns="http://www.w3.org/2000/svg" xml:space="preserve" width="484.838mm" height="1151.71mm" version="1.1" style="shape-rendering:geometricPrecision; text-rendering:geometricPrecision; image-rendering:optimizeQuality; fill-rule:evenodd; clip-rule:evenodd"
viewBox="0 0 48483.8 115171.5"
 xmlns:xlink="http://www.w3.org/1999/xlink"
 xmlns:xodm="http://www.corel.com/coreldraw/odm/2003">
 <defs>
  <style type="text/css">
   <![CDATA[
    .fil1 {fill:#ffd500}
    .fil0 {fill:#ffd500}
   ]]>
  </style>
 </defs>
 <g id="Layer_x0020_1">
  <metadata id="CorelCorpID_0Corel-Layer"/>
  <g id="_1498226091616">
   <path class="fil0" d="M24237.98 19350.72c1503.27,0 2721.9,1218.64 2721.9,2721.91 0,1503.26 -1218.63,2721.89 -2721.9,2721.89 -1503.26,0 -2721.89,-1218.63 -2721.89,-2721.89 0,-1503.27 1218.63,-2721.91 2721.89,-2721.91zm-19471.99 64307.31c63.59,-685.94 -777.63,-1454.4 -1214.9,-1848.1 -454.37,-409 -934.22,-790.14 -1398.74,-1187.66 -450.87,-385.91 -916.38,-804.44 -1280.81,-1274.35 -158.44,-204.27 -141.83,-489.9 39.28,-674.32l3752.67 -3823.16c-1690.13,-633.95 -3004.37,-1822.08 -3712.83,-3618.11 -339.11,-859.72 -489.06,-1947.11 -583.11,-2863.67 -126.33,-1231 -168.87,-2482.63 -175.53,-3719.71 -6.7,-1255.46 26.59,-2514.18 96.31,-3767.6 53.54,-964.06 124.51,-1943.65 250.14,-2901.86 -395.55,-1004.91 -542.42,-2088.08 -542.42,-3164.23l0.1 -4597.38c7.54,-3147.65 1270.74,-5808.31 3791.23,-7702.54 1491.04,-1120.48 3435.23,-1946.07 5326.9,-2282.97 -796.41,-1176 -872.04,-2327.36 -603.51,-3918.29 592.32,-3509.49 3569.5,-6840.97 6410.79,-8806.35 1287.69,-890.69 2833.88,-1547.88 4391.25,-1840.92 -736.73,-1007.88 -1171.99,-2250.12 -1171.99,-3594.18 0,-3367.39 2729.78,-6097.16 6097.16,-6097.16 3367.38,0 6097.16,2729.77 6097.16,6097.16 0,2904.64 -2031.24,5334.63 -4750.68,5947.68 741.41,1236.7 1056.55,2701.31 1111.13,4176.58 67.94,1836.44 -257.12,3809.94 -797.21,5564.99 -172.1,559.27 -712.43,1221.08 -1277.08,1404.78 -434.36,141.3 -859.73,-24.89 -1037.29,-458.19 -160.34,-391.3 -74.88,-922.52 20.39,-1327.07 126.81,-1206.45 182.8,-2378.48 -99.99,-3569.25 -264.19,-1112.6 -1235.81,-1639.34 -2308.6,-1782.16 -1841.54,-245.22 -3986.51,564.18 -5584.4,1406.11 -1335.09,703.45 -2594,1591.37 -3580.49,2739.8 409.57,182.61 1154.99,348.79 1364.8,393.32 1114.43,236.19 2247.38,398.84 3365.63,623.24 2236.94,448.84 3861.96,2067.53 4873.28,4046.84 351.27,687.54 636.52,1434.72 848.35,2208.71 25.97,-17.05 53.92,-32.06 83.75,-44.91 5847.69,-2519.68 18562.81,-3180.41 22500.07,2904.18 614.18,949.16 1096.31,2062.63 1096.31,3210.98l0 5430.62c0,1561.32 -896.71,2771.22 -2279.68,3428.88 -65.99,31.39 -132.66,61.37 -199.83,89.9 633.66,130.45 1159.94,503.75 1522.01,1135.2 482.64,841.55 571.82,1964.34 537.36,2915.37 -59.92,1655.33 -552.48,3774.15 -1311.97,5401.4 764.02,-113.03 1512.99,-309.34 2217.48,-572.73 289.41,-108.2 695.91,-186.29 1005.29,-171.24 693.35,33.61 1033.88,583.68 691.89,1212.45 -1174.63,2159.69 -2711.38,3592.3 -5184.19,3997.27 -902.16,147.73 -1815.38,150.24 -2726.85,158.73 -848.53,7.89 -1711.76,19.83 -2546.97,184.54 -1200.7,236.69 -2310.74,749.54 -3123.48,1673.01 -23.9,1037.89 185.3,2108.32 590.57,3059.64 1027.93,2413 2680.48,4142.55 4427.56,6032.91 1683.14,1821.19 3228.9,3613.39 3769.61,6105.37 542.7,2500.85 396.11,5153.62 -599.81,7524.78 -805.16,1916.8 -2389.2,3185.89 -4244.29,4191.41 -1455.78,616.69 -3492.87,590.05 -4941.42,74.36 -930.35,1845.31 -2517.42,4242.11 -3888.92,5745.24 -3486.82,3821.5 -9088.12,7528.76 -14312.09,7992.57 -2418.32,214.76 -4794.72,-294.22 -6629.18,-1952.35 -2180.38,-1970.57 -3035.29,-5027.86 -3325.97,-7868.68 -2637.25,-1405.03 -3974.1,-3957.75 -4470.8,-6847.54 -136.97,-796.65 -205.43,-1631.92 -262.7,-2438.06 -72.32,-1017.46 -117.75,-2038.46 -147.91,-3058.04 -29.09,-982.85 -44,-1967.65 -37.39,-2950.92 4.62,-696.99 11.14,-1422.92 74.5,-2117.07 12.51,-137.57 75.16,-257.5 173.08,-341.72l3826.98 -3895.53zm1637.2 117.17c357.02,357.68 760.35,692.99 1135.77,1009.86 574.01,484.3 1163.3,968.98 1686.36,1508.52 264.15,272.46 531.04,580.09 743.68,915.76l5.19 -32.53c1.56,-9.91 3.17,-18.32 5.3,-28.13 252.85,-1165.47 680.04,-2340.25 1158.05,-3431.02 572.68,-1306.96 1262.82,-2579.98 2050.96,-3769.48 1483.88,-2239.63 3632.34,-4633.49 6234.46,-5537.65 1328.35,-461.54 2691.44,-600.67 3846.05,-91.74 -631.5,-1494.43 -1476.16,-2864.95 -2583.61,-4083.52 -1134.69,854.34 -2314.75,1662.7 -3532.95,2389.62 -1077.23,642.78 -2251.1,1269.42 -3434.09,1692.72 -2094.55,749.5 -4516.26,1256.16 -6782.43,1039.47 128.18,111.08 256.17,218.82 380.2,322.97 549.59,461.77 1119.52,915.11 1626.49,1423.86 460.46,462.1 923.6,1028.03 1075.25,1676.91 179.45,767.66 -121.48,1435.52 -658.85,1982.95l-2955.83 3011.43zm-3984.95 5980.88c66.76,2083.51 273.88,4344.18 1081.91,6184.59 1050.83,2393.36 2921.61,3555.42 5499.03,3893.64 2770.29,363.59 5837.21,-413.24 8357.84,-1532.49 3043.45,-1351.29 5827.81,-3407.22 8030.57,-5909.3 -701.51,-599.67 -2018.68,-750.33 -2826.04,-809.63 -840.75,-61.81 -1693.16,-58.26 -2535.7,-40.65 -919.16,19.26 -1837.85,59.02 -2756.84,84.8 -892.58,25.06 -1790.79,39.65 -2682.98,-1.89 -778.91,-36.21 -1592.31,-114.83 -2346.76,-318.21 -1023.73,-276.01 -1843.34,-780.84 -2227.02,-1615.21 -83.81,117.84 -179.78,231.39 -286.82,340.35 -10.53,10.82 -19.96,19.6 -31.44,29.5l-4622.54 3978.97 -9.12 9.15c-198.47,200.65 -523.81,202.82 -724.97,4.87 -201.22,-197.96 -204.39,-523.21 -6.99,-725.03l28.47 -29.14c671.2,-686.36 439.53,-1247.99 -133.09,-1908.81 -370.9,-427.93 -826.45,-814.59 -1259.71,-1178.4 -181.81,-152.64 -365.32,-304.19 -547.8,-457.11zm33310.46 -20219.93c-1087.76,-1549.06 -862.23,-3181.68 -191.87,-5001.69 977.01,-2652.79 2713.35,-4698.99 5225.54,-5624.01 -550.77,-39.18 -1095.64,-139.08 -1613.47,-289.35 -1909.71,-554.23 -3517.27,-1778.28 -4649.16,-3403.59 -1510.55,-2169.1 -2060.33,-4840.85 -2078.41,-7448.22 -1339.77,-8.07 -2690.73,87.9 -4016.35,293.81 821.15,1033.13 1612.9,2134.15 2215.36,3288.38 595.53,1141.07 1002.13,2345.43 1023.04,3642.67 15.62,971.24 -190.4,1883.83 -528.11,2790.78 -9.54,25.58 -19.12,51.09 -28.85,76.67 148.38,-192.58 415.37,-256.84 638.02,-144.28 243.43,123.08 348.09,414.18 238.74,664.08 -1334.52,3049.45 -1982.83,6198.43 -1885.35,9527.61 85.88,2933.78 740.99,5766.67 1642.97,8547.91 181.82,560.83 373.36,1117.7 571.27,1672.05 -448.19,-3360.77 347.1,-7120.14 3436.63,-8592.82zm-136.58 26485.54c-336.29,1309.37 -773.19,2595.6 -1293.32,3844.07 1270.56,447.66 2605.28,375.19 3794.3,-340.49 1492.51,-898.35 2371.92,-2550.52 2782.76,-4196.23 633.11,-2535.97 -809.44,-4586.85 -2341.08,-6459.84 -941.45,-1151.2 -1941.31,-2250 -2859.24,-3421.89 -479.15,-611.78 -934.47,-1239.65 -1348.7,-1892.63 86.64,235.21 172.37,470.8 256.98,706.86 807.46,2251.76 1557.9,4664.51 1692.4,7070.13 24.78,66.11 36.21,138.29 31.81,213.35 -4.76,81.4 -10,162.79 -15.72,244.14 33.91,1428.87 -167.88,2817.88 -667.66,4161.94 -9.16,24.61 -18.47,44.95 -31.08,67.94l-1.45 2.65zm6992.24 -27999.23c410.97,-995.61 784.81,-2276.04 553.13,-3307.71 -152.02,-677.1 -552.6,-1156.49 -1213.29,-1369.98 -719.27,-232.42 -1559.97,-94.05 -2247.32,181.05 -813.14,325.38 -1540.62,880.41 -2075.95,1574.37 132.01,1277.08 1572.67,2128.36 2661.98,2501.66 743.12,254.7 1527.72,388.98 2321.45,420.61zm-19803.8 -23178.32c139.74,907.8 177.8,1825.03 103.11,2702.64 -105.09,1234.3 -458.89,2598.72 -1280.77,3558.55 -856.98,1000.69 -2026.88,1329.85 -3310.24,1058.24 -2259.27,-478.21 -3683.32,-1638.2 -4899.11,-3544.14 -376.42,-590.29 -717.48,-1248.5 -1134.08,-1805.75 -263.58,-352.62 -581.68,-690.23 -1035.34,-764.3 -628.58,-102.55 -1442.89,-27.54 -2066.98,72.89 -1022.42,164.53 -2039.26,481.04 -2971.22,932.61 -2472.2,1197.82 -4097.27,3207.09 -4769.57,5861.58 494.49,1528.19 1450.01,2635.54 2784.46,3518.21 1476.64,976.77 3292.59,1610.72 4968.7,2155.21 3973.24,1290.77 8049.36,2334.25 11303.28,5087.97 1614.88,-1237.62 3172.87,-2597.74 4590.64,-4051.43 1243.12,-1274.62 2498.35,-2736.11 3413.26,-4283.38 -717.52,-1081.09 -1549.35,-2109.66 -2409.17,-3075.14 -761.48,-854.9 -1566.77,-1685.16 -2402.93,-2467.55 -113.55,-106.24 -169.07,-242.77 -162.08,-398.1 70.26,-1556.66 14.3,-3176.58 -721.96,-4558.11zm6491.8 16600.63c-680.89,1121.57 -1514.32,2179.02 -2379.76,3155.36 -980.91,1106.73 -2043.98,2151.05 -3148.59,3136.32 1703.78,3131.4 2206.92,6846.68 2206.92,10365.29l0 5987.19c0,271 -209.39,494.59 -479.83,512.34 -270.42,17.75 -507.23,-176.52 -542.7,-445.21 -403.93,-3062.81 -2203.88,-3947.12 -5234.31,-2932.98 -2202.89,737.22 -4358.58,2950.64 -5827.85,4782.36 225.58,254.76 1360.73,324.35 1535.84,333.51 715.73,37.39 1445.1,19.03 2161.4,-2.65 858.44,-26.01 1716.43,-63.59 2575.11,-84.12 1653.31,-39.62 3524.07,-45.9 5136.83,337.27 1427.72,339.17 2796.06,1050.79 3133.86,2597.4 5.57,25.39 8.74,47.45 10.57,73.41l276.1 3912.77c8.45,119.64 -19.83,224.91 -87.1,324.16 -2501.57,3691.53 -5832.21,7145.11 -9560.1,9609.33 -2853.8,1886.43 -6675.73,3637 -10183.17,3176.63 -104.77,-13.73 -209.3,-28.85 -313.69,-45.46 708.93,1025.1 1634.33,1842.81 2820.38,2359.31 1482.78,645.53 3140.1,719.32 4723.73,496.15 3780.66,-532.73 7671.52,-2782.8 10560.64,-5223.55 1512.91,-1278.07 3037.45,-2669.4 4213.7,-4272.15 1013.06,-1380.42 1687.86,-2835.71 2251.05,-4444.83 -225.54,-2474.98 -722.86,-4860.54 -1474.09,-7229.78 -643.03,-2027.83 -1452.33,-3970.72 -2253.7,-5937.9 -743.82,-1826.15 -1465.21,-3666.23 -1922.93,-5588.49 -494.13,-2074.77 -642.23,-4112.48 -411.22,-6235.53 203.72,-1872.14 519.29,-3680.68 1049,-5490.92 322.55,-1102.07 713.69,-2176.36 1163.91,-3225.23zm-13345.24 5270.16c-1235.54,-628.73 -2526.73,-1144.04 -3830.34,-1614.08 -1533.43,-552.89 -3090.72,-1040.88 -4618.19,-1608.83 -1933.14,-718.8 -3922.26,-1598.22 -5357.59,-3057.38 -50.33,603.78 -89.32,1208.95 -104.29,1813.17 -19.31,781.06 -7.66,1664.82 167.22,2428.56 428.5,1872.04 1254.09,3593.52 3178.01,4247.41 2364.74,803.73 5766.63,-200.8 8010.45,-1003.69 867.38,-310.32 1733.9,-741.08 2554.73,-1205.16zm18656.51 -18839.45c939.09,1979.11 2510.34,3571.74 4648.22,4263.92 1425.27,461.5 3297.98,507.33 4612.31,-341.44 -2040.92,-2563.22 -6039.76,-3617.12 -9260.53,-3922.48zm-14247.08 -1831.91c-722.67,-1360.37 -2139.35,-2684.32 -3627.42,-2982.88 -750.05,-150.47 -1519.04,-254.76 -2275.83,-368.83 -263.03,-39.65 -536.34,-78.7 -811.01,-121.99 1280.09,1715.67 2987.8,3348.39 5062.66,3787.46 577.95,122.37 1149.74,-31.86 1651.6,-313.76z"/>
   <path class="fil1" d="M28122.75 20445.57c941.31,-5429.14 1918.07,-10340.66 4572.68,-15776.24 136.28,2407.92 -1092.45,5575.64 -2299.77,7813.45 2092.06,-1277.13 4308.78,-7351.42 3118.17,-10260.69 -474,-1158.59 -4916.14,-2255.01 -9131.84,-2218.24 -4215.7,36.78 -8657.84,1059.65 -9131.84,2218.24 -1190.62,2909.27 1026.1,8983.56 3118.17,10260.69 -1207.34,-2237.81 -2436.07,-5405.53 -2299.78,-7813.45 2654.61,5435.58 3631.37,10347.1 4572.68,15776.24 1092.58,1008.68 6388.96,1008.68 7481.53,0z"/>
  </g>
 </g>
</svg>
