<?xml version="1.0" encoding="UTF-8"?>
<!DOCTYPE svg PUBLIC "-//W3C//DTD SVG 1.1//EN" "http://www.w3.org/Graphics/SVG/1.1/DTD/svg11.dtd">
<!-- Creator: CorelDRAW 2021.5 -->
<svg xmlns="http://www.w3.org/2000/svg" xml:space="preserve" width="300mm" height="300mm" version="1.1" style="shape-rendering:geometricPrecision; text-rendering:geometricPrecision; image-rendering:optimizeQuality; fill-rule:evenodd; clip-rule:evenodd"
viewBox="0 0 30000 30000"
 xmlns:xlink="http://www.w3.org/1999/xlink"
 xmlns:xodm="http://www.corel.com/coreldraw/odm/2003">
 <defs>
  <style type="text/css">
   <![CDATA[
    .fil0 {fill:#ffd500}
   ]]>
  </style>
 </defs>
 <g id="Layer_x0020_1">
  <metadata id="CorelCorpID_0Corel-Layer"/>
  <path class="fil0" d="M14905.3 3411c6341.12,0 9959.51,3880.9 11076.4,8041.95 814.1,2751.8 -993.56,7519.69 -455.85,8306.4l2183.85 250.11c1002.22,5.53 914.16,40 1380.05,-962.48 876.78,-1886.53 1108.84,-5897.95 388.6,-7918.27 -423.53,-1188.01 -1623.09,-703.29 -1966.4,-1979.16 -1273.77,-4733.75 -5392.23,-9146.62 -12606.65,-9146.62 -7214.42,0 -11332.88,4412.87 -12606.65,9146.62 -343.31,1275.87 -1542.87,791.15 -1966.4,1979.16 -720.24,2020.32 -488.18,6031.74 388.6,7918.27 465.89,1002.48 377.83,968.01 1380.05,962.48l2183.85 -250.11c537.71,-786.71 -1269.95,-5554.6 -455.85,-8306.4 1116.89,-4161.05 4735.28,-8041.95 11076.4,-8041.95zm0 26591.92c3528.22,0 6698.61,-4197.15 8345.43,-8784.22 -1957.18,915.17 -4221.93,1556.42 -6359.8,1612.19 -329.94,604.52 -971.6,1016.88 -1704.87,1016.88l-1953.16 0c-1067.51,0 -1940.81,-873.95 -1940.81,-1942.23 0,-1068.28 873.3,-1942.23 1940.81,-1942.23l1953.16 0c762.87,0 1426.36,446.36 1743.07,1090.95 2146.53,-73.38 4466.8,-831.96 6315.26,-1826.59l764.51 -430.46c318.41,-1386.04 506.67,-2733.85 512.27,-3949.85 0,-4223.3 -3090.93,-9117.47 -9615.87,-9117.47 -6524.94,0 -9615.87,4894.17 -9615.87,9117.47 0,5982.18 4464.22,15155.56 9615.87,15155.56z"/>
 </g>
</svg>
