<?xml version="1.0" encoding="UTF-8"?>
<!DOCTYPE svg PUBLIC "-//W3C//DTD SVG 1.1//EN" "http://www.w3.org/Graphics/SVG/1.1/DTD/svg11.dtd">
<!-- Creator: CorelDRAW 2021.5 -->
<svg xmlns="http://www.w3.org/2000/svg" xml:space="preserve" width="791.448mm" height="690.25mm" version="1.1" style="shape-rendering:geometricPrecision; text-rendering:geometricPrecision; image-rendering:optimizeQuality; fill-rule:evenodd; clip-rule:evenodd"
viewBox="0 0 79144.8 69025"
 xmlns:xlink="http://www.w3.org/1999/xlink"
 xmlns:xodm="http://www.corel.com/coreldraw/odm/2003">
 <defs>
  <style type="text/css">
   <![CDATA[
    .fil0 {fill:#D7ECE9;fill-rule:nonzero}
   ]]>
  </style>
 </defs>
 <g id="Layer_x0020_1">
  <metadata id="CorelCorpID_0Corel-Layer"/>
  <path class="fil0" d="M3563.96 22513.72c-48.17,1035.77 -173.35,1971.76 -335.81,2812.33 -159.34,824.46 -372.02,1541.73 -643.62,2126.72 -274.08,590.35 -626.34,1026.15 -1049.37,1315.22 -416.52,284.61 -937.44,391.77 -1539.08,307.82 27.99,-2126.73 245.72,-5107.64 671.6,-8912.68 427.6,-3820.41 925.67,-8058.8 1916.85,-12648.46 297.96,-1379.68 1305.58,-3711.64 2658.42,-7093.76 130.32,-325.8 279.84,-461.73 433.75,-405.76 153.9,55.95 233.8,182.11 223.86,405.76 -74.02,1665.47 -419.75,4855.11 -1021.39,9556.3 -601.63,4701.19 -972.48,7919.78 -1105.35,9668.22 -132.95,1749.5 -202.07,2700.59 -209.86,2868.29zm0 1413.16c0,1804.9 391.06,3140.22 1105.33,4057.58 713.51,916.37 1497.42,1422.82 2420.56,1399.16 170.16,-4.36 421.52,-717.2 825.51,-2056.77 393.55,-1304.96 741.56,-2098.75 1021.38,-2378.58 657.62,-237.85 1225.49,30.7 1637.03,867.49 428.25,870.76 687.5,1578.4 699.59,2140.71 43.91,2042.31 -407.78,4083.22 -1315.22,6072.39 -1205.42,2642.35 -2882.28,3945.64 -4953.04,3945.64 -1175.3,0 -2189.37,-468.35 -3036.19,-1399.16 -846.21,-930.14 -1383.53,-1959.15 -1595.05,-3078.17 -222.21,-1175.61 -335.8,-2658.41 -335.8,-4435.35 0,-741.57 110.07,-1525.64 349.79,-2350.6 235.98,-812.06 531.69,-1553.08 881.48,-2210.68 349.78,-657.6 734.88,-1182.59 1161.3,-1567.07 427.18,-385.17 811.52,-517.68 1133.33,-405.75l0 1399.16zm38051.29 1443.13c-27.98,741.55 -307.82,2084.75 -839.5,4015.6 -531.69,1944.84 -1231.27,4057.58 -2084.76,6366.2 -867.48,2294.63 -1623.03,4029.6 -2280.64,5204.9 -657.61,1175.29 -1371.18,2070.76 -2154.71,2686.4 -783.54,601.63 -2028.79,1175.29 -3763.76,1678.99 -1734.96,503.7 -3134.12,839.5 -4183.49,1021.39 -1049.39,181.89 -1720.98,265.84 -1986.82,265.84 -279.84,-27.99 -447.73,-139.92 -489.72,-321.81 -55.96,-195.88 27.99,-447.73 237.87,-741.55 307.82,-461.72 1063.36,-1077.36 2280.64,-1832.91 1217.27,-741.55 2630.43,-1692.99 4239.47,-2826.31 1609.04,-1133.33 2756.35,-2126.74 3441.94,-2966.23 685.59,-853.49 1455.14,-2112.74 2322.62,-3819.73 853.49,-1692.98 1637.02,-3399.97 2336.6,-5120.94 685.59,-1720.97 1189.29,-2896.26 1497.11,-3525.89 293.82,-629.63 615.63,-923.45 979.41,-895.47 293.83,55.96 447.74,321.81 447.74,811.52zm8157.13 5778.55c-55.96,1035.38 -167.9,1972.82 -335.8,2812.32 -153.9,825.5 -377.78,1539.08 -643.62,2126.73 -279.83,587.65 -629.62,1021.39 -1049.37,1315.21 -419.75,279.84 -937.44,391.77 -1539.08,307.82 27.99,-2126.72 251.85,-5106.95 671.59,-8912.68 433.75,-3819.72 1063.37,-8031.21 1916.86,-12648.46 433.74,-1343.19 1315.22,-3707.78 2658.42,-7093.76 139.91,-321.81 279.83,-461.73 433.74,-405.76 153.91,55.97 223.87,181.89 223.87,405.76 -83.96,1665.01 -419.75,4855.11 -1021.39,9556.3 -601.65,4701.19 -979.42,7919.27 -1105.35,9668.23 -139.91,1748.96 -209.87,2700.39 -209.87,2868.29zm-3567.87 6520.11c545.68,-2350.6 1175.31,-4085.56 1860.89,-5204.89 699.58,-1119.34 1273.24,-1734.97 1706.98,-1846.9l0 1804.91c0,2294.64 615.64,3903.68 1846.9,4799.14 741.56,489.71 1469.13,657.62 2210.69,489.71 741.55,-153.9 1301.22,-545.67 1706.97,-1147.31 391.77,-601.65 727.56,-1301.22 993.41,-2112.74 279.84,-797.52 545.67,-1203.29 783.54,-1203.29 307.81,0 419.75,279.84 363.78,853.49 -27.99,993.41 -321.81,2588.46 -909.46,4799.14 -587.65,2210.69 -1399.16,4029.6 -2406.57,5456.74 -1007.4,1413.17 -2238.66,2168.71 -3679.8,2252.66 -1483.12,-55.96 -2630.43,-895.47 -3455.94,-2504.51 -727.56,-1581.05 -1077.36,-3637.82 -1021.39,-6142.33l0 -293.82zm-363.78 27959.31c0,-601.65 509.25,-1900.04 1539.08,-3917.66 1026.94,-2011.97 1678.99,-3008.21 1986.81,-3008.21 601.64,-251.85 1469.13,209.88 2616.44,1371.18 1147.31,1161.29 1810.46,2066.44 1846.9,2728.37 47.67,866.16 -470.51,2129.78 -1427.15,3763.75 -960.22,1640.08 -1665.01,2462.54 -2098.75,2462.54 -167.9,-83.95 -725.43,-450.95 -1692.99,-1091.35 -977.28,-646.83 -1685.58,-1129.77 -2154.71,-1455.13 -398.61,-276.45 -615.63,-559.67 -615.63,-853.49zm21323.28 -24517.36c-601.64,1371.18 -1217.27,2644.42 -1846.9,3819.71 -629.62,1175.3 -1161.31,1944.85 -1595.05,2322.62 -657.61,657.61 -1315.21,1175.3 -1986.82,1525.09 -671.6,349.8 -1259.24,657.61 -1762.94,923.45 -503.7,251.85 -1203.29,545.68 -2112.74,881.47 -783.54,321.81 -1581.06,587.66 -2378.58,769.55 -573.66,139.91 -937.45,139.91 -1105.34,0 -139.92,-265.85 -83.96,-545.68 167.89,-811.52 223.88,-195.88 489.71,-405.76 811.52,-657.61 335.81,-251.85 1692.99,-1161.31 4057.58,-2770.35 2378.58,-1595.04 4477.33,-3819.71 6282.26,-6660.03 657.6,-1007.4 1147.31,-1497.1 1497.09,-1469.11 335.81,27.97 503.7,223.86 503.7,615.63 -83.94,405.75 -251.85,909.45 -531.67,1511.1zm5624.64 -15614.69c181.89,-489.71 559.66,-559.67 1105.35,-209.88 3497.9,2112.74 5246.86,4911.07 5246.86,8408.99 0,1804.92 -405.75,3917.66 -1189.29,6352.21 -965.42,2896.27 -2168.71,5078.97 -3609.85,6562.08 -405.75,461.73 -1315.22,1161.31 -2728.37,2084.77 -1413.16,923.44 -2490.52,1581.05 -3232.07,1944.83 -755.55,377.77 -1329.2,559.66 -1706.98,559.66 -167.91,0 -251.85,-69.96 -251.85,-209.86 0,-223.88 321.81,-643.62 951.44,-1273.25 1748.94,-1720.97 3427.94,-3567.87 5036.98,-5526.7 1720.98,-2210.68 2588.46,-3707.79 2588.46,-4477.33 0,-867.48 -447.73,-1888.87 -1315.21,-3050.18 -881.48,-1161.31 -1916.86,-2098.75 -3120.14,-2812.32 -601.64,-321.81 -797.53,-797.53 -615.64,-1427.15 27.99,-111.94 979.42,-2420.55 2840.31,-6925.87zm-46564.23 3218.09c0,1175.3 -195.88,2504.5 -601.64,3959.63 -391.77,1469.12 -909.45,2784.34 -1539.08,3959.64 -979.41,1888.88 -1986.81,3316.02 -3022.2,4309.43 -1049.37,979.42 -2210.68,1469.12 -3483.91,1469.12 -2028.8,0 -3036.2,-1231.26 -3036.2,-3693.8 0,-839.49 139.92,-1748.95 405.76,-2700.38 349.79,-1007.4 797.53,-1958.83 1315.22,-2826.32 517.69,-881.47 951.43,-1623.02 1315.22,-2224.67 -363.79,-97.94 -573.66,-167.9 -657.61,-195.89 -83.96,-27.97 -153.91,-41.97 -209.88,-41.97 -55.97,-223.86 125.92,-811.51 531.69,-1762.94l2910.26 -6604.06c279.84,-685.59 587.65,-1021.4 951.43,-1021.4 265.84,0 685.59,167.91 1245.26,517.7 559.67,335.8 1035.38,643.62 1413.15,923.44 895.47,811.52 1539.08,1609.04 1902.87,2364.59 377.77,769.55 559.66,1958.83 559.66,3567.88zm-3973.63 6478.13c0,-783.53 -279.83,-1427.15 -825.5,-1916.86 -279.84,-279.83 -657.61,-573.66 -1175.31,-881.47 -503.69,-321.81 -909.45,-503.7 -1245.24,-559.67 -237.87,0 -671.61,475.72 -1287.24,1441.14 -615.63,951.44 -923.45,1762.95 -923.45,2420.56 0,1217.28 741.56,1832.91 2210.69,1832.91 657.6,0 1357.19,-237.87 2112.74,-713.58 755.54,-475.71 1133.31,-1021.38 1133.31,-1623.03z"/>
 </g>
</svg>
