<?xml version="1.0" encoding="UTF-8"?>
<!DOCTYPE svg PUBLIC "-//W3C//DTD SVG 1.1//EN" "http://www.w3.org/Graphics/SVG/1.1/DTD/svg11.dtd">
<!-- Creator: CorelDRAW 2021.5 -->
<svg xmlns="http://www.w3.org/2000/svg" xml:space="preserve" width="830.689mm" height="711.841mm" version="1.1" style="shape-rendering:geometricPrecision; text-rendering:geometricPrecision; image-rendering:optimizeQuality; fill-rule:evenodd; clip-rule:evenodd"
viewBox="0 0 83068.9 71184.1"
 xmlns:xlink="http://www.w3.org/1999/xlink"
 xmlns:xodm="http://www.corel.com/coreldraw/odm/2003">
 <defs>
  <style type="text/css">
   <![CDATA[
    .fil0 {fill:#D7ECE9;fill-rule:nonzero}
   ]]>
  </style>
 </defs>
 <g id="Layer_x0020_1">
  <metadata id="CorelCorpID_0Corel-Layer"/>
  <path class="fil0" d="M12942.91 55435.74c-635.79,790.45 -1178.08,1348.91 -1643.56,1674.39 -604.46,434.14 -1209.42,775.28 -1829.55,1023.44 -620.12,263.31 -1302.41,464.96 -2046.87,635.79 -743.95,170.32 -1472.74,341.15 -2201.52,527.13l-3008.15 728.79c-1209.42,201.66 -1953.88,232.48 -2217.19,92.99 0,-434.13 496.3,-961.27 1504.07,-1597.06 899.11,-573.63 1829.55,-1162.93 2759.99,-1752.22 945.61,-589.3 1876.05,-1162.93 2821.66,-1736.56 2388.01,-1674.39 4186.73,-3240.63 5365.33,-4682.54 899.1,-1132.09 1612.22,-2109.03 2124.19,-2961.64 341.15,-480.64 836.95,-1318.09 1504.08,-2496.68l1953.37 -4000.25c449.81,-930.44 899.61,-1690.06 1318.08,-2263.68 387.65,-573.63 759.62,-852.62 1085.6,-821.79 309.81,155.16 402.81,449.81 278.98,914.78 -341.14,992.1 -542.8,1643.56 -635.79,1953.88 -480.63,1597.06 -728.79,2728.65 -728.79,3364.45 -185.98,542.8 -310.31,883.94 -356.81,1039.1 -728.79,1627.9 -1488.4,3178.47 -2279.36,4636.04 -247.64,573.63 -1503.56,2481.01 -3767.76,5721.64zm22219.43 -6310.94c-914.77,-155.15 -1597.06,-155.15 -2046.37,0 -1581.9,511.47 -3194.13,2217.2 -4869.02,5132.34 -1783.06,2899.49 -3783.43,4357.06 -5984.96,4357.06 -2248.52,-185.98 -3938.58,-1193.75 -5101.51,-3038.97 -1147.26,-1845.22 -1736.55,-4124.57 -1767.38,-6822.4 511.46,-1752.22 1085.09,-3271.96 1720.88,-4558.71 635.8,-1287.26 1380.25,-2170.7 2232.86,-2667 0,3038.97 744.46,5225.33 2232.86,6589.91 1116.43,1007.77 2418.85,1504.08 3907.25,1504.08 2046.88,0 3752.6,-914.78 5085.85,-2729.17 992.61,-1333.24 1845.22,-2279.35 2558.34,-2852.98 713.12,-589.3 1395.41,-868.28 2031.2,-868.28 46.5,123.82 155.16,558.47 310.32,1286.75 155.15,744.45 232.48,1411.08 232.48,1984.71 0,604.96 -62.16,1101.27 -185.99,1488.91 -92.99,371.97 -217.32,759.61 -356.81,1193.75zm-11753.09 -27398.26c0,-666.62 564.53,-2105.5 1705.73,-4341.39 1138.16,-2229.83 1860.88,-3333.62 2202.03,-3333.62 666.62,-279.49 1628.4,232.48 2899.48,1519.23 1271.59,1286.75 2005.94,2290.48 2046.37,3023.81 52.56,959.76 -521.07,2360.22 -1581.4,4171.07 -1063.87,1817.42 -1845.22,2728.66 -2325.85,2728.66 -185.99,-92.99 -803.59,-499.84 -1876.05,-1209.42 -1083.07,-716.66 -1867.96,-1251.38 -2388.02,-1612.23 -441.72,-306.27 -682.29,-620.63 -682.29,-946.11zm20436.38 11908.24c170.32,1783.56 728.78,2853.5 1674.39,3225.47 123.82,697.45 217.32,1411.08 278.98,2170.7 46.5,759.61 77.83,1504.07 77.83,2232.85 0,728.79 -31.33,1426.24 -77.83,2093.37 -61.66,666.63 -155.16,1224.59 -278.98,1674.39 -728.79,30.83 -1473.24,-139.49 -2232.86,-496.3 -232.49,-92.99 -1302.42,728.79 -3194.13,2450.18 -1891.72,1720.89 -3535.28,2434.01 -4930.69,2139.36 -123.82,-914.77 -201.65,-1906.87 -248.15,-2976.81 -46.5,-1085.6 30.83,-2077.7 248.15,-2977.31 511.47,0 1085.6,140 1720.89,434.14 635.79,279.49 1302.92,449.81 2000.37,496.3 697.96,46.5 1302.42,-185.98 1814.39,-697.45 216.82,-155.16 387.64,-387.64 511.47,-682.29 -1038.6,-2977.31 -790.95,-6047.12 728.78,-9226.09 511.47,-883.44 930.45,-1317.58 1271.59,-1317.58 263.32,0 480.64,480.64 635.8,1457.07zm-9822.97 33784.51c0,325.48 227.94,635.79 682.29,945.6 522.59,357.32 1300.4,903.66 2372.35,1612.74 1083.08,716.65 1705.73,1116.93 1891.72,1209.42 480.63,0 1250.36,-918.31 2310.18,-2729.16 1063.87,-1816.92 1649.63,-3210.31 1597.07,-4171.07 -39.93,-732.33 -775.29,-1736.56 -2046.37,-3022.8 -1271.08,-1286.75 -2248.53,-1799.23 -2915.15,-1519.74 -325.48,0 -1060.83,1097.73 -2202.03,3333.11 -1137.65,2229.33 -1690.06,3675.28 -1690.06,4341.9zm24304.71 -31923.62c-790.45,-123.82 -1472.74,-123.82 -2046.37,0 -899.61,294.65 -1643.56,790.95 -2217.69,1457.57 -402.81,480.64 -1193.76,1845.22 -2403.18,4078.08 -1007.77,1736.56 -1984.71,2837.32 -2930.31,3317.95 -961.28,496.31 -2031.21,713.12 -3209.8,682.29 -248.15,-1364.58 -387.64,-2729.16 -434.14,-4078.07 -46.5,-1364.58 108.66,-2728.66 434.14,-4093.24 1643.56,232.48 3085.47,139.49 4341.39,-325.48 1255.92,-449.8 2341.52,-1271.59 3240.63,-2450.18 1488.91,-1845.22 2574,-3054.64 3271.96,-3628.27 697.45,-573.63 1348.91,-883.94 1953.37,-914.77 372.48,1581.39 542.8,2651.33 542.8,3224.96 0,604.96 -62.16,1101.26 -170.32,1504.07 -62.16,232.99 -185.99,651.46 -372.48,1225.09zm-16833.88 -26328.84c0,-387.64 638.83,-1750.71 1876.05,-4078.08 1243.28,-2339.49 1984.71,-3504.44 2263.69,-3504.44 511.97,-216.82 1264.51,163.24 2248.52,1116.43 984.52,953.69 1736.56,1798.72 2248.03,2511.84 604.96,-992.1 1282.2,-2112.07 2016.04,-3348.79 738.39,-1243.79 1240.25,-1860.88 1488.4,-1860.88 759.62,0 1663.28,539.26 2697.83,1643.56 1042.64,1112.89 1630.93,2154.02 1659.23,3116.81 33.36,1146.75 -552.91,2516.39 -1674.9,4093.24 -1094.69,1538.94 -1906.87,2310.18 -2418.84,2310.18 -325.48,0 -926.4,-438.18 -1813.89,-1317.58 -879.9,-871.81 -1643.56,-1550.57 -2310.18,-2046.87 -1643.56,3302.79 -2946.49,4961.52 -3907.76,4961.52 -248.15,0 -595.87,-194.08 -1054.26,-588.8 -424.54,-364.89 -1082.57,-918.81 -1969.04,-1643.56 -896.08,-732.32 -1348.92,-1178.09 -1348.92,-1364.58zm18430.95 20653.7c480.63,155.15 1007.77,46.49 1566.23,-325.48 557.96,-356.81 1333.25,-1380.25 2325.86,-3085.47 527.13,309.81 852.61,480.63 1007.76,542.8 945.61,340.64 1798.72,-760.12 2589.17,-3318.46 124.33,-30.83 418.98,30.83 883.95,185.99 464.96,155.16 852.61,0 1162.92,-449.3 325.48,-418.98 666.63,-1085.6 1023.44,-1984.71 341.14,-883.95 557.96,-1333.75 650.95,-1333.75 217.33,-30.83 356.82,92.99 418.98,356.81 46.5,278.98 30.83,589.3 -46.5,961.27 -248.15,1333.25 -667.12,2682.16 -1271.58,4046.74 -527.14,1240.76 -1162.93,2170.7 -1907.38,2806.49 -728.79,635.8 -1410.58,1271.59 -2046.37,1907.38 -667.13,666.63 -1271.59,1100.76 -1814.39,1271.59 -635.79,247.65 -1240.25,480.64 -1783.05,681.79 -2202.03,2341.52 -3659.1,3473.61 -4357.06,3411.45 -92.99,-248.15 -201.65,-604.97 -325.48,-1085.6 -108.66,-480.64 -201.65,-1007.77 -248.15,-1565.73 -46.5,-558.47 -31.33,-1147.77 46.5,-1736.56 77.32,-589.3 248.15,-1101.27 527.13,-1566.23l1597.07 278.98zm15912.53 3118.82c267.36,-616.08 668.65,-746.98 1364.08,-325.47 3909.77,2369.31 5950.08,5536.15 5861.13,9504.56 -66.21,2965.18 -787.42,5552.83 -1891.72,7784.17 -1097.73,2218.71 -2230.33,3909.28 -3380.12,5070.18 -1966.51,1986.73 -4809.89,3520.12 -8543.29,4450.05 -440.2,109.68 -821.78,93 -1085.6,93 -371.97,0 -542.8,-93 -542.8,-278.98 0,-341.15 536.23,-908.71 1628.4,-1674.9 2179.8,-1528.33 4229.19,-3244.17 6140.11,-5178.84 1841.68,-1863.92 2760,-3085.47 2760,-3689.93 0,-1566.23 -1725.95,-3762.2 -5178.84,-6574.75 -640.35,-521.58 -919.33,-1199.32 -589.3,-1922.55 821.28,-1798.21 2111.56,-4149.33 3457.95,-7256.54z"/>
 </g>
</svg>
