<?xml version="1.0" encoding="UTF-8"?>
<!DOCTYPE svg PUBLIC "-//W3C//DTD SVG 1.1//EN" "http://www.w3.org/Graphics/SVG/1.1/DTD/svg11.dtd">
<!-- Creator: CorelDRAW 2021.5 -->
<svg xmlns="http://www.w3.org/2000/svg" xml:space="preserve" width="617.072mm" height="742.247mm" version="1.1" style="shape-rendering:geometricPrecision; text-rendering:geometricPrecision; image-rendering:optimizeQuality; fill-rule:evenodd; clip-rule:evenodd"
viewBox="0 0 61707.2 74224.7"
 xmlns:xlink="http://www.w3.org/1999/xlink"
 xmlns:xodm="http://www.corel.com/coreldraw/odm/2003">
 <defs>
  <style type="text/css">
   <![CDATA[
    .fil3 {fill:#ffd500}
    .fil2 {fill:#C2761B}
    .fil4 {fill:#ffd500}
    .fil1 {fill:#ffd500}
    .fil0 {fill:#ffd500}
   ]]>
  </style>
 </defs>
 <g id="Layer_x0020_1">
  <metadata id="CorelCorpID_0Corel-Layer"/>
  <g id="_2176091584976">
   <g>
    <path class="fil0" d="M30849.63 73859.11c11940.08,-8.21 22003.58,-3700.9 27193.24,-8784.67 3890.81,-3811.48 4066.8,-8191.07 3296.24,-11113.43 154.89,818.54 -13.48,1644.42 -163.12,2086.3 -381.04,1124.99 -1233.09,2167.07 -2483.57,3112.21 -4776.48,3610.14 -15460.4,5808.25 -27842.79,5808.25 -12382.38,0 -23066.3,-2198.11 -27842.78,-5808.25 -1250.48,-945.14 -2102.53,-1987.22 -2483.57,-3112.21 -149.64,-441.88 -318.01,-1267.76 -163.12,-2086.3 -770.56,2922.36 -594.57,7301.95 3296.24,11113.43 5189.66,5083.77 15253.15,8776.46 27193.23,8784.67z"/>
    <path class="fil1" d="M46756.6 46602.45c8523.63,-304.45 14646.1,5107.96 14646.1,8081.44 0,466.68 -216.7,1892.68 -999.83,2802.75 103.49,-4310.36 -4929.66,-9086.53 -13646.27,-10884.19z"/>
    <path class="fil2" d="M51948.66 69579.16c1136.78,-429.4 1980.19,-1787.79 1951.17,-3394.77 -35.49,-1966.31 -1363.72,-3560.31 -2970.38,-3559.27 1641.46,-460.48 3130.76,-984.46 4440.65,-1567.32 1445.89,-2.1 2640.13,1366.22 2672.08,3054.17 23.84,1261.05 -607.82,2343.7 -1479.71,2783.77l-4613.81 2683.42z"/>
    <path class="fil2" d="M42567.04 72614c1287.91,18.04 2447.47,-1846.92 2415.1,-4147.44 -32.4,-2300.56 -1244.5,-4165.48 -2685.64,-4168.17 -2130.32,265.57 -4296.4,444.47 -6455.63,549.71 1587.2,-0.46 2894.61,1957.01 2929.56,4371.65 34.95,2414.64 -1371.57,4418.68 -2964.32,4429.9 2247.79,-177.43 4878.52,-604.11 6760.93,-1035.65z"/>
    <path class="fil1" d="M42274.8 64301.08c1580.72,21.75 3687.94,537.05 4494.1,1631.97 589.21,-1698.26 2208.2,-2806.22 4164.21,-3308.97l357.73 211.27c-5.79,1.89 -341.89,104.47 -347.57,106.32 -1820.07,595.69 -3301.99,1722.95 -3862.36,3353.41 -653.33,-869.58 -2151.77,-1339.72 -3532.74,-1479.81 -369.92,-321.9 -814.39,-514.19 -1273.37,-514.19zm7194.48 2948.2c233.49,145.58 427.56,301.65 590.61,465.03 -194.19,-139.53 -420.48,-270.01 -685.92,-388.54 32.29,-25.38 63.97,-50.9 95.31,-76.49z"/>
    <path class="fil3" d="M35820.99 73644.62c1577.87,-6.19 2984.39,-2010.23 2949.44,-4424.87 -34.95,-2414.64 -1342.36,-4372.11 -2920.23,-4372.11 592.63,3323.03 566.7,6247.04 -29.21,8796.98z"/>
    <path class="fil3" d="M51087.4 69744.47c1577.25,0.28 2847.92,-1593.73 2812.43,-3560.08 -35.52,-1966.31 -1363.72,-3560.31 -2966.72,-3560.31 696.31,2527.14 751.06,4899.23 154.29,7120.39z"/>
    <path class="fil4" d="M35820.96 74244.26c-1723.09,-355.89 -3446.05,-1163.86 -4971.33,-2248.46 -1525.27,1084.6 -3248.24,1892.52 -4971.32,2248.35 402.66,-1522.94 1316.75,-3045.72 2543.88,-4393.84 -1227.13,-1348 -2338.9,-2946.64 -2741.56,-4469.53 1723.02,355.89 3643.91,1239.4 5169,2324.05 1525.22,-1084.65 3446.05,-1968.16 5169.13,-2324.05 -402.66,1522.94 -1514.49,3121.53 -2741.68,4469.53 1227.13,1348.12 2141.28,2871.01 2543.88,4393.95z"/>
    <path class="fil1" d="M35835.58 64855.34c-1737.72,363.57 -3460.74,1171.37 -4985.95,2256.04 -1525.09,-1084.67 -3248.18,-1892.47 -4971.2,-2248.35l-197.81 517.75c1723.02,355.89 3643.92,1239.38 5169.01,2324.05 1525.21,-1084.67 3446.04,-1968.16 5169.13,-2324.05l-183.18 -525.44zm-2295.93 4698.23c-91,106.22 -167.65,192.43 -262.57,296.73 1227.14,1348.14 2141.29,2871.03 2543.88,4393.96 -83.13,-1630.58 -1161.12,-3389.7 -2281.31,-4690.69zm-5378.63 -0.52c84.99,101.07 172.26,199.63 261.17,297.25 -1227.14,1348.14 -2141.21,2870.89 -2543.88,4393.85 65.42,-1435.8 1183.17,-3414.45 2282.71,-4691.1z"/>
    <path class="fil4" d="M42392.12 72632.04c1462.83,0 2622.39,-1865 2590.02,-4165.48 -22.19,-1578.72 -589.88,-2943.65 -1434.58,-3651.36 1380.78,139.88 2879.83,610.06 3533.35,1479.88 595.67,-1733.11 2232.41,-2897.71 4209.93,-3459.73 165.9,1431.82 -163.88,3112.21 -1916.87,4490.42 1536.71,686.24 1763.27,1772.1 2026.3,2711.75 -1515.08,461.36 -2752.2,490.8 -3969.21,-320.92 -827.87,1291.82 -1766.46,2146.51 -4061.32,2698.88 -171.92,41.36 -789.94,178.52 -977.62,216.56z"/>
    <path class="fil1" d="M14942.66 46602.45c-8523.62,-304.45 -14646.09,5107.96 -14646.09,8081.44 0,466.68 216.7,1892.68 999.83,2802.75 -103.5,-4310.36 4929.66,-9086.53 13646.26,-10884.19z"/>
    <path class="fil2" d="M9750.61 69579.16c-1136.78,-429.4 -1980.19,-1787.79 -1951.17,-3394.77 35.49,-1966.31 1363.72,-3560.31 2970.38,-3559.27 -1641.46,-460.48 -3130.76,-984.46 -4440.65,-1567.32 -1445.89,-2.1 -2640.13,1366.22 -2672.08,3054.17 -23.84,1261.05 607.82,2343.7 1479.71,2783.77l4613.81 2683.42z"/>
    <path class="fil2" d="M19132.23 72614c-1287.91,18.04 -2447.47,-1846.92 -2415.11,-4147.44 32.41,-2300.56 1244.51,-4165.48 2685.64,-4168.17 2130.33,265.57 4296.41,444.47 6455.64,549.71 -1587.2,-0.46 -2894.61,1957.01 -2929.56,4371.65 -34.96,2414.64 1371.57,4418.68 2964.32,4429.9 -2247.79,-177.43 -4878.52,-604.11 -6760.93,-1035.65z"/>
    <path class="fil1" d="M19424.47 64301.08c-1580.73,21.75 -3687.94,537.05 -4494.1,1631.97 -589.21,-1698.26 -2208.2,-2806.22 -4164.21,-3308.97l-357.73 211.27c5.79,1.89 341.89,104.47 347.56,106.32 1820.08,595.69 3302,1722.95 3862.37,3353.41 653.33,-869.58 2151.77,-1339.72 3532.74,-1479.81 369.92,-321.9 814.39,-514.19 1273.37,-514.19zm-7194.48 2948.2c-233.49,145.58 -427.57,301.65 -590.61,465.03 194.19,-139.53 420.48,-270.01 685.92,-388.54 -32.29,-25.38 -63.97,-50.9 -95.31,-76.49z"/>
    <path class="fil3" d="M25878.28 73644.62c-1577.87,-6.19 -2984.4,-2010.23 -2949.44,-4424.87 34.95,-2414.64 1342.36,-4372.11 2920.23,-4372.11 -592.63,3323.03 -566.7,6247.04 29.21,8796.98z"/>
    <path class="fil3" d="M10611.87 69744.47c-1577.26,0.28 -2847.92,-1593.73 -2812.43,-3560.08 35.52,-1966.31 1363.72,-3560.31 2966.72,-3560.31 -696.31,2527.14 -751.07,4899.23 -154.29,7120.39z"/>
    <path class="fil4" d="M19307.15 72632.04c-1462.83,0 -2622.39,-1865 -2590.03,-4165.48 22.2,-1578.72 589.89,-2943.65 1434.59,-3651.36 -1380.78,139.88 -2879.83,610.06 -3533.35,1479.88 -595.67,-1733.11 -2232.41,-2897.71 -4209.93,-3459.73 -165.9,1431.82 163.88,3112.21 1916.87,4490.42 -1536.71,686.24 -1763.27,1772.1 -2026.3,2711.75 1515.08,461.36 2752.19,490.8 3969.21,-320.92 827.87,1291.82 1766.46,2146.51 4061.32,2698.88 171.92,41.36 789.94,178.52 977.62,216.56z"/>
   </g>
   <g>
    <path class="fil0" d="M17407.76 30873.18c8.22,-11940.08 3700.9,-22003.58 8784.67,-27193.23 3811.48,-3890.82 8191.07,-4066.81 11113.43,-3296.25 -818.53,-154.89 -1644.41,13.48 -2086.3,163.13 -1124.98,381.03 -2167.07,1233.08 -3112.21,2483.56 -3610.14,4776.48 -5808.25,15460.41 -5808.25,27842.79 0,12382.38 2198.11,23066.3 5808.25,27842.78 945.14,1250.49 1987.23,2102.53 3112.21,2483.57 441.89,149.64 1267.77,318.02 2086.3,163.12 -2922.36,770.56 -7301.95,594.57 -11113.43,-3296.24 -5083.77,-5189.66 -8776.45,-15253.15 -8784.67,-27193.23z"/>
    <path class="fil1" d="M44664.42 14966.21c304.45,-8523.63 -5107.96,-14646.09 -8081.44,-14646.09 -466.67,0 -1892.68,216.69 -2802.75,999.82 4310.36,-103.49 9086.53,4929.66 10884.19,13646.27z"/>
    <path class="fil2" d="M21687.71 9774.15c429.4,-1136.78 1787.8,-1980.18 3394.77,-1951.17 1966.31,35.49 3560.32,1363.72 3559.27,2970.38 460.49,-1641.46 984.47,-3130.76 1567.32,-4440.64 2.1,-1445.9 -1366.22,-2640.14 -3054.17,-2672.09 -1261.05,-23.83 -2343.69,607.82 -2783.76,1479.71l-2683.43 4613.81z"/>
    <path class="fil2" d="M18652.87 19155.77c-18.04,-1287.91 1846.92,-2447.47 4147.44,-2415.1 2300.56,32.4 4165.48,1244.5 4168.18,2685.64 -265.58,2130.32 -444.48,4296.4 -549.72,6455.63 0.46,-1587.2 -1957.01,-2894.6 -4371.65,-2929.56 -2414.64,-34.95 -4418.68,1371.57 -4429.9,2964.33 177.43,-2247.8 604.11,-4878.53 1035.65,-6760.94z"/>
    <path class="fil1" d="M26965.79 19448.01c-21.74,-1580.72 -537.05,-3687.94 -1631.97,-4494.1 1698.26,-589.2 2806.22,-2208.2 3308.98,-4164.21l-211.28 -357.73c-1.89,5.79 -104.47,341.89 -106.32,347.57 -595.69,1820.07 -1722.94,3301.99 -3353.41,3862.37 869.58,653.32 1339.72,2151.76 1479.81,3532.73 321.9,369.92 514.19,814.39 514.19,1273.37zm-2948.19 -7194.48c-145.59,-233.49 -301.66,-427.56 -465.04,-590.61 139.54,194.19 270.02,420.48 388.54,685.92 25.38,-32.29 50.9,-63.97 76.5,-95.31z"/>
    <path class="fil3" d="M17622.25 25901.82c6.19,-1577.87 2010.23,-2984.39 4424.87,-2949.44 2414.64,34.96 4372.11,1342.36 4372.11,2920.23 -3323.03,-592.63 -6247.03,-566.7 -8796.98,29.21z"/>
    <path class="fil3" d="M21522.41 10635.42c-0.28,-1577.26 1593.72,-2847.93 3560.07,-2812.44 1966.31,35.53 3560.32,1363.72 3560.32,2966.72 -2527.15,-696.31 -4899.24,-751.06 -7120.39,-154.28z"/>
    <path class="fil4" d="M17022.62 25901.86c355.88,1723.08 1163.85,3446.04 2248.45,4971.32 -1084.6,1525.28 -1892.52,3248.24 -2248.35,4971.32 1522.94,-402.66 3045.72,-1316.75 4393.84,-2543.88 1348.01,1227.13 2946.64,2338.9 4469.53,2741.56 -355.89,-1723.02 -1239.4,-3643.9 -2324.04,-5169 1084.64,-1525.22 1968.15,-3446.04 2324.04,-5169.13 -1522.94,402.66 -3121.52,1514.5 -4469.53,2741.69 -1348.12,-1227.13 -2871,-2141.29 -4393.94,-2543.88z"/>
    <path class="fil1" d="M26411.54 25887.23c-363.58,1737.72 -1171.38,3460.74 -2256.05,4985.95 1084.67,1525.09 1892.47,3248.19 2248.35,4971.2l-517.75 197.81c-355.88,-1723.02 -1239.38,-3643.92 -2324.05,-5169.01 1084.67,-1525.21 1968.17,-3446.04 2324.05,-5169.13l525.45 183.18zm-4698.24 2295.93c-106.22,91 -192.43,167.65 -296.73,262.58 -1348.14,-1227.15 -2871.03,-2141.3 -4393.95,-2543.88 1630.57,83.12 3389.7,1161.11 4690.68,2281.3zm0.52 5378.63c-101.07,-84.99 -199.63,-172.26 -297.25,-261.17 -1348.14,1227.14 -2870.89,2141.21 -4393.85,2543.88 1435.8,-65.42 3414.46,-1183.17 4691.1,-2282.71z"/>
    <path class="fil4" d="M18634.83 19330.7c0,-1462.84 1865,-2622.4 4165.48,-2590.03 1578.73,22.2 2943.66,589.88 3651.36,1434.58 -139.88,-1380.78 -610.05,-2879.83 -1479.88,-3533.34 1733.11,-595.68 2897.71,-2232.41 3459.73,-4209.94 -1431.81,-165.9 -3112.21,163.88 -4490.42,1916.87 -686.24,-1536.71 -1772.1,-1763.27 -2711.75,-2026.3 -461.36,1515.08 -490.8,2752.2 320.92,3969.21 -1291.82,827.87 -2146.51,1766.46 -2698.88,4061.32 -41.36,171.92 -178.52,789.95 -216.56,977.63z"/>
    <path class="fil1" d="M44664.42 46780.15c304.45,8523.63 -5107.96,14646.09 -8081.44,14646.09 -466.67,0 -1892.68,-216.7 -2802.75,-999.83 4310.36,103.5 9086.53,-4929.66 10884.19,-13646.26z"/>
    <path class="fil2" d="M21687.71 51972.2c429.4,1136.79 1787.8,1980.19 3394.77,1951.17 1966.31,-35.48 3560.32,-1363.72 3559.27,-2970.38 460.49,1641.46 984.47,3130.76 1567.32,4440.65 2.1,1445.89 -1366.22,2640.14 -3054.17,2672.08 -1261.05,23.84 -2343.69,-607.82 -2783.76,-1479.7l-2683.43 -4613.82z"/>
    <path class="fil2" d="M18652.87 42590.58c-18.04,1287.92 1846.92,2447.47 4147.44,2415.11 2300.56,-32.41 4165.48,-1244.51 4168.18,-2685.64 -265.58,-2130.33 -444.48,-4296.41 -549.72,-6455.64 0.46,1587.2 -1957.01,2894.61 -4371.65,2929.56 -2414.64,34.96 -4418.68,-1371.57 -4429.9,-2964.32 177.43,2247.79 604.11,4878.52 1035.65,6760.93z"/>
    <path class="fil1" d="M26965.79 42298.34c-21.74,1580.73 -537.05,3687.94 -1631.97,4494.11 1698.26,589.2 2806.22,2208.19 3308.98,4164.2l-211.28 357.73c-1.89,-5.79 -104.47,-341.89 -106.32,-347.56 -595.69,-1820.08 -1722.94,-3301.99 -3353.41,-3862.37 869.58,-653.33 1339.72,-2151.77 1479.81,-3532.74 321.9,-369.92 514.19,-814.39 514.19,-1273.37zm-2948.19 7194.48c-145.59,233.49 -301.66,427.57 -465.04,590.61 139.54,-194.19 270.02,-420.48 388.54,-685.92 25.38,32.29 50.9,63.97 76.5,95.31z"/>
    <path class="fil3" d="M17622.25 35844.54c6.19,1577.86 2010.23,2984.39 4424.87,2949.43 2414.64,-34.95 4372.11,-1342.36 4372.11,-2920.23 -3323.03,592.63 -6247.03,566.7 -8796.98,-29.2z"/>
    <path class="fil3" d="M21522.41 51110.94c-0.28,1577.26 1593.72,2847.92 3560.07,2812.43 1966.31,-35.52 3560.32,-1363.72 3560.32,-2966.72 -2527.15,696.31 -4899.24,751.07 -7120.39,154.29z"/>
    <path class="fil4" d="M18634.83 42415.66c0,1462.84 1865,2622.39 4165.48,2590.03 1578.73,-22.2 2943.66,-589.89 3651.36,-1434.59 -139.88,1380.78 -610.05,2879.83 -1479.88,3533.35 1733.11,595.67 2897.71,2232.41 3459.73,4209.93 -1431.81,165.9 -3112.21,-163.88 -4490.42,-1916.87 -686.24,1536.71 -1772.1,1763.27 -2711.75,2026.31 -461.36,-1515.08 -490.8,-2752.2 320.92,-3969.22 -1291.82,-827.87 -2146.51,-1766.46 -2698.88,-4061.32 -41.36,-171.92 -178.52,-789.94 -216.56,-977.62z"/>
   </g>
  </g>
 </g>
</svg>
