<?xml version="1.0" encoding="UTF-8"?>
<!DOCTYPE svg PUBLIC "-//W3C//DTD SVG 1.1//EN" "http://www.w3.org/Graphics/SVG/1.1/DTD/svg11.dtd">
<!-- Creator: CorelDRAW 2021.5 -->
<svg xmlns="http://www.w3.org/2000/svg" xml:space="preserve" width="803.989mm" height="509.814mm" version="1.1" style="shape-rendering:geometricPrecision; text-rendering:geometricPrecision; image-rendering:optimizeQuality; fill-rule:evenodd; clip-rule:evenodd"
viewBox="0 0 80398.9 50981.4"
 xmlns:xlink="http://www.w3.org/1999/xlink"
 xmlns:xodm="http://www.corel.com/coreldraw/odm/2003">
 <defs>
  <style type="text/css">
   <![CDATA[
    .fil0 {fill:#D7ECE9;fill-rule:nonzero}
   ]]>
  </style>
 </defs>
 <g id="Layer_x0020_1">
  <metadata id="CorelCorpID_0Corel-Layer"/>
  <path class="fil0" d="M2699.59 17909.23c-42.46,785.48 -127.37,1496.66 -254.75,2133.53 -116.77,626.27 -286.59,1167.61 -488.27,1613.42 -212.29,445.81 -477.65,774.87 -796.1,997.78 -318.43,212.27 -711.17,297.2 -1167.6,233.52 21.23,-1613.43 191.07,-3874.34 509.5,-6761.51 329.06,-2897.78 806.71,-6092.76 1454.2,-9595.58 329.05,-1019.01 997.76,-2812.87 2016.77,-5381.6 106.14,-244.15 212.3,-350.28 329.05,-307.83 116.77,42.46 169.83,138 169.83,307.83 -63.68,1263.13 -318.43,3683.26 -774.85,7249.76 -456.43,3566.5 -743.04,6007.86 -838.56,7334.68 -106.15,1326.82 -159.22,2048.63 -159.22,2176zm0 1072.07c0,1369.28 275.97,2398.9 838.55,3078.24 520.11,711.17 1135.76,1061.46 1836.32,1061.46 127.39,-21.23 329.06,-541.36 626.27,-1560.35 307.81,-987.16 562.56,-1592.2 774.85,-1804.49 498.9,-180.44 912.86,31.86 1241.92,658.1 307.81,668.72 488.27,1199.46 530.72,1624.05 0,1549.73 -329.04,3088.85 -997.76,4606.73 -934.08,1995.55 -2186.61,2993.31 -3757.57,2993.31 -891.62,0 -1666.5,-350.29 -2303.36,-1061.46 -647.49,-700.56 -1050.85,-1486.03 -1210.07,-2335.2 -169.84,-891.63 -254.75,-2016.77 -254.75,-3364.83 0,-562.58 84.91,-1157 265.36,-1783.26 180.45,-615.64 403.36,-1178.22 668.72,-1677.1 265.36,-498.88 562.58,-891.62 881.01,-1188.83 329.06,-286.6 615.65,-392.74 859.79,-307.83l0 1061.46zm45801.95 4022.91c-42.45,785.49 -127.36,1496.66 -254.75,2133.54 -116.76,626.27 -286.58,1167.6 -488.26,1613.41 -212.3,445.82 -477.66,774.88 -796.1,997.79 -318.43,212.27 -711.18,297.2 -1167.61,233.52 21.23,-1613.44 191.07,-3874.34 509.5,-6761.51 329.06,-2897.78 806.72,-6092.77 1454.21,-9595.58 329.04,-1019.01 997.76,-2812.88 2016.77,-5381.6 106.14,-244.15 212.29,-350.29 329.04,-307.83 116.77,42.45 169.84,137.99 169.84,307.83 -63.68,1263.13 -318.43,3683.25 -774.86,7249.76 -456.42,3566.5 -743.03,6007.85 -838.55,7334.68 -106.16,1326.82 -159.23,2048.63 -159.23,2175.99zm10826.89 5233c-626.27,-106.15 -1093.31,-106.15 -1401.14,0 -1082.67,350.27 -2186.59,1517.89 -3332.98,3513.44 -1220.67,1984.93 -2589.95,2982.69 -4097.22,2982.69 -1539.12,-127.38 -2696.11,-817.33 -3492.21,-2080.46 -785.47,-1263.14 -1188.83,-2823.48 -1210.06,-4670.41 350.28,-1199.46 743.02,-2239.7 1178.22,-3120.71 435.2,-881 944.69,-1486.03 1528.5,-1825.71 0,2080.47 509.5,3577.12 1528.51,4511.22 764.24,689.94 1655.86,1029.6 2674.87,1029.6 1401.12,0 2568.74,-626.26 3481.59,-1868.16 679.34,-912.85 1263.13,-1560.34 1751.41,-1953.09 488.27,-403.36 955.31,-594.42 1390.51,-594.42 31.84,84.93 106.14,382.13 212.29,881.01 106.14,509.51 159.21,965.94 159.21,1358.67 0,413.97 -42.46,753.64 -127.37,1019 -63.68,254.75 -148.61,520.11 -244.13,817.33zm-12335.73 20167.31c0,-456.43 386.35,-1441.45 1167.6,-2972.1 779.06,-1526.34 1273.75,-2282.13 1507.27,-2282.13 456.43,-191.06 1114.53,159.23 1984.93,1040.24 870.4,881.01 1373.5,1567.69 1401.14,2069.84 36.15,657.09 -356.96,1615.73 -1082.69,2855.32 -728.46,1244.2 -1263.14,1868.16 -1592.2,1868.16 -127.37,-63.68 -550.35,-342.11 -1284.36,-827.92 -741.39,-490.71 -1278.76,-857.11 -1634.65,-1103.92 -302.37,-209.71 -467.04,-424.58 -467.04,-647.49zm12335.73 -24243.3c1125.14,477.65 1857.55,498.88 2207.83,63.68 42.46,-42.46 445.82,-647.49 1210.06,-1804.48 212.29,-329.06 350.29,-498.88 435.2,-498.88 148.61,0 222.91,74.3 222.91,222.91 21.22,159.2 -21.23,435.18 -106.14,817.31 -95.54,392.74 -286.59,1019 -562.58,1900.02 -286.59,881.01 -721.79,1698.32 -1305.6,2462.58 -594.41,753.63 -1294.97,1061.46 -2101.68,912.85 -265.36,-721.78 -392.75,-1422.35 -371.52,-2080.45 21.23,-668.72 148.61,-1326.82 371.52,-1995.54zm2770.4 -17874.98c0,-275.98 424.58,-1210.06 1273.75,-2802.26 849.17,-1592.19 1369.28,-2398.89 1549.73,-2398.89 360.91,-137.99 870.4,116.76 1539.12,764.25 679.33,658.1 1188.85,1231.3 1539.12,1730.18 413.97,-689.95 881.01,-1454.21 1390.51,-2303.38 509.51,-849.15 838.55,-1273.74 1008.39,-1273.74 520.11,0 1135.76,371.5 1846.93,1135.76 721.79,753.63 1093.31,1464.81 1135.76,2122.91 0,796.1 -382.11,1730.18 -1146.37,2802.26 -743.02,1061.46 -1294.98,1581.57 -1645.26,1581.57 -233.52,0 -647.49,-297.2 -1252.52,-891.62 -594.43,-605.04 -1125.15,-1072.08 -1581.58,-1401.12 -1125.14,2260.9 -2016.77,3386.05 -2674.87,3386.05 -169.84,0 -403.36,-138 -711.18,-403.36 -297.22,-244.14 -743.03,-626.27 -1358.66,-1114.53 -605.04,-498.88 -912.87,-817.31 -912.87,-934.08zm11071.02 14881.65c-21.23,562.58 -233.52,1581.57 -636.88,3046.4 -403.36,1475.43 -934.08,3078.23 -1581.57,4829.64 -658.11,1740.79 -1231.3,3057 -1730.18,3948.63 -498.88,891.63 -1040.24,1570.96 -1634.64,2038 -594.43,456.42 -1539.12,891.62 -2855.33,1273.75 -1316.21,382.12 -2377.67,636.86 -3173.78,774.86 -796.08,138 -1305.57,201.68 -1507.25,201.68 -212.3,-21.23 -339.68,-106.14 -371.52,-244.13 -42.45,-148.61 21.23,-339.68 180.45,-562.59 233.52,-350.27 806.7,-817.31 1730.18,-1390.5 923.47,-562.57 1995.55,-1284.37 3216.22,-2144.16 1220.68,-859.76 2091.06,-1613.41 2611.19,-2250.29 520.11,-647.49 1103.92,-1602.8 1762.02,-2897.78 647.49,-1284.37 1241.9,-2579.33 1772.64,-3884.93 520.11,-1305.6 902.24,-2197.22 1135.76,-2674.88 222.91,-477.67 467.04,-700.58 743.01,-679.33 222.91,42.45 339.68,244.13 339.68,615.63zm6782.73 -5211.75c-42.47,1486.04 -74.31,2834.1 -95.54,4033.54 -21.23,1210.07 -84.91,2218.45 -191.07,3057 -159.2,1783.26 -509.49,3354.21 -1018.99,4734.11 -520.12,1379.91 -934.09,2303.37 -1231.3,2759.8 -297.2,456.43 -541.33,785.47 -732.4,987.15 -222.9,212.29 -403.36,275.99 -530.74,201.68 -116.75,-63.68 -159.2,-191.07 -116.75,-350.27 0,-42.48 116.75,-668.72 371.52,-1889.41 244.13,-1210.05 403.34,-2388.29 467.04,-3524.05 63.68,-1135.75 74.29,-2749.17 31.84,-4840.25 -42.46,-2080.46 10.61,-3672.64 148.61,-4765.95 84.91,-647.49 222.9,-1305.59 424.57,-1995.54 191.06,-679.33 413.97,-1358.66 668.72,-2016.77 244.15,-668.72 509.51,-1294.98 785.48,-1889.41 286.59,-583.79 541.34,-1114.53 764.25,-1570.95 191.06,-286.59 350.28,-403.36 498.89,-339.66 148.6,63.68 212.3,180.45 191.07,339.66 -42.47,169.83 -95.54,562.58 -138,1167.6 -53.07,615.65 -106.15,1294.98 -148.61,2059.24 -42.45,753.63 -74.29,1496.66 -106.13,2218.45 -31.85,732.4 -42.46,1263.12 -42.46,1624.03zm-63018.83 4500.58c-42.45,785.49 -127.36,1496.66 -254.75,2133.54 -116.76,626.26 -286.58,1167.6 -488.26,1613.41 -212.3,445.81 -477.66,774.88 -796.11,997.78 -318.43,212.28 -711.17,297.2 -1167.6,233.52 21.23,-1613.43 191.07,-3874.33 509.5,-6761.5 329.06,-2897.78 806.72,-6092.77 1454.21,-9595.59 329.04,-1019.01 997.76,-2812.87 2016.77,-5381.59 106.13,-244.15 212.29,-350.29 329.04,-307.84 116.77,42.46 169.84,138 169.84,307.84 -63.68,1263.12 -318.43,3683.25 -774.86,7249.75 -456.42,3566.5 -743.03,6007.86 -838.55,7334.68 -106.16,1326.83 -159.23,2048.63 -159.23,2176zm-2706.72 4946.39c413.98,-1783.25 891.63,-3099.46 1411.74,-3948.61 530.74,-849.17 965.94,-1316.21 1294.98,-1401.14l0 1369.28c0,1740.8 467.04,2961.48 1401.12,3640.82 562.58,371.51 1114.53,498.88 1677.12,371.51 562.56,-116.77 987.14,-413.97 1294.98,-870.4 297.2,-456.42 551.95,-987.16 753.63,-1602.81 212.29,-605.02 413.97,-912.86 594.42,-912.86 233.52,0 318.43,212.3 275.98,647.5 -21.23,753.64 -244.14,1963.7 -689.95,3640.81 -445.81,1677.1 -1061.46,3056.99 -1825.71,4139.68 -764.26,1072.08 -1698.34,1645.27 -2791.64,1708.95 -1125.15,-42.45 -1995.54,-679.33 -2621.81,-1900.01 -551.95,-1199.45 -817.31,-2759.79 -774.86,-4659.81l0 -222.91zm1087.06 18523.78c0,-456.42 386.35,-1441.44 1167.62,-2972.09 779.06,-1526.36 1273.74,-2282.13 1507.26,-2282.13 456.42,-191.07 1114.53,159.22 1984.92,1040.23 870.4,881.01 1373.51,1567.68 1401.14,2069.84 36.17,657.09 -356.94,1615.74 -1082.69,2855.33 -728.45,1244.22 -1263.14,1868.16 -1592.18,1868.16 -127.39,-63.68 -550.36,-342.1 -1284.37,-827.93 -741.41,-490.71 -1278.77,-857.09 -1634.66,-1103.91 -302.39,-209.71 -467.04,-424.59 -467.04,-647.5zm23825.39 -14299.17c-95.55,212.29 -743.02,498.9 -1921.25,859.78 -1178.22,360.91 -2059.23,605.04 -2611.19,732.42 -562.57,127.37 -1188.83,275.98 -1889.39,445.82 -689.95,180.43 -1422.35,286.58 -2186.61,329.04 -1539.12,169.84 -2876.56,254.75 -4012.32,254.75 -891.62,0 -1337.43,-84.91 -1337.43,-254.75 0,-212.29 424.58,-488.27 1273.75,-838.56 371.5,-169.82 774.86,-329.04 1210.06,-498.88l6941.94 -2738.56c2260.92,-976.55 3906.17,-1868.18 4946.41,-2674.87 1029.6,-806.72 1464.8,-1528.51 1305.59,-2176 -84.92,-201.68 -413.97,-445.81 -997.78,-732.4 -583.79,-275.99 -1167.6,-435.2 -1740.79,-477.67 -605.02,0 -1135.76,106.15 -1602.8,329.06 -467.04,212.29 -1103.92,743.02 -1910.63,1602.8 -413.96,371.52 -1029.61,1019.01 -1836.32,1953.09 -806.7,934.08 -1475.42,1645.25 -2006.16,2133.54 -530.72,488.27 -923.47,668.72 -1199.44,541.33 -169.84,-84.91 -106.16,-329.04 191.06,-743.01 679.33,-934.1 1390.51,-1878.79 2112.3,-2834.1 286.59,-413.97 573.19,-976.55 849.17,-1677.11 286.59,-700.56 520.11,-1390.51 700.56,-2069.84 191.06,-668.72 350.29,-1464.82 488.26,-2377.68 138,-912.85 265.38,-1804.48 382.14,-2674.87 127.38,-870.4 254.74,-2133.53 382.13,-3789.41 116.75,-1666.48 201.67,-2568.72 244.13,-2738.56 976.53,-2632.42 1889.39,-4840.26 2738.56,-6623.51 180.45,-392.74 339.67,-350.29 467.04,127.37 -275.98,1528.5 -424.59,2568.74 -467.04,3099.46 -127.37,2101.7 -212.29,3725.72 -254.75,4893.34 -42.45,1156.99 -138,2207.82 -307.82,3131.3 -286.6,1624.03 -647.49,3003.92 -1072.07,4150.3 -424.59,1157 -859.79,2282.15 -1294.99,3375.45 1708.96,-1942.47 3035.78,-3152.55 3980.48,-3619.59 955.3,-467.04 1772.63,-679.33 2462.58,-636.87 934.08,0 1655.89,318.44 2175.99,965.94 371.52,413.97 562.57,1008.37 562.57,1772.63 0,456.43 -84.91,965.92 -254.75,1517.89 -159.21,562.57 -339.66,1050.83 -541.34,1454.19 -201.67,403.36 -562.58,1093.31 -1093.3,2059.23 -520.11,976.55 -1486.05,2462.6 -2876.55,4447.51z"/>
 </g>
</svg>
