<?xml version="1.0" encoding="UTF-8"?>
<!DOCTYPE svg PUBLIC "-//W3C//DTD SVG 1.1//EN" "http://www.w3.org/Graphics/SVG/1.1/DTD/svg11.dtd">
<!-- Creator: CorelDRAW 2021.5 -->
<svg xmlns="http://www.w3.org/2000/svg" xml:space="preserve" width="550mm" height="550mm" version="1.1" style="shape-rendering:geometricPrecision; text-rendering:geometricPrecision; image-rendering:optimizeQuality; fill-rule:evenodd; clip-rule:evenodd"
viewBox="0 0 55000 55000"
 xmlns:xlink="http://www.w3.org/1999/xlink"
 xmlns:xodm="http://www.corel.com/coreldraw/odm/2003">
 <defs>
  <style type="text/css">
   <![CDATA[
    .fil0 {fill:#FFED00}
   ]]>
  </style>
 </defs>
 <g id="Layer_x0020_1">
  <metadata id="CorelCorpID_0Corel-Layer"/>
  <path class="fil0" d="M14589.73 48081.54c4170.29,2058.06 8436.6,2987.25 12908.21,2987.25 15183.88,0 27499.98,-11433.95 27499.98,-25530.3 0,-14096.34 -12316.1,-25530.29 -27499.98,-25530.29 -15183.92,0 -27500.02,11433.95 -27500.02,25530.29 0,6187.5 2335.06,11796.8 6281.94,16241.03 -1925.43,4409.55 -3850.74,8819.13 -5776.17,13228.68 14086.04,-6926.66 9390.69,-4617.76 14086.04,-6926.66zm5133.3 -22529.95c0,1310.93 -471.93,2438.35 -1402.7,3382.27 -930.76,930.76 -2058.18,1402.69 -3395.39,1402.69 -1245.39,0 -2333.46,-471.93 -3264.24,-1428.97 -917.64,-943.84 -1376.49,-2071.27 -1376.49,-3355.99 0,-1324.07 471.93,-2464.57 1402.69,-3408.47 930.77,-930.78 2058.19,-1402.69 3395.4,-1402.69 1297.79,0 2399.02,471.91 3303.57,1428.96 891.44,943.85 1337.16,2071.26 1337.16,3382.2zm12494.3 0c0,1310.93 -471.93,2438.35 -1402.7,3382.27 -930.76,930.76 -2058.18,1402.69 -3395.39,1402.69 -1245.39,0 -2333.46,-471.93 -3264.24,-1428.97 -917.64,-943.84 -1376.49,-2071.27 -1376.49,-3355.99 0,-1324.07 471.93,-2464.57 1402.69,-3408.47 930.77,-930.78 2058.19,-1402.69 3395.4,-1402.69 1297.79,0 2399.02,471.91 3303.57,1428.96 891.44,943.85 1337.16,2071.26 1337.16,3382.2zm12494.3 0c0,1310.93 -471.93,2438.35 -1402.7,3382.27 -930.76,930.76 -2058.18,1402.69 -3395.39,1402.69 -1245.39,0 -2333.46,-471.93 -3264.24,-1428.97 -917.64,-943.84 -1376.49,-2071.27 -1376.49,-3355.99 0,-1324.07 471.93,-2464.57 1402.69,-3408.47 930.77,-930.78 2058.19,-1402.69 3395.4,-1402.69 1297.79,0 2399.02,471.91 3303.57,1428.96 891.44,943.85 1337.16,2071.26 1337.16,3382.2zm-35099.4 19925.54c992.32,-487.97 1984.63,-975.93 2976.95,-1463.9l2004.12 -985.52 2002.75 988.39c3465.03,1709.99 7048.36,2519.11 10901.89,2519.11 11802.05,0 22966.41,-8637.31 22966.41,-20996.72 0,-12359.4 -11164.36,-20996.72 -22966.41,-20996.72 -11802.09,0 -22966.45,8637.32 -22966.45,20996.72 0,4971.18 1855.35,9534.1 5138.14,13230.61l1925.11 2167.7 -1160.1 2656.9c-274.14,627.82 -548.28,1255.61 -822.41,1883.43z"/>
 </g>
</svg>
