<?xml version="1.0" encoding="UTF-8"?>
<!DOCTYPE svg PUBLIC "-//W3C//DTD SVG 1.1//EN" "http://www.w3.org/Graphics/SVG/1.1/DTD/svg11.dtd">
<!-- Creator: CorelDRAW 2021.5 -->
<svg xmlns="http://www.w3.org/2000/svg" xml:space="preserve" width="550mm" height="550mm" version="1.1" style="shape-rendering:geometricPrecision; text-rendering:geometricPrecision; image-rendering:optimizeQuality; fill-rule:evenodd; clip-rule:evenodd"
viewBox="0 0 55000 55000"
 xmlns:xlink="http://www.w3.org/1999/xlink"
 xmlns:xodm="http://www.corel.com/coreldraw/odm/2003">
 <defs>
  <style type="text/css">
   <![CDATA[
    .fil0 {fill:#ffd500}
   ]]>
  </style>
 </defs>
 <g id="Layer_x0020_1">
  <metadata id="CorelCorpID_0Corel-Layer"/>
  <path class="fil0" d="M9606.92 45469.26c992.32,-487.97 1984.63,-975.93 2976.95,-1463.9l2004.12 -985.52 2002.75 988.39c3465.03,1709.99 7048.36,2519.11 10901.89,2519.11 11802.05,0 22966.41,-8637.31 22966.41,-20996.72 0,-12359.4 -11164.36,-20996.72 -22966.41,-20996.72 -11802.09,0 -22966.45,8637.32 -22966.45,20996.72 0,4971.18 1855.35,9534.1 5138.14,13230.61l1925.11 2167.7 -1160.1 2656.9c-274.14,627.82 -548.28,1255.61 -822.41,1883.43zm24501.77 -27435.33c0,910.72 -263.45,1708.57 -790.31,2401.02 -602.17,775.27 -1369.89,1166.67 -2303.2,1166.67 -737.63,0 -1347.3,-240.86 -1829.02,-730.09 -481.72,-481.72 -722.58,-1046.25 -722.58,-1693.52 0,-1001.08 406.45,-1753.76 1219.35,-2250.53 812.89,-504.31 1219.34,-910.76 1219.34,-1234.39 0,-504.31 -233.35,-903.22 -707.53,-1211.81 -466.68,-308.63 -1083.85,-466.67 -1851.57,-466.67 -955.9,0 -1738.71,270.95 -2348.38,805.35 -609.68,534.41 -918.27,1189.26 -918.27,1972.03 0,715.04 308.59,1633.3 925.81,2754.83 933.31,1701.03 1505.35,2799.97 1716.11,3296.74 609.68,1542.98 918.27,3213.92 918.27,5005.31 0,970.95 -67.77,2054.8 -218.27,3259.11l-1354.85 -22.59c0,-263.45 7.54,-466.68 22.59,-617.18l112.91 -1144.08c0,-820.44 -549.45,-1716.12 -1633.34,-2687.06 -1851.58,-1640.85 -2860.16,-2566.66 -3040.79,-2769.88 -1098.94,-1309.67 -1648.39,-2777.38 -1648.39,-4403.18 0,-1987.08 662.35,-3627.92 1979.56,-4937.59 1324.72,-1302.13 2958.02,-1956.98 4915,-1956.98 1761.25,0 3251.56,504.31 4485.95,1505.39 1234.4,1008.58 1851.61,2325.75 1851.61,3959.1zm-4019.31 17710.55c0,752.67 -270.96,1399.98 -805.36,1941.93 -534.4,534.4 -1181.71,805.36 -1949.47,805.36 -715.04,0 -1339.76,-270.96 -1874.17,-820.45 -526.86,-541.9 -790.31,-1189.22 -790.31,-1926.84 0,-760.22 270.96,-1415.04 805.36,-1956.98 534.4,-534.41 1181.71,-805.36 1949.47,-805.36 745.13,0 1377.4,270.95 1896.75,820.44 511.82,541.91 767.73,1189.22 767.73,1941.9zm-15504.96 12329.19c4170.29,2058.06 8436.6,2987.25 12908.21,2987.25 15183.88,0 27499.98,-11433.95 27499.98,-25530.3 0,-14096.34 -12316.1,-25530.29 -27499.98,-25530.29 -15183.92,0 -27500.02,11433.95 -27500.02,25530.29 0,6187.5 2335.06,11796.8 6281.94,16241.03 -1925.43,4409.55 -3850.74,8819.13 -5776.17,13228.68 14086.04,-6926.66 9390.69,-4617.76 14086.04,-6926.66z"/>
 </g>
</svg>
