<?xml version="1.0" encoding="UTF-8"?>
<!DOCTYPE svg PUBLIC "-//W3C//DTD SVG 1.1//EN" "http://www.w3.org/Graphics/SVG/1.1/DTD/svg11.dtd">
<!-- Creator: CorelDRAW 2021.5 -->
<svg xmlns="http://www.w3.org/2000/svg" xml:space="preserve" width="2892.1mm" height="2452.37mm" version="1.1" style="shape-rendering:geometricPrecision; text-rendering:geometricPrecision; image-rendering:optimizeQuality; fill-rule:evenodd; clip-rule:evenodd"
viewBox="0 0 289209.9 245236.7"
 xmlns:xlink="http://www.w3.org/1999/xlink"
 xmlns:xodm="http://www.corel.com/coreldraw/odm/2003">
 <defs>
  <style type="text/css">
   <![CDATA[
    .fil0 {fill:#D7ECE9;fill-rule:nonzero}
   ]]>
  </style>
 </defs>
 <g id="Layer_x0020_1">
  <metadata id="CorelCorpID_0Corel-Layer"/>
  <path class="fil0" d="M34708.08 162920.13c0,3493.49 -582.26,7444.43 -1788.34,11769.68 -1164.48,4366.85 -2703.28,8276.23 -4574.79,11769.69 -2911.23,5614.54 -5905.64,9856.61 -8983.22,12809.43 -3119.18,2911.22 -6571.08,4366.84 -10355.66,4366.84 -6030.41,0 -9024.81,-3659.85 -9024.81,-10979.51 0,-2495.33 415.86,-5198.61 1206.07,-8026.65 1039.71,-2994.41 2370.56,-5822.49 3909.35,-8401 1538.8,-2620.1 2828.08,-4824.33 3909.39,-6612.67 -1081.31,-291.09 -1705.15,-499.04 -1954.69,-582.22 -249.54,-83.18 -457.49,-124.77 -623.85,-124.77 -166.33,-665.44 374.31,-2412.15 1580.38,-5240.23l8650.54 -19630.01c831.76,-2037.84 1746.74,-3036 2828.05,-3036 790.17,0 2037.87,499.08 3701.4,1538.79 1663.56,998.16 3077.59,1913.11 4200.52,2744.91 2661.68,2412.14 4574.79,4782.7 5656.09,7028.53 1122.9,2287.37 1663.57,5822.45 1663.57,10605.19zm-11811.28 19255.7c0,-2328.96 -831.8,-4242.07 -2453.77,-5697.68 -831.76,-831.77 -1954.66,-1705.16 -3493.45,-2620.1 -1497.21,-956.57 -2703.31,-1497.2 -3701.44,-1663.56 -707.03,0 -1996.28,1414.02 -3826.17,4283.66 -1829.93,2828.05 -2744.9,5240.2 -2744.9,7194.89 0,3618.26 2204.23,5448.18 6571.07,5448.18 1954.69,0 4034.12,-707.03 6279.95,-2121.05 2245.79,-1414.03 3368.71,-3036 3368.71,-4824.34zm74901.79 -22998.72c0,-3036 -1871.51,-5323.38 -5572.95,-6945.35 -3493.45,-1538.8 -8359.37,-2328.97 -14514.55,-2328.97 -3160.77,0 -5240.23,249.5 -6238.36,748.58 -3327.12,1538.8 -4990.69,4865.92 -4990.69,9981.35 0,5032.28 1372.44,8941.67 4034.16,11686.54 2121.02,2370.55 4990.66,3535.04 8650.5,3535.04 5614.51,0 10106.12,-1871.48 13516.43,-5614.51 3410.31,-3742.99 5115.46,-7402.84 5115.46,-11062.68zm8400.96 -1580.39c-623.84,124.77 -1455.61,2037.88 -2412.14,5697.72 -831.8,3160.77 -1580.39,5697.69 -2329.01,7569.2 -3826.17,10147.71 -6612.63,16677.19 -8400.96,19630.01 -5365,8692.1 -12310.35,13017.35 -20836.09,13017.35 -5864.08,0 -10230.92,-2828.05 -13142.15,-8525.74 -3035.99,-5531.36 -4533.2,-13558.01 -4533.2,-24121.62 0,-4242.1 831.8,-11686.53 2453.77,-22416.5 1705.12,-11312.19 3160.74,-20420.19 4366.85,-27407.13 1372.43,-7735.56 2620.1,-14514.58 3659.81,-20378.63 1081.34,-6321.53 2204.23,-10896.32 3410.31,-13765.96l8276.23 -17301.01c748.58,-457.49 1164.48,-582.26 1247.66,-332.72 166.36,291.13 249.54,956.54 249.54,1913.1 0,1081.31 -124.77,2121.02 -374.31,3202.33 -166.36,790.21 -332.72,1913.1 -499.08,3410.3 -249.54,2661.69 -2037.87,14556.18 -5364.97,35683.39 -956.56,6571.04 -1746.74,11936.04 -2329,16011.76 -540.63,4117.3 -956.53,6945.35 -1206.07,8484.14 1289.25,0 8816.86,-8026.65 22541.24,-24121.62 10979.5,-12684.63 19588.42,-22624.42 25909.95,-29860.9 6279.95,-7236.48 10272.48,-11769.68 11977.63,-13641.2 5365,-6030.4 10064.53,-11353.78 14140.28,-15970.16 4075.71,-4616.38 7444.43,-8525.77 10106.12,-11686.53 11229.04,-13225.3 20378.63,-25494.06 27448.75,-36806.25l2162.61 -3285.54c998.15,-831.8 1206.1,-166.36 623.84,1954.69 -1372.43,5115.43 -2162.64,7860.3 -2328.96,8276.2 -2037.88,5531.36 -5032.29,11353.81 -9024.82,17425.81 -2495.36,4408.43 -6238.35,9773.4 -11187.45,16219.7 -5780.87,7527.61 -12476.72,15679.07 -20129.09,24371.16 -207.95,207.95 -4741.16,5240.2 -13516.43,14972.04 -2828.05,3160.77 -5656.1,6404.72 -8525.73,9690.22 -2828.05,3285.54 -5656.1,6654.26 -8401,10064.56l-14972.04 17384.19 -13516.43 15512.71c124.77,0 291.13,0 415.9,41.59 124.77,41.59 166.36,41.59 166.36,41.59l18174.4 3909.35c1206.07,332.72 2412.15,665.44 3576.63,1039.75 1164.52,374.31 2370.59,665.41 3618.26,914.95 5281.82,1538.79 8816.86,2329 10688.38,2329 1954.69,0 4907.51,-2370.59 8775.27,-7070.15l4034.16 -5739.28c499.04,0 1039.71,0 1663.53,0 582.26,0 1247.69,0 1996.28,0 1455.61,0 3119.18,-1039.72 4990.69,-3160.77 1954.66,-2370.56 3202.36,-4325.25 3784.58,-5864.04 499.08,-1372.44 914.98,-2245.79 1330.85,-2661.69 249.54,-83.18 998.16,-41.59 2329,124.77 1122.89,249.54 1913.1,124.77 2287.38,-374.31 1414.02,-1372.44 2578.54,-3867.77 3535.08,-7444.43 0,-249.54 291.13,-914.95 873.35,-2037.88 540.67,-1081.3 1081.34,-1580.38 1580.38,-1497.2 499.08,249.54 707.03,1621.97 707.03,4034.16 0,4865.88 -873.35,9107.99 -2661.68,12684.62 -1372.44,2495.37 -3119.18,4907.51 -5240.24,7194.89l-4741.15 3992.57 -3035.99 2828.05c-2037.84,2578.51 -3451.87,4117.3 -4283.67,4616.38 -1621.97,665.41 -3410.3,1414.02 -5364.96,2328.97 -707.03,374.31 -3160.77,2703.31 -7319.66,6945.38 -3243.95,3327.13 -6030.41,4990.66 -8401,4990.66 -249.54,0 -2079.46,-748.58 -5489.74,-2204.2 -1206.11,-499.08 -2370.59,-707.03 -3535.08,-707.03l0 -124.77zm68372.34 -157580.72c-249.54,2037.84 -2578.51,5864.05 -6945.38,11478.55 -5448.15,7319.66 -12809.4,15429.53 -22042.16,24371.16 166.36,-665.43 291.13,-1330.84 415.9,-2037.87 124.77,-665.4 249.54,-1372.43 415.86,-2121.02 1289.29,-2329 5240.23,-7527.61 11811.31,-15595.89 4075.71,-4782.74 7402.84,-8484.14 10022.93,-11062.68 3243.95,-3285.54 5364.97,-4949.07 6321.54,-5032.25zm-91745.37 56020.39c0,540.64 1871.51,2328.97 5656.13,5364.97 3784.58,2994.41 5947.22,4491.61 6529.45,4491.61 2495.36,0 5988.81,-4533.2 10480.46,-13641.19 1788.3,1289.25 3992.53,3368.72 6695.81,6196.76 1954.69,2037.88 3451.9,3077.59 4491.61,3077.59 1330.85,0 3451.9,-2162.64 6487.9,-6487.89 2911.23,-4450.03 4366.84,-8193.02 4366.84,-11187.43 0,-2620.13 -1455.61,-5448.18 -4366.84,-8525.76 -3036,-2786.46 -5489.77,-4158.9 -7444.43,-4158.9 -582.26,0 -2037.88,1954.7 -4408.43,5864.05 -1621.98,2744.87 -3327.13,5572.92 -5115.47,8525.77 -956.53,-2121.06 -2828.04,-4366.88 -5656.09,-6695.85 -2786.46,-2370.56 -4865.92,-3535.07 -6155.18,-3535.07 -790.21,0 -2952.81,3202.35 -6404.71,9607.07 -3451.9,6404.71 -5157.05,10106.12 -5157.05,11104.27zm11062.68 -30276.79c0,790.17 707.03,1705.12 2037.88,2661.68 1330.84,956.54 3243.94,2578.51 5780.86,4824.34 2536.92,2245.79 4158.9,3327.09 4865.92,3327.09 1206.08,0 3119.18,-2328.97 5656.1,-7070.12 2578.51,-4699.56 3867.76,-8400.97 3867.76,-11062.69 0,-2869.64 -1372.43,-5822.45 -4158.89,-8900.04 -2744.87,-2744.87 -5281.79,-4158.89 -7569.2,-4158.89 -873.35,0 -2828.05,3202.35 -5905.63,9565.48 -3036,6404.71 -4574.8,9981.35 -4574.8,10813.15zm111999.2 143648.43c-2828.05,7901.88 -5489.73,13682.78 -7901.92,17425.78 -2453.73,3743.02 -4366.84,6030.4 -5739.27,6945.38 -1372.44,873.36 -3451.87,1829.89 -6238.36,2869.64 -2744.87,998.12 -6945.35,2412.15 -12601.44,4242.07 -5656.13,1829.92 -8983.23,2744.87 -10064.57,2744.87 -623.81,0 -956.53,-166.36 -956.53,-499.08 -665.44,-873.36 2703.28,-3826.17 10106.12,-8775.27 7402.84,-4949.11 12185.58,-8193.02 14306.63,-9731.81 2162.61,-1538.8 4366.84,-3784.62 6612.63,-6737.44 2204.24,-2994.41 3867.8,-6321.53 4907.51,-10064.53 -1122.89,-166.36 -2287.38,83.18 -3451.86,665.41 -1206.11,623.85 -2329,914.98 -3493.49,914.98 -2994.4,-83.18 -5531.36,-1039.75 -7527.61,-2911.23 -2037.87,-1871.51 -2911.22,-3950.98 -2578.51,-6196.77 332.69,-1414.02 790.18,-2994.4 1414.03,-4824.33 582.22,-1829.92 1871.48,-4741.15 3826.17,-8692.09 1954.69,-3992.57 3909.35,-7278.1 5905.64,-9856.61 1996.28,-2620.1 3950.97,-3909.36 5905.63,-3909.36 3327.13,0 6113.59,1414.03 8359.41,4242.08 2245.79,2869.63 3368.69,6279.94 3368.69,10230.88 0,2037.88 -124.74,4034.13 -374.28,6030.41 -249.54,1996.28 -499.08,3659.85 -790.21,4990.69 -291.13,1330.85 -706.99,3036 -1247.66,5115.43 -499.08,2079.46 -1081.31,3992.56 -1746.75,5780.9zm60054.52 -10189.33c956.53,-457.46 1913.1,-873.36 2786.46,-1247.67 1081.34,2703.28 1538.79,5365 1455.61,7943.51 -83.18,2620.1 -540.63,5157.05 -1455.61,7693.97 -499.05,166.36 -2911.23,1039.71 -7319.66,2661.69 -4366.84,1621.97 -7070.12,2703.28 -8151.46,3160.77 -4283.66,1705.15 -9191.14,5947.22 -14680.91,12684.66 -5489.74,6737.4 -10189.3,12559.85 -14181.83,17425.77 -8193.05,10480.43 -17425.81,19130.94 -27656.7,25951.55 -2370.59,1372.43 -4990.69,2786.46 -7943.51,4283.66 -4200.48,2079.47 -7361.25,3618.26 -9482.3,4616.38 -1788.3,873.36 -3119.18,1081.31 -4034.12,623.85 -415.9,-665.44 -207.95,-1414.02 623.84,-2204.23 457.46,-332.72 1039.72,-790.17 1705.16,-1372.43 623.81,-457.49 1372.43,-1039.72 2204.2,-1663.57l10230.89 -7319.66c6654.25,-5281.82 10605.19,-8608.91 11936.04,-10022.94 3743.02,-3493.48 6363.12,-6196.76 7901.92,-8151.45 1705.15,-1455.62 3992.56,-3992.54 6820.61,-7527.61 2037.84,-2453.74 6279.95,-8359.41 12684.63,-17675.32 3659.84,-5115.46 6571.07,-9024.81 8775.27,-11728.13 3160.77,-3535.04 6196.77,-6529.45 9149.58,-8858.45 2994.41,-2121.02 5988.82,-3867.76 8983.23,-5240.2 1164.52,-582.26 4366.87,-1913.1 9648.66,-4034.15zm19338.88 -22125.34c0,5281.82 -914.94,10355.65 -2786.46,15304.76 -1871.51,4907.51 -3826.2,8858.45 -5905.63,11811.27 -2079.47,2952.82 -4699.56,6071.99 -7860.33,9315.94 -665.44,-332.72 -1164.49,-1039.71 -1580.39,-2204.23 -415.89,-1122.9 -665.43,-2412.15 -748.58,-3826.18 -83.18,-1414.02 41.59,-2911.22 374.28,-4491.61 332.71,-1621.97 998.15,-3077.58 1954.69,-4450.02 3077.59,-2204.23 4616.38,-3950.94 4616.38,-5240.23 0,-998.12 -540.67,-2370.56 -1705.15,-4158.89 -1206.08,-1788.34 -2287.38,-2661.69 -3285.54,-2661.69 -790.18,457.49 -1788.33,831.76 -2911.23,1081.3 -1289.25,166.36 -2495.33,249.54 -3535.04,249.54 -1954.7,0 -3701.44,-707.03 -5240.23,-2079.46 -1538.8,-1289.25 -2328.97,-3119.18 -2328.97,-5489.74 0,-790.17 790.17,-2952.81 2328.97,-6446.3 1122.89,-2536.92 2287.38,-4990.66 3410.3,-7444.43 748.59,-1289.25 1996.25,-3576.63 3784.59,-6820.58 1788.33,-3243.95 3535.07,-4865.92 5240.23,-4865.92 4533.2,0 8359.37,2037.87 11436.96,6071.99 3160.77,4075.72 4741.15,9523.9 4741.15,16344.48zm-19837.96 -75733.59c0,-1788.33 1538.79,-5656.09 4574.79,-11644.91 3036,-5988.82 4990.69,-8941.63 5905.64,-8941.63 1788.33,-748.62 4366.84,623.81 7777.15,4075.71 3410.3,3451.9 5240.23,6155.17 5489.73,8109.87 0,2578.51 -1414.02,6321.53 -4242.07,11187.42 -2869.64,4865.92 -4907.48,7319.66 -6238.35,7319.66 -457.46,-249.51 -2162.61,-1330.84 -5032.25,-3243.91 -2911.23,-1871.52 -5032.28,-3327.13 -6404.72,-4325.29 -1206.07,-790.18 -1829.92,-1663.53 -1829.92,-2536.92z"/>
 </g>
</svg>
