<?xml version="1.0" encoding="UTF-8"?>
<!DOCTYPE svg PUBLIC "-//W3C//DTD SVG 1.1//EN" "http://www.w3.org/Graphics/SVG/1.1/DTD/svg11.dtd">
<!-- Creator: CorelDRAW 2021.5 -->
<svg xmlns="http://www.w3.org/2000/svg" xml:space="preserve" width="699.752mm" height="1160.96mm" version="1.1" style="shape-rendering:geometricPrecision; text-rendering:geometricPrecision; image-rendering:optimizeQuality; fill-rule:evenodd; clip-rule:evenodd"
viewBox="0 0 69975.18 116095.7"
 xmlns:xlink="http://www.w3.org/1999/xlink"
 xmlns:xodm="http://www.corel.com/coreldraw/odm/2003">
 <defs>
  <style type="text/css">
   <![CDATA[
    .fil0 {fill:#B7AD06}
    .fil1 {fill:#EAE243}
   ]]>
  </style>
 </defs>
 <g id="Layer_x0020_1">
  <metadata id="CorelCorpID_0Corel-Layer"/>
  <g id="_1761149179328">
   <path class="fil0" d="M53455.44 36255.32c-1535.16,480.54 -2974.66,1394.21 -4153.42,2738.78 -3569.22,4070.54 -3399.4,10544.16 379.17,14459.26 1727.91,1790.36 3911.17,2735.12 6113.42,2844.53 -3112.87,973.86 -6619.89,164.79 -9150.42,-2457.16 -3778.51,-3914.97 -3948.26,-10388.65 -379.17,-14459.25 1936.93,-2209.14 4576.95,-3255.84 7190.42,-3126.16zm12739.57 20242.07c5243.43,-5980.24 4994,-15490.92 -557.2,-21242.69 -3529.15,-3656.71 -8351.72,-4912.84 -12744.07,-3806.58 3477.86,-24.47 6978.88,1367.15 9707.21,4193.95 5551.18,5751.78 5800.43,15262.45 557.06,21242.69 -1909.9,2178.18 -4285.12,3586.52 -6801.5,4220.35 3598.44,-25.28 7171.98,-1566.72 9838.5,-4607.72zm-51788.91 -21897.83c-1535.18,480.36 -2974.6,1394.21 -4153.44,2738.72 -3569.21,4070.6 -3399.26,10544.16 379.05,14459.45 1728.03,1790.15 3911.29,2734.99 6113.42,2844.22 -3112.75,973.85 -6619.77,164.97 -9150.22,-2457.17 -3778.65,-3914.84 -3948.26,-10388.66 -379.24,-14459.12 1936.94,-2208.96 4576.68,-3255.85 7190.43,-3126.1zm12739.43 20242.01c5243.55,-5980.24 4994.12,-15490.93 -557.12,-21242.83 -3529.09,-3656.64 -8351.72,-4912.71 -12744.01,-3806.46 3477.98,-24.51 6979,1367.17 9707.27,4193.95 5551.12,5751.78 5800.35,15262.47 557.06,21242.71 -1909.98,2178.18 -4285.12,3586.5 -6801.58,4220.35 3598.58,-25.36 7172.04,-1566.6 9838.38,-4607.72z"/>
   <path class="fil1" d="M59948.43 53559.24c3568.89,-4070.72 3399.34,-10544.41 -379.25,-14459.38 -3778.57,-3914.97 -9735.08,-3788.97 -13304.16,281.62 -3569.03,4070.46 -3399.4,10544.28 379.25,14459.13 3778.37,3915.3 9735,3789.09 13304.16,-281.37zm-39049.36 -1655.9c3568.9,-4070.66 3399.34,-10544.34 -379.23,-14459.31 -3778.59,-3914.98 -9735.08,-3788.97 -13304.17,281.63 -3569.02,4070.46 -3399.41,10544.28 379.24,14459.12 3778.39,3915.31 9735.02,3789.04 13304.16,-281.44zm3675.62 -29299.94c349.62,-212.46 806.42,-215.95 1165.87,28.33 490.46,333.29 618.67,1005.13 285.42,1495.75 -451.31,664.16 -1246.78,831.65 -2030.1,753.26 -878.5,-87.93 -1533.24,-473.96 -2007.78,-1036.31 -1312.01,-1554.08 -1252.9,-4457.39 -765.78,-6151.48 500.02,-1739.43 985.09,-3490.38 1407.49,-5250.33 184.53,-769.07 360.59,-1546.91 496.6,-2326.24 70.47,-404.15 172.92,-980.25 150.46,-1389.56 -102.2,-1857.71 -416.2,-4128.15 -1824.28,-5473.25 -1956.49,-1869.13 -6894.23,-1179.8 -8473.98,825.85 -1132.12,1437.62 -1349.75,2723.16 -1362.52,4546.69 -18.27,2625.48 802.68,5234.91 1969.38,7677.8 1607.76,3365.98 4167.65,6141.23 4514.69,9999.67 170.92,1901.72 -313.05,3111.9 -1500.02,3707.1 -24.9,15.55 -50.65,30.33 -76.78,44.91 2551.55,524.87 5002.98,1832.08 7028.31,3930.64 5551.12,5751.78 5800.35,15262.47 557.06,21242.71 -3431.47,3913.56 -8365.15,5344.85 -12921.12,4254.93 646.62,290.98 1070.9,969.27 1003.98,1713.63l-152.85 1703.9c-71.41,795.07 -680.54,1416.33 -1435.67,1536.4l-9.23 103.35c721.72,252.87 1210.52,972.45 1139.08,1767.58l-152.91 1703.82c-71.35,795.15 -680.48,1416.34 -1435.61,1536.47l-11.16 124.34c706.93,288.33 1158.96,1029.92 1049.27,1819.57l-235.23 1694.41c-109.81,790.69 -748.31,1381.69 -1508.34,1465.11l-17.1 122.91c692.82,320.98 1109.73,1082.83 963.22,1866.48l-313.96 1681.57c-146.79,784.76 -812.03,1345.23 -1575.11,1393.23l-22.96 122.97c676.09,354.61 1055.07,1135.94 870.49,1911.46l-396.28 1664.22c-184.91,776.56 -876.94,1303.81 -1641.51,1314.19l-33.28 139.87c639,415.33 944.04,1226.39 689.9,1980.76l-545.9 1621.17c-254.79,756.56 -991.93,1218.71 -1754.16,1159.61l-59.67 177.04c545.76,525.58 693.9,1373.81 308.2,2065.46l-832.81 1494.41c-388.86,697.2 -1197.68,1016.82 -1936.42,819.46l-10.01 17.81c649.91,404.59 969.8,1214.76 725.53,1975.51l-522.74 1628.86c-288.14,897.27 -1254.06,1393.87 -2151.47,1105.92 -897.59,-288.13 -1394.19,-1254.18 -1106.18,-2151.59l523.07 -1628.72c241.61,-753.34 961.14,-1224.01 1716.65,-1185.54l94.53 -169.57c-556.23,-524.54 -709.97,-1380.65 -321.25,-2077.78l832.82 -1494.46c389.05,-697.78 1199.16,-1017.35 1938.55,-818.88l8.39 -25.1c-642.74,-414.16 -950.11,-1227.74 -695.38,-1984.3l545.95 -1621.17c255.19,-757.46 993.61,-1219.56 1756.87,-1159.24l15.09 -63.41c-677.7,-353.95 -1057.73,-1136.25 -873,-1912.69l396.27 -1664.27c184.98,-777.13 877.92,-1304.58 1643.18,-1314.25l15.23 -81.5c-694.3,-320.27 -1112.32,-1083.02 -965.73,-1867.64l314.15 -1681.71c146.58,-785.13 812.95,-1345.94 1576.79,-1393.22l11.55 -82.91c-708.49,-287.49 -1161.68,-1030.05 -1051.93,-1820.73l235.3 -1694.41c109.82,-791.33 749.21,-1382.4 1510.08,-1465.25l7.49 -82.84c-721.53,-252.85 -1210.19,-972.37 -1138.9,-1767.51l152.98 -1703.82c71.29,-795.01 680.35,-1416.02 1435.23,-1536.34l9.22 -103.55c-721.45,-252.85 -1210.05,-972.45 -1138.76,-1767.45l152.97 -1703.89c84.2,-938.64 917.98,-1634.92 1856.61,-1550.73l6.32 0.65c-2208.76,-629.98 -4309.9,-1860.75 -6083.98,-3698.89 -5551.19,-5751.66 -5800.63,-15262.53 -557.06,-21242.71 2626.98,-2995.96 6134.31,-4537.52 9678.5,-4606.43 1960.23,-992.3 2346.24,-2456.51 2270.76,-3297 -278.14,-3094.35 -2689.63,-6010.83 -4056.41,-8745.81 -1436.33,-2874.6 -2458.31,-5971.15 -2436.06,-9139.69 15.94,-2302.06 395.64,-4050.33 1823.96,-5863.91 2356.9,-2992.93 8763.88,-3811.1 11653.44,-1050.58 1844.68,1762.09 2351.74,4453.65 2486.78,6912.04 32.91,596.22 -76.66,1290.31 -179.23,1878.08 -143.76,823.86 -328.86,1645.44 -523.97,2458.58 -429.82,1791.06 -922.96,3572.71 -1431.89,5342.67 -217.8,757.66 -510.73,2237.53 -348.33,3009.19 39.68,188.39 803.65,1998.17 1631.12,1306.32zm-5685.85 68717.44c92.33,197.25 112.08,428.68 37.1,649.91l-548.35 1620.48c-154.19,455.5 -652.74,701.84 -1108.18,547.83l-0.06 0c-455.44,-154.07 -701.91,-652.56 -547.83,-1108.06l548.34 -1620.46c124.71,-368.8 475.57,-600.55 846.37,-593.52l-189.44 1319.74c-32.77,227.69 126.86,440.94 354.47,473.51 227.75,32.72 440.74,-126.85 473.39,-354.85l134.19 -934.58zm-8322.88 -31146.8l0.14 0c478.74,42.9 835.45,469.88 792.36,948.75l-152.85 1703.82c-29.55,328.23 -239.43,598.94 -522.73,722.95l107.62 -1199.03c20.58,-229.17 -150.07,-433.37 -379.19,-453.96 -229.1,-20.58 -433.37,150 -453.96,379.18l-107.62 1198.97c-256.52,-172.46 -414.85,-476.22 -385.43,-804.5l152.97 -1703.7c42.9,-478.86 469.9,-835.47 948.69,-792.48zm-51.86 5255.29l-107.62 1199.17c-20.59,229.1 -224.47,399.62 -453.38,379.23 228.91,20.84 399.31,224.98 378.73,453.96l-107.62 1199.09c283.3,-123.99 493.18,-394.73 522.73,-722.99l152.85 -1703.84c29.56,-328.2 -128.84,-632.22 -385.69,-804.62zm-561.97 1578.4c-228.92,-20.64 -399.31,-224.91 -378.73,-454.01l107.61 -1198.84c-283.23,124.07 -493.06,394.67 -522.41,722.81l-153.03 1703.76c-29.36,328.28 128.84,632.03 385.49,804.49l107.63 -1199.03c20.58,-228.98 224.52,-399.5 453.44,-379.18zm98.9 3582.26l-103.22 1149.73c-20.59,229.31 -224.78,399.83 -453.96,379.25 -229.11,-20.46 -399.76,-224.8 -379.19,-454.03l111.43 -1240.64c-311.43,98.97 -555.96,369.37 -603.78,713.2l-235.3 1694.27c-45.28,326.47 98.08,637.59 346.09,822.3l165.61 -1192.44c31.62,-227.89 243.84,-388.4 471.71,-356.73 227.83,31.62 388.4,243.82 356.79,471.71l-165.61 1192.43c288.98,-110.12 511.7,-370.34 557.05,-696.68l235.37 -1694.53c42.59,-306.92 -81.75,-600.29 -302.99,-787.84zm-755.65 5095.67l-159.03 1145.28c-31.62,228.09 -243.96,388.55 -471.84,356.93 -227.81,-31.62 -388.27,-243.95 -356.66,-471.9l171.1 -1232.45c-314.85,84.84 -570.99,343.24 -634.6,683.78l-314.22 1681.51c-60.46,323.95 68.13,641.38 307.25,837.39l221.03 -1183.28c42.34,-226.08 261.89,-376.6 487.97,-334.28 226.21,42.19 376.66,261.82 334.47,487.9l-221.18 1183.41c293.83,-96.52 528.54,-346.08 589,-670.02l314.22 -1681.71c56.97,-305.25 -54.2,-604.87 -267.51,-802.56zm-991.47 5058.91l-211.88 1134.18c-42.19,226.28 -261.75,376.54 -487.95,334.34 -226.08,-42.19 -376.54,-261.82 -334.22,-487.96l228.79 -1224.91c-319.76,68.46 -589.33,314.36 -669.72,652.31l-396.21 1664.02c-76.32,320.6 36.51,643.89 265.89,851.52l278.78 -1171.03c53.36,-223.88 279.96,-363.36 503.71,-310.08 223.89,53.23 363.31,279.95 310.08,503.78l-278.92 1171.14c298.14,-81.87 544.93,-319.75 621.25,-640.28l396.23 -1664.28c71.67,-301.24 -23.75,-604.94 -225.83,-812.75zm-1252.18 5052.07l-255.38 1072.43c-53.23,224.08 -279.95,363.58 -503.64,310.08 -223.81,-53.09 -363.37,-279.82 -310.08,-503.76l295.83 -1242.71c-340.4,25.41 -650.3,250.13 -765.71,592.48l-545.85 1621.31c-105.23,312.4 -22.05,644.55 187.24,872.17l384.15 -1140.77c73.49,-218.14 311.82,-336.46 529.96,-262.97 217.88,73.42 336.21,311.69 262.79,529.77l-384.21 1140.89c304.34,-54.46 571.77,-268.92 676.88,-581.19l545.95 -1621.12c92.59,-275.11 39.16,-565.64 -117.93,-786.61zm-1790.17 5023.86l-301.24 894.69c-73.55,218.2 -311.88,336.54 -529.89,262.99 -217.96,-73.17 -336.34,-311.82 -262.79,-529.84l425.43 -1263.55c-363.42,-74 -750.35,90.33 -939.9,430.34l-832.89 1494.21c-160.46,287.82 -139.48,629.78 24.78,891.67l586.16 -1051.55c112,-200.79 368.01,-273.69 568.93,-161.75 200.97,112.07 273.75,368.15 161.69,568.93l-586.17 1051.67c309.37,2 611.13,-159.94 771.72,-447.89l832.88 -1494.21c113.74,-203.94 136.33,-435.04 81.29,-645.71zm-2538.19 4117.11l-652.55 1170.84c-112.14,201.11 -368.14,273.83 -569.12,161.82 -200.97,-112.08 -273.75,-368.09 -161.63,-568.94l442.74 -794.29c-177.55,105.23 -319.05,272.84 -386.66,483.69l-522.93 1628.54c-146.91,457.84 107.35,952.62 565.05,1099.55l0.13 0.06c457.58,147.03 952.51,-107.31 1099.41,-565.01l522.74 -1628.98c120.52,-374.66 -28.25,-773.97 -337.18,-987.28zm11848.73 -34268.79l0.14 0c480.74,-8.38 880.75,378.22 888.88,858.96l29.49 1710.47c5.55,329.5 -174.2,621.07 -442.8,774.62l-20.72 -1203.99c-3.86,-229.89 -195.29,-414.81 -425.17,-410.93 -230.15,4.01 -414.99,195.43 -411.19,425.38l20.72 1203.6c-273.57,-144.07 -463.19,-429.23 -468.87,-758.8l-29.42 -1710.36c-8.06,-480.6 378.34,-880.75 858.94,-888.95zm-14.26 -836.42c942.44,-16.06 1723.71,738.62 1739.77,1680.98l29.3 1710.49c13.61,798.09 -525.9,1480.59 -1263.81,1680.6l2.58 145.11c721.14,245.81 1215.61,957.46 1154.32,1750.98l-131.36 1705.57c-61.37,795.85 -662.62,1424.72 -1416.14,1554.47l-12.2 157.74c683.92,333 1086.45,1098.58 928.89,1877.53l-339.05 1676.72c-158.27,782.44 -831.78,1332.98 -1595.5,1369.57l-17.17 85.16c703.08,302.4 1140.77,1055.21 1013.73,1843.77l-272.26 1689.05c-127.11,788.11 -778.24,1364.91 -1539.95,1431.75l-9.35 57.68c732.02,225.12 1248.44,927.09 1206.12,1725.45l-90.19 1708.28c-42.14,797.19 -627.98,1440.39 -1378.27,1588.34l-5.43 103.55c730.56,226.08 1245.37,927.46 1203.29,1724.48l-90.19 1708.41c-42.27,797.08 -628.16,1440.26 -1378.27,1588.07l-8.46 161.11c689.27,321.18 1104.52,1079.8 960.45,1860.93l-309.96 1682.29c-144.77,785.07 -808.75,1347.03 -1571.75,1396.91l-29.81 161.82c638.68,412.27 946.56,1219.79 697.65,1974.02l-536.16 1624.48c-250.14,758.03 -984.56,1224.58 -1747.19,1170.05l-53.03 160.91c570.8,501.2 757.2,1344.28 401.11,2053.73l-767.58 1528.65c-358.22,713.52 -1152.7,1067.73 -1899.2,902.44l-46.57 92.85c578.47,500.15 768.86,1349.03 410.65,2062.35l-767.52 1528.8c-358.02,713.32 -1152.64,1067.6 -1899.26,902.42l-23.79 47.43c635.82,426.99 927.38,1248.57 656.41,2000.48l-579.77 1609.39c-319.51,886.67 -1302.52,1349.03 -2189.09,1029.46 -886.75,-319.43 -1349.03,-1302.38 -1029.6,-2189.21l579.96 -1609.43c269.37,-747.65 1010.58,-1193.48 1768.04,-1123.35l70.33 -140.2c-578.48,-500.03 -768.75,-1348.71 -410.67,-2062.11l767.59 -1528.92c358.28,-713.26 1152.64,-1067.47 1899.12,-902.42l46.65 -92.79c-578.47,-500.09 -769.06,-1348.71 -410.79,-2062.17l767.52 -1528.78c358.6,-714.24 1154.64,-1068.31 1902.1,-901.66l13.09 -39.93c-645.25,-410.16 -957.53,-1221.87 -707.38,-1979.98l536.15 -1624.6c250.41,-759.07 986.31,-1225.87 1750.03,-1169.99l8.32 -45.23c-695.2,-318.41 -1114.96,-1080.31 -970.17,-1865.46l310.08 -1682.34c144.77,-786.05 810.35,-1348.46 1574.58,-1397.11l2.59 -49.03c-730.43,-226.21 -1245.03,-927.34 -1202.97,-1724.54l90.27 -1708.22c42.06,-797.13 627.77,-1440.07 1377.87,-1588.01l5.49 -103.74c-730.49,-226.34 -1245.11,-927.48 -1202.91,-1724.68l90.21 -1708.21c42,-794.17 623.64,-1435.56 1369.75,-1586.61l23.99 -149.28c-702.03,-302.93 -1138.89,-1055.1 -1012.05,-1843.06l272.54 -1689.06c126.84,-787.13 776.73,-1363.49 1537.16,-1431.56l23.95 -118.66c-689.45,-330.46 -1096.2,-1099.34 -937.8,-1881.7l339.06 -1676.86c158.45,-783.47 833.52,-1334.33 1598.53,-1369.75l4 -51.74c-724.81,-243.82 -1222.39,-957.28 -1160.96,-1753.19l131.55 -1705.58c61.23,-796.87 663.84,-1426.2 1418.78,-1554.79l-1.09 -63.92c-744.36,-174.66 -1306.79,-838.18 -1320.6,-1636.29l-29.34 -1710.41c-16.06,-942.36 738.8,-1723.51 1681.04,-1739.7zm524.16 6173.09l18.9 1098.06c4,230.13 -180.96,421.57 -410.99,425.51 -229.93,4.06 -421.49,-181.04 -425.37,-411.07l-21.93 -1279.16c-324.99,107.43 -571.78,401.96 -599.58,762.95l-131.49 1705.64c-25.42,328.66 136.71,630.28 395.44,799.53l92.65 -1200.14c17.55,-229.43 219.75,-402.67 448.98,-384.92 229.38,17.55 402.73,219.75 385,449.12l-92.53 1200.32c281.63,-127.55 488.09,-401.05 513.38,-729.59l131.69 -1705.63c22.06,-287.7 -99.68,-554.93 -304.15,-730.62zm-497.38 5193.94l-81.29 1054.06c-17.74,229.56 -219.75,402.73 -449.13,385.04 -229.43,-17.61 -402.66,-219.74 -384.91,-449.3l99.81 -1294.33c-346.72,58.59 -639.78,324.92 -713.26,688.75l-339.12 1676.66c-65.29,322.98 58.72,642.29 294.79,841.91l238.59 -1179.92c45.68,-225.57 267.44,-372.67 492.8,-327.11 225.57,45.54 372.73,267.37 326.99,492.8l-238.6 1180.18c295.32,-92.14 533.65,-338.27 598.94,-661.33l339.12 -1676.79c54.26,-268.15 -21.95,-533.83 -184.73,-730.62zm-1120.44 4884.51l-245.37 1214.19c-45.81,225.57 -267.5,372.66 -493.05,327.12 -225.44,-45.69 -372.54,-267.24 -327,-493.06l230.6 -1140.58c-271.11,112.72 -480.16,358.73 -530.16,668.1l-272.26 1689c-52.34,325.23 84.19,639.31 328.14,829.46l191.62 -1188.45c36.53,-227.24 252.21,-383 479.39,-346.35 226.98,36.59 383.04,252.34 346.53,479.51l-191.7 1188.65c291.32,-103.88 519.59,-359.25 572.1,-684.56l272.4 -1688.92c54.78,-339.69 -96.71,-667.32 -361.24,-854.11zm-770.43 5007.56l-205.11 1271.87c-36.51,227.23 -252.2,382.92 -479.43,346.39 -227.06,-36.65 -382.86,-252.33 -346.28,-479.57l171.87 -1066.25c-216.97,148.79 -365.3,393.18 -380.14,674.55l-90.27 1708.28c-17.22,329.18 151.95,626.87 414.73,789.85l63.56 -1202.19c12.07,-229.57 210.01,-407.64 439.64,-395.57 229.87,12.4 407.96,210.14 395.69,439.89l-63.55 1202.06c278.59,-134.25 478.41,-412.4 495.76,-741.65l90.27 -1708.21c19.22,-365.95 -192.47,-693.26 -506.74,-839.45zm-179.04 5174.13l-63.55 1202.18c-11.93,229.75 -209.75,407.9 -439.32,395.83 229.63,12.07 407.5,210.01 395.58,439.77l-63.55 1202.19c278.46,-134.27 478.22,-412.54 495.63,-741.79l90.39 -1708.14c17.36,-329.19 -152.25,-627.07 -415.18,-790.04zm-503.05 1597.88c-229.89,-11.99 -407.9,-209.81 -395.83,-439.56l63.55 -1202.14c-278.34,134.41 -477.97,412.47 -495.44,741.47l-90.27 1708.47c-17.22,328.98 152.02,626.54 414.79,789.51l63.49 -1202.12c12.2,-229.61 209.94,-407.62 439.71,-395.63zm224.13 3684.19l-55.23 1044.83c-12.12,229.95 -209.88,407.88 -439.63,395.76 -229.75,-12.12 -407.76,-209.94 -395.7,-439.77l68.78 -1300.77c-348.15,62.52 -639.65,334.79 -707.32,701.97l-310.16 1682.48c-59.67,323.94 69.81,641.06 309.45,836.55l218.2 -1183.87c41.81,-226.39 260.91,-377.18 487.25,-335.5 226.27,41.74 376.98,260.86 335.56,487.26l-218.26 1183.74c293.49,-97.31 527.5,-347.44 587.25,-671.39l310.22 -1682.42c48.96,-265.17 -28.98,-525.76 -190.41,-718.87zm-1079.98 5095.09l-187.63 1017.74c-41.61,226.52 -260.86,377.45 -486.92,335.63 -226.27,-41.62 -377.32,-260.85 -335.58,-487.12l236.86 -1285.3c-355.83,12.26 -684.61,242.86 -802.36,599.46l-536.03 1624.46c-103.24,313.05 -18.2,644.76 192.59,871.08l377.24 -1143.15c72.07,-218.53 309.82,-338.21 528.29,-266.14 218.46,72.13 338.14,309.82 265.89,528.28l-377.25 1143.29c304.21,-56.26 570.16,-272.28 673.38,-585.39l536.03 -1624.46c83.3,-252.22 44.13,-516.75 -84.51,-728.38zm-1774.62 4907.42l-318.91 966.37c-72.01,218.53 -309.62,338.22 -528.16,266.08 -218.52,-72.01 -338.15,-309.63 -266.08,-528.34l411.32 -1246.59c-356.55,-43.87 -719.98,136.52 -889.86,474.87l-767.58 1528.78c-147.76,294.53 -112.08,635.33 63.41,889.92l540.16 -1075.99c103.23,-205.63 355.76,-289.36 561.39,-186.13 205.56,103.28 289.37,355.95 186.27,561.44l-540.29 1075.99c309.05,-11.43 603.58,-186.4 751.52,-480.8l767.65 -1528.79c116.33,-231.76 118.98,-492.27 29.16,-716.81zm-2395.21 4413.13l-540.16 1075.79c-103.29,205.7 -355.82,289.38 -561.44,186.41 205.68,103.23 289.3,355.76 186.19,561.44l-540.29 1075.93c308.93,-11.36 603.72,-186.2 751.66,-480.87l767.46 -1528.66c148.01,-294.53 112.2,-635.31 -63.42,-890.04zm-1101.74 1262.06c-205.49,-103.23 -289.36,-355.76 -185.94,-561.58l540.03 -1075.66c-308.93,11.55 -603.45,186.39 -751.39,480.74l-767.52 1528.78c-147.82,294.53 -112.02,635.19 63.35,889.79l540.15 -1075.8c103.16,-205.68 355.77,-289.5 561.32,-186.27zm-1159.35 3241.71l-581.63 1158.33c-103.23,205.82 -355.9,289.57 -561.46,186.4 -205.63,-103.24 -289.42,-355.9 -186.07,-561.72l476.28 -948.62c-242.97,83.03 -447.76,271.3 -541,530.28l-579.83 1609.31c-163.11,452.41 73.68,955.6 525.96,1118.57l0.13 0c452.34,163.05 955.66,-73.61 1118.7,-525.96l579.9 -1609.49c125.49,-348.41 13.75,-727.07 -250.98,-957.1zm13826.14 -50246.36l0.12 -0.14c478.54,-44.51 906.76,310.73 951.15,789.47l158.46 1703.3c30.44,328.15 -126.85,632.56 -383.06,805.85l-111.43 -1198.77c-21.28,-229.04 -226.07,-399.04 -455.18,-377.69 -229.04,21.29 -398.93,226.07 -377.75,455.18l111.55 1198.64c-283.63,-123.16 -494.35,-393.12 -524.94,-721.26l-158.33 -1703.31c-44.51,-478.61 310.67,-906.76 789.41,-951.27zm-77.5 -832.89c938.44,-87.29 1774.54,606.42 1861.7,1544.72l158.48 1703.45c73.81,794.75 -412.48,1516.2 -1133.36,1771.25l9.55 103.22c755.59,117.83 1366.77,736.96 1440.58,1531.83l158.48 1703.31c73.81,794.88 -412.48,1516.22 -1133.36,1771.25l11.55 124.26c747.53,155.37 1326.32,802.88 1361.62,1599.25l75.68 1709c35.29,797.52 -485.44,1494.46 -1217.74,1714.34l5.49 123.75c739.51,190.07 1287.54,863.91 1285.54,1661.11l-4.06 1710.61c-2,798.36 -554.74,1470.2 -1296.52,1655.62l-0.31 125.06c729.25,226.2 1243.48,925.98 1202.5,1722.14l-88.06 1708.41c-41.04,797.14 -626.04,1441.05 -1376.01,1589.96l-7.49 143.62c703.66,292.66 1150.7,1034.95 1037.47,1822.79l-243.04 1693.38c-113.43,790.18 -754.63,1378.15 -1514.98,1458.14l-26.58 184.98c631.96,417.96 931.52,1225.48 677.52,1975.53l-548.22 1620.59c-302.22,892.62 -1275.74,1374.07 -2168.38,1071.86 -892.87,-301.88 -1374.46,-1275.68 -1072.24,-2168.37l548.16 -1620.66c256.08,-756.68 994.88,-1217.81 1758.02,-1156.58l3.74 -26.13c-707.2,-290.66 -1157.03,-1035.27 -1043.54,-1825.57l243.12 -1693.18c113.61,-791.27 756.23,-1379.49 1517.75,-1458.47l3.35 -65.04c-730.62,-225.23 -1246.32,-925.91 -1205.35,-1722.79l88.2 -1708.6c40.91,-797.85 626.88,-1442.07 1377.68,-1590.22l0.2 -82.97c-740.82,-189.1 -1290.2,-863.46 -1288.2,-1661.7l4.2 -1710.79c1.87,-798.68 555.44,-1470.92 1298.06,-1655.82l-3.68 -83.82c-748.88,-154.39 -1329.16,-802.36 -1364.44,-1599.89l-75.69 -1708.99c-35.42,-798.17 486.28,-1495.3 1219.55,-1714.67l-7.69 -82.71c-755.39,-117.94 -1366.46,-737.07 -1440.39,-1531.89l-158.33 -1703.38c-74.07,-794.68 412.35,-1515.88 1133.02,-1771.05l-9.67 -103.43c-755.39,-117.94 -1366.34,-736.93 -1440.41,-1531.89l-158.32 -1703.3c-87.23,-938.32 606.55,-1774.28 1544.85,-1861.52zm979.03 6010.57l111.35 1198.77c21.23,228.14 -146.97,431.95 -374.4,454.99 227.81,-19.36 430.79,149.94 452.01,377.88l111.57 1198.91c256.2,-173.31 413.5,-477.7 382.92,-805.85l-158.34 -1703.32c-30.58,-328.26 -241.3,-598.21 -525.11,-721.38zm-269.51 1654.27c-227.75,19.43 -430.8,-149.94 -451.89,-378.01l-111.55 -1198.65c-256.02,173.37 -413.31,477.65 -382.74,805.73l158.34 1703.18c30.58,328.27 241.3,598.35 524.93,721.39l-111.43 -1198.77c-21.16,-227.95 146.91,-431.89 374.34,-454.87zm749.27 3504.7l106.9 1149.55c21.43,229.23 -148.58,433.89 -377.63,455.18 -229.1,21.42 -433.89,-148.59 -455.18,-377.83l-115.3 -1240.19c-288.27,153.68 -479.9,464.02 -464.53,810.75l75.67 1708.86c14.58,329.32 212.02,609.26 489.32,745.97l-53.23 -1202.77c-10.2,-229.75 169.37,-426.09 399.24,-436.15 229.75,-10.32 426.09,169.37 436.42,399.12l53.23 1202.84c264.2,-160.78 436.09,-457.13 421.63,-786.3l-75.75 -1708.99c-13.73,-309.76 -189.23,-575.71 -440.79,-720.04zm180.45 5148.32l51.17 1155.17c10.32,230.07 -169.49,426.34 -399.3,436.53 -229.76,10.14 -426.03,-169.49 -436.35,-399.5l-55.05 -1242.97c-294.33,140.53 -499.24,441.06 -500.21,787.47l-4.2 1710.59c-0.83,329.57 183.3,618.3 453.96,767.78l2.91 -1203.67c0.65,-230.07 189.24,-417.82 419.31,-417.19 230.08,0.52 417.82,189.18 417.31,419.19l-2.96 1203.87c271.43,-148.14 456.85,-436.09 457.7,-765.72l4.26 -1710.73c0.83,-310.6 -162.91,-585.13 -408.55,-740.82zm-58.12 5154.86l-2.84 1153.86c-0.53,230.13 -189.23,417.7 -419.32,417.17 -229.95,-0.51 -417.69,-189.22 -417.05,-419.3l2.91 -1246.19c-302.02,125.36 -522.48,416.08 -540.36,762.93l-88.06 1708.35c-17.03,329.12 152.84,626.68 415.88,789.27l61.89 -1202.25c11.86,-229.82 209.49,-408.02 439.12,-396.28 229.87,11.87 408.07,209.49 396.27,439.38l-61.95 1202.18c278.41,-134.58 477.91,-413.18 494.81,-742.3l88.01 -1708.47c15.87,-309.23 -133.04,-590.61 -369.31,-758.35zm-315.89 5195.36l-56.71 1100.96c-11.75,230.01 -209.5,408.27 -439.12,396.21 -229.75,-11.69 -408.03,-209.31 -396.22,-439.26l65.74 -1275.73c-330.14,86.65 -594.34,363.88 -645.77,721.38l-242.85 1693.46c-46.84,326.26 94.91,637.96 342.08,823.78l171.05 -1191.48c32.77,-227.76 245.76,-387.38 473.57,-354.6 227.55,32.65 387.18,245.49 354.53,473.37l-171.04 1191.49c289.36,-108.91 513.45,-368.02 560.29,-694.17l242.97 -1693.18c41.3,-287.31 -64.06,-563.44 -258.52,-752.23zm38199.44 6920.8c92.33,197.17 112.06,428.6 37.1,649.83l-548.36 1620.48c-154.2,455.58 -652.73,701.91 -1108.19,547.83l-0.06 0c-455.44,-154 -701.91,-652.48 -547.83,-1108.04l548.35 -1620.42c124.72,-368.79 475.57,-600.55 846.36,-593.51l-189.42 1319.68c-32.78,227.7 126.84,440.93 354.47,473.51 227.75,32.77 440.73,-126.85 473.37,-354.79l134.21 -934.57zm-8322.88 -31146.88l0.12 0c478.74,42.97 835.47,469.9 792.37,948.76l-152.84 1703.83c-29.55,328.27 -239.43,598.99 -522.75,722.99l107.63 -1199.09c20.58,-229.1 -150.08,-433.37 -379.18,-453.95 -229.11,-20.59 -433.37,150.07 -453.96,379.17l-107.62 1198.97c-256.53,-172.4 -414.87,-476.22 -385.51,-804.42l153.05 -1703.76c42.9,-478.82 469.9,-835.41 948.69,-792.5zm74.78 -833.13l5.93 0.63c-2208.63,-630.1 -4309.64,-1860.81 -6083.61,-3698.83 -5551.18,-5751.64 -5800.61,-15262.59 -557.04,-21242.7 2626.96,-2995.97 6134.24,-4537.59 9678.48,-4606.43 1960.23,-992.37 2346.26,-2456.58 2270.77,-3297.01 -278.15,-3094.35 -2689.68,-6010.83 -4056.4,-8745.87 -1436.33,-2874.53 -2458.32,-5971.07 -2436.06,-9139.69 15.93,-2302.04 395.64,-4050.33 1823.96,-5863.91 2356.9,-2992.87 8763.86,-3811.1 11653.44,-1050.56 1844.68,1762.15 2351.73,4453.64 2486.77,6912.08 32.9,596.23 -76.65,1290.33 -179.24,1878.04 -143.74,823.92 -328.86,1645.44 -523.96,2458.64 -429.83,1791 -922.95,3572.63 -1431.88,5342.65 -217.82,757.6 -510.8,2237.49 -348.34,3009.19 39.67,188.34 803.65,1998.17 1631.11,1306.26 349.64,-212.4 806.43,-215.88 1165.87,28.39 490.48,333.25 618.67,1005.09 285.44,1495.69 -451.38,664.16 -1246.78,831.67 -2030.1,753.34 -878.5,-88.01 -1533.24,-474.04 -2007.78,-1036.32 -1312.08,-1554.15 -1252.91,-4457.46 -765.79,-6151.55 500.03,-1739.43 985.08,-3490.3 1407.5,-5250.32 184.52,-769.08 360.59,-1546.86 496.6,-2326.25 70.45,-404.15 172.91,-980.24 150.46,-1389.56 -102.2,-1857.64 -416.28,-4128.07 -1824.28,-5473.24 -1956.49,-1869.12 -6894.23,-1179.75 -8473.99,825.85 -1132.19,1437.67 -1349.75,2723.17 -1362.51,4546.74 -18.33,2625.49 802.6,5234.92 1969.38,7677.76 1607.76,3366.03 4167.63,6141.21 4514.68,9999.73 170.91,1901.64 -313.05,3111.84 -1500.08,3707.04 -24.84,15.53 -50.58,30.38 -76.71,44.96 2551.55,524.8 5002.96,1832.03 7028.29,3930.59 5551.12,5751.78 5800.37,15262.45 557.06,21242.69 -3431.39,3913.5 -8365.01,5344.86 -12920.79,4255.07 646.49,290.98 1070.51,969.26 1003.67,1713.57l-152.91 1703.82c-71.35,795.15 -680.55,1416.34 -1435.61,1536.46l-9.23 103.31c721.7,252.85 1210.5,972.49 1139.08,1767.56l-152.91 1703.9c-71.35,795.08 -680.55,1416.34 -1435.61,1536.47l-11.17 124.32c706.94,288.35 1158.95,1029.86 1049.28,1819.52l-235.23 1694.41c-109.83,790.68 -748.31,1381.68 -1508.34,1465.18l-17.1 122.84c692.8,320.97 1109.73,1082.82 963.2,1866.47l-313.94 1681.65c-146.79,784.68 -812.05,1345.23 -1575.11,1393.23l-22.98 122.91c676.1,354.65 1055.09,1135.98 870.51,1911.45l-396.29 1664.27c-184.98,776.5 -876.95,1303.75 -1641.5,1314.13l-33.3 139.89c639,415.31 944.06,1226.37 689.91,1980.74l-545.95 1621.19c-254.73,756.61 -991.87,1218.76 -1754.1,1159.59l-59.68 177.06c545.71,525.57 693.9,1373.81 308.21,2065.52l-832.81 1494.33c-388.86,697.26 -1197.68,1016.88 -1936.42,819.46l-10.01 17.87c649.9,404.61 969.78,1214.72 725.53,1975.46l-522.75 1628.92c-288.14,897.28 -1254.06,1393.82 -2151.46,1105.93 -897.59,-288.15 -1394.19,-1254.2 -1106.18,-2151.59l523.05 -1628.8c241.63,-753.32 961.16,-1223.93 1716.67,-1185.54l94.52 -169.55c-556.22,-524.56 -709.98,-1380.67 -321.24,-2077.79l832.82 -1494.47c389.05,-697.77 1199.15,-1017.27 1938.55,-818.82l8.39 -25.08c-642.75,-414.16 -950.11,-1227.76 -695.4,-1984.36l545.97 -1621.19c255.17,-757.4 993.59,-1219.54 1756.87,-1159.16l15.09 -63.43c-677.72,-354.01 -1057.73,-1136.31 -873.02,-1912.67l396.29 -1664.28c184.9,-777.13 877.92,-1304.57 1643.18,-1314.26l15.22 -81.48c-694.29,-320.28 -1112.31,-1083.02 -965.72,-1867.64l314.14 -1681.71c146.59,-785.13 812.94,-1346 1576.8,-1393.23l11.55 -82.98c-708.49,-287.49 -1161.68,-1029.97 -1051.93,-1820.67l235.3 -1694.41c109.8,-791.33 749.2,-1382.45 1510.08,-1465.29l7.49 -82.84c-721.53,-252.85 -1210.21,-972.38 -1138.91,-1767.45l152.98 -1703.9c71.3,-794.94 680.36,-1416 1435.23,-1536.34l9.23 -103.55c-721.52,-252.85 -1210.07,-972.43 -1138.77,-1767.44l152.97 -1703.84c84.21,-938.68 917.99,-1634.98 1856.62,-1550.77zm-126.66 6088.44l-107.62 1199.15c-20.57,229.17 -224.46,399.69 -453.36,379.31 228.9,20.78 399.3,224.92 378.72,453.96l-107.63 1199.03c283.32,-124.01 493.2,-394.67 522.75,-722.95l152.84 -1703.82c29.55,-328.28 -128.85,-632.3 -385.7,-804.68zm-561.95 1578.46c-228.92,-20.72 -399.38,-224.92 -378.8,-454.09l107.68 -1198.84c-283.23,124.13 -493.06,394.73 -522.41,722.87l-153.05 1703.78c-29.34,328.21 128.86,632.03 385.51,804.43l107.62 -1198.97c20.59,-229.04 224.53,-399.57 453.45,-379.18zm98.9 3582.18l-103.22 1149.74c-20.59,229.36 -224.8,399.88 -453.98,379.3 -229.1,-20.51 -399.75,-224.84 -379.17,-454.08l111.43 -1240.65c-311.45,99.05 -556.04,369.45 -603.78,713.2l-235.3 1694.28c-45.3,326.47 98.06,637.64 346.08,822.31l165.62 -1192.46c31.56,-227.81 243.82,-388.4 471.63,-356.67 227.89,31.56 388.48,243.84 356.87,471.65l-165.63 1192.51c288.98,-110.2 511.7,-370.4 557.07,-696.74l235.29 -1694.49c42.65,-306.97 -81.67,-600.34 -302.91,-787.9zm-755.65 5095.68l-159.05 1145.35c-31.61,228.07 -243.94,388.47 -471.82,356.85 -227.81,-31.54 -388.29,-243.88 -356.67,-471.88l171.11 -1232.45c-314.91,84.84 -570.99,343.3 -634.62,683.82l-314.2 1681.45c-60.46,323.95 68.13,641.4 307.23,837.47l221.05 -1183.36c42.32,-226.07 261.89,-376.54 487.95,-334.21 226.21,42.2 376.68,261.77 334.49,487.83l-221.18 1183.42c293.82,-96.45 528.54,-346.09 589,-670.03l314.2 -1681.7c56.97,-305.24 -54.2,-604.82 -267.49,-802.56zm-991.47 5058.9l-211.88 1134.2c-42.19,226.32 -261.76,376.59 -487.97,334.32 -226.07,-42.19 -376.53,-261.74 -334.26,-487.95l228.84 -1224.9c-319.75,68.46 -589.32,314.4 -669.78,652.29l-396.14 1664.08c-76.32,320.6 36.51,643.91 265.89,851.47l278.78 -1171.04c53.36,-223.87 279.95,-363.3 503.7,-310.07 223.88,53.22 363.3,279.94 310.08,503.83l-278.92 1171.16c298.15,-81.94 544.94,-319.76 621.26,-640.36l396.15 -1664.28c71.75,-301.24 -23.67,-604.93 -225.75,-812.75zm-1252.2 5052.13l-255.36 1072.44c-53.23,224.09 -279.95,363.51 -503.64,310.08 -223.89,-53.16 -363.44,-279.88 -310.08,-503.83l295.82 -1242.64c-340.41,25.42 -650.29,250.14 -765.72,592.41l-545.83 1621.31c-105.23,312.41 -22.07,644.56 187.24,872.18l384.14 -1140.77c73.5,-218.07 311.83,-336.47 529.97,-262.92 217.88,73.36 336.21,311.63 262.79,529.77l-384.22 1140.91c304.33,-54.54 571.78,-268.93 676.87,-581.27l545.97 -1621.04c92.59,-275.17 39.16,-565.72 -117.95,-786.63zm-1790.15 5023.81l-301.24 894.68c-73.55,218.22 -311.9,336.54 -529.9,263.05 -218.01,-73.16 -336.35,-311.88 -262.79,-529.89l425.44 -1263.55c-363.44,-74 -750.36,90.32 -939.92,430.35l-832.87 1494.27c-160.46,287.81 -139.5,629.7 24.76,891.59l586.17 -1051.53c112,-200.79 368.02,-273.63 568.93,-161.69 200.98,112 273.76,368.14 161.68,568.93l-586.15 1051.59c309.37,2 611.13,-159.94 771.71,-447.82l832.89 -1494.27c113.74,-203.95 136.33,-435.05 81.29,-645.71zm-2538.19 4117.12l-652.55 1170.82c-112.14,201.11 -368.15,273.89 -569.12,161.82 -200.99,-112 -273.77,-368.02 -161.63,-568.93l442.73 -794.24c-177.56,105.23 -319.04,272.8 -386.67,483.65l-522.93 1628.52c-146.91,457.84 107.37,952.64 565.07,1099.55l0.13 0.12c457.57,146.98 952.49,-107.29 1099.41,-565.05l522.74 -1628.99c120.52,-374.66 -28.27,-773.98 -337.18,-987.27zm11848.73 -34268.79l0.13 0c480.73,-8.4 880.75,378.21 888.89,858.94l29.48 1710.48c5.54,329.51 -174.21,621.12 -442.79,774.63l-20.72 -1204.01c-3.86,-229.88 -195.3,-414.79 -425.19,-410.86 -230.13,3.94 -414.97,195.37 -411.17,425.38l20.7 1203.55c-273.55,-144.07 -463.18,-429.25 -468.85,-758.76l-29.43 -1710.34c-8.07,-480.6 378.34,-880.83 858.95,-889.01zm-14.26 -836.36c942.44,-16.07 1723.71,738.62 1739.77,1680.92l29.28 1710.47c13.63,798.17 -525.88,1480.59 -1263.8,1680.66l2.51 145.11c721.21,245.82 1215.69,957.47 1154.38,1751l-131.35 1705.5c-61.36,795.85 -662.62,1424.72 -1416.13,1554.54l-12.2 157.68c683.9,332.98 1086.43,1098.64 928.89,1877.57l-339.06 1676.74c-158.26,782.43 -831.78,1332.96 -1595.5,1369.49l-17.16 85.16c703.06,302.41 1140.77,1055.22 1013.73,1843.83l-272.34 1689c-127.04,788.1 -778.16,1364.9 -1539.89,1431.82l-9.35 57.6c731.98,225.18 1248.46,927.15 1206.12,1725.51l-90.19 1708.22c-42.13,797.21 -627.96,1440.41 -1378.27,1588.34l-5.41 103.55c730.48,226.08 1245.35,927.54 1203.29,1724.56l-90.21 1708.33c-42.25,797.08 -628.16,1440.27 -1378.26,1588.15l-8.51 161.03c689.32,321.25 1104.57,1079.8 960.49,1860.95l-309.94 1682.34c-144.79,785 -808.76,1347.03 -1571.77,1396.91l-29.79 161.81c638.66,412.22 946.5,1219.75 697.63,1974.04l-536.14 1624.4c-250.16,758.11 -984.58,1224.64 -1747.19,1170.13l-53.04 160.85c570.81,501.18 757.2,1344.32 401.12,2053.71l-767.58 1528.73c-358.22,713.52 -1152.72,1067.73 -1899.2,902.44l-46.59 92.83c578.48,500.09 768.82,1348.97 410.67,2062.31l-767.52 1528.78c-358.02,713.32 -1152.64,1067.6 -1899.26,902.44l-23.81 47.48c635.84,426.92 927.4,1248.52 656.43,2000.49l-579.79 1609.31c-319.55,886.69 -1302.51,1349.03 -2189.07,1029.54 -886.75,-319.45 -1349.03,-1302.46 -1029.6,-2189.21l579.96 -1609.45c269.37,-747.65 1010.57,-1193.54 1768.03,-1123.34l70.32 -140.21c-578.48,-500.01 -768.75,-1348.71 -410.66,-2062.15l767.59 -1528.86c358.27,-713.32 1152.63,-1067.54 1899.13,-902.44l46.64 -92.83c-578.48,-500.03 -769.07,-1348.72 -410.79,-2062.11l767.52 -1528.79c358.61,-714.29 1154.64,-1068.38 1902.11,-901.73l13.09 -39.87c-645.26,-410.22 -957.53,-1221.87 -707.4,-1980.04l536.17 -1624.53c250.39,-759.14 986.3,-1225.87 1750.01,-1170l8.32 -45.29c-695.19,-318.34 -1115.02,-1080.31 -970.17,-1865.44l310.08 -1682.29c144.79,-786.1 810.37,-1348.51 1574.6,-1397.16l2.58 -49.03c-730.42,-226.15 -1245.03,-927.29 -1202.96,-1724.48l90.19 -1708.29c42.14,-797.06 627.85,-1440.08 1377.94,-1588.02l5.42 -103.74c-730.42,-226.27 -1245.03,-927.4 -1202.83,-1724.6l90.19 -1708.29c42.02,-794.17 623.65,-1435.56 1369.75,-1586.53l24.01 -149.36c-702.05,-302.93 -1138.91,-1055.1 -1012.05,-1843.06l272.52 -1689.06c126.84,-787.13 776.75,-1363.49 1537.18,-1431.56l23.93 -118.65c-689.45,-330.47 -1096.18,-1099.28 -937.78,-1881.71l339.04 -1676.86c158.47,-783.45 833.53,-1334.33 1598.55,-1369.67l4 -51.82c-724.83,-243.82 -1222.39,-957.2 -1160.98,-1753.19l131.56 -1705.5c61.23,-796.88 663.84,-1426.2 1418.72,-1554.85l-1.03 -63.94c-744.37,-174.66 -1306.78,-838.18 -1320.59,-1636.21l-29.35 -1710.48c-16.07,-942.31 738.81,-1723.44 1681.05,-1739.63zm524.16 6173.01l18.9 1098.06c4,230.21 -181.04,421.64 -410.99,425.51 -229.95,4.06 -421.5,-181.04 -425.37,-410.99l-21.95 -1279.22c-324.97,107.43 -571.76,401.95 -599.57,763l-131.5 1705.64c-25.41,328.66 136.73,630.22 395.44,799.52l92.65 -1200.12c17.55,-229.44 219.77,-402.73 449,-385 229.36,17.55 402.73,219.82 384.98,449.12l-92.51 1200.32c281.63,-127.55 488.09,-400.98 513.38,-729.58l131.68 -1705.63c22.01,-287.69 -99.68,-554.94 -304.14,-730.63zm-497.38 5193.96l-81.29 1054.1c-17.75,229.5 -219.77,402.67 -449.13,385.06 -229.43,-17.67 -402.66,-219.82 -384.92,-449.38l99.81 -1294.25c-346.73,58.57 -639.77,324.85 -713.26,688.73l-339.12 1676.6c-65.3,323 58.71,642.37 294.8,841.99l238.59 -1180c45.68,-225.55 267.43,-372.66 492.8,-327.11 225.49,45.62 372.73,267.37 326.98,492.8l-238.59 1180.19c295.3,-92.07 533.65,-338.21 598.94,-661.32l339.1 -1676.74c54.26,-268.2 -21.99,-533.9 -184.71,-730.67zm-1120.44 4884.5l-245.38 1214.18c-45.8,225.57 -267.49,372.68 -493.06,327.12 -225.42,-45.68 -372.52,-267.24 -326.98,-492.99l230.6 -1140.57c-271.11,112.64 -480.16,358.65 -530.16,668.04l-272.28 1689.04c-52.32,325.19 84.21,639.27 328.15,829.46l191.63 -1188.51c36.51,-227.23 252.2,-382.92 479.37,-346.27 226.98,36.51 383.06,252.33 346.47,479.45l-191.62 1188.69c291.3,-103.86 519.57,-359.24 572.1,-684.54l272.4 -1688.94c54.78,-339.69 -96.72,-667.32 -361.24,-854.16zm-770.43 5007.61l-205.11 1271.81c-36.51,227.23 -252.21,382.98 -479.45,346.41 -227.04,-36.65 -382.86,-252.28 -346.27,-479.51l171.88 -1066.25c-216.99,148.77 -365.3,393.12 -380.14,674.55l-90.27 1708.22c-17.24,329.23 151.94,626.93 414.73,789.9l63.55 -1202.26c12.06,-229.55 210.02,-407.62 439.63,-395.55 229.89,12.38 407.96,210.13 395.7,439.89l-63.55 1202.12c278.6,-134.33 478.42,-412.47 495.77,-741.65l90.26 -1708.28c19.23,-365.96 -192.46,-693.27 -506.73,-839.4zm-179.04 5174.07l-63.55 1202.26c-11.95,229.75 -209.76,407.82 -439.32,395.75 229.63,12.07 407.5,210.02 395.56,439.77l-63.55 1202.26c278.48,-134.33 478.22,-412.61 495.65,-741.78l90.39 -1708.16c17.36,-329.17 -152.27,-627.13 -415.18,-790.1zm-503.07 1597.89c-229.88,-11.94 -407.89,-209.76 -395.83,-439.51l63.57 -1202.12c-278.35,134.39 -477.97,412.47 -495.46,741.45l-90.25 1708.41c-17.23,328.98 152,626.62 414.73,789.59l63.55 -1202.12c12.19,-229.69 209.94,-407.64 439.69,-395.7zm224.15 3684.18l-55.23 1044.83c-12.2,229.95 -209.88,407.96 -439.63,395.76 -229.76,-12.06 -407.76,-209.88 -395.7,-439.75l68.78 -1300.72c-348.21,62.46 -639.71,334.73 -707.34,701.97l-310.14 1682.41c-59.68,323.95 69.81,641.07 309.43,836.63l218.22 -1183.87c41.8,-226.41 260.91,-377.18 487.24,-335.5 226.28,41.68 376.93,260.85 335.57,487.24l-218.26 1183.74c293.49,-97.35 527.5,-347.5 587.25,-671.45l310.2 -1682.4c48.91,-265.11 -28.96,-525.77 -190.39,-718.89zm-1080 5095.17l-187.61 1017.73c-41.62,226.47 -260.86,377.38 -486.94,335.56 -226.27,-41.54 -377.31,-260.78 -335.63,-487.12l236.92 -1285.28c-355.88,12.32 -684.62,242.91 -802.37,599.51l-536.02 1624.47c-103.23,312.99 -18.19,644.74 192.59,871l377.25 -1143.09c72.06,-218.52 309.82,-338.2 528.28,-266.2 218.46,72.13 338.15,309.88 265.88,528.28l-377.23 1143.35c304.2,-56.32 570.15,-272.32 673.38,-585.45l536.03 -1624.46c83.3,-252.22 44.13,-516.74 -84.53,-728.3zm-1774.6 4907.42l-318.93 966.36c-71.99,218.46 -309.62,338.21 -528.14,266.09 -218.54,-72.07 -338.15,-309.7 -266.08,-528.42l411.3 -1246.52c-356.53,-43.94 -719.97,136.53 -889.84,474.8l-767.6 1528.86c-147.74,294.53 -112.06,635.25 63.43,889.92l540.15 -1076c103.24,-205.62 355.77,-289.43 561.4,-186.2 205.54,103.3 289.36,355.95 186.25,561.44l-540.28 1076.05c309.04,-11.47 603.59,-186.39 751.53,-480.85l767.65 -1528.79c116.33,-231.75 118.96,-492.28 29.16,-716.74zm-2395.22 4413.06l-540.15 1075.8c-103.31,205.74 -355.84,289.44 -561.46,186.39 205.7,103.23 289.31,355.76 186.21,561.52l-540.29 1075.86c308.91,-11.3 603.72,-186.14 751.65,-480.8l767.47 -1528.72c147.93,-294.53 112.12,-635.26 -63.43,-890.05zm-1101.73 1262.13c-205.5,-103.23 -289.38,-355.76 -185.95,-561.58l540.03 -1075.74c-308.92,11.55 -603.45,186.41 -751.4,480.74l-767.52 1528.78c-147.82,294.55 -112,635.21 63.37,889.86l540.15 -1075.79c103.16,-205.69 355.76,-289.5 561.32,-186.27zm-1159.35 3241.65l-581.65 1158.32c-103.23,205.81 -355.88,289.62 -561.44,186.39 -205.63,-103.23 -289.44,-355.89 -186.08,-561.7l476.29 -948.64c-242.99,83.1 -447.78,271.37 -541,530.29l-579.84 1609.38c-163.1,452.33 73.68,955.53 525.96,1118.51l0.13 0c452.35,163.09 955.66,-73.62 1118.71,-525.97l579.9 -1609.44c125.42,-348.41 13.73,-727.07 -250.98,-957.14zm13826.12 -50246.32l0.14 -0.12c478.54,-44.53 906.74,310.71 951.13,789.45l158.46 1703.32c30.46,328.15 -126.84,632.54 -383.04,805.78l-111.43 -1198.76c-21.29,-229 -226.08,-399 -455.18,-377.71 -229.04,21.36 -398.93,226.09 -377.77,455.25l111.57 1198.65c-283.64,-123.18 -494.43,-393.18 -524.94,-721.33l-158.33 -1703.32c-44.59,-478.6 310.65,-906.68 789.39,-951.21zm-77.48 -832.94c938.44,-87.23 1774.54,606.42 1861.7,1544.72l158.4 1703.44c73.87,794.81 -412.41,1516.22 -1133.28,1771.26l9.54 103.23c755.6,117.81 1366.78,736.94 1440.59,1531.81l158.46 1703.39c73.81,794.87 -412.47,1516.14 -1133.34,1771.25l11.55 124.2c747.51,155.43 1326.32,802.88 1361.61,1599.24l75.69 1708.99c35.28,797.53 -485.45,1494.47 -1217.75,1714.34l5.48 123.83c739.53,190.07 1287.56,863.91 1285.56,1661.11l-4.06 1710.53c-2,798.37 -554.75,1470.21 -1296.53,1655.64l-0.32 125.1c729.27,226.14 1243.48,925.92 1202.52,1722.08l-88.08 1708.49c-41.02,797.06 -626.02,1440.97 -1376,1589.88l-7.49 143.69c703.65,292.65 1150.71,1034.95 1037.48,1822.8l-243.1 1693.32c-113.37,790.16 -754.57,1378.13 -1514.93,1458.14l-26.57 185.04c631.96,417.88 931.52,1225.42 677.51,1975.45l-548.22 1620.59c-302.21,892.7 -1275.75,1374.15 -2168.37,1071.94 -892.89,-301.9 -1374.46,-1275.75 -1072.25,-2168.44l548.16 -1620.67c256.07,-756.68 994.89,-1217.73 1758.03,-1156.5l3.73 -26.19c-707.19,-290.67 -1157.08,-1035.23 -1043.53,-1825.53l243.1 -1693.24c113.63,-791.21 756.23,-1379.49 1517.77,-1458.46l3.35 -64.97c-730.62,-225.23 -1246.32,-925.98 -1205.41,-1722.87l88.25 -1708.54c40.91,-797.84 626.87,-1442.07 1377.69,-1590.27l0.2 -82.9c-740.82,-189.12 -1290.2,-863.47 -1288.21,-1661.76l4.2 -1710.73c1.88,-798.7 555.45,-1471 1298.07,-1655.9l-3.68 -83.81c-748.88,-154.34 -1329.16,-802.37 -1364.46,-1599.88l-75.68 -1709.01c-35.41,-798.1 486.29,-1495.3 1219.54,-1714.59l-7.67 -82.79c-755.45,-117.94 -1366.46,-737.07 -1440.4,-1531.81l-158.32 -1703.44c-74.07,-794.7 412.33,-1515.89 1133.02,-1771.07l-9.68 -103.43c-755.4,-117.93 -1366.33,-736.93 -1440.4,-1531.81l-158.33 -1703.32c-87.23,-938.36 606.55,-1774.34 1544.86,-1861.57zm979.01 6010.56l111.37 1198.77c21.22,228.21 -146.99,432.03 -374.42,455 227.83,-19.29 430.8,149.94 452.03,377.95l111.55 1198.83c256.22,-173.23 413.51,-477.63 382.92,-805.77l-158.32 -1703.32c-30.59,-328.27 -241.3,-598.23 -525.13,-721.46zm-269.49 1654.29c-227.75,19.47 -430.8,-149.96 -451.96,-378.03l-111.5 -1198.63c-256,173.35 -413.31,477.69 -382.72,805.71l158.33 1703.25c30.57,328.2 241.31,598.28 524.92,721.4l-111.41 -1198.78c-21.23,-227.94 146.91,-431.9 374.34,-454.92zm749.26 3504.76l106.91 1149.47c21.41,229.24 -148.59,433.89 -377.63,455.24 -229.12,21.43 -433.89,-148.57 -455.18,-377.82l-115.3 -1240.26c-288.28,153.76 -479.9,464.04 -464.61,810.76l75.75 1708.85c14.58,329.32 212.01,609.27 489.32,745.99l-53.23 -1202.71c-10.2,-229.76 169.35,-426.15 399.24,-436.21 229.75,-10.26 426.09,169.35 436.41,399.1l53.23 1202.91c264.21,-160.79 436.08,-457.12 421.64,-786.3l-75.75 -1708.98c-13.75,-309.84 -189.24,-575.79 -440.8,-720.04zm180.46 5148.26l51.17 1155.15c10.32,230.07 -169.49,426.34 -399.32,436.54 -229.75,10.19 -426.02,-169.49 -436.34,-399.43l-55.04 -1242.97c-294.33,140.51 -499.25,440.98 -500.21,787.45l-4.2 1710.55c-0.83,329.63 183.3,618.28 453.96,767.84l2.91 -1203.75c0.64,-230.07 189.22,-417.82 419.31,-417.17 230.07,0.52 417.82,189.22 417.31,419.17l-2.97 1203.94c271.43,-148.21 456.86,-436.08 457.7,-765.71l4.25 -1710.81c0.85,-310.59 -162.91,-585.06 -408.53,-740.8zm-58.14 5154.9l-2.83 1153.8c-0.52,230.21 -189.24,417.71 -419.31,417.19 -229.95,-0.51 -417.7,-189.24 -417.05,-419.31l2.89 -1246.2c-302.01,125.36 -522.47,416.15 -540.34,763.01l-88.14 1708.35c-16.97,329.04 152.91,626.68 415.96,789.2l61.87 -1202.19c11.88,-229.89 209.5,-408.09 439.12,-396.35 229.89,11.87 408.09,209.49 396.29,439.38l-61.95 1202.26c278.41,-134.66 477.91,-413.25 494.81,-742.3l87.99 -1708.48c15.89,-309.24 -133.04,-590.67 -369.31,-758.36zm-315.88 5195.3l-56.72 1101.02c-11.74,229.95 -209.48,408.29 -439.11,396.15 -229.76,-11.61 -408.08,-209.23 -396.21,-439.24l65.74 -1275.67c-330.14,86.57 -594.34,363.82 -645.77,721.38l-242.92 1693.44c-46.77,326.28 94.97,637.91 342.15,823.78l171.03 -1191.54c32.79,-227.75 245.76,-387.38 473.59,-354.6 227.55,32.65 387.18,245.5 354.53,473.37l-171.05 1191.56c289.37,-108.91 513.46,-368.09 560.29,-694.24l242.98 -1693.12c41.29,-287.3 -64.06,-563.5 -258.53,-752.29z"/>
  </g>
 </g>
</svg>
