<?xml version="1.0" encoding="UTF-8"?>
<!DOCTYPE svg PUBLIC "-//W3C//DTD SVG 1.1//EN" "http://www.w3.org/Graphics/SVG/1.1/DTD/svg11.dtd">
<!-- Creator: CorelDRAW 2021.5 -->
<svg xmlns="http://www.w3.org/2000/svg" xml:space="preserve" width="812.289mm" height="522.216mm" version="1.1" style="shape-rendering:geometricPrecision; text-rendering:geometricPrecision; image-rendering:optimizeQuality; fill-rule:evenodd; clip-rule:evenodd"
viewBox="0 0 81228.9 52221.6"
 xmlns:xlink="http://www.w3.org/1999/xlink"
 xmlns:xodm="http://www.corel.com/coreldraw/odm/2003">
 <defs>
  <style type="text/css">
   <![CDATA[
    .fil0 {fill:#D7ECE9;fill-rule:nonzero}
   ]]>
  </style>
 </defs>
 <g id="Layer_x0020_1">
  <metadata id="CorelCorpID_0Corel-Layer"/>
  <path class="fil0" d="M78507.21 2.95c137.63,-0.78 179.34,54.08 124.65,164.56 -52.94,100.73 -162.03,252.55 -324.73,436.67 -154.2,195.23 -360.99,412.49 -600.39,654.87 -250.19,250.9 -489.53,492.91 -741.44,753.56 -2282.47,1682.25 -4654.59,3224.69 -7106.68,4638.27 -195.75,-7.14 -36.53,-309.26 468.87,-918.34 537.6,-555.11 1856.66,-1583.32 3967.47,-3082.63 2099.59,-1491.34 3507.64,-2379.74 4212.25,-2646.96zm-29530.86 41855.96c-39.21,-87.54 -68.12,-185 -97.44,-272.54 -29.31,-77.65 -58.63,-185.01 -78.05,-291.97 -38.83,-272.55 -48.33,-505.88 -58.23,-720.2 9.9,-486.48 155.69,-1002.66 457.55,-1537.86 311.39,-496.39 788.34,-827.16 1459.82,-992.76 622.76,-175.11 1138.94,-515.8 1537.87,-1031.59 535.2,-661.95 798.24,-1576.68 798.24,-2735.03l0 -5187.61c0,-1051.38 38.83,-2180.41 116.47,-3397 157.28,-1584.61 1510.93,-5060.04 2641.55,-6226.71 251.55,-119.63 674.64,118.46 578.37,782 -265.02,741.19 -1018.9,2611.84 -910.35,4522.48 0,223.82 -39.23,1255.8 -116.88,3075.71 -116.86,1635.32 -175.08,3085.24 -175.08,4341.04 -155.69,1897.97 -246.01,3160.89 -1161.12,5194.74 -934.13,2034.24 -1878.22,3533.24 -2822.59,4477.3 -292.01,291.91 -603.34,555.01 -944.03,798.26 -418.34,272.54 -729.71,447.65 -944.03,545.09l-282.07 -1343.35zm8372.92 -25251.79c975.06,-810.02 2994.61,-2145.14 6078.88,-4012.95 2046.33,-1226.69 4988.7,-2883.98 7721.36,-4823.79 1293.87,-913.63 3017.8,-2171.57 5173.02,-3782.82 3261.34,-2373.8 4891.92,-3595.28 4902.43,-3672.22 -30.28,221.77 -92.83,389.94 -176.16,496.52 -211.42,540.89 -688.22,1300.62 -1440.7,2278.58 -834.47,1074.75 -1465.99,1813.74 -1884.63,2217.98 -615.28,623.24 -1399.76,1331.77 -2333.67,2127.45 -932.61,786.23 -1574.92,1317.44 -1943.46,1571.37 -508.07,412.01 -1616.82,1193.81 -3305.68,2338.56 -2940.82,1891.8 -5465.78,3390.98 -8531.07,5067.07l-4410.42 2590.32c-436.44,244.66 -1055.04,602.4 -1846.31,1073.69 -565.06,325.85 -872.79,421.35 -935.59,304.44 417.62,-826.98 869.91,-1550.9 1359.11,-2181.8 473.47,-662.21 997.35,-1190.01 1572.89,-1592.4zm-7029.96 27344.66c-671.48,1839.35 -1284.71,3202.1 -1859.14,4078 -564.51,875.89 -1012.17,1411.49 -1333.04,1625.4 -331.19,204.43 -808.16,428.25 -1460.23,671.48 -642.15,233.72 -1625.38,564.59 -2948.94,992.77 -1323.91,428.28 -2102.39,642.55 -2355.53,642.55 -145.78,0 -223.83,-38.83 -223.83,-116.86 -155.69,-204.43 632.6,-895.4 2365.04,-2053.66 1732.68,-1158.42 2851.89,-1917.38 3348.28,-2277.47 506.27,-360.11 1022.06,-885.8 1537.86,-1586.6 525.69,-690.88 914.7,-1479.22 1158.34,-2345.62 -263.04,-38.82 -535.6,9.92 -808.15,155.71 -282.05,136.26 -554.62,214.3 -817.27,214.3 -700.78,-19.41 -1294.42,-253.35 -1771.58,-691.27 -466.87,-428.46 -671.48,-914.73 -593.83,-1449.93 78.04,-321.28 185,-700.8 331.18,-1129.03 136.28,-428.25 437.74,-1109.62 895.31,-2034.25 457.55,-934.51 914.71,-1703.43 1382.17,-2306.77 467.06,-613.25 924.62,-914.73 1382.17,-914.73 778.45,0 1430.5,330.79 1956.19,992.77 525.69,671.47 778.45,1469.32 778.45,2394.33 0,476.57 -28.93,953.54 -77.65,1411.1 -58.63,467.06 -126.77,856.47 -185,1177.75 -68.14,311.37 -165.6,710.31 -291.97,1197.17 -116.86,476.97 -262.65,934.13 -408.83,1352.86zm-14562.21 -30271.26c0,-185 350.22,-1031.57 1070.42,-2520.71 710.69,-1489.13 1168.24,-2238.65 1382.17,-2238.65 525.69,0 1119.52,321.27 1761.68,973.34 652.08,720.2 973.35,1411.09 973.35,2082.57 0,623.14 -301.87,1489.13 -895.31,2589.25 -603.73,1099.71 -1041.48,1654.33 -1333.43,1654.33 -165.6,0 -545.12,-262.65 -1138.95,-778.44 -583.93,-525.69 -1041.48,-905.21 -1352.85,-1129.03 -311.39,-233.72 -467.08,-438.15 -467.08,-632.66zm-2598.74 7056.26c0,-233.33 408.83,-1099.71 1216.57,-2598.76 807.76,-1498.65 1304.14,-2248.16 1489.14,-2248.16 311.37,0 788.34,272.56 1440.42,827.16 661.95,545.11 1100.1,1070.8 1333.43,1567.18 418.74,-690.89 817.66,-1352.86 1197.17,-1995.41 545.11,-914.73 895.31,-1372.27 1022.08,-1372.27 457.55,0 1041.49,321.28 1742.28,973.34 680.99,720.2 1021.68,1382.17 1021.68,1995.42 0,700.8 -340.69,1576.68 -1021.68,2618.17 -700.79,1012.17 -1207.08,1518.05 -1508.56,1518.05 -253.14,0 -603.72,-243.23 -1060.88,-720.2 -623.15,-661.57 -1148.84,-1148.45 -1567.18,-1449.91 -1041.48,2131.28 -1859.14,3192.19 -2452.58,3192.19 -136.27,0 -642.55,-350.2 -1528.35,-1050.99 -875.89,-710.7 -1323.54,-1129.03 -1323.54,-1255.81zm-387.83 19991.4c0,-437.74 48.72,-827.16 136.26,-1167.85 77.65,-360.09 389.43,-671.48 944.04,-944.03 116.86,-19.42 438.15,-194.51 973.35,-535.19 185,-116.86 564.51,-389.43 1138.53,-798.26 837.08,-652.06 1362.77,-1275.2 1596.49,-1888.05 165.2,-418.74 350.2,-661.97 545.11,-740.01 68.15,0 223.83,58.62 447.66,175.5 175.09,126.37 428.23,155.68 778.42,77.63 506.29,-126.37 915.12,-447.64 1226.49,-934.12 321.28,-555 593.83,-1100.11 817.66,-1625.41 19.42,-39.22 194.51,0 515.79,106.96 272.55,116.86 496.37,77.65 690.88,-106.96 146.2,-175.5 272.57,-350.59 370.03,-545.1 29.3,-78.05 185,-486.88 447.63,-1226.48 194.51,-661.98 408.83,-1002.68 661.97,-1002.68 155.69,0 223.83,204.42 223.83,603.74 0,934.13 -194.9,1917.37 -593.83,2968.36 -438.15,1060.91 -875.88,1839.74 -1314.03,2336.11 -476.97,515.8 -924.62,905.21 -1342.96,1167.86 -438.15,262.65 -671.48,438.14 -710.69,515.79 -457.16,603.34 -963.45,1099.71 -1508.54,1469.72 -554.62,370 -1099.73,622.76 -1625.42,749.53 -418.34,457.55 -1041.49,973.35 -1859.14,1547.37 -904.82,661.97 -1469.33,1041.48 -1683.65,1138.94 -243.23,106.95 -506.29,282.05 -798.24,505.88 -320.89,233.72 -486.47,428.23 -505.89,603.73l428.25 -2452.98zm579.57 3486.14c-671.48,1839.35 -1284.74,3202.1 -1859.15,4078 -564.51,875.88 -1012.16,1411.49 -1333.04,1625.4 -331.2,204.42 -808.15,428.25 -1460.23,671.48 -642.16,233.72 -1625.4,564.51 -2948.96,992.77 -1323.92,428.23 -2102.37,642.55 -2355.51,642.55 -145.79,0 -223.83,-38.83 -223.83,-116.87 -155.68,-204.42 632.66,-895.3 2365.03,-2053.65 1732.77,-1158.34 2851.9,-1917.38 3348.27,-2277.47 506.29,-360.11 1022.09,-885.8 1537.86,-1586.6 525.71,-690.88 914.73,-1479.22 1158.36,-2345.62 -263.05,-38.82 -535.6,9.92 -808.15,155.71 -282.07,136.26 -554.61,214.3 -817.26,214.3 -700.8,-19.41 -1294.63,-253.13 -1771.6,-691.27 -467.06,-428.25 -671.48,-914.73 -593.83,-1449.93 78.05,-321.28 185,-700.8 331.18,-1129.03 136.28,-428.25 437.75,-1109.62 895.3,-2034.25 457.57,-934.51 914.73,-1703.43 1382.17,-2306.77 467.08,-613.25 924.63,-914.73 1382.19,-914.73 778.43,0 1430.51,330.79 1956.2,992.77 525.69,671.47 778.42,1469.32 778.42,2394.33 0,476.57 -28.91,953.54 -77.63,1411.1 -58.63,467.06 -126.77,856.47 -185,1177.75 -68.14,311.37 -165.6,710.31 -291.97,1197.17 -116.86,476.97 -262.65,934.13 -408.82,1352.86zm-8984.73 -16505.66c-38.82,1362.77 -68.14,2598.76 -87.54,3698.47 -19.81,1109.63 -77.65,2034.23 -175.11,2803.17 -145.79,1635.32 -467.06,3075.73 -934.13,4341.03 -476.97,1265.31 -856.48,2111.89 -1129.03,2530.62 -272.16,418.33 -496.37,720.22 -671.87,904.81 -204.42,194.92 -369.61,253.14 -486.48,185 -106.96,-58.22 -146.17,-175.09 -106.96,-320.87 0,-39.22 106.96,-613.26 340.3,-1732.78 224.21,-1109.62 370.39,-2189.91 428.64,-3231.4 58.63,-1041.09 68.14,-2520.72 28.91,-4438.09 -38.83,-1907.48 9.91,-3367.68 136.28,-4369.96 78.04,-593.83 204.4,-1197.16 389.41,-1829.82 175.1,-623.15 379.51,-1245.91 613.25,-1849.25 223.83,-613.23 467.06,-1187.66 720.2,-1732.75 262.65,-535.22 496.37,-1021.68 700.8,-1440.42 175.1,-262.65 321.28,-369.6 457.54,-311.37 136.29,58.23 194.51,165.58 175.11,311.37 -38.82,155.69 -87.54,515.8 -126.77,1070.8 -48.34,564.52 -97.06,1187.28 -136.27,1888.05 -38.82,690.91 -68.14,1372.28 -97.07,2034.25 -29.32,671.48 -39.21,1158.35 -39.21,1489.14zm-7816.47 6982.18c-19.81,515.78 -214.32,1449.91 -584.32,2793.25 -369.62,1352.88 -856.48,2822.59 -1449.93,4428.59 -603.72,1596.1 -1129.02,2802.78 -1586.59,3620.44 -457.55,817.66 -953.92,1440.4 -1499.03,1868.65 -544.71,418.72 -1411.09,817.66 -2618.17,1168.24 -1206.68,350.21 -2180.02,583.55 -2910.13,710.3 -729.71,126.37 -1197.17,185 -1381.79,185 -194.89,-19.4 -311.76,-97.45 -340.68,-223.82 -39.22,-136.27 19.42,-311.37 165.19,-515.8 214.32,-321.26 739.62,-749.51 1586.59,-1275.2 846.57,-515.8 1829.83,-1177.75 2948.96,-1966.11 1119.52,-788.34 1917.37,-1479.22 2394.34,-2063.16 476.97,-593.83 1012.17,-1469.71 1615.91,-2657.38 593.43,-1177.36 1138.54,-2365.02 1625.4,-3562.19 476.97,-1197.19 827.17,-2014.44 1041.49,-2452.58 204.42,-438.15 428.23,-642.55 680.98,-622.76 204.41,38.82 311.78,223.83 311.78,564.53zm-11189.71 4315.28c0,-544.71 -194.9,-992.77 -574.41,-1333.05 -194.51,-194.91 -457.57,-399.32 -817.66,-613.25 -350.21,-223.83 -632.66,-350.6 -865.99,-389.41 -165.6,0 -467.46,330.78 -895.71,1002.66 -428.24,661.57 -642.17,1226.08 -642.17,1683.63 0,846.59 515.8,1274.82 1537.88,1274.82 457.16,0 944.03,-165.19 1469.33,-496.37 525.69,-330.79 788.73,-710.31 788.73,-1129.03zm2763.95 -4506.24c0,817.66 -136.28,1742.28 -418.34,2754.45 -272.54,1022.08 -632.65,1936.79 -1070.8,2754.45 -681.37,1314.03 -1382.17,2306.79 -2102.37,2997.68 -729.72,681.37 -1537.85,1022.08 -2423.26,1022.08 -1411.49,0 -2112.29,-856.48 -2112.29,-2569.45 0,-583.93 97.46,-1216.59 282.46,-1878.56 243.23,-700.78 554.62,-1362.75 914.71,-1966.09 360.11,-613.25 661.97,-1129.05 915.12,-1547.38 -253.15,-68.13 -398.92,-116.86 -457.55,-136.27 -58.25,-19.42 -106.97,-29.31 -146.18,-29.31 -38.83,-155.69 87.54,-564.52 370,-1226.49l2024.34 -4593.78c194.9,-476.97 408.83,-710.69 661.97,-710.69 185,0 476.95,116.86 866.38,360.09 389.02,233.74 720.2,448.06 982.85,642.57 622.76,564.51 1070.8,1119.13 1323.53,1644.82 263.06,535.2 389.43,1362.77 389.43,2481.88z"/>
 </g>
</svg>
