<?xml version="1.0" encoding="UTF-8"?>
<!DOCTYPE svg PUBLIC "-//W3C//DTD SVG 1.1//EN" "http://www.w3.org/Graphics/SVG/1.1/DTD/svg11.dtd">
<!-- Creator: CorelDRAW 2021.5 -->
<svg xmlns="http://www.w3.org/2000/svg" xml:space="preserve" width="800mm" height="800mm" version="1.1" style="shape-rendering:geometricPrecision; text-rendering:geometricPrecision; image-rendering:optimizeQuality; fill-rule:evenodd; clip-rule:evenodd"
viewBox="0 0 80000 80000"
 xmlns:xlink="http://www.w3.org/1999/xlink"
 xmlns:xodm="http://www.corel.com/coreldraw/odm/2003">
 <defs>
  <style type="text/css">
   <![CDATA[
    .fil0 {fill:#ffd500}
   ]]>
  </style>
 </defs>
 <g id="Layer_x0020_1">
  <metadata id="CorelCorpID_0Corel-Layer"/>
  <path class="fil0" d="M72259.54 72267.2l0 -32910.3c0,-1333.49 -391.79,-2328.8 -1375.52,-3233.22l-30814.62 -28330.67c-14.56,-13.33 -52.1,-45.39 -76.53,-56.8 -24.43,11.41 -61.97,43.47 -76.53,56.8l-30814.62 28330.67c-983.73,904.42 -1375.52,1899.73 -1375.52,3233.22l0 32910.3 13228 0c8.75,0 18.3,0 28.22,-0.16 23.73,-21.71 46.93,-45.6 65.01,-64.38 166.24,-172.74 169.65,-235.84 168.91,-487.89l-28.06 -9166.4c-17.01,-5554.51 1604.91,-11022.45 5398.35,-15181.33 3459.36,-3792.64 8279.36,-5940.91 13406.24,-5940.91 5126.88,0 9946.83,2148.21 13406.24,5940.85 3793.49,4158.83 5415.36,9626.83 5398.35,15181.39l-28.06 9166.4c-0.74,252.16 2.67,315.09 168.91,487.89 18.08,18.78 41.28,42.67 65.01,64.38 9.92,0.16 19.47,0.16 28.22,0.16l13228 0zm-32266.67 -23107.74c-5725.55,0 -11097.92,4662.51 -11071.31,13365.23l28.06 9166.4c6.98,2284.64 -771.68,4254.4 -2329.55,5873.49 -1557.87,1619.1 -3458.03,2435.95 -5665.87,2435.95l-20961.33 0 0 -40643.63c0,-3535.2 1320.91,-6578.02 3874.83,-8926.13l30814.61 -28330.67c3044.85,-2799.41 7576.27,-2799.41 10621.12,0l30814.61 28330.67c2553.92,2348.11 3874.83,5390.93 3874.83,8926.13l0 40643.63 -20961.33 0c-2207.84,0 -4108,-816.85 -5665.87,-2435.95 -1557.87,-1619.09 -2336.53,-3588.74 -2329.55,-5873.49l28.06 -9166.4c26.61,-8702.88 -5345.76,-13365.23 -11071.31,-13365.23z"/>
 </g>
</svg>
