<?xml version="1.0" encoding="UTF-8"?>
<!DOCTYPE svg PUBLIC "-//W3C//DTD SVG 1.1//EN" "http://www.w3.org/Graphics/SVG/1.1/DTD/svg11.dtd">
<!-- Creator: CorelDRAW 2021.5 -->
<svg xmlns="http://www.w3.org/2000/svg" xml:space="preserve" width="815.262mm" height="815.262mm" version="1.1" style="shape-rendering:geometricPrecision; text-rendering:geometricPrecision; image-rendering:optimizeQuality; fill-rule:evenodd; clip-rule:evenodd"
viewBox="0 0 81526.18 81526.18"
 xmlns:xlink="http://www.w3.org/1999/xlink"
 xmlns:xodm="http://www.corel.com/coreldraw/odm/2003">
 <defs>
  <style type="text/css">
   <![CDATA[
    .fil0 {fill:#008d2b}
   ]]>
  </style>
 </defs>
 <g id="Layer_x0020_1">
  <metadata id="CorelCorpID_0Corel-Layer"/>
  <path class="fil0" d="M61912.86 15804.83c2103.5,0 3808.49,1704.99 3808.49,3809.52 0,2103.5 -1704.99,3809.52 -3808.49,3809.52 -2103.5,0 -3809.52,-1706.02 -3809.52,-3809.52 0,-2104.53 1706.02,-3809.52 3809.52,-3809.52zm-38079.79 -15800.93l33851.21 0c13122.25,0 23838,10715.75 23838,23838l0 33850.18c0,13122.25 -10715.75,23838 -23838,23838l-33851.21 0c-13122.25,0 -23836.97,-10715.75 -23836.97,-23838l0 -33850.18c0,-13122.25 10714.72,-23838 23836.97,-23838zm0 7184.58c-9155.58,0 -16653.42,7496.81 -16653.42,16653.42l0 33850.18c0,9156.61 7497.84,16653.43 16653.42,16653.43l33851.21 0c9156.61,0 16653.43,-7496.82 16653.43,-16653.43l0 -33850.18c0,-9156.61 -7496.82,-16653.42 -16653.43,-16653.42l-33851.21 0zm16925.61 15823.52c9806.76,0 17755.5,7948.74 17755.5,17754.48 0,9806.76 -7948.74,17755.5 -17755.5,17755.5 -9805.74,0 -17754.48,-7948.74 -17754.48,-17755.5 0,-9805.74 7948.74,-17754.48 17754.48,-17754.48zm11617.54 17754.48c0,-6415.28 -5201.24,-11616.52 -11617.54,-11616.52 -6415.28,0 -11616.52,5201.24 -11616.52,11616.52 0,6416.3 5201.24,11617.54 11616.52,11617.54 6416.3,0 11617.54,-5201.24 11617.54,-11617.54z"/>
 </g>
</svg>
