<?xml version="1.0" encoding="UTF-8"?>
<!DOCTYPE svg PUBLIC "-//W3C//DTD SVG 1.1//EN" "http://www.w3.org/Graphics/SVG/1.1/DTD/svg11.dtd">
<!-- Creator: CorelDRAW 2021.5 -->
<svg xmlns="http://www.w3.org/2000/svg" xml:space="preserve" width="669.217mm" height="794.542mm" version="1.1" style="shape-rendering:geometricPrecision; text-rendering:geometricPrecision; image-rendering:optimizeQuality; fill-rule:evenodd; clip-rule:evenodd"
viewBox="0 0 66921.7 79454.2"
 xmlns:xlink="http://www.w3.org/1999/xlink"
 xmlns:xodm="http://www.corel.com/coreldraw/odm/2003">
 <defs>
  <style type="text/css">
   <![CDATA[
    .str0 {stroke:black;stroke-width:17.64;stroke-miterlimit:22.9256}
    .fil2 {fill:none}
    .fil4 {fill:#E87A1B}
    .fil3 {fill:#C33738}
    .fil0 {fill:#B02A22}
    .fil1 {fill:#72231D}
   ]]>
  </style>
 </defs>
 <g id="Layer_x0020_1">
  <metadata id="CorelCorpID_0Corel-Layer"/>
  <g id="_2178549277168">
   <polygon class="fil0 str0" points="4394.51,36696.81 28312.1,43179.42 28312.1,79467.5 4394.51,72984.89 "/>
   <polygon class="fil1 str0" points="62051.74,37363.29 28312.1,43179.42 28312.1,79467.5 62051.74,73651.37 "/>
   <polygon class="fil2 str0" points="4394.51,36696.81 28312.12,43179.42 62051.74,37363.29 38134.13,30880.68 "/>
   <polygon class="fil1 str0" points="66912.78,26910.97 28312.1,33565 28312.1,52775.75 66912.78,46121.66 "/>
   <polygon class="fil0 str0" points="-8.92,25888.88 28312.1,33564.99 28312.1,52775.74 -8.92,45099.63 "/>
   <polygon class="fil3" points="66912.78,26910.94 38591.72,19234.83 -8.96,25888.89 28312.1,33565 "/>
   <path class="fil4" d="M36928.79 15637.9c2069.21,1715.81 8754.67,-1200.55 11085.18,-1399.69 -3621.11,2027.41 -6579.41,2982.09 -11063.29,2431.85 895.45,1801.06 -328.29,4.52 594.43,854.53 1546.35,1424.34 6617.91,1225.32 8469.68,1145.34 -3547.6,1373.74 -6598.23,36.49 -9097.96,-1090.19l-118.67 1949.45c1308.71,2052.42 8734.62,3606.83 11625.27,3857.95 4762.7,413.7 9981.68,158.86 13116.73,-3554.21 22.4,-2905.16 -1631.77,-4252.44 -2237.74,-7812.13 -604.04,-3548.21 6.46,-6578.22 -401.91,-10207.23 -947.07,394.51 -2266.25,2225.41 -4934.62,3926.13 -1891.68,1205.63 -3721.04,2191.31 -5709.87,3224.89l-10442.37 4936.94c-1405.16,1059.37 -680.85,-545.61 -884.86,1736.37zm-5908.61 4240.34l-763.77 -1886.44c-1543.17,2117.46 -5830.33,2899.15 -8459.69,2184.36 1717.8,-166.94 3398.78,-264.65 4935.83,-685.06 1929.81,-527.75 3345.53,-808.45 4142.32,-2445.3 -5391.5,1277.09 -6963.46,254.26 -11236.07,-1076.45 1667.67,216.31 7981.82,1096.25 9808.87,731.11 2058.53,-411.27 704.45,66.18 1434.63,-686.92 -88.71,-2173.91 -1184.92,-1601.93 -5254.8,-3071.3 -2037.77,-735.67 -3965.84,-1382.63 -5899.81,-2161.14 -1852.94,-745.81 -4014.62,-1605.34 -5617.57,-2529.01 -2726.31,-1571.28 -4330.78,-3183.06 -4914.76,-3499.79 -438.24,4740.16 220.6,9459.32 -1516.49,13651.22 -897.68,2166.41 -4149.11,6141.64 3104.29,7257.36 5517.56,848.81 17833.12,-2204.16 20237.02,-5782.64zm25607.07 25777.9c-177.54,-6189.46 1693.83,-9428.62 2429.32,-14269.58 -5919.65,-766.66 -6585.18,-6234.43 -8967.98,-6660.39 -2229.7,-398.45 -4188.31,-274.7 -6569.07,-882.42 -2116.2,-540.12 -3857.71,-1409.5 -5773.77,-1926.63 1617.58,2890.49 5235.82,7770.51 8410.46,13417.46 1992.19,3543.69 7737.59,10516.66 10471.04,10321.56zm-48279.07 -11148.2c832.53,5206.01 2310.65,7659.8 2130.57,14145.58 7870.74,-2895.69 15453.8,-22148.05 19729.49,-26341.55 -1165.01,183.41 -4887.69,2972.63 -11983.47,4285.11 -3892.47,720.04 -3737.6,6801.22 -9876.59,7910.86zm1941.09 -31016.4c1381.01,3754.87 14503.92,8173.04 18887.61,10010.62 1750.56,733.72 1444.93,972.09 2761.59,-2.5 -810.97,-1652.16 -3212.22,-2919.44 -4688.76,-3923.28 -2700.82,-1836.22 -14903.45,-9608.9 -16960.44,-6084.84zm43017.95 -2718.12c-4111.12,1727.19 -21238.63,13031.1 -16354.67,12935.71 760.73,-14.88 16797.45,-8454.76 19850.5,-11593.39 2903.01,-2984.32 -1557.25,-2156.82 -3495.83,-1342.32zm-21395.87 15607.13c-37.95,3225.8 -333.38,4089.8 1988.12,3930.92 1873.62,-128.25 1963.98,-604.99 2039.26,-2876.67 69.8,-2105.57 270.19,-3262.81 -1273.96,-3506.1 -1782.18,-280.65 -2728.76,355.68 -2753.42,2451.85z"/>
  </g>
 </g>
</svg>
