<?xml version="1.0" encoding="UTF-8"?>
<!DOCTYPE svg PUBLIC "-//W3C//DTD SVG 1.1//EN" "http://www.w3.org/Graphics/SVG/1.1/DTD/svg11.dtd">
<!-- Creator: CorelDRAW 2021.5 -->
<svg xmlns="http://www.w3.org/2000/svg" xml:space="preserve" width="860mm" height="800mm" version="1.1" style="shape-rendering:geometricPrecision; text-rendering:geometricPrecision; image-rendering:optimizeQuality; fill-rule:evenodd; clip-rule:evenodd"
viewBox="0 0 86000 80000"
 xmlns:xlink="http://www.w3.org/1999/xlink"
 xmlns:xodm="http://www.corel.com/coreldraw/odm/2003">
 <defs>
  <style type="text/css">
   <![CDATA[
    .fil0 {fill:#FCEB0A}
   ]]>
  </style>
 </defs>
 <g id="Layer_x0020_1">
  <metadata id="CorelCorpID_0Corel-Layer"/>
  <path class="fil0" d="M42992.87 7122.07c4322.72,-4289.57 9824.73,-6788.12 17562.7,-6788.12 14041.01,0 25437.3,10974.51 25437.3,24495.74 0,19694.62 -18944.5,38164.11 -32416.64,51255.7 -2848.17,2767.63 -6537.06,4248.56 -10583.36,4248.56 -4046.24,0 -7735.19,-1480.93 -10583.36,-4248.56 -13472.14,-13091.59 -32416.64,-31561.08 -32416.64,-51255.7 0,-13521.23 11396.29,-24495.74 25437.3,-24495.74 7737.97,0 13239.98,2498.55 17562.7,6788.12zm0 14527.74c4157.36,-8007.12 8314.82,-12010.6 16629.69,-12010.6 9179.67,0 16629.7,7174.28 16629.7,16014.14 0,14492.86 -13620.29,28985.71 -28534.47,43478.57 -1296.86,1260.34 -2882.48,1896.78 -4724.92,1896.78 -1842.44,0 -3428.06,-636.49 -4724.92,-1896.78 -14914.18,-14492.86 -28534.47,-28985.71 -28534.47,-43478.57 0,-8839.86 7450.03,-16014.14 16629.7,-16014.14 8314.87,0 12472.33,4003.48 16629.69,12010.6z"/>
 </g>
</svg>
