<?xml version="1.0" encoding="UTF-8"?>
<!DOCTYPE svg PUBLIC "-//W3C//DTD SVG 1.1//EN" "http://www.w3.org/Graphics/SVG/1.1/DTD/svg11.dtd">
<!-- Creator: CorelDRAW 2021.5 -->
<svg xmlns="http://www.w3.org/2000/svg" xml:space="preserve" width="822.418mm" height="737.013mm" version="1.1" style="shape-rendering:geometricPrecision; text-rendering:geometricPrecision; image-rendering:optimizeQuality; fill-rule:evenodd; clip-rule:evenodd"
viewBox="0 0 82241.8 73701.3"
 xmlns:xlink="http://www.w3.org/1999/xlink"
 xmlns:xodm="http://www.corel.com/coreldraw/odm/2003">
 <defs>
  <style type="text/css">
   <![CDATA[
    .fil0 {fill:#ffd500}
   ]]>
  </style>
 </defs>
 <g id="Layer_x0020_1">
  <metadata id="CorelCorpID_0Corel-Layer"/>
  <path class="fil0" d="M41116.96 33051.55l7389.47 -6572.78 -7389.47 -3117.22 -7389.46 3117.22 7389.46 6572.78zm0 28549.82l3704.52 -10355.02 -3704.52 -16413.88 -3704.51 16413.88 3704.51 10355.02zm1770.87 -38313.46l6321.13 2556 2704.13 -2556 -9025.26 0zm-697.91 37534.29l9220.93 -9986.77 6824.73 -14587.85 -12697.71 15306.69 -3347.95 9267.93zm9746.54 -27670.64l6636.11 8.97 -8557.81 -5853.68 1921.7 5844.71zm-5588.71 16160.59l12680.86 -15286.57 -7155.2 -9.79 -5525.66 15296.36zm-1039.53 587.3l5738.19 -15884.47 -9326.11 -12.5 3587.92 15896.97zm21614.26 -15863.27l-6781.79 -9.24 -6973.65 14906.09 13755.44 -14896.85zm-176.11 -865.05l-7150.31 -6211.33 664.49 6202.91 6485.82 8.42zm-9704.69 -8430.34l-1672.48 -1452.88 -1156.38 0 2828.86 1452.88zm-14774.58 8398l8852.14 11.69 -2008.66 -6108.06 -6843.48 6096.37zm7695.75 -6878.8l9481.57 6485.27 -659.87 -6159.14 -5939.83 -3050.9 -2881.87 2724.77zm15777.15 -18917.98c8122.71,6893.47 13242.88,17172.94 13242.88,28648.2 0,20295.59 -15911.67,36850.25 -35993.95,37715.84l2.71 -4251.86c15563.27,-827 27824.24,-13708.4 27824.24,-29477.91 0,-15739.89 -12302.01,-28601.73 -27824.24,-29471.94l0 -10483.84c13081.99,0 26164.26,-15.76 39246.25,-15.76l0 7373.96 -16497.89 -36.69zm-26393.9 15945.9l-6321.13 2556 -2704.13 -2556 9025.26 0zm697.91 37534.29l-9220.93 -9986.77 -6824.73 -14587.85 12697.71 15306.69 3347.95 9267.93zm-9746.54 -27670.64l-6636.11 8.97 8557.81 -5853.68 -1921.7 5844.71zm5588.71 16160.59l-12680.86 -15286.57 7155.2 -9.79 5525.66 15296.36zm1039.53 587.3l-5738.19 -15884.47 9326.11 -12.5 -3587.92 15896.97zm-21614.26 -15863.27l6781.79 -9.24 6973.65 14906.09 -13755.44 -14896.85zm176.11 -865.05l7150.31 -6211.33 -664.49 6202.91 -6485.82 8.42zm9704.68 -8430.34l1672.49 -1452.88 1156.38 0 -2828.87 1452.88zm14774.59 8398l-8852.14 11.69 2008.66 -6108.06 6843.48 6096.37zm-7695.75 -6878.8l-9481.57 6485.27 659.86 -6159.14 5939.84 -3050.9 2881.87 2724.77zm-15777.15 -18917.98c-8122.71,6893.47 -13242.88,17172.94 -13242.88,28648.2 0,20295.59 15911.67,36850.25 35993.95,37715.84l-2.71 -4251.86c-15563.27,-827 -27824.24,-13708.4 -27824.24,-29477.91 0,-15739.89 12302.01,-28601.73 27824.24,-29471.94l0 -10483.84c-13082,0 -26164.26,-15.76 -39246.25,-15.76l0 7373.96 16497.89 -36.69z"/>
 </g>
</svg>
