<?xml version="1.0" encoding="UTF-8"?>
<!DOCTYPE svg PUBLIC "-//W3C//DTD SVG 1.1//EN" "http://www.w3.org/Graphics/SVG/1.1/DTD/svg11.dtd">
<!-- Creator: CorelDRAW 2021.5 -->
<svg xmlns="http://www.w3.org/2000/svg" xml:space="preserve" width="824.167mm" height="188.389mm" version="1.1" style="shape-rendering:geometricPrecision; text-rendering:geometricPrecision; image-rendering:optimizeQuality; fill-rule:evenodd; clip-rule:evenodd"
viewBox="0 0 82416.7 18838.9"
 xmlns:xlink="http://www.w3.org/1999/xlink"
 xmlns:xodm="http://www.corel.com/coreldraw/odm/2003">
 <defs>
  <style type="text/css">
   <![CDATA[
    .fil0 {fill:#A7D9E3}
   ]]>
  </style>
 </defs>
 <g id="Layer_x0020_1">
  <metadata id="CorelCorpID_0Corel-Layer"/>
  <path class="fil0" d="M7998.66 11799.94c-499.91,-294.23 -1738.75,-1039.01 -1762.31,-1656.32 0,-765.04 329.13,-1523.74 722.99,-2165.93 450.41,-734.48 756.03,-1400.31 859.76,-2264.44 60.77,-506.24 66.26,-1017.79 85.08,-1526.24 0,-357.34 16.09,-715.31 57.24,-1070.37 23.07,-198.89 51.18,-433.27 118.75,-621.47 150.43,-418.99 300.41,-835.56 465.45,-1249.32 110.46,-276.97 227.08,-560.21 362,-826.14 42.55,-83.87 191.33,-387.86 304.01,-387.86 134.1,0 111.45,234.33 102.84,320.48 -124.25,1245.45 -188.44,2497.44 -188.46,3750.31 -28.31,715.91 -350.17,1537.7 -665.92,2175.53 -106.61,215.37 -207.07,433.72 -305.32,653.01 -135.61,302.61 -266.29,607.39 -397.17,912.06 -79.53,185.13 -152.37,376.54 -247.13,553.43 -2.75,5.55 -4.95,11.96 -4.32,18.24 4.75,48.17 150.39,119.89 190.12,139.94 156.22,78.84 315.75,150.45 466.57,239.7 521.83,308.78 813.75,731.12 813.75,1349.07 0,1324.57 -385.64,2589.21 -972.7,3766.87 -527.84,1058.85 -1246.39,2126.68 -2235.18,2804.13 -774.92,530.93 -1636.67,866.1 -2584.84,866.1 -955.86,0 -1815.19,-291.22 -2399.43,-1081.74 -582.97,-788.81 -788.38,-1746 -788.38,-2712.31 0,-906.3 118.89,-1829.69 451.94,-2677.19 394.7,-1004.36 853.8,-1983.06 1323.32,-2954.24 148.22,-306.6 293.85,-612.07 450.41,-914.83 105.71,-204.45 215.72,-412.55 337.44,-607.9 36.2,-58.12 172.59,-289.53 257.51,-273.78 0.82,0.17 1.53,0.32 2.33,0.54 158.28,42.5 121.13,259.77 97.42,378.35 -32.56,162.88 -74.45,326.63 -136.51,481.71l-1196.27 2801.72c-451.86,1032.24 -770.55,2257.53 -407.5,3365.09 361.77,1103.55 1440.63,1388.43 2488.51,1398.87 1047.13,10.43 2020.92,-308.05 2917.82,-835.2 819.62,-481.73 1405.45,-1163.05 1416.18,-2149.87zm9985.48 5432.25c50.89,295.7 -99.62,659.9 -230.98,920.21 -117.19,232.22 -370.69,690.46 -668.91,690.46 -11.31,0 -21.72,-3.78 -30.41,-11.03 -196.41,-163.9 -401.93,-316.81 -609.91,-467.22 -99.68,-76.9 -418.61,-310.91 -418.51,-439.25 0,-1.14 0.07,-2.1 0.17,-3.24 10.7,-97.58 118.66,-313.22 163.39,-405.42 60.94,-125.71 125.26,-249.1 188.53,-373.57 172.26,-338.98 354.38,-687 577.76,-995.33 7.57,-10.45 18.65,-17.16 31.41,-19.08 12.69,-1.89 25.14,1.21 35.43,8.86 238.91,177.95 500.4,376.93 694.1,602.96 126.25,140.9 223.48,304.6 267.93,491.65zm2782.07 -6836.84c-372.82,589.17 -843.73,1135.14 -1429.93,1520.22 -535.62,351.85 -1132.79,520.31 -1772.08,524.2 -880.52,5.38 -1592.02,-260.25 -1939.59,-1123.71 -10.86,-22.87 -21.33,-45.84 -31.4,-68.95 -70.04,358.95 -152.52,715.42 -241.6,1070.11 -71.31,283.87 -147.46,566.73 -239.62,845.73 -389.6,1054.28 -1101.94,2434.17 -2403.19,2434.17 -400.34,0 -742.78,-191.07 -1031.82,-454.95 -135.71,-123.91 -511.03,-463.99 -511.03,-650.22 0,-183.19 268.77,-545.47 380.5,-695.67 461.52,-620.35 522.52,-1762.89 522.52,-2515.31 0,-512.71 -21.59,-1025.06 -38.18,-1537.4 -29.51,-911.35 167.38,-1865.53 391.99,-2745.27 120.05,-470.32 246.07,-939.27 390.37,-1402.79 92.05,-295.66 187.89,-592.32 317.54,-873.29 2.92,-6.71 6.86,-12.74 11.83,-18.11 41.75,-45.26 110.53,-107.18 177.79,-80.61 117.87,46.55 114.64,341.11 112.32,448.61 -20.4,471.71 -42.51,943.33 -68.86,1414.74l-176.12 3148.84c-80.24,1434.6 -321.43,3123.19 -1103.68,4359.13 70.6,9.5 158.69,9.55 222.08,10.51 93.13,1.42 186.47,0.69 280.22,-1.22 439.74,0 835.28,-300.33 1132.03,-597.84 345.01,-345.86 637.96,-757.94 763.31,-1235.91 153.72,-586.16 159.21,-1253.97 150.71,-1857.65 -7.34,-521.15 -15.17,-1042.29 -15.17,-1563.5 0,-1360.56 99.02,-2882.37 578.73,-4165.66 102.47,-256.57 224.03,-504.94 348.54,-751.36 187.56,-371.16 386.07,-736.65 588.41,-1099.92 4.56,-8.17 10.61,-15.16 18.11,-20.76 101.78,-75.98 234.78,-77.83 235.47,80.48 12.67,142.26 -17.94,302.88 -39.26,444.67 -127.93,725.53 -242.61,1453.7 -326.44,2185.75 -61.09,533.6 -108.57,1070.21 -108.57,1607.7 0,1310.82 342.96,2720.38 1890.5,2820.35l1124.1 -1837.06c353.35,-566.11 946.63,-1351.85 1686.63,-1351.85 258.92,0 563.74,92.74 810.67,168.31 210.63,60.43 505.06,156.3 721.75,156.3 142.04,0 297.4,-56.27 425.26,-114.95 19.88,-9.13 42.79,-7.79 61.53,3.46 80.32,48.27 152.71,118.74 152.37,219.25 0,1.14 -0.07,2.13 -0.2,3.27 -39.15,347.26 -141.83,693.58 -380.39,959.66 -372.2,379.81 -683.71,815.88 -956.85,1270.98 -217.05,361.7 -426.36,730.56 -681.3,1067.52zm29432.83 -5542.79c-167.62,-92.72 -346.83,-274.81 -346.83,-471.37 0,-782.83 1021.31,-2277.39 1480.48,-2936.42 10.03,-250.68 180.64,-572.9 306.27,-784.09 89.2,-161.59 309.31,-566.68 517.78,-566.68 19.58,0 37.71,7.85 51.12,22.09 596.88,633.83 1338.74,1256.83 2182.54,1516.35 392.61,100.13 784.23,255.58 1119.95,484.79 343.17,234.28 477.34,593.38 477.34,997.89 0,489.86 -208.32,962.58 -467.3,1369.07 -248.5,390.05 -607.88,749.54 -1101.81,749.13l-386.37 -0.32c-1.27,0 -2.35,-0.07 -3.6,-0.22 -228.54,-27.66 -459.08,-64.62 -689.75,-64.62 -987.07,0 -2989.15,1343.82 -3823.44,1914.55 -1707.78,1168.24 -3474.05,2257.94 -5323.55,3188.37 -2984.72,1501.5 -6092.14,2638.7 -9420.01,3065.19 -1858.64,238.18 -3742.52,247.82 -5606.24,61.72 -1302.32,-130.04 -2609.51,-296.04 -3837.14,-775.69 -180.92,-70.69 -303.32,-370.03 -464.91,-436.07 -1.81,-0.75 -3.32,-1.53 -4.95,-2.58 -2.52,-1.63 -5.19,-2.84 -8.09,-3.55 -113.67,-27.56 -401.95,530.74 -444.8,614.38 -73.7,143.8 -143.16,289.93 -210.47,436.84 -38.94,85.01 -75.96,171.77 -115.84,256.16 -302.87,640.75 -608.79,1283.09 -981.07,1887.19 -443.1,718.94 -1145.61,1655.29 -2007.48,1865.07 -360.92,87.85 -793.12,86.59 -858.86,-374.82 -42.96,-301.62 203.37,-661.85 381.99,-887.77 170.84,-216.11 363.29,-413.63 560.12,-605.95 588.95,-575.5 1083.55,-1255.06 1535.71,-1940.81 619.82,-939.98 1199.41,-1895.28 1717.11,-2894.84 187.86,-413.12 465.43,-820.92 872.71,-1043 326.7,-178.16 681.67,-206.37 1042.36,-130.84 0.84,0.17 1.55,0.35 2.36,0.58 926.65,273.76 1864.17,514.01 2813.83,693.72 1866.86,353.28 3777.32,402.65 5669.03,267.6 1988.33,-141.98 3923.23,-508.88 5833.07,-1076.77 2017.57,-599.97 3962.41,-1406.27 5869.41,-2292.23 637.18,-296.01 1270.94,-599.95 1891.88,-928.9 374.37,-198.32 750.07,-406.92 1105.64,-637.44 207.72,-134.67 508.09,-337.31 671.81,-535.71zm6819.09 99.08c161.38,-108.07 207.27,89.71 213.74,206.19 0.07,1.12 0.07,2.09 0,3.19 -44.94,892.63 -67.74,1786.21 -83.85,2680.39 -28.53,738.89 -59.55,1478.14 -128.04,2214.62 -75.36,810.22 -201.84,1613.3 -374.89,2408.35 -117.62,540.42 -825.17,3473.57 -1424.33,3513.95 -5.68,0.24 -12.12,-0.58 -17.49,-2.36 -121.16,-40.06 -153.64,-151.88 -133.83,-269.5 94.16,-429.32 189.78,-859.1 268.83,-1291.49 78.78,-430.86 137.89,-862.12 185.44,-1297.5 90.45,-828.36 151.35,-1661.68 160.93,-2495.11 8.06,-701.05 14.69,-1413.78 137.2,-2105.94 125.97,-711.66 370.5,-1404.81 600.63,-2088.15 80.54,-239.15 456.03,-1371.72 595.66,-1476.64zm1041.41 10657.51c-96.46,-0.03 -262.75,-2 -326.42,-87.38 -85.12,-128.17 379.49,-394.96 467.13,-451.71 429.76,-278.28 875.05,-531.08 1324.78,-774.14 776.68,-462.49 3114.71,-1923.7 3323.38,-2866.99 -276.94,140.28 -732.44,294.22 -1017.88,251.02 -648.19,-98.09 -1390.99,-361.22 -1390.99,-1139.93 0,-602.5 414.62,-1403.99 707.24,-1924.29 264.19,-469.76 774.9,-1273.95 1383.02,-1273.95 505.91,0 858.36,294.43 1120.46,702.55 189.28,294.75 307.25,626.92 372.58,969.71 767.83,-663.51 1501.08,-1474.59 2073.2,-2312.46 -349.73,-229.94 -718.77,-430.32 -1101.21,-601.64 -339.9,-160.13 -726.77,-289.55 -1105.87,-289.55 -158.35,0 -642.17,369.92 -782.95,477.11l-584.3 531.24c-14.65,13.59 -33.71,20.09 -53.59,18.41 -175.15,-14.84 -223.38,-156.07 -193.37,-310.22 51.12,-262.66 304.2,-657.9 446.39,-892.37 105.56,-174.06 209.87,-348.86 315.6,-522.83 58.41,-96.11 114.36,-193.95 182.53,-284.49 289.83,-367.34 665.02,-658.65 1153.7,-658.65 407.39,0 976.7,228.65 1357.24,380.44 400.86,159.87 947.02,360.41 1379.62,360.41 462.78,0 854.94,-180.96 1203.39,-478.43 81.6,-65.43 177.04,-97.51 281.81,-83.01 1.24,0.17 2.32,0.39 3.55,0.71 139.31,36.7 163.96,192.06 163.96,314.89 0,279.72 -194.32,767.65 -295.85,1037.86 -0.6,1.55 -1.21,2.86 -2.05,4.3 -136.9,240.2 -299.63,522.37 -501.41,712.56 -111.72,105.28 -221.53,195.69 -340.39,291.46 -180.8,145.66 -333.6,320.76 -485.45,496.77l-3145.29 3432.83c-85.83,403.91 -220.58,796.56 -383.12,1175.73 -340.3,793.68 -792.17,2012.6 -1448.95,2579.76 -307.94,265.91 -694.59,246.09 -1058.83,362.9 -482.58,171.67 -962.89,344.36 -1451.23,499.72 -302.26,96.16 -609.52,188.32 -918.34,260.94 -194.06,45.63 -472.74,106.98 -672.09,90.72zm7625.41 1082.81c-242.46,-202.06 -496.1,-390.59 -752.76,-575.74 -118.55,-91.44 -511.96,-381.53 -511.81,-533.04 0,-1.18 0.07,-2.19 0.2,-3.38 13.59,-119.67 145.93,-383.55 200.83,-496.7 75.1,-154.74 154.35,-306.68 232.31,-459.88 212.36,-417.29 436.45,-845.82 711.26,-1225.72 7.55,-10.44 18.52,-17.15 31.26,-19.11 12.73,-1.95 25.23,1.14 35.58,8.85 294.02,218.81 615.67,463.66 854.21,741.7 154.76,171.84 273.74,372.65 327.93,600.83 62.25,362.49 -122.56,808.95 -283.57,1128.01 -142.11,281.59 -453.3,845.2 -815.04,845.2 -11.27,0 -21.75,-3.81 -30.4,-11.02zm5641.39 -2767.75c77.61,11.71 185.43,11.73 252.16,12.87 102.26,1.76 204.96,1.4 307.85,-0.67 479.95,0 910.75,-328.94 1233.86,-654.15 376.17,-378.61 694.14,-828.74 830.5,-1350.94 167.21,-640.19 260.36,-1365.01 251.04,-2026.71 -7.98,-567.89 -16.69,-1135.78 -16.69,-1703.72 0,-1473.92 108.87,-3013.07 627.07,-4405.72 111.24,-279.22 243.06,-549.67 378.05,-818.01 197.97,-393.51 337.2,-812.18 551.37,-1198.31 4.34,-7.83 10.11,-14.48 17.29,-19.86 105.11,-78.69 240.98,-83.87 241.62,80.67 13.34,155.16 -19.31,328.31 -42.5,482.77 -138.8,790.84 -263.35,1584.49 -354.35,2382.37 -66.43,582.45 -117.92,1167.96 -118.05,1756.15 -41.76,831.41 -55.22,2024.87 637.03,2617.32 184.42,157.83 402.76,254.38 638.14,307.92 127.24,18.74 254.27,41.33 382.55,51.76l550.98 -717.91c212.06,-318.79 302.2,-703.12 390.95,-1070.47 226.8,-938.76 202.54,-1919.5 238.01,-2878.37 35,-946.04 121.8,-2046.61 464.42,-2933.84 163.4,-423.16 334.23,-843.76 526.37,-1254.78 81.27,-173.88 179.97,-410.58 302.26,-556.17 20.59,-24.5 56.34,-29.71 82.97,-11.92 157.04,104.83 152.93,311.84 123.96,476.53 -53.78,397.71 -76.33,798.5 -102.87,1198.7l-130.99 1974.21c-14.84,564.16 -97.71,1125.41 -203.09,1679.1 -118.86,624.42 -270.15,1242.22 -437.85,1855.22 234.95,-296.89 495.37,-573.23 754.61,-848.73 331.09,-351.89 763.37,-683.34 1261.21,-725.1 361.27,-30.31 731.9,33.26 1016.2,271.12 252.38,203.31 406.49,465.64 427.85,792.08 40.78,623.03 -201.27,1278.6 -480.53,1825.84 -239.69,469.71 -532.05,912.62 -844.81,1335.84 -992.39,1446.39 -2328.7,2326.52 -4118.37,2326.52 -491.5,3.57 -1560.21,-379.21 -1858.3,-1102.57 -74.8,-60.12 -20.97,68.82 -17.27,251.46 -108.19,571.78 -288.65,1129.92 -470.4,1682.76 -419.83,1140.83 -1190.16,2646.87 -2599.53,2646.87 -432.26,0 -801.92,-207.99 -1113.21,-493.43 -144.76,-132.73 -551.74,-503.6 -551.74,-701.89 0,-196.66 290.9,-590.8 410.75,-752.55 502.6,-678.35 568.9,-1924.83 568.9,-2746.63 0,-558.79 -23.66,-1117.19 -41.65,-1675.59 -31.97,-992.3 181.8,-2030.95 425.25,-2989.13 130.16,-512.3 266.83,-1023.17 423.35,-1528.13 99.81,-322.1 203.65,-645.08 344.81,-952.78 2.75,-5.6 6.18,-10.67 10.39,-15.26 43.05,-46.74 114.59,-111.79 184.21,-84.34 123.9,48.87 118.16,366.06 115.77,478.87 -22.09,514 -46.1,1027.92 -74.66,1541.6l-190.92 3431.37c-87.08,1564.9 -349.44,3410.52 -1203.97,4757.76zm-49991.83 -5785.59c-123.17,-84.83 -338.33,-166.91 -472.53,-217.19 -139.74,-52.36 -357.59,-138.96 -505.2,-138.96 -493.2,0 -879.29,383.59 -1122.98,776.89l-828.51 1291.72c460.61,8.2 977.93,-88.07 1399.48,-262.55 638.04,-264.06 1154.25,-884.67 1529.74,-1449.91zm31724.98 -4245.36c379.4,221.1 992.36,293.42 1423.78,293.42 229.94,0 656.15,-84.32 751.06,-325.49 92.56,-259.05 -302.41,-584.03 -496.47,-694.14 -237.6,-134.84 -556.79,-251.84 -832.21,-251.84 -236.78,0 -418.85,117.45 -569.59,290.9 -151.72,183.78 -287.82,442 -276.57,687.15zm-339.95 -651.87c-1.04,-532.29 -297.88,-794.11 -804.59,-875.9 -268.59,-31.98 -603.73,128.15 -790.71,315.15 -225.27,225.3 -361.25,493.57 -361.25,816.31 0,352.21 474.64,428.17 742.98,432.17 502.41,7.49 1113.13,-98.07 1213.57,-687.73zm25191 6218.5c859.89,-31.56 2151.01,-415.22 2861,-909.56 183,-127.41 918.32,-645.7 903.33,-875.04 -32.31,-493.73 -588.5,-681.58 -1148.58,-590.19 -293.55,47.9 -588.2,172.52 -809.04,370.04 -262.79,235.02 -500.52,496.77 -732.52,761.71 -291.42,332.83 -796.26,898.94 -1074.19,1243.04z"/>
 </g>
</svg>
