<?xml version="1.0" encoding="UTF-8"?>
<!DOCTYPE svg PUBLIC "-//W3C//DTD SVG 1.1//EN" "http://www.w3.org/Graphics/SVG/1.1/DTD/svg11.dtd">
<!-- Creator: CorelDRAW 2021.5 -->
<svg xmlns="http://www.w3.org/2000/svg" xml:space="preserve" width="796.513mm" height="796.513mm" version="1.1" style="shape-rendering:geometricPrecision; text-rendering:geometricPrecision; image-rendering:optimizeQuality; fill-rule:evenodd; clip-rule:evenodd"
viewBox="0 0 79651.3 79651.3"
 xmlns:xlink="http://www.w3.org/1999/xlink"
 xmlns:xodm="http://www.corel.com/coreldraw/odm/2003">
 <defs>
  <style type="text/css">
   <![CDATA[
    .fil0 {fill:#ffd500}
   ]]>
  </style>
 </defs>
 <g id="Layer_x0020_1">
  <metadata id="CorelCorpID_0Corel-Layer"/>
  <path class="fil0" d="M40062.94 44441.37c9718.08,0 18346.34,-16794.89 18346.34,-27747.3 0,-7732.12 -5973.95,-16692.54 -18585.18,-16692.54 -12611.23,0 -18585.17,8960.42 -18585.17,16692.54 0,10952.41 9105.93,27747.3 18824.01,27747.3zm-40064.5 35211.49l79651.32 0c0,-22951.49 -20727.69,-28791.97 -39825.66,-28791.97 -19097.97,0 -39825.66,5840.48 -39825.66,28791.97zm46915.52 -47950.16c2305.09,-3661.84 4858.04,-10663.39 4858.04,-15008.63 0,-6637.28 -5911.73,-10055.26 -11947.9,-10055.26 -6036.17,0 -11947.9,3417.98 -11947.9,10055.26 0,4344.23 2552.95,11344.78 4858.04,15008.63 4282.01,7732.12 10174.68,7489.27 14179.72,0zm-39384.11 41312.88l64588.5 0c-3810.36,-12907.26 -19102.99,-15517.42 -32294.25,-15517.42 -13191.26,0 -28483.89,2610.16 -32294.25,15517.42z"/>
 </g>
</svg>
