<?xml version="1.0" encoding="UTF-8"?>
<!DOCTYPE svg PUBLIC "-//W3C//DTD SVG 1.1//EN" "http://www.w3.org/Graphics/SVG/1.1/DTD/svg11.dtd">
<!-- Creator: CorelDRAW 2021.5 -->
<svg xmlns="http://www.w3.org/2000/svg" xml:space="preserve" width="551.654mm" height="756.287mm" version="1.1" style="shape-rendering:geometricPrecision; text-rendering:geometricPrecision; image-rendering:optimizeQuality; fill-rule:evenodd; clip-rule:evenodd"
viewBox="0 0 55165.4 75628.7"
 xmlns:xlink="http://www.w3.org/1999/xlink"
 xmlns:xodm="http://www.corel.com/coreldraw/odm/2003">
 <defs>
  <style type="text/css">
   <![CDATA[
    .fil1 {fill:#FEFEFE}
    .fil0 {fill:#E80909}
   ]]>
  </style>
 </defs>
 <g id="Layer_x0020_1">
  <metadata id="CorelCorpID_0Corel-Layer"/>
  <path class="fil0" d="M27569.36 15098.69c6906.37,0 12505.1,5598.72 12505.1,12505.09 0,6906.38 -5598.73,12505.1 -12505.1,12505.1 -6906.37,0 -12505.1,-5598.72 -12505.1,-12505.1 0,-6906.37 5598.73,-12505.09 12505.1,-12505.09zm0 -15077.61c15233.5,0 27582.7,12349.2 27582.7,27582.7 0,21037.43 -19043.71,48045.97 -27119.45,48045.97 -8075.74,0 -28045.95,-24044.83 -28045.95,-48045.97 0,-15233.5 12349.2,-27582.7 27582.7,-27582.7z"/>
  <path class="fil1" d="M25794.6 3506.45c2371.05,0 4648.27,400.59 6769.14,1135.76 -545.02,-32.7 -1093.84,-51.29 -1647.07,-51.29 -12034.92,0 -22234.8,7849.52 -25764.06,18707.51 455.91,-11007.57 9522.38,-19791.98 20641.99,-19791.98z"/>
 </g>
</svg>
