<?xml version="1.0" encoding="UTF-8"?>
<!DOCTYPE svg PUBLIC "-//W3C//DTD SVG 1.1//EN" "http://www.w3.org/Graphics/SVG/1.1/DTD/svg11.dtd">
<!-- Creator: CorelDRAW 2021.5 -->
<svg xmlns="http://www.w3.org/2000/svg" xml:space="preserve" width="535.497mm" height="821.915mm" version="1.1" style="shape-rendering:geometricPrecision; text-rendering:geometricPrecision; image-rendering:optimizeQuality; fill-rule:evenodd; clip-rule:evenodd"
viewBox="0 0 53549.7 82191.5"
 xmlns:xlink="http://www.w3.org/1999/xlink"
 xmlns:xodm="http://www.corel.com/coreldraw/odm/2003">
 <defs>
  <style type="text/css">
   <![CDATA[
    .fil0 {fill:#FCEB0A}
   ]]>
  </style>
 </defs>
 <g id="Layer_x0020_1">
  <metadata id="CorelCorpID_0Corel-Layer"/>
  <path class="fil0" d="M6473.03 1.46l40590.42 0c3564.17,0 6479.1,2914.93 6479.1,6480.14l0 69231.21c0,3565.21 -2914.93,6480.13 -6479.1,6480.13l-40590.42 0c-3565.21,0 -6480.14,-2914.92 -6480.14,-6480.13l0 -69231.21c0,-3565.21 2914.93,-6480.14 6480.14,-6480.14zm7198.77 10838.54l26191.84 0c2300.87,0 4181.34,1881.5 4181.34,4182.37l0 40651.51c0,2300.88 -1880.47,4181.34 -4181.34,4181.34l-26191.84 0c-2299.84,0 -4180.3,-1880.46 -4180.3,-4181.34l0 -40651.51c0,-2300.87 1880.46,-4182.37 4180.3,-4182.37zm3998.05 59034.68l18440.12 0 0 5111.21 -18440.12 0 0 -5111.21z"/>
 </g>
</svg>
