<?xml version="1.0" encoding="UTF-8"?>
<!DOCTYPE svg PUBLIC "-//W3C//DTD SVG 1.1//EN" "http://www.w3.org/Graphics/SVG/1.1/DTD/svg11.dtd">
<!-- Creator: CorelDRAW 2021.5 -->
<svg xmlns="http://www.w3.org/2000/svg" xml:space="preserve" width="718.138mm" height="837.225mm" version="1.1" style="shape-rendering:geometricPrecision; text-rendering:geometricPrecision; image-rendering:optimizeQuality; fill-rule:evenodd; clip-rule:evenodd"
viewBox="0 0 71813.8 83722.5"
 xmlns:xlink="http://www.w3.org/1999/xlink"
 xmlns:xodm="http://www.corel.com/coreldraw/odm/2003">
 <defs>
  <style type="text/css">
   <![CDATA[
    .fil15 {fill:#009933}
    .fil10 {fill:#28A73E}
    .fil11 {fill:#2A8D38}
    .fil1 {fill:#2C7B33}
    .fil2 {fill:#34A63D}
    .fil12 {fill:#4AAC5B}
    .fil14 {fill:#4E9334}
    .fil0 {fill:#51B15C}
    .fil3 {fill:#6EB964}
    .fil8 {fill:#837B18}
    .fil7 {fill:#8E8616}
    .fil6 {fill:#AFA60A}
    .fil5 {fill:#B7AD06}
    .fil9 {fill:#D3C80C}
    .fil4 {fill:#E8DE02}
    .fil13 {fill:#EDE10C}
   ]]>
  </style>
 </defs>
 <g id="Layer_x0020_1">
  <metadata id="CorelCorpID_0Corel-Layer"/>
  <g id="_1761127059152">
   <polygon class="fil0" points="30358.58,59904.26 29349.71,60938.33 29349.71,76582.58 30358.58,77616.72 40446.45,77616.72 41455.32,76582.58 41455.32,60938.33 40446.45,59904.26 "/>
   <polygon class="fil1" points="27992.09,60385.8 29349.71,60938.33 30358.58,59904.26 29786.41,58546.64 "/>
   <polygon class="fil1" points="29786.41,58546.64 30358.58,59904.26 40446.45,59904.26 41018.62,58546.64 "/>
   <polygon class="fil1" points="42812.95,60385.8 41018.62,58546.64 40446.45,59904.26 41455.32,60938.33 "/>
   <polygon class="fil2" points="42812.95,77135.11 42812.95,60385.8 41455.32,60938.33 41455.32,76582.58 "/>
   <polygon class="fil3" points="42812.95,77135.11 41455.32,76582.58 40446.45,77616.72 41018.62,78974.35 "/>
   <polygon class="fil3" points="41018.62,78974.35 40446.45,77616.72 30358.58,77616.72 29786.41,78974.35 "/>
   <polygon class="fil3" points="27992.09,77135.11 29349.71,76582.58 30358.58,77616.72 29786.41,78974.35 "/>
   <polygon class="fil2" points="27992.09,77135.11 29349.71,76582.58 29349.71,60938.33 27992.09,60385.8 "/>
   <g id="_1533821765872">
    <path class="fil4" d="M27578.25 53792.07l15648.54 0 4357.48 4357.41 0 21221.95 -4357.48 4357.48 -15648.54 0 -4357.49 -4357.48 0 -21221.95 4357.49 -4357.41zm1410.11 3404.25l-2363.28 2363.27 0 18401.73 2363.28 2363.28 12828.32 0 2363.28 -2363.28 0 -18401.73 -2363.28 -2363.27 -12828.32 0z"/>
    <path class="fil4" d="M37252.59 49790.38c465.55,-2685.1 948.62,-5114.19 2261.52,-7802.47 67.4,1190.89 -540.3,2757.55 -1137.41,3864.31 1034.68,-631.63 2131.01,-3635.8 1542.16,-5074.64 -234.42,-573.01 -2431.38,-1115.26 -4516.34,-1097.08 -2084.97,18.19 -4281.92,524.07 -4516.35,1097.08 -588.84,1438.84 507.49,4443.01 1542.16,5074.64 -597.11,-1106.76 -1204.8,-2673.42 -1137.4,-3864.31 1312.89,2688.28 1795.97,5117.37 2261.51,7802.47 540.36,498.86 3159.8,498.86 3700.15,0z"/>
    <polygon class="fil5" points="28190.3,53180.02 42554.01,53180.02 43226.79,53792.07 27578.25,53792.07 "/>
    <circle class="fil4" cx="35402.52" cy="52239.18" r="1910.22"/>
    <polygon class="fil5" points="27308.58,58937.62 27308.58,77548.22 29387.38,79649.47 41417.65,79649.47 43496.45,77548.22 43496.45,58937.62 44179.96,59559.59 44179.96,77679.93 41816.68,80324.6 28988.36,80324.6 26625.08,77961.32 26625.08,59559.59 "/>
   </g>
   <g id="_1533821762320">
    <path class="fil4" d="M39486.97 6.42l9166.42 4552.21 17.3 2543.82 -12347.03 6215.59 -5087.68 8.63 -9166.42 -4552.21 -17.26 -2543.84 12347.03 -6215.59 5087.64 -8.61zm-1154.61 1407.26l-2759.3 4.68 -10706.22 5389.58 9.37 1379.65 7514.42 3731.8 2759.3 -4.68 10706.21 -5389.58 -9.36 -1379.65 -7514.42 -3731.8z"/>
    <polygon class="fil5" points="22069.58,8774.45 31235.96,13326.67 36323.65,13318.04 48657.15,7109.32 48670.71,9098.69 36323.65,15314.27 31235.96,15322.9 22069.58,10770.68 "/>
    <polygon class="fil6" points="41379.6,10772.89 42833.65,10040.85 46442.47,19763.18 44724.71,23939.75 43006.9,28116.39 38859.82,29263.53 34712.75,30410.73 30565.62,27856.51 26418.54,25302.23 24700.78,20542.81 22982.97,15783.39 24540.06,11997.62 26079.32,12762.04 24715.78,16077.36 26179.79,20133.68 27643.8,24190 31178.25,26366.92 34712.75,28543.83 38247.19,27566.14 41781.63,26588.44 43245.65,23028.8 44709.71,19469.21 "/>
    <polygon class="fil7" points="47810.94,18917.47 44375.38,27270.68 43006.9,28116.39 46442.47,19763.18 "/>
    <polygon class="fil8" points="26926.8,13182.9 26079.32,12762.04 24715.78,16077.36 27618.74,24250.82 34687.68,28604.65 41756.57,26649.26 41973.33,26122.15 36230.59,27710.74 28987.21,23405.11 26059.08,15292.47 "/>
    <polygon class="fil9" points="42833.65,10040.85 44334.49,9285.35 47810.94,18917.47 46442.47,19763.18 "/>
   </g>
   <polygon class="fil10" points="37579.73,1810.17 35806.05,1824.12 27657.3,5926.26 27641.39,6813.2 33143.23,9545.51 34916.95,9531.54 43065.7,5429.4 43081.57,4542.48 "/>
   <polygon class="fil1" points="26148.26,6963.61 27657.28,5926.26 27641.39,6813.19 26129.28,8024.26 "/>
   <polygon class="fil11" points="26129.28,8024.26 27641.39,6813.19 33143.2,9545.5 32708.73,11291.76 "/>
   <polygon class="fil11" points="32708.73,11291.76 33143.2,9545.5 34916.96,9531.5 34829.86,11275.05 "/>
   <polygon class="fil12" points="43081.57,4542.48 44593.69,5308.83 44574.71,6369.42 43065.69,5429.36 "/>
   <polygon class="fil12" points="43065.69,5429.36 34916.96,9531.5 34829.86,11275.05 44574.71,6369.42 "/>
   <path class="fil13" d="M19143.52 28135.4l0 0c198.7,362.6 21.48,853.44 -395.76,1096.18l-9350.24 5439.53c-417.2,242.72 -916.69,145.54 -1115.37,-217.03l-0.01 -0.02c-198.66,-362.55 -21.41,-853.42 395.79,-1096.13l9350.22 -5439.58c417.27,-242.7 916.71,-145.5 1115.39,217.08z"/>
   <path class="fil13" d="M2738.75 32153.87l9861.05 952.28 2745.91 3011.03 0 13373.17 -2745.91 2480.73 -9861.05 -952.28 -2745.9 -3011.07 0 -13373.17 2745.9 -2480.69zm888.59 2231.02l-1489.23 1345.42 0 11596 1489.23 1633.05 8083.87 780.65 1489.24 -1345.42 0 -11595.99 -1489.24 -1633.05 -8083.87 -780.66z"/>
   <polygon class="fil5" points="2738.78,32153.86 4615.69,31102.79 14476.7,32055.08 17222.62,35066.08 17222.62,48439.25 14476.7,50919.98 12599.78,51971.06 15345.71,49490.33 15345.71,36117.16 12599.78,33106.15 "/>
   <polygon class="fil10" points="3816.75,36232.76 3233.79,36773.99 3233.79,46638.81 3930.47,47420.27 10302,48035.54 10884.96,47494.32 10884.96,37629.44 10188.28,36848.03 "/>
   <polygon class="fil14" points="10188.28,36848.03 11208.31,35967.9 12339.02,37236.08 10884.96,37629.44 "/>
   <polygon class="fil14" points="12339.02,47790.78 10884.96,47494.32 10302,48035.54 11208.31,48840.58 "/>
   <polygon class="fil15" points="11208.31,48840.58 4130.25,48157.07 3930.47,47420.27 10302,48035.54 "/>
   <polygon class="fil15" points="4130.25,48157.07 2999.54,46888.84 3233.79,46638.81 3930.47,47420.27 "/>
   <polygon class="fil15" points="3233.79,46638.81 3233.79,36773.99 2999.54,36334.15 2999.54,46888.84 "/>
   <polygon class="fil14" points="3233.79,36773.99 2999.54,36334.15 4130.25,35284.4 3816.75,36232.76 "/>
   <polygon class="fil14" points="3816.75,36232.76 10188.28,36848.03 11208.31,35967.9 4130.25,35284.4 "/>
   <polygon class="fil14" points="10884.96,37629.44 12339.02,37236.08 12339.02,47790.78 10884.96,47494.32 "/>
   <path class="fil13" d="M52655.92 28135.4l0 0c-198.7,362.6 -21.48,853.44 395.76,1096.18l9350.24 5439.53c417.2,242.72 916.69,145.54 1115.37,-217.03l0.01 -0.02c198.66,-362.55 21.41,-853.42 -395.79,-1096.13l-9350.22 -5439.58c-417.27,-242.7 -916.71,-145.5 -1115.39,217.08z"/>
   <path class="fil13" d="M69060.78 32153.87l-9861.05 952.28 -2745.91 3011.03 0 13373.17 2745.91 2480.73 9861.05 -952.28 2745.9 -3011.07 0 -13373.17 -2745.9 -2480.69zm-888.59 2231.02l1489.23 1345.42 0 11596 -1489.23 1633.05 -8083.87 780.65 -1489.24 -1345.42 0 -11595.99 1489.24 -1633.05 8083.87 -780.66z"/>
   <polygon class="fil5" points="69060.75,32153.86 67183.84,31102.79 57322.83,32055.08 54576.91,35066.08 54576.91,48439.25 57322.83,50919.98 59199.75,51971.06 56453.82,49490.33 56453.82,36117.16 59199.75,33106.15 "/>
   <polygon class="fil10" points="67982.78,36232.76 68565.74,36773.99 68565.74,46638.81 67869.06,47420.27 61497.53,48035.54 60914.57,47494.32 60914.57,37629.44 61611.25,36848.03 "/>
   <polygon class="fil14" points="61611.25,36848.03 60591.22,35967.9 59460.51,37236.08 60914.57,37629.44 "/>
   <polygon class="fil14" points="59460.51,47790.78 60914.57,47494.32 61497.53,48035.54 60591.22,48840.58 "/>
   <polygon class="fil15" points="60591.22,48840.58 67669.28,48157.07 67869.06,47420.27 61497.53,48035.54 "/>
   <polygon class="fil15" points="67669.28,48157.07 68799.99,46888.84 68565.74,46638.81 67869.06,47420.27 "/>
   <polygon class="fil15" points="68565.74,46638.81 68565.74,36773.99 68799.99,36334.15 68799.99,46888.84 "/>
   <polygon class="fil14" points="68565.74,36773.99 68799.99,36334.15 67669.28,35284.4 67982.78,36232.76 "/>
   <polygon class="fil14" points="67982.78,36232.76 61611.25,36848.03 60591.22,35967.9 67669.28,35284.4 "/>
   <polygon class="fil14" points="60914.57,37629.44 59460.51,37236.08 59460.51,47790.78 60914.57,47494.32 "/>
  </g>
 </g>
</svg>
