<?xml version="1.0" encoding="UTF-8"?>
<!DOCTYPE svg PUBLIC "-//W3C//DTD SVG 1.1//EN" "http://www.w3.org/Graphics/SVG/1.1/DTD/svg11.dtd">
<!-- Creator: CorelDRAW 2021.5 -->
<svg xmlns="http://www.w3.org/2000/svg" xml:space="preserve" width="813.548mm" height="463.796mm" version="1.1" style="shape-rendering:geometricPrecision; text-rendering:geometricPrecision; image-rendering:optimizeQuality; fill-rule:evenodd; clip-rule:evenodd"
viewBox="0 0 81354.8 46379.6"
 xmlns:xlink="http://www.w3.org/1999/xlink"
 xmlns:xodm="http://www.corel.com/coreldraw/odm/2003">
 <defs>
  <style type="text/css">
   <![CDATA[
    .fil0 {fill:#D7ECE9;fill-rule:nonzero}
   ]]>
  </style>
 </defs>
 <g id="Layer_x0020_1">
  <metadata id="CorelCorpID_0Corel-Layer"/>
  <g id="_1761223252160">
   <path class="fil0" d="M72538.15 6292.52c0,-541.06 465.78,-1712.15 1384.95,-3525.24 919.16,-1813.09 1523.52,-2707.02 1787.85,-2707.02 541.49,-226.24 1335.36,189.5 2366.97,1233.97 1032.08,1044.45 1622.72,1861.34 1649.73,2455.09 35.41,779.69 -428.15,1914.03 -1284.44,3387.08 -856.3,1473.06 -1485.9,2215.57 -1888.36,2215.57 -138.59,-75.27 -655.28,-402.91 -1523.52,-982.04 -868.27,-578.68 -1517.35,-1016.58 -1939.29,-1309.24 -358.19,-247.94 -553.89,-503.41 -553.89,-768.17z"/>
   <path class="fil0" d="M77480.66 15676.05c1065.93,452.67 1759.82,472.84 2091.9,60.47 40.32,-40.32 422.26,-613.6 1146.56,-1709.59 200.88,-311.92 331.73,-472.84 412.01,-472.84 141.11,0 211.49,70.38 211.49,211.14 19.8,151.01 -20.16,412.36 -100.8,774.51 -90.53,372.04 -271.61,965.48 -532.96,1800.12 -271.61,834.64 -683.98,1609.15 -1237.09,2333.08 -563.03,714.04 -1226.84,1005.81 -1991.11,865.05 -251.44,-683.97 -372.04,-1347.43 -351.88,-1971.28 20.16,-633.41 140.76,-1256.91 351.88,-1890.66z"/>
   <path class="fil0" d="M65205.87 43407.31c0,134.28 326.88,456.83 974.35,985.75 640.37,523.41 1115.33,923.15 1422.12,1187.02 331.22,285.13 582.48,425.34 761.68,425.34 694.33,0 1635.19,-1198.04 2822.2,-3572.46 481.66,347.36 1033.42,837.29 1668.67,1467.02 641.16,635.26 1075.16,952.3 1310.28,952.3 369.41,0 946.38,-553.34 1736.01,-1669.06 811.3,-1146.06 1244.91,-2127.89 1220.49,-2956.5 -20.48,-695.13 -450.94,-1442.23 -1198.44,-2239.73 -753,-803.43 -1411.09,-1198.44 -1948.28,-1198.44 -179.2,0 -537.58,448.18 -1075.16,1344.16 -537.59,895.96 -1019.24,1702.14 -1456.01,2429.94 -369.8,-526.16 -921.17,-1139.75 -1623.77,-1825.41 -708.1,-691.57 -1254.35,-962.92 -1624.15,-806.18 -201.65,0 -741.2,838.87 -1646.23,2530.77 -897.94,1678.51 -1343.76,2665.46 -1343.76,2945.48z"/>
   <path class="fil0" d="M77480.66 19537.99c-764.25,-291.76 -1840.43,-402.1 -3238.44,-321.82 -1377.86,60.47 -2755.35,844.89 -4153.37,2353.25 -271.61,160.9 -583.18,231.29 -915.27,211.12 -331.73,-20.15 -542.87,-90.54 -643.65,-211.12 955.59,-1417.82 1981.19,-2584.54 3047.47,-3499.81 1065.93,-925.18 2021.16,-1548.68 2856.14,-1860.25 834.64,-311.93 1850.35,-493 3047.12,-533.31 281.52,804.56 412.38,1388.11 412.38,1740 0,412.36 -90.54,955.23 -291.78,1619.04 0,160.92 -40.31,321.83 -120.6,502.9z"/>
   <path class="fil0" d="M68520.02 21569.42c80.28,-90.54 201.23,-160.92 362.15,-201.24 150.66,-40.31 311.57,-60.48 462.58,-60.48 160.92,0 311.58,20.17 462.59,70.38 140.76,50.57 241.19,120.95 281.51,191.34 -160.92,261.35 -261.35,422.26 -301.67,502.9 965.49,392.2 1880.76,834.62 2745.46,1327.28 844.88,452.67 1267.15,1035.86 1267.15,1770.06 0,190.97 -60.47,422.27 -181.07,673.71 -935.07,2242.9 -2081.64,3741.36 -3419.18,4505.61 -502.9,321.83 -2121.94,824.73 -4827.43,1518.62 -2715.39,703.78 -4666.17,1578.72 -5883.11,2634.75 -1206.68,1065.93 -2061.83,2222.75 -2574.64,3479.64 -512.8,1257.26 -971.85,2463.59 -1277.06,3640.57 -1629.65,6282.74 -2566.14,7095.09 -874.95,-2162.27 149.95,-820.49 542.87,-1649.11 975.4,-2534.32 784.4,-1689.42 1689.42,-3157.82 2705.49,-4394.91 381.95,-532.97 1055.66,-1256.9 2041.3,-2192.33 975.39,-935.07 2393.57,-1950.79 4234,-3047.13l3801.48 -5722.18z"/>
   <path class="fil0" d="M57226.55 18816.15c239.17,-445.47 477.96,-684.27 717.13,-717.12 249.87,-32.47 293.42,282.73 141.35,945.21 -445.47,1879.71 -1271.1,3618.07 -2477.25,5182.6 -228.09,325.9 -553.98,651.79 -955.91,988.38 -402.3,336.98 -782.45,543.29 -1140.82,608.62 -423.7,630.02 -901.65,1227.55 -1434.24,1759.76 -532.2,543.28 -1238.63,826.01 -2140.28,847.78 -499.73,0 -945.21,184.54 -1336.06,553.98 -380.53,369.45 -641.09,651.8 -793.15,847.41 -978.07,1205.76 -1923.28,2303.03 -2835.63,3281.1 -782.45,760.29 -1542.74,1053.72 -2270.94,890.57 -727.82,-173.84 -1412.09,-380.14 -2053.18,-608.23 -195.61,-336.97 -304.12,-717.12 -347.67,-1129.74 -43.56,-413.01 76.04,-945.21 347.67,-1608.08 1890.43,-293.42 3487.42,-966.99 4802.08,-2020.7 1314.66,-1054.09 2585.76,-2259.86 3791.53,-3618.07 662.86,-694.97 1510.27,-1031.95 2542.21,-1010.16 999.85,-65.34 1771.21,-684.65 2292.72,-1846.87 173.46,-380.53 358.37,-630.4 542.91,-738.9 130.66,-54.25 282.71,-76.03 445.48,-54.25 173.83,21.77 293.42,21.77 380.53,0 238.78,-87.11 521.12,-380.15 847.4,-880.26 325.89,-499.73 640.7,-1053.71 934.12,-1673.03z"/>
   <path class="fil0" d="M10883.5 22416.46c0,-354.07 566.21,-1600.51 1699.11,-3738.33 1132.91,-2124.39 1827.09,-3186.58 2081.55,-3186.58 467.61,-198.19 1147.35,141.93 2053.67,1019.86 891.88,863.5 1571.63,1628.39 2053.17,2293.69 552.26,-905.81 1161.29,-1939.62 1841.04,-3072.53 679.73,-1132.89 1132.9,-1699.6 1345.03,-1699.6 694.2,0 1515.36,509.94 2478.45,1515.35 948.65,1005.42 1458.59,1954.07 1514.86,2846.46 0,1047.75 -523.88,2294.18 -1543.24,3724.38 -991.48,1415.77 -1727.99,2123.89 -2195.09,2123.89 -311.74,0 -864,-396.39 -1656.78,-1203.61 -807.23,-807.24 -1515.36,-1430.2 -2123.89,-1869.43 -1486.97,3016.27 -2676.63,4517.68 -3568.52,4517.68 -212.63,0 -538.31,-170.31 -949.15,-538.32 -382.45,-325.68 -990.98,-821.17 -1798.2,-1486.97 -821.17,-665.3 -1232.01,-1076.13 -1232.01,-1245.94z"/>
   <path class="fil0" d="M38604.71 32733.34c-1107.96,1532.05 -2205.22,2683.57 -3313.57,3466.03 -1716.59,1292.87 -3378.53,2281.26 -4975.92,2944.13 -1607.7,673.56 -3422.08,1271.1 -5442.78,1803.3 -2031.78,521.51 -4324.12,912.74 -6888.1,1173.31 -2574.68,250.24 -4986.61,380.52 -7257.56,380.52 -1423.16,0 -3052.64,-87.11 -4878.11,-260.94 -1803.3,-195.62 -3085.49,-543.29 -3845.78,-1053.72 -1336.43,-825.63 -2010,-2335.89 -2010,-4541.51 0,-1205.78 119.58,-2650.71 358.74,-4323.74 206.33,-1597 456.19,-2390.14 760.3,-2390.14 228.09,0 391.23,488.64 477.96,1466.71 228.47,1477.41 978.06,2487.95 2227.39,3020.16 1249.33,532.2 3161.52,890.96 5747.29,1086.57 2574.68,184.54 4747.43,282.34 6507.57,282.34 1423.16,0 3041.94,-65.33 4867.41,-195.61 1803.3,-130.28 3595.92,-347.68 5377.83,-662.49 1651.25,-282.72 3378.91,-695.34 5171.53,-1260.41 1792.6,-565.05 3433.16,-1292.88 4921.27,-2205.62 1488.49,-912.34 2433.71,-1596.99 2868.49,-2064.25 423.7,-152.05 564.67,293.42 445.09,1336.44 271.65,43.56 597.54,21.78 978.07,-65.33 238.78,130.66 390.84,336.97 467.25,619.32 76.03,282.72 97.42,586.84 64.95,890.94 -32.47,304.12 -108.5,586.85 -206.31,825.64 -108.88,249.86 -217.39,380.52 -325.89,401.91l-2097.12 -673.56z"/>
  </g>
 </g>
</svg>
