<?xml version="1.0" encoding="UTF-8"?>
<!DOCTYPE svg PUBLIC "-//W3C//DTD SVG 1.1//EN" "http://www.w3.org/Graphics/SVG/1.1/DTD/svg11.dtd">
<!-- Creator: CorelDRAW 2021.5 -->
<svg xmlns="http://www.w3.org/2000/svg" xml:space="preserve" width="815.174mm" height="815.166mm" version="1.1" style="shape-rendering:geometricPrecision; text-rendering:geometricPrecision; image-rendering:optimizeQuality; fill-rule:evenodd; clip-rule:evenodd"
viewBox="0 0 81517.4 81516.6"
 xmlns:xlink="http://www.w3.org/1999/xlink"
 xmlns:xodm="http://www.corel.com/coreldraw/odm/2003">
 <defs>
  <style type="text/css">
   <![CDATA[
    .fil0 {fill:#FCEB0A}
   ]]>
  </style>
 </defs>
 <g id="Layer_x0020_1">
  <metadata id="CorelCorpID_0Corel-Layer"/>
  <path class="fil0" d="M72563.74 81516.84c3379.84,0 4493.1,-7308.09 4055.6,-11357.53 -1638.05,-15136.86 -13786.37,-16655.78 -15567.17,-35433.34 -159.19,-1669.9 -1225.21,-2905.37 -2507.92,-2905.37 -11861.78,0 -23724.59,0 -35586.37,0 -1282.72,0 -2348.74,1235.47 -2507.92,2905.37 -1780.81,18777.56 -13929.12,20294.43 -15567.18,35433.34 -437.5,4048.41 675.76,11357.53 4055.6,11357.53l63625.36 0zm8946.15 -61830.17c84.21,-8078.34 -14286.52,-19686.45 -40758.32,-19686.45 -26472.82,0 -40843.55,11608.11 -40758.31,19686.45l302.97 7810.29c154.05,3975.49 4954.22,6465.95 8752.04,6407.41 1890.7,-28.75 3682.8,-733.27 5391.72,-1953.34l6564.54 -3984.74c2686.62,-1630.86 3672.53,-4009.38 3672.53,-6798.7l0 -4155.22c2464.79,-6199.96 29684.24,-6205.09 32148,0l0 4155.22c0,2789.32 985.91,5167.84 3672.53,6798.7l6564.55 3984.74c1709.94,1220.07 3503.07,1924.59 5391.71,1953.34 3797.83,58.54 8598,-2431.92 8752.05,-6407.41l303.99 -7810.29zm-40758.32 21057.48c9145.39,0 16559.26,7414.9 16559.26,16559.25 0,9144.36 -7413.87,16559.25 -16559.26,16559.25 -9145.38,0 -16559.25,-7414.89 -16559.25,-16559.25 0,-9144.35 7413.87,-16559.25 16559.25,-16559.25zm0 8168.71c4633.8,0 8389.52,3756.75 8389.52,8390.54 0,4633.8 -3757.77,8389.52 -8389.52,8389.52 -4632.77,0 -8390.54,-3755.72 -8390.54,-8389.52 0,-4633.79 3757.77,-8390.54 8390.54,-8390.54z"/>
 </g>
</svg>
