<?xml version="1.0" encoding="UTF-8"?>
<!DOCTYPE svg PUBLIC "-//W3C//DTD SVG 1.1//EN" "http://www.w3.org/Graphics/SVG/1.1/DTD/svg11.dtd">
<!-- Creator: CorelDRAW 2021.5 -->
<svg xmlns="http://www.w3.org/2000/svg" xml:space="preserve" width="786.924mm" height="373.205mm" version="1.1" style="shape-rendering:geometricPrecision; text-rendering:geometricPrecision; image-rendering:optimizeQuality; fill-rule:evenodd; clip-rule:evenodd"
viewBox="0 0 78692.4 37320.5"
 xmlns:xlink="http://www.w3.org/1999/xlink"
 xmlns:xodm="http://www.corel.com/coreldraw/odm/2003">
 <defs>
  <style type="text/css">
   <![CDATA[
    .fil0 {fill:#D7ECE9;fill-rule:nonzero}
   ]]>
  </style>
 </defs>
 <g id="Layer_x0020_1">
  <metadata id="CorelCorpID_0Corel-Layer"/>
  <path class="fil0" d="M3580.28 12701.16c-867.63,1230.69 -1298.37,2282.92 -1298.37,3175.16 0,393.82 67.69,726.1 203.07,984.55 141.52,258.44 270.74,387.66 387.66,387.66 123.06,0 295.37,-283.06 523.03,-849.17 123.08,-301.52 196.92,-449.2 221.53,-449.2 239.98,0 473.81,196.91 701.49,590.73 141.53,264.6 215.37,547.65 215.37,849.16 0,818.41 -258.45,1630.65 -775.33,2436.75 -590.72,959.93 -1267.61,1439.9 -2036.78,1439.9 -492.27,0 -904.55,-227.68 -1236.83,-683.03 -326.13,-461.5 -492.27,-972.23 -492.27,-1532.2 0,-916.85 307.67,-1987.55 916.85,-3212.07 492.28,-984.55 1193.76,-2079.85 2110.62,-3279.76 -492.27,-203.06 -935.31,-529.19 -1322.98,-984.55 -393.82,-449.19 -590.72,-1095.3 -590.72,-1938.32 0,-609.19 123.06,-1446.04 363.04,-2504.43 178.45,-695.33 307.67,-1163 375.36,-1402.97 289.21,-916.87 707.64,-1987.56 1249.14,-3218.24 535.35,-1236.83 898.4,-1852.17 1076.85,-1852.17 135.37,12.31 147.68,203.07 36.92,559.97 -203.07,615.33 -387.66,1212.21 -559.97,1802.94 -79.98,350.74 -190.75,818.4 -332.27,1409.13 -135.38,584.57 -221.53,1206.07 -258.45,1852.17 -12.31,566.11 92.3,1052.23 319.98,1452.2 233.83,406.13 756.87,639.95 1569.12,713.8 147.68,0 276.9,0 399.97,0 116.91,0 178.45,79.99 178.45,233.82 0,239.99 -55.38,516.9 -159.99,818.41 -110.77,307.66 -363.06,836.86 -756.87,1581.43 -289.21,492.26 -572.27,947.62 -849.17,1366.04 -49.23,73.85 -110.77,160 -178.45,252.29zm17469.5 1993.72c-215.36,2572.11 -719.94,4873.49 -1513.73,6904.11 -529.19,1347.59 -1206.06,2609.04 -2036.77,3784.34 -1944.48,2633.65 -4282.78,3962.79 -7008.73,3987.4 -1421.44,-61.53 -2547.51,-529.19 -3372.07,-1396.82 -830.71,-873.78 -1267.59,-2086 -1316.82,-3636.66 -12.31,-2449.05 793.79,-5113.48 2412.14,-7987.11 313.81,-572.26 498.42,-756.87 559.95,-547.65 61.54,209.21 55.38,424.58 -18.46,639.95 -1070.69,2116.77 -1612.19,3944.33 -1636.81,5482.68 55.39,1199.91 479.97,2098.31 1267.61,2695.18 787.63,590.74 1802.94,898.41 3039.78,910.71 1562.96,0 3064.39,-418.43 4504.28,-1249.14 1070.7,-719.94 1932.17,-1612.19 2578.29,-2682.88 984.53,-1501.43 1427.58,-3568.97 1316.82,-6202.63 -12.3,-350.74 -49.23,-695.33 -104.61,-1033.77 -61.53,-344.59 -98.45,-689.19 -110.76,-1039.93 0,-369.2 104.6,-639.95 307.67,-812.24 203.06,-166.15 443.05,-227.68 719.95,-178.45 504.58,227.67 639.95,1015.3 412.27,2362.91zm-5876.5 2793.64c49.23,239.98 30.77,504.57 -55.37,793.79 -79.99,289.2 -221.53,609.19 -412.28,972.23 -178.45,350.74 -424.58,670.72 -738.41,972.24 -203.07,190.76 -369.2,289.21 -486.11,289.21 -73.84,0 -239.99,-104.61 -498.43,-313.83 -258.44,-209.21 -492.28,-406.11 -701.49,-578.42 -209.21,-172.29 -393.82,-332.27 -547.66,-479.95 -147.68,-141.54 -215.36,-264.61 -215.36,-356.9 467.65,-1033.78 781.48,-1710.65 953.78,-2018.32 178.45,-313.82 455.35,-775.33 830.71,-1390.67 215.36,178.44 479.96,393.82 799.94,639.95 319.97,246.14 566.1,479.97 738.41,695.33 172.29,215.38 283.05,473.83 332.27,775.34zm5464.23 -5156.55c98.45,24.61 350.74,49.23 769.17,73.84 412.28,24.61 719.95,-30.77 923.01,-166.14 209.22,-129.22 356.9,-319.98 455.35,-572.27 239.99,-689.18 449.2,-1027.62 627.65,-1027.62 123.07,0 178.45,104.61 178.45,319.98 -6.16,123.07 -43.07,350.75 -104.61,689.18 -61.53,332.28 -141.53,615.34 -233.82,843.02 -73.84,252.28 -227.68,553.8 -467.67,904.55 -326.13,479.96 -713.79,843.01 -1156.84,1082.99 -141.52,67.69 -264.59,147.68 -356.9,233.83 -98.45,80 -190.75,264.6 -270.74,541.51 -196.91,744.56 -313.82,1242.98 -363.05,1495.27 -36.93,-375.36 -80,-744.56 -135.38,-1119.92 -55.38,-369.21 -92.3,-738.41 -110.75,-1107.61 -12.32,-369.21 -12.32,-732.25 18.45,-1101.46 30.77,-363.05 110.76,-726.11 227.68,-1089.15zm-3476.68 22786.04c0,73.84 172.3,252.29 529.2,541.5 356.9,289.21 615.34,504.58 781.48,652.26 184.61,153.84 319.97,233.82 418.43,233.82 381.51,0 898.4,-658.4 1550.66,-1969.08 264.59,196.91 572.27,461.51 916.85,812.25 350.75,350.75 590.74,523.04 719.95,523.04 209.22,0 523.05,-307.67 959.93,-916.86 443.04,-627.65 664.57,-1169.14 664.57,-1624.5 -24.61,-387.66 -239.98,-793.78 -658.41,-1236.83 -412.28,-436.89 -769.17,-658.42 -1070.69,-658.42 -98.46,0 -295.37,246.15 -584.58,738.41 -295.36,498.43 -566.11,941.48 -806.09,1335.29 -203.07,-289.21 -498.43,-621.49 -892.25,-996.84 -387.66,-381.52 -689.18,-529.2 -892.24,-443.05 -104.61,0 -406.13,461.5 -898.39,1384.51 -492.28,929.17 -738.42,1470.66 -738.42,1624.5zm17555.66 -23112.17c-603.04,2141.38 -1273.75,3396.68 -2018.32,3772.04 -1046.08,504.57 -1686.03,836.85 -1913.7,1009.14 -227.68,178.45 -375.36,313.83 -449.21,412.29 -239.98,338.44 -473.81,769.17 -701.49,1298.36 -399.97,1009.16 -719.94,1784.49 -959.92,2325.99 -393.82,830.71 -984.55,1415.28 -1766.03,1766.02 -369.2,141.54 -861.48,270.76 -1476.81,381.52 -633.81,129.22 -1132.23,196.9 -1495.28,196.9 -313.82,36.93 -510.73,-36.91 -596.88,-215.36 -24.62,-110.77 98.45,-258.45 363.05,-455.36 92.3,-67.68 424.59,-307.67 990.69,-719.94 61.54,-61.54 492.28,-338.44 1298.38,-843.02 621.49,-424.59 916.85,-621.49 879.93,-596.88 701.49,-553.81 1181.45,-984.55 1446.05,-1298.36 86.14,-110.77 363.05,-707.65 849.17,-1802.95 492.27,-1095.31 861.48,-1802.95 1113.77,-2129.08 252.29,-332.28 652.26,-676.88 1193.75,-1027.62 203.07,-104.61 553.81,-295.36 1058.39,-559.95 449.2,-215.38 756.87,-399.97 941.46,-553.81 166.15,-147.68 381.52,-461.51 646.12,-941.47 264.59,-467.66 449.2,-695.34 559.95,-683.03 110.77,36.92 123.08,258.44 36.93,664.57zm-3464.37 -8362.47c0,-153.84 246.14,-695.34 738.41,-1624.5 498.43,-923.02 793.79,-1384.52 904.55,-1384.52 203.06,-86.15 504.57,61.53 892.24,436.89 387.67,381.51 689.19,713.8 892.24,1003 239.99,-393.81 504.58,-843.01 799.95,-1335.28 295.36,-492.27 492.27,-738.41 590.72,-738.41 295.37,0 658.42,221.52 1070.69,658.42 412.28,436.88 633.8,849.17 658.42,1236.83 0,455.35 -221.52,996.85 -670.72,1618.34 -430.74,615.35 -750.71,923.01 -953.78,923.01 -129.22,0 -369.2,-172.29 -719.94,-523.04 -350.74,-350.74 -652.26,-621.49 -916.86,-812.24 -652.26,1310.67 -1169.14,1962.93 -1550.66,1962.93 -98.45,0 -233.83,-73.84 -418.43,-233.82 -166.14,-141.54 -430.73,-356.9 -781.48,-646.12 -356.9,-289.2 -535.35,-467.65 -535.35,-541.49zm20343.14 10319.25c-123.07,676.87 -307.67,1261.45 -553.81,1759.87 -246.13,498.43 -498.42,812.26 -756.87,935.32 -258.44,129.22 -584.57,215.37 -978.39,264.59 -196.9,301.52 -436.89,553.81 -726.1,763.03 -283.06,209.21 -689.18,350.74 -1206.06,424.58 -24.62,0 -61.54,98.46 -104.61,289.21 -252.29,2184.46 -726.1,4159.7 -1409.13,5913.42 -529.2,1347.59 -1206.07,2609.04 -2036.78,3784.34 -1944.47,2633.66 -4282.76,3962.79 -7014.87,3987.4 -1415.29,-61.53 -2541.36,-529.19 -3372.07,-1409.13 -824.55,-861.47 -1267.6,-2073.69 -1310.67,-3624.34 -12.31,-2449.06 787.63,-5113.49 2412.13,-7987.12 313.83,-572.26 498.42,-756.87 559.96,-541.5 61.53,209.22 55.38,418.43 -18.47,633.8 -1070.68,2116.77 -1618.33,3944.33 -1642.95,5482.68 61.53,1175.3 486.12,2067.54 1273.75,2676.73 787.64,603.03 1802.95,916.86 3039.78,929.16 1562.97,0 3064.4,-418.43 4504.3,-1242.98 1070.69,-726.1 1932.16,-1618.35 2578.27,-2689.04 947.62,-1501.43 1396.82,-3568.97 1335.29,-6202.63l0 -1132.22c49.23,-756.87 424.58,-1144.54 1132.23,-1156.84 184.59,0 363.04,18.45 541.49,55.38 184.61,36.92 313.83,55.38 399.97,55.38 430.74,0 775.33,-135.38 1033.77,-406.12 258.45,-270.75 455.36,-535.35 584.58,-787.64 49.23,-67.69 233.82,-92.3 541.49,-67.69 203.07,0 369.22,-92.3 486.13,-270.74 123.06,-184.61 221.52,-375.36 289.2,-578.42 123.07,-289.22 246.15,-412.29 381.51,-363.06 73.84,24.61 86.16,196.91 36.93,504.58zm-8461.85 -5713.38c0,-147.68 258.45,-695.34 769.17,-1642.95 510.73,-947.63 824.57,-1421.44 947.63,-1421.44 190.75,0 492.03,172.6 910.7,523.03 412.03,344.89 695.34,676.89 836.87,990.71 264.59,-436.9 514.18,-856.95 756.87,-1261.45 348.03,-580.04 566.1,-867.63 652.26,-867.63 283.05,0 664.37,190.43 1095.3,615.34 449.34,443.06 652.26,873.79 652.26,1261.45 0,443.04 -208.96,1001.16 -652.26,1655.26 -436.66,644.32 -763.02,959.93 -953.78,959.93 -153.84,0 -379.93,-155.33 -664.56,-455.35 -398.39,-419.92 -732.26,-726.1 -996.86,-916.85 -658.41,1347.59 -1175.3,2018.31 -1550.65,2018.31 -80,0 -401.47,-219.64 -959.94,-664.57 -561.45,-447.31 -843.01,-713.79 -843.01,-793.79zm1642.96 -4479.67c0,-116.92 227.69,-652.26 676.88,-1593.74 449.19,-941.45 744.56,-1415.27 873.78,-1415.27 338.43,0 719.85,191.2 1119.91,615.33 418.66,443.85 609.19,892.24 609.19,1316.84 0,393.81 -184.61,941.46 -566.12,1636.79 -381.5,695.33 -658.4,1046.09 -836.85,1046.09 -110.77,0 -347.87,-169.4 -719.96,-498.43 -372.48,-329.4 -660.9,-562.62 -861.47,-707.64 -199.45,-144.21 -295.36,-276.9 -295.36,-399.97zm12295.42 17232.54c-418.44,1169.15 -812.25,2024.47 -1169.15,2578.28 -363.05,553.8 -646.11,892.23 -849.17,1027.61 -203.06,129.23 -510.73,270.75 -923.01,424.59 -406.12,147.68 -1027.61,356.9 -1864.48,627.64 -836.87,270.75 -1329.13,406.13 -1489.13,406.13 -92.29,0 -141.52,-24.61 -141.52,-73.84 -98.45,-129.22 399.97,-566.12 1495.27,-1298.36 1095.31,-732.26 1802.96,-1212.23 2116.77,-1439.9 319.98,-227.68 646.11,-559.97 978.4,-996.85 326.13,-443.05 572.26,-935.32 726.1,-1489.13 -166.14,-24.61 -338.44,12.3 -510.73,98.46 -178.45,92.29 -344.6,135.37 -516.89,135.37 -443.04,-12.31 -818.4,-153.83 -1113.77,-430.74 -301.52,-276.9 -430.73,-584.57 -381.5,-916.86 49.22,-209.21 116.91,-443.04 209.21,-713.79 86.15,-270.75 276.9,-701.48 566.11,-1286.06 289.21,-590.73 578.42,-1076.84 873.78,-1458.36 295.37,-387.66 584.58,-578.42 873.79,-578.42 492.27,0 904.55,209.22 1236.83,627.65 332.29,424.58 498.43,929.16 498.43,1513.74 0,301.52 -18.46,596.88 -55.39,892.24 -36.91,295.36 -73.84,541.5 -116.91,738.41 -43.07,196.91 -104.61,449.2 -184.6,756.87 -73.84,307.66 -159.99,590.72 -258.44,855.32zm8885.51 -1507.58c141.53,-67.69 283.05,-129.22 412.27,-184.6 160,399.97 227.68,793.78 215.38,1175.29 -12.31,387.67 -80,763.03 -215.38,1138.39 -73.84,24.61 -430.73,153.83 -1083,393.81 -646.1,239.99 -1046.07,399.97 -1206.06,467.66 -633.79,252.28 -1359.9,879.93 -2172.15,1876.79 -812.25,996.85 -1507.58,1858.33 -2098.3,2578.27 -1212.23,1550.66 -2578.28,2830.56 -4092.01,3839.72 -350.76,203.07 -738.42,412.28 -1175.31,633.8 -621.49,307.68 -1089.15,535.35 -1402.98,683.03 -264.59,129.23 -461.49,159.99 -596.87,92.3 -61.54,-98.45 -30.77,-209.22 92.29,-326.13 67.7,-49.22 153.84,-116.91 252.29,-203.06 92.31,-67.69 203.07,-153.84 326.13,-246.14l1513.74 -1082.99c984.55,-781.49 1569.12,-1273.76 1766.03,-1482.98 553.81,-516.88 941.47,-916.85 1169.14,-1206.06 252.29,-215.37 590.74,-590.72 1009.16,-1113.76 301.52,-363.06 929.17,-1236.84 1876.79,-2615.2 541.5,-756.87 972.23,-1335.29 1298.36,-1735.26 467.67,-523.04 916.87,-966.09 1353.75,-1310.67 443.05,-313.83 886.09,-572.27 1329.15,-775.33 172.29,-86.15 646.1,-283.06 1427.58,-596.88zm2861.33 -3273.62c0,781.49 -135.38,1532.2 -412.28,2264.46 -276.91,726.1 -566.11,1310.67 -873.78,1747.56 -307.68,436.89 -695.34,898.39 -1163,1378.36 -98.45,-49.23 -172.29,-153.84 -233.82,-326.13 -61.54,-166.14 -98.47,-356.89 -110.77,-566.11 -12.31,-209.22 6.16,-430.74 55.38,-664.57 49.23,-239.98 147.69,-455.35 289.21,-658.41 455.35,-326.13 683.03,-584.57 683.03,-775.33 0,-147.68 -80,-350.75 -252.29,-615.34 -178.45,-264.6 -338.43,-393.81 -486.12,-393.81 -116.91,67.68 -264.59,123.06 -430.73,159.98 -190.76,24.61 -369.21,36.92 -523.05,36.92 -289.2,0 -547.65,-104.61 -775.33,-307.67 -227.67,-190.75 -344.58,-461.51 -344.58,-812.25 0,-116.91 116.91,-436.89 344.58,-953.78 166.15,-375.36 338.44,-738.4 504.58,-1101.46 110.77,-190.75 295.36,-529.19 559.97,-1009.16 264.59,-479.95 523.03,-719.94 775.32,-719.94 670.72,0 1236.84,301.52 1692.19,898.39 467.66,603.04 701.49,1409.13 701.49,2418.29zm-2935.17 -11205.34c0,-264.59 227.67,-836.86 676.87,-1722.95 449.2,-886.09 738.4,-1322.98 873.78,-1322.98 264.59,-110.76 646.11,92.3 1150.69,603.04 504.58,510.72 775.32,910.69 812.25,1199.91 0,381.51 -209.22,935.32 -627.65,1655.26 -424.58,719.95 -726.1,1083 -923.02,1083 -67.68,-36.92 -319.97,-196.91 -744.55,-479.97 -430.74,-276.9 -744.56,-492.27 -947.62,-639.95 -178.45,-116.92 -270.75,-246.14 -270.75,-375.36zm12749.84 10245.41c-603.03,2135.23 -1273.75,3390.53 -2018.31,3765.88 -1046.08,504.58 -1686.04,843.03 -1913.71,1009.16 -227.68,178.45 -375.36,319.98 -449.2,412.29 -239.98,338.43 -473.81,769.17 -701.49,1298.36 -399.97,1009.16 -719.94,1784.49 -959.93,2325.98 -393.82,830.71 -984.54,1421.44 -1766.02,1766.03 -369.2,147.68 -861.48,270.75 -1476.82,381.52 -639.95,129.22 -1138.38,196.9 -1495.28,196.9 -313.82,36.92 -510.72,-36.92 -596.87,-215.36 -24.62,-110.77 98.45,-258.45 363.05,-449.21 92.3,-73.84 301.52,-227.68 609.18,-461.5 313.83,-233.83 873.78,-603.03 1679.88,-1107.61 621.5,-424.59 916.86,-621.49 879.93,-596.88 701.49,-504.58 1181.46,-935.32 1446.06,-1298.37 80,-104.6 363.04,-707.64 843.01,-1802.95 492.28,-1095.3 867.64,-1802.94 1119.93,-2129.07 252.28,-332.29 646.1,-676.88 1187.6,-1021.46 209.21,-110.77 559.96,-295.38 1064.54,-559.97 443.04,-221.52 756.87,-406.12 941.46,-559.96 166.15,-147.68 381.52,-455.35 646.12,-941.46 264.59,-467.67 449.19,-695.35 559.95,-683.03 104.61,36.91 116.92,258.44 36.92,670.71zm-8372.84 17051.03c0,86.14 264.62,350.75 793.8,793.78 529.17,443.05 836.85,664.58 923.01,664.58 356.9,0 849.16,-670.72 1476.81,-2018.32 252.29,190.76 568.56,501.8 953.78,923 273.22,298.76 486.12,449.21 633.8,449.21 190.75,0 492.71,-319.72 898.39,-953.78 425.01,-664.29 633.81,-1218.37 633.81,-1661.42 0,-387.66 -198.6,-822.14 -633.81,-1279.9 -395.72,-416.25 -750.71,-615.35 -1027.61,-615.35 -80,0 -295.73,295.18 -627.65,886.09 -228.02,405.92 -467.65,824.56 -726.1,1242.99 -129.22,-301.52 -390.93,-630.89 -787.64,-984.54 -397.08,-353.98 -695.33,-529.19 -886.09,-529.19 -110.76,0 -406.12,479.96 -892.24,1433.74 -486.12,953.78 -732.26,1501.43 -732.26,1649.11zm1698.35 3372.07c-5.63,104.42 80.17,233.64 239.98,375.35 166.31,147.47 333.78,274.85 479.96,418.43 198.76,195.2 388.77,380.93 559.97,572.26 143.59,160.5 245.45,265.99 338.43,270.75 147.48,7.55 420.01,-284.29 793.78,-879.93 383.14,-610.52 571.35,-1132.3 596.89,-1550.66 23.66,-387.72 -138.74,-784.9 -479.97,-1206.07 -341.8,-421.85 -658.59,-644.2 -941.47,-670.71 -110.94,-10.4 -399.98,399.97 -867.63,1236.83 -467.66,836.85 -713.3,1310.26 -719.94,1433.75z"/>
 </g>
</svg>
