<?xml version="1.0" encoding="UTF-8"?>
<!DOCTYPE svg PUBLIC "-//W3C//DTD SVG 1.1//EN" "http://www.w3.org/Graphics/SVG/1.1/DTD/svg11.dtd">
<!-- Creator: CorelDRAW 2021.5 -->
<svg xmlns="http://www.w3.org/2000/svg" xml:space="preserve" width="649.246mm" height="573.864mm" version="1.1" style="shape-rendering:geometricPrecision; text-rendering:geometricPrecision; image-rendering:optimizeQuality; fill-rule:evenodd; clip-rule:evenodd"
viewBox="0 0 64924.6 57386.4"
 xmlns:xlink="http://www.w3.org/1999/xlink"
 xmlns:xodm="http://www.corel.com/coreldraw/odm/2003">
 <defs>
  <style type="text/css">
   <![CDATA[
    .fil0 {fill:#ffd500}
   ]]>
  </style>
 </defs>
 <g id="Layer_x0020_1">
  <metadata id="CorelCorpID_0Corel-Layer"/>
  <path class="fil0" d="M23817.03 17167.52c-961.29,-643.71 -1657.14,-2214.67 -3005.69,-2214.67 -638.84,0 -960.75,856.35 -822.85,1297.89 135.01,432.34 3186.54,3606.12 3828.54,3606.12 645.8,0 1737.03,-1341.6 2175.09,-1779.71 754.68,-754.68 6050.86,-5761.44 6050.86,-6288.14 0,-535.36 9.4,-1265.51 -949.16,-1265.51 -1276.36,0 -6086.82,5847.13 -7276.79,6644.02zm-7751.44 -3321.98l0 6327.67c0,1997.76 1957.04,3954.75 3954.79,3954.75l6485.88 0c1997.76,0 3954.8,-1956.99 3954.8,-3954.75 0,-1060.51 295.03,-3297.94 -1304.41,-2886.06 -809.18,208.32 -918.23,951.25 -916.62,1930.6 2.61,1639.14 69.19,2853.79 -2841.08,2853.79 -8438.7,0 -7118.69,856.94 -7118.69,-8542.36 0,-2092.69 2782.79,-1740.28 3954.75,-1740.17 647.18,0.05 3695.45,118.13 4147.14,-124.06 754.09,-404.3 1099.56,-2090.62 -983.2,-2090.62 -2763.98,0 -6133.35,-414.07 -7791.51,1067.24 -857.59,766.17 -1541.85,1643.63 -1541.85,3203.97zm0 18983.02l0 6011.27c0,2366.63 1904.52,4271.15 4271.2,4271.15l5853.07 0c2370.74,0 4271.2,-1887.05 4271.2,-4271.15 0,-2159.43 463.44,-4587.6 -1107.36,-4587.6 -1587,0 -1107.32,3004.61 -1107.32,4587.6 -697.78,-369.24 -2568.37,-2194.42 -3005.68,-2847.43 698.2,-467.56 1959.17,-1880.16 2649.69,-2570.67 502.66,-502.66 2412.47,-2134.59 2412.47,-2807.84 0,-1162.99 -747.1,-1107.37 -1265.57,-1107.37 -855.23,0 -4296.1,4614.91 -5378.51,4903.96l-3677.13 -3599.76c1198.67,-38.68 2359.57,-43.33 3519.46,-38.2 2046.05,9.08 2665.83,39.91 2214.19,-1898.81 -1105.87,-530.6 -3449.3,-316.35 -5062.1,-316.35 -2616.36,0 -4587.61,1724.2 -4587.61,4271.2zm2214.67 6960.43l0 -7593.18 3993.59 3916c-1480.51,1036.15 -3069.11,3058.11 -3993.59,3677.18zm5378.52 -2214.67l3480.24 3321.99 -6802.23 0 1654.96 -1667.09c634.89,-553.57 1222.82,-991.58 1667.03,-1654.9zm31814.21 -21621.39c0,-1263.43 815.91,-2079.34 2079.34,-2079.34l4523.06 0c1136.91,0 1938.02,1163.46 1938.02,2220.71l0 34064.31c0,414.87 -328.42,869.87 -542.99,1211.66 -299.26,476.47 -614.43,946.11 -947.35,1399.72 -365.93,498.55 -772.15,1009.7 -1222.29,1434.57 -514.36,485.4 -1171.64,920.25 -1916.06,762.69 -1056.39,-223.65 -1737.34,-1451.55 -2340.98,-2256.94 -595.41,-794.32 -1570.75,-1791.3 -1570.75,-2834.39l0 -33922.99zm2927.41 3533.67l0 -2685.6 2544.23 0 0 25583.62c-0.59,2210.13 212.32,4011.75 151.95,6653.8 -16.3,712.85 -143.78,808.65 -471.3,1224.91 -257.74,327.52 -562.07,621.64 -670.05,1026.05 -503.99,-134.59 -294.6,-58.78 -575.91,-413.54 -117.49,-148.21 -283.65,-399.22 -418.02,-571.37 -523.5,-670.69 -434.38,-533.33 -421.93,-1698.29 50.81,-4748.43 114.12,-9720.29 -139.66,-14418.98 -150.94,-2794.86 0.69,-11664.03 0.69,-14700.6zm-48978.04 -11570.69l0 39823.55 -8432.77 0c-1147.33,0 -989.39,821.52 -989.39,1413.46 0,3819.78 3496.91,8234.01 7329.62,8234.01l36298.22 0c4036.92,0 7491.3,-3872.19 7491.3,-7774.04l0 -40848.91 13003.82 0c2142.49,0 -11.12,-8763.44 -6925.92,-8763.44l-39859.51 0c-4375.55,0 -7915.37,3548.15 -7915.37,7915.37zm40114.64 -4846.63l-32058.97 -0.91c-1343.47,-0.06 -2661.45,427.75 -3652.66,1354.84 -812.06,759.49 -1334.22,1805.74 -1334.22,2927.31l0 40183.03 23928.23 0c897.02,0 1557.45,465.9 1860.66,1301.9 187.75,517.72 228.62,1115.37 319.88,1658.75 242.46,1444.12 818.79,2350.91 2075.38,3150.48 1643.74,1045.97 4250.58,1031.06 5707.64,-336.34 751.21,-705.04 1323.43,-1381.77 1575.18,-2393.82 131.71,-529.59 177.33,-1096.52 202.5,-1640.37 38.15,-826.17 31.31,-1661.05 31.31,-2488.18l-0.05 -37880.67c0,-1766.46 -50.01,-3018.99 712.41,-4655.62 190.1,-407.98 395.7,-804.11 632.71,-1180.4zm3103.35 2767.23l8531.14 0c-268.91,-591.03 -666.37,-1177.62 -992.66,-1532.71 -1110.14,-1208.08 -2147.89,-1234.47 -3688.35,-1234.47 -1034.91,0 -2072.44,613.9 -2796.4,1318.46 -391.74,381.27 -792.89,895.04 -1053.73,1448.72zm-16757.71 48625.95c-585.16,-864.59 -1069.01,-1887 -1282.99,-2911.55l-29759.82 0c444.47,1028.98 1380.17,1958.38 2289.48,2417.6 625.43,315.87 854.8,302.19 1559.1,405.95 471.56,69.46 1093.8,63.69 1573.96,76.24 1091.34,28.48 2184.11,40.29 3275.77,49.74 3102.18,26.88 6205.59,25.17 9307.88,19.56 4345.15,-7.8 8691.52,-46.43 13036.62,-57.54z"/>
 </g>
</svg>
