<?xml version="1.0" encoding="UTF-8"?>
<!DOCTYPE svg PUBLIC "-//W3C//DTD SVG 1.1//EN" "http://www.w3.org/Graphics/SVG/1.1/DTD/svg11.dtd">
<!-- Creator: CorelDRAW 2021.5 -->
<svg xmlns="http://www.w3.org/2000/svg" xml:space="preserve" width="813.155mm" height="813.155mm" version="1.1" style="shape-rendering:geometricPrecision; text-rendering:geometricPrecision; image-rendering:optimizeQuality; fill-rule:evenodd; clip-rule:evenodd"
viewBox="0 0 81315.5 81315.5"
 xmlns:xlink="http://www.w3.org/1999/xlink"
 xmlns:xodm="http://www.corel.com/coreldraw/odm/2003">
 <defs>
  <style type="text/css">
   <![CDATA[
    .fil0 {fill:#ffd500}
   ]]>
  </style>
 </defs>
 <g id="Layer_x0020_1">
  <metadata id="CorelCorpID_0Corel-Layer"/>
  <path class="fil0" d="M16958.9 16974.19c-7776.86,7775.36 -7776.86,20378.78 0,28154.14 7775.36,7776.86 20378.78,7776.86 28154.14,0 7776.86,-7775.36 7776.86,-20378.78 0,-28154.14 -7775.36,-7776.86 -20378.78,-7776.86 -28154.14,0zm29936.49 40770.32c-12055.86,7185 -27687.7,5380.86 -37811,-4742.43 -12122.71,-12122.71 -12122.71,-31779.68 0,-43902.4 12122.72,-12122.71 31779.69,-12122.71 43902.4,0 10123.29,10123.3 11927.43,25755.14 4742.43,37811l22524.66 22524.66c1405.3,1405.3 1405.3,3697.65 0,5102.21l-5731.62 5731.62c-1404.56,1405.3 -3696.91,1405.3 -5102.21,0l-22524.66 -22524.66z"/>
 </g>
</svg>
