<?xml version="1.0" encoding="UTF-8"?>
<!DOCTYPE svg PUBLIC "-//W3C//DTD SVG 1.1//EN" "http://www.w3.org/Graphics/SVG/1.1/DTD/svg11.dtd">
<!-- Creator: CorelDRAW 2021.5 -->
<svg xmlns="http://www.w3.org/2000/svg" xml:space="preserve" width="775.238mm" height="420.839mm" version="1.1" style="shape-rendering:geometricPrecision; text-rendering:geometricPrecision; image-rendering:optimizeQuality; fill-rule:evenodd; clip-rule:evenodd"
viewBox="0 0 77523.8 42083.9"
 xmlns:xlink="http://www.w3.org/1999/xlink"
 xmlns:xodm="http://www.corel.com/coreldraw/odm/2003">
 <defs>
  <style type="text/css">
   <![CDATA[
    .fil0 {fill:#D7ECE9;fill-rule:nonzero}
   ]]>
  </style>
 </defs>
 <g id="Layer_x0020_1">
  <metadata id="CorelCorpID_0Corel-Layer"/>
  <path class="fil0" d="M34399.09 12172.01c-812.72,770.95 -1636.06,1187.93 -2448.77,1250.22 -1073.24,729.54 -1854.82,958.92 -2344.35,698.4 -552.19,427.24 -1115.01,781.2 -1698.35,1052.35 -583.71,281.41 -1271.47,468.65 -2094.45,562.46 -31.15,0 -93.8,166.72 -176.98,489.9 -427.24,3709.25 -1219.44,7043.66 -2386.12,10013.12 -896.26,2282.05 -2042.42,4417.91 -3449.1,6408.29 -3292.63,4459.68 -7252.15,6710.23 -11867.93,6752 -2407,-104.43 -4303.22,-896.26 -5709.9,-2386.12 -1406.68,-1458.71 -2146.48,-3511.39 -2230.02,-6126.89 -20.89,-4157.38 1344.39,-8669.09 4095.09,-13524.87 521.05,-979.44 843.86,-1281.37 937.67,-916.78 104.43,343.7 93.8,698.03 -31.15,1062.98 -1802.78,3584.31 -2730.18,6678.71 -2771.59,9283.95 124.95,1990.02 864.75,3500.76 2240.28,4521.97 1375.17,1010.58 3063.26,1542.25 5053.28,1583.66 2646.64,0 5189.22,-708.29 7627.37,-2104.71 1813.04,-1229.33 3271.75,-2740.44 4365.88,-4553.48 1614.81,-2542.21 2365.23,-6043.34 2260.8,-10503.02l0 -1917.11c83.55,-1281.73 677.51,-1937.98 1771.64,-1958.87 301.93,0 687.4,72.92 1146.15,218.75 458.39,135.58 906.52,125.32 1354.29,-62.29 448.13,-187.24 1000.32,-698.39 1656.94,-1552.52 135.21,-62.65 322.82,10.26 541.57,239.64 229.38,218.75 521.05,333.44 886,333.44 343.7,0 656.25,-250.26 916.78,-750.42 270.78,-489.54 469.01,-687.77 614.85,-562.45 260.52,145.83 573.08,208.12 947.92,187.24 344.07,-62.3 604.59,-166.73 792.2,-301.93l239.64 479.27c83.54,166.72 124.95,416.62 124.95,770.95 0,364.58 -41.77,625.11 -124.95,791.83 -125.32,239.63 -198.23,416.98 -239.64,521.04zm0 -2594.24c343.7,-208.49 593.97,-458.76 729.54,-760.68 104.06,-312.56 156.09,-593.97 156.09,-854.49 0,-187.61 0,-500.16 0,-937.67 0,-437.87 0,-1000.32 0,-1688.09 0,-531.3 260.53,-1239.96 791.83,-2136.22 344.07,-635.37 823.35,-1583.66 1438.2,-2844.51 166.35,-281.04 312.55,-395.73 458.39,-333.44 83.17,62.66 114.69,385.84 93.8,979.44 -20.89,406.36 -31.51,969.18 -31.51,1708.98 0,176.98 -20.89,1000.32 -62.29,2469.29 -41.77,1115.01 -458.39,2386.12 -1250.59,3782.54 -833.6,1448.45 -1614.81,2511.07 -2323.46,3177.95 -104.06,-427.25 -176.98,-854.49 -208.49,-1281.73 -41.41,-427.25 20.88,-854.13 208.49,-1281.37zm-12576.22 30095.06c0,124.95 302.3,426.88 896.26,916.78 604.23,489.53 1042.1,854.49 1333.77,1104.38 302.29,260.53 531.3,396.1 698.02,396.1 656.62,0 1531.63,-1115.01 2625.76,-3334.41 448.13,333.44 968.81,791.83 1552.51,1375.54 593.6,593.96 1000.33,885.63 1229.7,885.63 343.71,0 885.64,-521.04 1614.81,-1552.51 750.43,-1062.98 1125.27,-1979.76 1125.27,-2750.71 -41.4,-645.99 -406.72,-1344.39 -1114.64,-2094.45 -698.76,-739.8 -1302.62,-1115.01 -1813.04,-1115.01 -166.72,0 -489.9,416.99 -990.06,1260.85 -500.17,833.6 -947.93,1583.66 -1364.91,2250.54 -343.7,-489.53 -843.87,-1052.35 -1510.75,-1687.72 -656.62,-646.36 -1156.78,-896.26 -1510.74,-750.43 -177.35,0 -687.77,781.57 -1521.37,2354.97 -833.6,1562.78 -1250.59,2479.93 -1250.59,2740.45zm23428.07 -19969.08c-708.65,1979.76 -1375.53,3428.21 -1979.76,4365.88 -614.85,937.66 -1094.12,1510.74 -1438.19,1740.12 -343.7,218.75 -864.75,458.39 -1562.77,718.91 -687.77,249.9 -1740.13,604.59 -3157.07,1062.98 -1417.3,458.39 -2250.91,687.77 -2521.69,687.77 -156.46,0 -239.64,-42.14 -239.64,-124.95 -166.72,-219.12 677.14,-958.55 2531.96,-2198.51 1854.81,-1239.96 3052.99,-2053.04 3584.3,-2438.15 541.93,-385.84 1094.13,-948.66 1656.95,-1688.09 552.19,-750.79 968.81,-1584.03 1229.33,-2522.06 -281.41,-41.77 -573.08,20.89 -864.75,166.72 -302.29,156.46 -583.7,229.38 -875.37,229.38 -750.06,-20.52 -1385.8,-260.16 -1885.96,-729.54 -510.42,-468.65 -729.17,-989.33 -645.99,-1552.15 83.54,-354.69 197.86,-750.06 354.32,-1208.45 145.84,-459.12 469.02,-1188.29 958.55,-2177.99 489.91,-1000.69 979.44,-1823.3 1479.6,-2469.66 500.16,-656.62 990.07,-979.44 1479.6,-979.44 833.6,0 1531.63,354.33 2094.45,1062.98 562.45,718.55 843.86,1573.04 843.86,2563.1 0,510.42 -31.14,1010.58 -93.8,1511.11 -62.29,499.79 -124.95,916.78 -197.87,1250.22 -72.91,333.44 -176.98,760.32 -312.55,1281.37 -124.95,521.41 -270.79,1000.32 -437.51,1448.45zm18136.62 -6687.51c218.76,-104.06 437.51,-176.98 656.26,-208.49 208.49,-41.4 427.24,-83.18 656.62,-124.95 385.48,531.31 635.74,1062.98 760.69,1615.18 124.95,552.19 166.72,1094.12 124.95,1614.8 -41.78,531.68 -145.84,1052.36 -322.82,1542.26 -166.72,500.16 -364.95,958.55 -562.82,1364.91 -281.41,-41.77 -698.02,-62.29 -1239.96,-62.29 -531.3,0 -1146.16,93.43 -1813.04,270.78 -593.96,166.72 -1406.68,489.53 -2438.15,979.44 -1510.74,833.6 -2771.59,1896.21 -3771.91,3177.94 -1010.58,1281.74 -2219.4,2907.17 -3636.34,4897.19 -1417.3,1979.76 -2855.13,3688.73 -4313.84,5126.56 -1469.34,1437.83 -2677.79,2500.81 -3636.34,3188.58 -958.92,698.02 -1844.55,1281.36 -2657.27,1760.64 -812.72,479.27 -1688.09,906.52 -2625.76,1291.99 -83.17,41.77 -176.98,83.54 -301.92,125.31 -146.2,62.3 -302.3,124.95 -489.91,176.98 -343.7,145.84 -635.73,145.84 -854.48,0 -62.29,-93.8 31.51,-291.66 271.15,-573.07 312.55,-322.82 885.63,-822.98 1739.75,-1500.49 979.8,-625.11 2084.19,-1437.82 3313.52,-2427.52 1229.71,-979.44 2490.55,-2177.99 3782.54,-3563.79 1292,-1396.05 2521.33,-3011.23 3678.11,-4845.15 552.2,-729.17 1073.24,-1489.86 1562.78,-2292.32 1813.04,-2615.13 2980.08,-4251.18 3511.39,-4876.29 1542.25,-1917.11 3042.74,-3386.45 4480.57,-4397.03 1448.45,-1021.21 2823.62,-1771.27 4126.23,-2261.17zm13712.12 -6043.34c-875.01,2156.74 -1666.84,3261.13 -2354.6,3302.9 -469.02,20.88 -906.52,83.54 -1312.88,197.86 -406.36,104.43 -802.46,302.3 -1177.67,562.82 -374.85,260.53 -822.98,760.69 -1354.28,1489.86 -1750.75,2959.2 -2948.94,4761.98 -3584.31,5428.86 -646.36,656.25 -1511.11,947.92 -2615.5,864.75 -614.85,-2031.79 -614.85,-4084.47 0,-6137.15 750.06,-145.83 1552.52,-208.49 2396.38,-197.86 844.23,10.26 1239.96,20.52 1177.67,20.52 427.24,0 864.75,-312.56 1312.88,-916.78 176.98,-249.9 500.16,-687.77 947.92,-1312.88 260.53,-375.21 719.28,-948.29 1365.28,-1740.12 656.25,-791.83 1323.14,-1271.11 2021.16,-1437.83 687.77,-166.72 1291.99,-239.64 1802.78,-239.64 281.41,-427.24 541.94,-843.86 770.95,-1239.96 239.63,-396.1 437.5,-635.73 604.22,-718.91 239.64,-124.95 385.84,31.14 416.99,458.39 0,302.29 -135.58,843.86 -416.99,1615.17z"/>
 </g>
</svg>
