<?xml version="1.0" encoding="UTF-8"?>
<!DOCTYPE svg PUBLIC "-//W3C//DTD SVG 1.1//EN" "http://www.w3.org/Graphics/SVG/1.1/DTD/svg11.dtd">
<!-- Creator: CorelDRAW 2021.5 -->
<svg xmlns="http://www.w3.org/2000/svg" xml:space="preserve" width="649.549mm" height="829.764mm" version="1.1" style="shape-rendering:geometricPrecision; text-rendering:geometricPrecision; image-rendering:optimizeQuality; fill-rule:evenodd; clip-rule:evenodd"
viewBox="0 0 64954.9 82976.4"
 xmlns:xlink="http://www.w3.org/1999/xlink"
 xmlns:xodm="http://www.corel.com/coreldraw/odm/2003">
 <defs>
  <style type="text/css">
   <![CDATA[
    .fil1 {fill:#ffd500}
    .fil6 {fill:#ffd500}
    .fil0 {fill:#ffd500}
    .fil5 {fill:#ffd500}
    .fil10 {fill:#ffd500}
    .fil2 {fill:#ffd500}
    .fil4 {fill:#ffd500}
    .fil11 {fill:#ffd500}
    .fil9 {fill:#ffd500}
    .fil3 {fill:#ffd500}
    .fil12 {fill:#ffd500}
    .fil8 {fill:#ffd500}
    .fil7 {fill:#ffd500}
   ]]>
  </style>
 </defs>
 <g id="Layer_x0020_1">
  <metadata id="CorelCorpID_0Corel-Layer"/>
  <g id="_2127408550240">
   <path class="fil0" d="M56095.91 3283.15c1538.8,1072.83 3277.58,3698.24 4228.69,5302.22 1160.91,1957.75 1914.03,4196.86 1947.28,6485.8 104.35,7191.12 -6734.93,11503.57 -12635.33,13880.58 -1465.08,590.23 -2982.58,1094.93 -4467.25,1638.37 -1831.96,670.58 -3655.83,1383.17 -5414.26,2230.49 -2649.61,1276.79 -5787.09,3157.36 -7277.82,5873.25 -1490.74,-2715.89 -4628.22,-4596.46 -7277.82,-5873.25 -1758.44,-847.32 -3582.31,-1559.91 -5414.27,-2230.49 -1484.67,-543.44 -3002.17,-1048.14 -4467.25,-1638.37 -5900.4,-2377.01 -12739.68,-6689.46 -12635.32,-13880.58 33.24,-2288.94 786.37,-4528.05 1947.27,-6485.8 951.11,-1603.98 2689.89,-4229.39 4228.69,-5302.22 -5504.78,3018.9 -14674.66,17847.79 6219.09,26265.05 4761.65,1918.26 15685.55,4746.13 17399.61,10820.41 1714.05,-6074.28 12637.95,-8902.15 17399.6,-10820.41 20893.75,-8417.26 11723.87,-23246.15 6219.09,-26265.05z"/>
   <path class="fil1" d="M30268.31 46015.56c-2361.65,-7000.82 -9356.15,-8004.57 -18007.34,-12198.85 -6658.09,-3228.02 -9640.74,-6925.6 -11548.16,-11643.51 -2196.6,-5433.25 727.16,-14512.94 8145.71,-18890.05 -5504.78,3018.9 -14674.66,17847.79 6219.09,26265.05 4761.65,1918.26 15685.55,4746.13 17399.61,10820.41 1714.05,-6074.28 12637.95,-8902.15 17399.6,-10820.41 20893.75,-8417.26 11723.87,-23246.15 6219.09,-26265.05 7418.56,4377.11 10342.31,13456.8 8145.72,18890.05 -1907.43,4717.91 -4890.08,8415.49 -11548.17,11643.51 -8651.18,4194.28 -15645.68,5198.03 -18007.33,12198.85l-4417.82 0z"/>
   <path class="fil1" d="M25303.9 68334.09c304.51,399.3 518.8,846.04 647.88,1356.39 10.79,42.51 -0.07,86.3 -29.72,120.39 -29.72,34.1 -69.89,48.89 -110.47,40.69 -487.59,-98.68 -921.99,-292.62 -1318.73,-585.89 -396.78,357.19 -831.21,621.02 -1318.7,798.14 -40.65,14.76 -80.78,6.41 -110.47,-22.9 -29.72,-29.34 -40.54,-71.33 -29.79,-115.6 129.12,-531.14 343.41,-1012.36 647.89,-1460.61 -304.48,-399.3 -518.77,-846.04 -647.89,-1356.39 -10.75,-42.51 0.07,-86.26 29.79,-120.4 29.69,-34.1 69.82,-48.89 110.47,-40.68 487.53,98.68 921.96,292.62 1318.73,585.89 396.71,-357.16 831.14,-620.99 1318.7,-798.14 40.58,-14.76 80.75,-6.41 110.47,22.93 29.65,29.3 40.51,71.33 29.72,115.57 -129.08,531.14 -343.33,1012.36 -647.88,1460.61zm225.28 10213.53c564.41,-730.74 961.64,-1535.95 1200.95,-2444.49 19.93,-75.61 -0.13,-151.43 -55.2,-208.39 -54.99,-56.96 -129.46,-79.02 -204.69,-60.61 -903.75,220.9 -1708.97,603.75 -2444.46,1157.48 -735.32,-588.24 -1540.57,-1008.91 -2444.21,-1272.19 -75.27,-21.93 -149.71,-3.35 -204.74,51.03 -55.06,54.37 -75.13,129.22 -55.2,205.83 239.35,919.75 636.51,1743.58 1200.92,2500.73 -564.41,730.67 -961.57,1535.88 -1200.92,2444.39 -19.93,75.64 0.14,151.46 55.2,208.38 55.03,57 129.47,79.03 204.74,60.65 903.71,-220.9 1708.92,-603.79 2444.42,-1157.51 735.32,588.24 1540.56,1008.91 2444.25,1272.19 75.23,21.92 149.7,3.34 204.69,-51.03 55.07,-54.37 75.13,-129.23 55.2,-205.8 -239.31,-919.72 -636.47,-1743.58 -1200.95,-2500.66zm-7860.13 -870.82c-486.73,-846.79 -829.31,-1733.68 -1035.73,-2691.46 -17.17,-79.79 0.13,-151.43 47.58,-197.08 47.51,-45.62 111.74,-52.37 176.63,-18.52 779.39,406.78 1473.85,955.33 2108.08,1660.28 634.2,-437.01 1328.67,-692.05 2108.02,-769.42 64.89,-6.45 129.12,27.41 176.56,93.09 47.44,65.72 64.79,144.71 47.58,217.18 -206.39,870.55 -548.93,1612.66 -1035.7,2253.76 486.77,846.75 829.31,1733.64 1035.7,2691.39 17.21,79.75 -0.14,151.43 -47.58,197.04 -47.44,45.65 -111.67,52.37 -176.56,18.52 -779.39,-406.78 -1473.85,-955.3 -2108.15,-1660.28 -634.13,436.98 -1328.63,692.02 -2107.95,769.46 -64.89,6.44 -129.12,-27.45 -176.63,-93.17 -47.45,-65.71 -64.75,-144.63 -47.58,-217.14 206.42,-870.48 548.96,-1612.66 1035.73,-2253.65zm-3904.62 -1753.99c-258.45,-646.78 -464.87,-1297.81 -621.2,-1963.24 -101.54,27.2 -198.63,26.37 -291.89,-2.48 -50.48,428.91 -114.44,804.83 -192.32,1133.44 128.98,943.71 219.73,1898.77 274.44,2897.64 4.56,83.16 -0.07,151.36 -12.62,187.57 -12.58,36.2 -29.58,30.13 -46.78,-16.66 -206.49,-561.96 -390.51,-1248.77 -558.59,-2080.02 -168.05,310.72 -352.02,427.5 -558.52,349.72 -17.2,-6.45 -34.23,-53.13 -46.85,-128.3 -12.55,-75.16 -17.1,-157.56 -12.59,-226.62 10.8,-163.43 22.97,-320.76 36.55,-472.29 -7.45,-1.07 -14.34,-7.89 -20.41,-20.58 -15.65,-32.62 -21.38,-94.58 -15.69,-170.53 47.79,-640.17 117.71,-1261.26 210.67,-1873.43 -95.89,-785.04 -165.85,-1581.66 -211.12,-2408.32 -3.62,-66.71 -1.41,-123.74 6.07,-162.43l-5.62 -60.92c-5.69,-62.79 0.04,-138.02 15.69,-206.84 15.62,-68.85 36.79,-111.88 58.2,-118.29 256.93,-77.13 485.84,23.75 694.91,301.65 209.05,-762.32 437.95,-1393.59 694.88,-1911.69 21.38,-43.17 42.58,-49.17 58.17,-16.59 15.69,32.58 21.37,94.58 15.69,170.5 -68.03,911.61 -180.91,1784.47 -341.38,2648.05 101.3,310.48 183.64,668.5 247.66,1080 604.17,572.07 1143,1266.19 1635.32,2102.12 495.35,-300.86 1037.73,-406.84 1646.45,-316.96 50.68,7.45 100.85,55.13 137.91,131.02 37.03,75.89 50.58,158.57 37.17,227.39 -161.22,826.24 -428.77,1494.84 -808.93,2031.43 380.16,951.23 647.71,1911.63 808.93,2913.68 13.41,83.47 -0.14,151.39 -37.17,186.84 -37.06,35.47 -87.23,28.41 -137.91,-19.38 -608.75,-574.07 -1151.13,-1271.64 -1646.59,-2112.74 -495.28,300.86 -1037.7,406.85 -1646.38,316.96 -50.69,-7.48 -100.89,-55.1 -137.92,-131.02 -37.1,-75.88 -50.61,-158.56 -37.13,-227.38 161.19,-826.21 428.71,-1494.85 808.9,-2031.3zm2095.36 -6185.44c340.06,342.47 579.41,758.76 723.57,1264.74 12.03,42.09 -0.07,91.23 -33.24,135.08 -33.17,43.89 -78.03,70.03 -123.4,72.03 -544.48,23.48 -1029.6,-67.75 -1472.68,-273.9 -443.05,481.8 -928.19,874.76 -1472.64,1189.96 -45.34,26.24 -90.2,27.96 -123.37,4.72 -33.17,-23.24 -45.23,-64.85 -33.24,-114.47 144.19,-595.58 383.51,-1160.72 723.5,-1714.72 -339.99,-342.4 -579.31,-758.73 -723.5,-1264.67 -11.99,-42.1 0.07,-91.23 33.24,-135.08 33.17,-43.89 78.03,-70.03 123.37,-71.99 544.48,-23.52 1029.59,67.68 1472.71,273.86 443.05,-481.8 928.2,-874.76 1472.61,-1189.92 45.37,-26.28 90.23,-28 123.4,-4.76 33.17,23.24 45.27,64.85 33.24,114.43 -144.16,595.62 -383.47,1160.75 -723.57,1714.69zm6467.96 -1122.04c319.06,405.4 543.62,861.76 678.95,1385.66 11.24,43.61 -0.14,89.06 -31.24,124.91 -31.1,35.83 -73.16,52 -115.71,44.45 -510.9,-91.09 -966.09,-281.62 -1381.86,-575.59 -415.71,377.4 -870.89,659.3 -1381.73,852.93 -42.58,16.1 -84.64,8.41 -115.78,-21.2 -31.1,-29.58 -42.47,-72.79 -31.16,-118.68 135.29,-551 359.78,-1052.45 678.84,-1521.84 -319.06,-405.37 -543.55,-861.72 -678.84,-1385.59 -11.31,-43.62 0.06,-89.02 31.16,-124.88 31.14,-35.89 73.2,-52.06 115.78,-44.44 510.84,91.02 966.06,281.62 1381.83,575.58 415.67,-377.47 870.89,-659.37 1381.76,-852.96 42.55,-16.14 84.61,-8.38 115.71,21.2 31.1,29.62 42.48,72.75 31.24,118.64 -135.26,551.04 -359.82,1052.46 -678.95,1521.81zm-3139.78 429.85c340.02,389.88 579.37,839.55 723.56,1365.55 12.03,43.82 -0.07,91.27 -33.24,130.5 -33.16,39.24 -78.06,59.17 -123.36,54.79 -544.52,-52.41 -1029.63,-211.25 -1472.71,-479.15 -443.05,420.02 -928.2,745.32 -1472.65,984.6 -45.3,19.93 -90.2,15.42 -123.36,-12.44 -33.14,-27.86 -45.24,-71.17 -33.24,-119.09 144.19,-575.52 383.47,-1107.31 723.5,-1613.87 -340.03,-389.82 -579.31,-839.48 -723.5,-1365.52 -12,-43.79 0.1,-91.23 33.24,-130.47 33.16,-39.23 78.06,-59.16 123.36,-54.82 544.48,52.44 1029.6,211.25 1472.71,479.22 443.05,-420.05 928.17,-745.39 1472.65,-984.67 45.3,-19.93 90.2,-15.35 123.36,12.48 33.17,27.86 45.27,71.13 33.24,119.05 -144.19,575.52 -383.5,1107.31 -723.56,1613.84z"/>
   <path class="fil1" d="M39650.53 68334.09c-304.51,399.3 -518.79,846.04 -647.88,1356.39 -10.79,42.51 0.07,86.3 29.72,120.39 29.72,34.1 69.89,48.89 110.47,40.69 487.59,-98.68 921.99,-292.62 1318.73,-585.89 396.78,357.19 831.21,621.02 1318.7,798.14 40.65,14.76 80.78,6.41 110.47,-22.9 29.72,-29.34 40.55,-71.33 29.79,-115.6 -129.12,-531.14 -343.41,-1012.36 -647.89,-1460.61 304.48,-399.3 518.77,-846.04 647.89,-1356.39 10.76,-42.51 -0.07,-86.26 -29.79,-120.4 -29.69,-34.1 -69.82,-48.89 -110.47,-40.68 -487.53,98.68 -921.95,292.62 -1318.73,585.89 -396.71,-357.16 -831.14,-620.99 -1318.7,-798.14 -40.58,-14.76 -80.75,-6.41 -110.47,22.93 -29.65,29.3 -40.51,71.33 -29.72,115.57 129.09,531.14 343.34,1012.36 647.88,1460.61zm-225.28 10213.53c-564.41,-730.74 -961.64,-1535.95 -1200.95,-2444.49 -19.93,-75.61 0.14,-151.43 55.2,-208.39 54.99,-56.96 129.46,-79.02 204.7,-60.61 903.75,220.9 1708.96,603.75 2444.45,1157.48 735.32,-588.24 1540.57,-1008.91 2444.22,-1272.19 75.26,-21.93 149.7,-3.35 204.73,51.03 55.06,54.37 75.13,129.22 55.2,205.83 -239.35,919.75 -636.51,1743.58 -1200.92,2500.73 564.41,730.67 961.57,1535.88 1200.92,2444.39 19.93,75.64 -0.14,151.46 -55.2,208.38 -55.03,57 -129.47,79.03 -204.73,60.65 -903.72,-220.9 -1708.93,-603.79 -2444.43,-1157.51 -735.32,588.24 -1540.56,1008.91 -2444.24,1272.19 -75.24,21.92 -149.71,3.34 -204.7,-51.03 -55.06,-54.37 -75.13,-129.23 -55.2,-205.8 239.31,-919.72 636.47,-1743.58 1200.95,-2500.66zm7860.13 -870.82c486.73,-846.79 829.31,-1733.68 1035.74,-2691.46 17.17,-79.79 -0.14,-151.43 -47.58,-197.08 -47.52,-45.62 -111.75,-52.37 -176.64,-18.52 -779.38,406.78 -1473.85,955.33 -2108.08,1660.28 -634.2,-437.01 -1328.66,-692.05 -2108.02,-769.42 -64.89,-6.45 -129.12,27.41 -176.56,93.09 -47.44,65.72 -64.79,144.71 -47.58,217.18 206.39,870.55 548.93,1612.66 1035.7,2253.76 -486.77,846.75 -829.31,1733.64 -1035.7,2691.39 -17.21,79.75 0.14,151.43 47.58,197.04 47.44,45.65 111.67,52.37 176.56,18.52 779.39,-406.78 1473.86,-955.3 2108.16,-1660.28 634.12,436.98 1328.62,692.02 2107.94,769.46 64.89,6.44 129.12,-27.45 176.64,-93.17 47.44,-65.71 64.75,-144.63 47.58,-217.14 -206.43,-870.48 -548.97,-1612.66 -1035.74,-2253.65zm3904.62 -1753.99c258.45,-646.78 464.88,-1297.81 621.2,-1963.24 101.54,27.2 198.63,26.37 291.9,-2.48 50.47,428.91 114.43,804.83 192.32,1133.44 -128.99,943.71 -219.73,1898.77 -274.45,2897.64 -4.55,83.16 0.07,151.36 12.62,187.57 12.58,36.2 29.58,30.13 46.78,-16.66 206.5,-561.96 390.51,-1248.77 558.59,-2080.02 168.05,310.72 352.03,427.5 558.52,349.72 17.2,-6.45 34.23,-53.13 46.85,-128.3 12.55,-75.16 17.1,-157.56 12.59,-226.62 -10.79,-163.43 -22.96,-320.76 -36.55,-472.29 7.45,-1.07 14.34,-7.89 20.41,-20.58 15.66,-32.62 21.38,-94.58 15.69,-170.53 -47.79,-640.17 -117.71,-1261.26 -210.66,-1873.43 95.88,-785.04 165.84,-1581.66 211.11,-2408.32 3.62,-66.71 1.41,-123.74 -6.07,-162.43l5.62 -60.92c5.69,-62.79 -0.03,-138.02 -15.69,-206.84 -15.62,-68.85 -36.79,-111.88 -58.2,-118.29 -256.93,-77.13 -485.83,23.75 -694.91,301.65 -209.04,-762.32 -437.95,-1393.59 -694.88,-1911.69 -21.38,-43.17 -42.58,-49.17 -58.17,-16.59 -15.68,32.58 -21.37,94.58 -15.68,170.5 68.02,911.61 180.9,1784.47 341.37,2648.05 -101.3,310.48 -183.63,668.5 -247.66,1080 -604.17,572.07 -1143,1266.19 -1635.32,2102.12 -495.35,-300.86 -1037.73,-406.84 -1646.45,-316.96 -50.68,7.45 -100.85,55.13 -137.91,131.02 -37.03,75.89 -50.58,158.57 -37.17,227.39 161.22,826.24 428.78,1494.84 808.94,2031.43 -380.16,951.23 -647.72,1911.63 -808.94,2913.68 -13.41,83.47 0.14,151.39 37.17,186.84 37.06,35.47 87.23,28.41 137.91,-19.38 608.75,-574.07 1151.14,-1271.64 1646.59,-2112.74 495.29,300.86 1037.7,406.85 1646.38,316.96 50.69,-7.48 100.89,-55.1 137.92,-131.02 37.1,-75.88 50.61,-158.56 37.13,-227.38 -161.19,-826.21 -428.7,-1494.85 -808.9,-2031.3zm-2095.36 -6185.44c-340.06,342.47 -579.41,758.76 -723.57,1264.74 -12.03,42.09 0.07,91.23 33.24,135.08 33.17,43.89 78.03,70.03 123.4,72.03 544.48,23.48 1029.6,-67.75 1472.68,-273.9 443.05,481.8 928.2,874.76 1472.65,1189.96 45.33,26.24 90.19,27.96 123.36,4.72 33.17,-23.24 45.24,-64.85 33.24,-114.47 -144.19,-595.58 -383.51,-1160.72 -723.5,-1714.72 339.99,-342.4 579.31,-758.73 723.5,-1264.67 12,-42.1 -0.07,-91.23 -33.24,-135.08 -33.17,-43.89 -78.03,-70.03 -123.36,-71.99 -544.49,-23.52 -1029.6,67.68 -1472.72,273.86 -443.05,-481.8 -928.19,-874.76 -1472.61,-1189.92 -45.37,-26.28 -90.23,-28 -123.4,-4.76 -33.17,23.24 -45.27,64.85 -33.24,114.43 144.16,595.62 383.47,1160.75 723.57,1714.69zm-6467.96 -1122.04c-319.06,405.4 -543.62,861.76 -678.95,1385.66 -11.24,43.61 0.14,89.06 31.24,124.91 31.1,35.83 73.16,52 115.71,44.45 510.9,-91.09 966.09,-281.62 1381.86,-575.59 415.71,377.4 870.9,659.3 1381.73,852.93 42.58,16.1 84.64,8.41 115.78,-21.2 31.1,-29.58 42.47,-72.79 31.17,-118.68 -135.3,-551 -359.79,-1052.45 -678.85,-1521.84 319.06,-405.37 543.55,-861.72 678.85,-1385.59 11.3,-43.62 -0.07,-89.02 -31.17,-124.88 -31.14,-35.89 -73.2,-52.06 -115.78,-44.44 -510.83,91.02 -966.05,281.62 -1381.83,575.58 -415.67,-377.47 -870.89,-659.37 -1381.76,-852.96 -42.55,-16.14 -84.61,-8.38 -115.71,21.2 -31.1,29.62 -42.48,72.75 -31.24,118.64 135.26,551.04 359.82,1052.46 678.95,1521.81zm3139.79 429.85c-340.03,389.88 -579.38,839.55 -723.57,1365.55 -12.03,43.82 0.07,91.27 33.24,130.5 33.17,39.24 78.06,59.17 123.36,54.79 544.52,-52.41 1029.63,-211.25 1472.72,-479.15 443.04,420.02 928.19,745.32 1472.64,984.6 45.31,19.93 90.2,15.42 123.37,-12.44 33.13,-27.86 45.23,-71.17 33.23,-119.09 -144.19,-575.52 -383.47,-1107.31 -723.49,-1613.87 340.02,-389.82 579.3,-839.48 723.49,-1365.52 12,-43.79 -0.1,-91.23 -33.23,-130.47 -33.17,-39.23 -78.06,-59.16 -123.37,-54.82 -544.48,52.44 -1029.6,211.25 -1472.71,479.22 -443.05,-420.05 -928.16,-745.39 -1472.65,-984.67 -45.3,-19.93 -90.19,-15.35 -123.36,12.48 -33.17,27.86 -45.27,71.13 -33.24,119.05 144.19,575.52 383.51,1107.31 723.57,1613.84z"/>
   <path class="fil1" d="M26749.75 81315.45l0 -5987.67 1667.31 -1667.35 8120.31 0 1667.31 1667.35 0 5987.67 -1667.31 1667.38 -8120.31 0 -1667.31 -1667.38zm1302.63 -539.52l904.24 904.27 7041.19 0 904.24 -904.27 0 -4908.6 -904.24 -904.27 -7041.19 0 -904.24 904.27 0 4908.6z"/>
   <path class="fil1" d="M17219.86 7613.57c-589.21,-767.8 -1004,-1608.51 -1253.83,-2552.15 -20.85,-78.46 0.13,-156.25 57.65,-213.7 57.38,-57.48 135.14,-78.49 213.67,-57.65 943.64,249.87 1784.34,664.59 2552.14,1253.84 767.73,-589.28 1608.54,-1003.97 2552.04,-1253.84 78.57,-20.84 156.32,0.17 213.74,57.65 57.48,57.45 78.43,135.24 57.65,213.7 -249.86,943.58 -664.56,1784.28 -1253.87,2552.11 589.31,767.84 1004.01,1608.54 1253.87,2552.05 20.78,78.6 -0.17,156.35 -57.65,213.76 -57.42,57.52 -135.17,78.4 -213.74,57.66 -943.6,-249.9 -1784.31,-664.66 -2552.17,-1253.91 -767.74,589.35 -1608.51,1004.01 -2552.01,1253.91 -78.53,20.74 -156.29,-0.14 -213.67,-57.66 -57.52,-57.41 -78.5,-135.16 -57.65,-213.76 249.83,-943.47 664.49,-1784.21 1253.83,-2552.01zm304.68 -5042.81c-474.86,-618.83 -809.12,-1296.4 -1010.45,-2056.75 -16.78,-63.34 0.14,-126.05 46.44,-172.24 46.29,-46.34 108.96,-63.25 172.28,-46.47 760.41,201.33 1437.95,535.59 2056.68,1010.48 618.73,-474.93 1296.24,-809.15 2056.58,-1010.48 63.32,-16.78 126.02,0.13 172.28,46.47 46.34,46.19 63.22,108.9 46.47,172.24 -201.29,760.35 -535.59,1437.85 -1010.44,2056.65 474.85,618.77 809.15,1296.24 1010.44,2056.65 16.75,63.32 -0.13,126.05 -46.47,172.25 -46.26,46.3 -108.96,63.18 -172.28,46.47 -760.37,-201.36 -1437.91,-535.69 -2056.71,-1010.48 -618.67,474.92 -1296.24,809.12 -2056.55,1010.48 -63.32,16.71 -125.99,-0.17 -172.28,-46.47 -46.3,-46.2 -63.22,-108.93 -46.44,-172.25 201.33,-760.31 535.56,-1437.88 1010.45,-2056.55z"/>
   <path class="fil1" d="M28770.55 46305.42l7410.88 0 2063.63 2063.6 0 10050.35 -2063.63 2063.63 -7410.88 0 -2063.63 -2063.63 0 -10050.35 2063.63 -2063.6zm667.81 1612.2l-1119.21 1119.2 0 8714.75 1119.21 1119.2 6075.27 0 1119.21 -1119.2 0 -8714.75 -1119.21 -1119.2 -6075.27 0z"/>
   <polygon class="fil2" points="30087.27,49200.05 29609.49,49689.77 29609.49,57098.62 30087.27,57588.37 34864.72,57588.37 35342.5,57098.62 35342.5,49689.77 34864.72,49200.05 "/>
   <polygon class="fil3" points="28966.54,49428.1 29609.49,49689.77 30087.27,49200.05 29816.3,48557.1 "/>
   <polygon class="fil3" points="29816.3,48557.1 30087.27,49200.05 34864.72,49200.05 35135.68,48557.1 "/>
   <polygon class="fil3" points="35985.45,49428.1 35135.68,48557.1 34864.72,49200.05 35342.5,49689.77 "/>
   <polygon class="fil4" points="35985.45,57360.29 35985.45,49428.1 35342.5,49689.77 35342.5,57098.62 "/>
   <polygon class="fil5" points="35985.45,57360.29 35342.5,57098.62 34864.72,57588.37 35135.68,58231.32 "/>
   <polygon class="fil5" points="35135.68,58231.32 34864.72,57588.37 30087.27,57588.37 29816.3,58231.32 "/>
   <polygon class="fil5" points="28966.54,57360.29 29609.49,57098.62 30087.27,57588.37 29816.3,58231.32 "/>
   <polygon class="fil4" points="28966.54,57360.29 29609.49,57098.62 29609.49,49689.77 28966.54,49428.1 "/>
   <polygon class="fil6" points="29060.41,46015.56 35862.82,46015.56 36181.43,46305.42 28770.55,46305.42 "/>
   <polygon class="fil6" points="28642.85,48742.27 28642.85,57555.93 29627.33,58551.05 35324.66,58551.05 36309.14,57555.93 36309.14,48742.27 36632.84,49036.82 36632.84,57618.3 35513.63,58870.77 29438.36,58870.77 28319.15,57751.57 28319.15,49036.82 "/>
   <path class="fil1" d="M15794.39 10717.72l5990.08 0 1668 1667.97 0 8123.52 -1668 1667.99 -5990.08 0 -1667.99 -1667.99 0 -8123.52 1667.99 -1667.97zm539.78 1303.11l-904.64 904.63 0 7043.97 904.64 904.64 4910.53 0 904.64 -904.64 0 -7043.97 -904.64 -904.63 -4910.53 0z"/>
   <polygon class="fil2" points="16858.67,13057.4 16472.49,13453.23 16472.49,19441.67 16858.67,19837.52 20720.19,19837.52 21106.38,19441.67 21106.38,13453.23 20720.19,13057.4 "/>
   <polygon class="fil3" points="15952.81,13241.73 16472.49,13453.23 16858.67,13057.4 16639.65,12537.72 "/>
   <polygon class="fil3" points="16639.65,12537.72 16858.67,13057.4 20720.19,13057.4 20939.21,12537.72 "/>
   <polygon class="fil3" points="21626.06,13241.73 20939.21,12537.72 20720.19,13057.4 21106.38,13453.23 "/>
   <polygon class="fil4" points="21626.06,19653.17 21626.06,13241.73 21106.38,13453.23 21106.38,19441.67 "/>
   <polygon class="fil5" points="21626.06,19653.17 21106.38,19441.67 20720.19,19837.52 20939.21,20357.21 "/>
   <polygon class="fil5" points="20939.21,20357.21 20720.19,19837.52 16858.67,19837.52 16639.65,20357.21 "/>
   <polygon class="fil5" points="15952.81,19653.17 16472.49,19441.67 16858.67,19837.52 16639.65,20357.21 "/>
   <polygon class="fil4" points="15952.81,19653.17 16472.49,19441.67 16472.49,13453.23 15952.81,13241.73 "/>
   <polygon class="fil6" points="16028.68,10483.44 21526.94,10483.44 21784.47,10717.72 15794.39,10717.72 "/>
   <polygon class="fil6" points="15691.17,12687.38 15691.17,19811.3 16486.91,20615.64 21091.96,20615.64 21887.7,19811.3 21887.7,12687.38 22149.34,12925.46 22149.34,19861.72 21244.7,20874.07 16334.17,20874.07 15429.53,19969.43 15429.53,12925.46 "/>
   <path class="fil7" d="M21613.16 5004.04c21.05,-135.84 -0.41,-449.19 -57.89,-506.64 -57.42,-57.49 -135.17,-78.5 -213.74,-57.66 -943.5,249.87 -1784.31,664.56 -2552.04,1253.84 -767.8,-589.25 -1608.5,-1003.97 -2552.14,-1253.84 -78.53,-20.84 -156.29,0.17 -213.67,57.66 -57.52,57.45 -79.04,370.8 -57.92,506.64 -20.58,-21.08 0.4,-98.87 57.92,-156.32 57.38,-57.48 135.14,-78.49 213.67,-57.65 943.64,249.87 1784.34,664.59 2552.14,1253.84 767.73,-589.28 1608.54,-1003.97 2552.04,-1253.84 78.57,-20.84 156.32,0.17 213.74,57.65 57.48,57.45 78.43,135.24 57.89,156.32zm-548.13 -4536.29c16.98,-109.61 -0.34,-362.33 -46.68,-408.52 -46.26,-46.34 -108.96,-63.25 -172.28,-46.47 -760.34,201.33 -1437.85,535.56 -2056.58,1010.48 -618.73,-474.89 -1296.27,-809.15 -2056.68,-1010.48 -63.32,-16.78 -125.99,0.13 -172.28,46.47 -46.3,46.19 -63.66,298.94 -46.68,408.55 -16.54,-17.11 0.38,-79.82 46.68,-126.01 46.29,-46.34 108.96,-63.25 172.28,-46.47 760.41,201.33 1437.95,535.59 2056.68,1010.48 618.73,-474.93 1296.24,-809.15 2056.58,-1010.48 63.32,-16.78 126.02,0.13 172.28,46.47 46.34,46.19 63.22,108.9 46.68,125.98z"/>
   <polygon class="fil0" points="26749.75,75327.77 26749.75,74878 28417.07,73210.65 36537.36,73210.65 38204.68,74878 38204.68,75327.77 36537.36,73660.43 28417.07,73660.43 "/>
   <polygon class="fil0" points="28052.38,80326.14 28052.38,80775.92 28956.63,81680.2 35997.8,81680.2 36902.05,80775.92 36902.05,80326.14 35997.8,81230.42 28956.63,81230.42 "/>
   <polygon class="fil8" points="29042.15,80447.64 29660.72,81051.12 35293.72,81051.12 35912.29,80447.64 35912.29,76670.19 35293.72,76066.72 29660.72,76066.72 29042.15,76670.19 "/>
   <polygon class="fil9" points="35293.72,81051.11 35681.68,80966.31 36385.45,80279.73 35912.27,80447.64 "/>
   <polygon class="fil10" points="35912.27,80447.64 36385.45,80279.73 36385.45,75981.95 35912.27,76670.21 "/>
   <polygon class="fil11" points="35912.27,76670.21 36385.45,75981.95 35681.68,75295.33 35293.72,76066.71 "/>
   <polygon class="fil12" points="35293.72,76066.71 35681.68,75295.33 29272.75,75295.33 29660.71,76066.71 "/>
   <polygon class="fil9" points="29660.71,81051.11 29272.75,80966.31 28568.99,80279.73 29042.16,80447.64 "/>
   <polygon class="fil10" points="29042.16,80447.64 29042.16,76670.21 28568.99,75981.95 28568.99,80279.73 "/>
   <polygon class="fil11" points="28568.99,75981.95 29272.75,75295.33 29660.71,76066.71 29042.16,76670.21 "/>
   <path class="fil1" d="M47250.95 7613.57c589.21,-767.8 1004,-1608.51 1253.84,-2552.15 20.84,-78.46 -0.14,-156.25 -57.66,-213.7 -57.38,-57.48 -135.13,-78.49 -213.67,-57.65 -943.64,249.87 -1784.34,664.59 -2552.14,1253.84 -767.73,-589.28 -1608.54,-1003.97 -2552.04,-1253.84 -78.57,-20.84 -156.32,0.17 -213.74,57.65 -57.48,57.45 -78.43,135.24 -57.65,213.7 249.87,943.58 664.56,1784.28 1253.87,2552.11 -589.31,767.84 -1004,1608.54 -1253.87,2552.05 -20.78,78.6 0.17,156.35 57.65,213.76 57.42,57.52 135.17,78.4 213.74,57.66 943.61,-249.9 1784.31,-664.66 2552.18,-1253.91 767.73,589.35 1608.5,1004.01 2552,1253.91 78.54,20.74 156.29,-0.14 213.67,-57.66 57.52,-57.41 78.5,-135.16 57.66,-213.76 -249.84,-943.47 -664.49,-1784.21 -1253.84,-2552.01zm-304.67 -5042.81c474.85,-618.83 809.11,-1296.4 1010.44,-2056.75 16.78,-63.34 -0.13,-126.05 -46.43,-172.24 -46.3,-46.34 -108.97,-63.25 -172.29,-46.47 -760.41,201.33 -1437.95,535.59 -2056.68,1010.48 -618.73,-474.93 -1296.24,-809.15 -2056.58,-1010.48 -63.31,-16.78 -126.02,0.13 -172.28,46.47 -46.34,46.19 -63.21,108.9 -46.47,172.24 201.29,760.35 535.59,1437.85 1010.44,2056.65 -474.85,618.77 -809.15,1296.24 -1010.44,2056.65 -16.74,63.32 0.13,126.05 46.47,172.25 46.26,46.3 108.97,63.18 172.28,46.47 760.38,-201.36 1437.92,-535.69 2056.72,-1010.48 618.66,474.92 1296.24,809.12 2056.54,1010.48 63.32,16.71 125.99,-0.17 172.29,-46.47 46.3,-46.2 63.21,-108.93 46.43,-172.25 -201.33,-760.31 -535.56,-1437.88 -1010.44,-2056.55z"/>
   <path class="fil1" d="M48676.42 10717.72l-5990.08 0 -1668 1667.97 0 8123.52 1668 1667.99 5990.08 0 1667.99 -1667.99 0 -8123.52 -1667.99 -1667.97zm-539.78 1303.11l904.64 904.63 0 7043.97 -904.64 904.64 -4910.53 0 -904.63 -904.64 0 -7043.97 904.63 -904.63 4910.53 0z"/>
   <polygon class="fil2" points="47612.14,13057.4 47998.32,13453.23 47998.32,19441.67 47612.14,19837.52 43750.62,19837.52 43364.43,19441.67 43364.43,13453.23 43750.62,13057.4 "/>
   <polygon class="fil3" points="48518,13241.73 47998.32,13453.23 47612.14,13057.4 47831.16,12537.72 "/>
   <polygon class="fil3" points="47831.16,12537.72 47612.14,13057.4 43750.62,13057.4 43531.6,12537.72 "/>
   <polygon class="fil3" points="42844.75,13241.73 43531.6,12537.72 43750.62,13057.4 43364.43,13453.23 "/>
   <polygon class="fil4" points="42844.75,19653.17 42844.75,13241.73 43364.43,13453.23 43364.43,19441.67 "/>
   <polygon class="fil5" points="42844.75,19653.17 43364.43,19441.67 43750.62,19837.52 43531.6,20357.21 "/>
   <polygon class="fil5" points="43531.6,20357.21 43750.62,19837.52 47612.14,19837.52 47831.16,20357.21 "/>
   <polygon class="fil5" points="48518,19653.17 47998.32,19441.67 47612.14,19837.52 47831.16,20357.21 "/>
   <polygon class="fil4" points="48518,19653.17 47998.32,19441.67 47998.32,13453.23 48518,13241.73 "/>
   <polygon class="fil6" points="48442.13,10483.44 42943.87,10483.44 42686.34,10717.72 48676.42,10717.72 "/>
   <polygon class="fil6" points="48779.64,12687.38 48779.64,19811.3 47983.9,20615.64 43378.85,20615.64 42583.11,19811.3 42583.11,12687.38 42321.48,12925.46 42321.48,19861.72 43226.11,20874.07 48136.64,20874.07 49041.28,19969.43 49041.28,12925.46 "/>
   <path class="fil7" d="M42857.65 5004.04c-21.04,-135.84 0.41,-449.19 57.89,-506.64 57.42,-57.49 135.17,-78.5 213.74,-57.66 943.5,249.87 1784.31,664.56 2552.04,1253.84 767.8,-589.25 1608.5,-1003.97 2552.14,-1253.84 78.54,-20.84 156.29,0.17 213.67,57.66 57.52,57.45 79.04,370.8 57.93,506.64 20.57,-21.08 -0.41,-98.87 -57.93,-156.32 -57.38,-57.48 -135.13,-78.49 -213.67,-57.65 -943.64,249.87 -1784.34,664.59 -2552.14,1253.84 -767.73,-589.28 -1608.54,-1003.97 -2552.04,-1253.84 -78.57,-20.84 -156.32,0.17 -213.74,57.65 -57.48,57.45 -78.43,135.24 -57.89,156.32zm548.14 -4536.29c-16.99,-109.61 0.33,-362.33 46.67,-408.52 46.26,-46.34 108.97,-63.25 172.28,-46.47 760.34,201.33 1437.85,535.56 2056.58,1010.48 618.73,-474.89 1296.27,-809.15 2056.68,-1010.48 63.32,-16.78 125.99,0.13 172.29,46.47 46.3,46.19 63.65,298.94 46.67,408.55 16.54,-17.11 -0.37,-79.82 -46.67,-126.01 -46.3,-46.34 -108.97,-63.25 -172.29,-46.47 -760.41,201.33 -1437.95,535.59 -2056.68,1010.48 -618.73,-474.93 -1296.24,-809.15 -2056.58,-1010.48 -63.31,-16.78 -126.02,0.13 -172.28,46.47 -46.34,46.19 -63.21,108.9 -46.67,125.98z"/>
  </g>
 </g>
</svg>
