<?xml version="1.0" encoding="UTF-8"?>
<!DOCTYPE svg PUBLIC "-//W3C//DTD SVG 1.1//EN" "http://www.w3.org/Graphics/SVG/1.1/DTD/svg11.dtd">
<!-- Creator: CorelDRAW 2021.5 -->
<svg xmlns="http://www.w3.org/2000/svg" xml:space="preserve" width="800mm" height="800mm" version="1.1" style="shape-rendering:geometricPrecision; text-rendering:geometricPrecision; image-rendering:optimizeQuality; fill-rule:evenodd; clip-rule:evenodd"
viewBox="0 0 80000 80000"
 xmlns:xlink="http://www.w3.org/1999/xlink"
 xmlns:xodm="http://www.corel.com/coreldraw/odm/2003">
 <defs>
  <style type="text/css">
   <![CDATA[
    .fil0 {fill:#ffd500}
   ]]>
  </style>
 </defs>
 <g id="Layer_x0020_1">
  <metadata id="CorelCorpID_0Corel-Layer"/>
  <path class="fil0" d="M57224.42 16408.21c17.77,-0.16 35.54,-0.16 53.37,0l19497.76 0c999.37,0 1859.51,407.64 2490.58,1180.39 631.03,772.69 857.14,1695.21 654.69,2671.06l-7953.69 38337.97c-311.82,1503.05 -1605.99,2553.84 -3145.27,2553.84l-15255.91 0c-17.78,0.16 -35.55,0.16 -53.37,0l-17767.05 0c-16.44,0.11 -32.93,0.11 -49.31,0l-16912.64 0c-1612.03,0 -2956.73,-1165.87 -3180.7,-2757.69l-2916.27 -20726.57c-2.94,-19.59 -5.67,-39.23 -8.29,-58.93l-2465.22 -17521.03c-3.05,-20.34 -5.88,-40.73 -8.56,-61.17l-1015.54 -7217.7 -495.96 -3524.99 -2356.06 -1093.76 -4488.68 -2083.85c-1603.74,-744.57 -2302.8,-2656.06 -1556.15,-4255.15 746.7,-1599.13 2663.7,-2296.19 4267.38,-1551.68l8427.28 3912.3c1016.56,471.96 1669.32,1351.2 1825.09,2458.46l1370.23 9738.5 16630.43 0c16.43,-0.11 32.92,-0.11 49.3,0l24362.56 0zm1861.75 17581.08l11426.57 0 2318.54 -11175.79 -12662.23 0 -1082.88 11175.79zm-6453.64 0l1082.87 -11175.79 -17417.6 0 841.46 11175.79 15493.27 0zm4442.43 20756.89l9131.48 0 2977.39 -14351.59 -10718.3 0 -1390.57 14351.59zm-6453.65 0l1390.58 -14351.59 -14390.37 0 1080.63 14351.59 11919.16 0zm-19441.61 -14351.59l-11622.7 0 2019.29 14351.59 10683.99 0 -1080.58 -14351.59zm-1323.76 -17581.09l-12772.61 0 1572.47 11175.79 12041.64 0 -841.5 -11175.79zm3125.19 41514.78c4340.24,0 7858.67,3508.34 7858.67,7836.13 0,4327.79 -3518.43,7836.12 -7858.67,7836.12 -4340.24,0 -7858.67,-3508.33 -7858.67,-7836.12 0,-4327.79 3518.43,-7836.13 7858.67,-7836.13zm20894.01 0c4340.24,0 7858.68,3508.34 7858.68,7836.13 0,4327.79 -3518.44,7836.12 -7858.68,7836.12 -4340.24,0 -7858.67,-3508.33 -7858.67,-7836.12 0,-4327.79 3518.43,-7836.13 7858.67,-7836.13zm0 5108.54c1510.75,0 2735.44,1221.17 2735.44,2727.59 0,1506.42 -1224.69,2727.58 -2735.44,2727.58 -1510.75,0 -2735.43,-1221.16 -2735.43,-2727.58 0,-1506.42 1224.68,-2727.59 2735.43,-2727.59zm-20894.01 0c1510.75,0 2735.43,1221.17 2735.43,2727.59 0,1506.42 -1224.68,2727.58 -2735.43,2727.58 -1510.75,0 -2735.43,-1221.16 -2735.43,-2727.58 0,-1506.42 1224.68,-2727.59 2735.43,-2727.59z"/>
 </g>
</svg>
