<?xml version="1.0" encoding="UTF-8"?>
<!DOCTYPE svg PUBLIC "-//W3C//DTD SVG 1.1//EN" "http://www.w3.org/Graphics/SVG/1.1/DTD/svg11.dtd">
<!-- Creator: CorelDRAW 2021.5 -->
<svg xmlns="http://www.w3.org/2000/svg" xml:space="preserve" width="1870.36mm" height="844.023mm" version="1.1" style="shape-rendering:geometricPrecision; text-rendering:geometricPrecision; image-rendering:optimizeQuality; fill-rule:evenodd; clip-rule:evenodd"
viewBox="0 0 187035.9 84402.3"
 xmlns:xlink="http://www.w3.org/1999/xlink"
 xmlns:xodm="http://www.corel.com/coreldraw/odm/2003">
 <defs>
  <style type="text/css">
   <![CDATA[
    .fil0 {fill:#D7ECE9;fill-rule:nonzero}
   ]]>
  </style>
 </defs>
 <g id="Layer_x0020_1">
  <metadata id="CorelCorpID_0Corel-Layer"/>
  <path class="fil0" d="M14411.51 12576.24c-723.19,0 -1199.44,-617.36 -1446.39,-1852.08 -282.22,-864.31 -670.28,-1428.75 -1181.8,-1675.7 -529.17,-264.58 -1093.61,-299.86 -1728.61,-105.83 -652.64,194.03 -1305.28,546.81 -1975.56,1058.33 -670.28,511.53 -1270,1075.98 -1834.44,1710.98 -546.81,617.36 -987.78,1252.36 -1340.56,1905 -335.14,652.63 -511.53,1199.44 -511.53,1658.05 0,899.58 1411.11,1393.47 4233.34,1499.31 1834.44,70.55 3298.47,352.77 4445,881.94 1128.88,511.53 1993.19,1199.45 2575.27,2063.75 599.73,864.31 952.5,1852.08 1058.34,2963.33 123.47,1128.89 70.55,2310.7 -176.39,3563.06 -229.31,1270 -599.72,2540 -1075.97,3827.64 -493.89,1287.64 -1040.7,2540 -1658.06,3757.08 -105.83,158.75 -282.22,299.86 -546.81,370.42 -246.94,88.19 -493.88,123.47 -723.19,105.83 -229.31,-17.64 -405.69,-88.19 -546.81,-194.03 -123.47,-123.47 -141.11,-317.5 -35.27,-599.72 811.39,-1763.89 1252.36,-3175 1305.27,-4268.61 52.92,-1075.97 -158.75,-1922.64 -635,-2522.36 -493.88,-617.36 -1164.16,-1040.7 -2028.47,-1322.92 -864.3,-282.22 -1799.16,-476.25 -2804.58,-617.36 -1023.06,-141.11 -2046.11,-264.58 -3051.53,-388.05 -1023.05,-123.48 -1905,-352.78 -2663.47,-670.28 -758.47,-335.14 -1340.56,-829.03 -1728.61,-1481.67 -405.7,-652.64 -458.61,-1587.5 -176.39,-2786.94 776.11,-3757.09 1834.44,-6843.89 3122.08,-9242.78 1287.64,-2416.53 2663.47,-4321.53 4109.86,-5697.36 1446.39,-1375.83 2892.78,-2310.69 4339.17,-2839.86 1446.39,-511.53 2734.03,-758.47 3845.28,-740.83 1128.89,17.63 1993.19,229.3 2628.19,635 652.64,423.33 864.31,846.66 652.64,1305.27l-4445 9701.39zm2169.58 31485.42c0,229.3 -123.47,652.63 -352.77,1234.72 -246.95,582.08 -599.73,1322.91 -1093.61,2222.5 -1023.06,1922.64 -1763.89,2892.78 -2222.5,2892.78 -546.81,0 -1358.2,-705.56 -2434.17,-2116.67 -1058.33,-1481.67 -1587.5,-2416.53 -1587.5,-2786.95 0,-388.05 582.08,-1640.41 1746.25,-3774.72 617.36,-970.14 1128.89,-1710.97 1499.3,-2222.5 388.06,-511.52 635,-776.11 776.12,-776.11 176.38,0 423.33,211.67 723.19,617.36 317.5,405.7 740.83,1023.06 1287.64,1799.17 1111.25,1552.22 1658.05,2522.36 1658.05,2910.42zm41828.02 -9986.16c-21.23,935.27 -390.32,2627.59 -1058.34,5062.36 -672.51,2451.18 -1541.6,5119.24 -2628.19,8025.69 -1082.98,2896.76 -2046.11,5080 -2875.14,6561.67 -829.03,1481.67 -1724.33,2616.05 -2716.39,3386.67 -983.52,763.97 -2557.64,1481.66 -4744.86,2116.66 -2187.22,635 -3951.12,1058.34 -5274.03,1287.64 -1322.91,229.3 -2170.02,352.29 -2504.72,335.14 -354.06,-18.15 -558.31,-177.91 -617.36,-405.69 -64.44,-248.61 42.57,-559.37 299.86,-934.87 395.41,-577.1 1336.62,-1364.6 2875.14,-2310.69 1530.64,-941.26 3316.11,-2134.32 5344.58,-3563.06 2028.47,-1428.74 3479.17,-2677.62 4339.17,-3739.44 868.62,-1072.48 1837.91,-2661.73 2928.06,-4815.42 1079.43,-2132.54 2071.34,-4283.2 2945.69,-6455.83 871.89,-2166.54 1506.48,-3647.8 1887.36,-4445 377.6,-790.35 778.46,-1187.12 1234.72,-1128.89 374.03,47.74 578.46,405.88 564.45,1023.06zm14190.17 -17682.66c-56.74,2469.79 -123.64,4709.6 -158.75,6702.78 -35.42,2010.81 -176.07,3682.57 -317.5,5080 -299.58,2959.98 -838.93,5576.78 -1693.33,7866.95 -856.55,2295.94 -1552.23,3827.64 -2046.11,4586.11 -493.88,758.47 -890.67,1313.98 -1217.09,1640.41 -361.68,361.69 -668.63,455.7 -881.94,335.14 -192.39,-108.74 -250.43,-314.14 -194.03,-582.08 14.52,-69.03 200.77,-1109.87 617.36,-3139.72 412.41,-2009.46 670.29,-3968.77 776.11,-5856.11 105.82,-1887.36 123.64,-4568.5 52.92,-8043.34 -70.36,-3457.21 14.37,-6103.48 246.94,-7919.86 137.81,-1076.38 376.24,-2167.91 705.56,-3316.11 323.3,-1127.22 698.55,-2253.75 1111.25,-3351.39 416.33,-1107.29 836.04,-2156.96 1305.28,-3139.72 465.65,-975.25 859.19,-1873.2 1270,-2610.56 278.56,-500 582.09,-670.25 829.02,-564.44 246.93,105.82 368.2,302.4 317.5,564.44 -55.26,285.6 -150.68,935.49 -229.3,1940.28 -80.1,1023.71 -175.92,2151.99 -246.95,3421.95 -70.05,1252.37 -123.88,2487.08 -176.39,3686.52 -53.29,1217.06 -56.78,2099.23 -70.55,2698.75zm12453.05 9295.7c303.82,-701.15 760.61,-850.18 1552.22,-370.42 4447.12,2695.22 6768.47,6298.23 6667.5,10812.64 -75.44,3372.79 -896.09,6316.47 -2151.94,8854.72 -1248.84,2524.08 -2537.69,4447.32 -3845.28,5767.92 -2237.8,2260.07 -5472.04,4004.57 -9719.02,5062.36 -501.05,124.79 -934.87,105.83 -1234.73,105.83 -423.33,0 -617.36,-105.83 -617.36,-317.5 0,-388.05 609.86,-1033.68 1852.09,-1905 2479.62,-1739.26 4811.23,-3690.67 6985,-5891.39 2094.82,-2120.79 3139.72,-3510.13 3139.72,-4198.05 0,-1781.53 -1963.19,-4279.8 -5891.39,-7478.89 -728.48,-593.26 -1045.83,-1365.06 -670.28,-2187.22 934.24,-2045.24 2401.74,-4720.21 3933.47,-8255zm65100.65 -12353.57c-56.77,2469.8 -123.63,4709.59 -158.75,6702.78 -35.43,2010.82 -176.06,3682.56 -317.5,5080 -299.59,2959.99 -838.92,5576.77 -1693.33,7866.95 -856.56,2295.95 -1552.23,3827.64 -2046.11,4586.11 -493.88,758.47 -890.66,1313.97 -1217.09,1640.41 -361.69,361.7 -668.62,455.71 -881.94,335.14 -192.4,-108.75 -250.44,-314.13 -194.03,-582.08 14.53,-69.04 200.76,-1109.86 617.36,-3139.72 412.42,-2009.47 670.28,-3968.76 776.11,-5856.11 105.83,-1887.37 123.65,-4568.49 52.92,-8043.34 -70.37,-3457.22 14.36,-6103.47 246.94,-7919.86 137.82,-1076.39 376.23,-2167.9 705.56,-3316.11 323.31,-1127.23 698.54,-2253.74 1111.25,-3351.39 416.34,-1107.3 836.03,-2156.95 1305.28,-3139.72 465.66,-975.26 859.18,-1873.19 1270,-2610.56 278.57,-500.01 582.08,-670.26 829.02,-564.44 246.94,105.83 368.21,302.39 317.5,564.44 -55.27,285.61 -150.67,935.48 -229.3,1940.28 -80.11,1023.72 -175.91,2151.98 -246.95,3421.95 -70.06,1252.38 -123.87,2487.07 -176.39,3686.52 -53.3,1217.07 -56.77,2099.2 -70.55,2698.75zm17215.56 26899.31c-1208.2,3336.97 -2334.53,5799.15 -3369.03,7390.69 -1029.26,1583.48 -1827.79,2567.84 -2416.53,2945.69 -593.22,380.72 -1462.22,781.02 -2645.83,1217.09 -1162.37,428.24 -2945.71,1023.05 -5344.59,1799.16 -2398.88,776.1 -3810,1164.17 -4268.61,1164.17 -264.58,0 -405.69,-70.56 -405.69,-211.67 -282.22,-370.41 1146.53,-1622.77 4286.25,-3721.8 3139.72,-2099.03 5165.18,-3479.04 6067.78,-4127.5 914.22,-656.82 1842.17,-1612.5 2786.94,-2875.14 942.64,-1259.79 1658.06,-2681.11 2099.03,-4250.97 -476.25,-70.56 -964.65,28.16 -1464.03,282.22 -506.26,257.56 -1005.52,397.67 -1481.67,388.06 -1270.23,-25.66 -2345.61,-459.02 -3210.27,-1252.37 -846.3,-776.5 -1251.35,-1663.66 -1075.98,-2628.19 107.14,-589.28 343.09,-1267.34 599.73,-2046.11 254.91,-773.52 797.24,-2009.11 1622.77,-3686.53 832.52,-1691.61 1662.32,-3083.52 2504.73,-4180.41 850.93,-1107.98 1675.69,-1658.06 2504.72,-1658.06 1411.11,0 2597.19,596.34 3545.41,1799.17 956.79,1213.7 1411.12,2663.47 1411.12,4339.16 0,864.31 -45.23,1729.47 -141.12,2557.64 -98.14,847.59 -219.1,1554.17 -335.13,2134.31 -113.31,566.56 -306.06,1286.06 -529.17,2169.58 -217.86,862.76 -467.36,1696.51 -740.83,2451.81zm-1217.09 -6332.36c136.53,-781.92 100.48,-1496.29 246.95,-2116.67 153.43,-649.85 705.55,-1234.72 1710.97,-1710.97 211.67,-35.28 785.14,-366.15 1763.89,-987.78 326.89,-207.61 1034.4,-672.59 2063.75,-1446.38 1528.47,-1148.98 2479.92,-2306.71 2892.78,-3404.31 310.37,-825.14 635,-1305.28 987.77,-1446.39 123.48,0 405.7,105.83 811.39,299.86 317.5,317.5 780.05,422.35 1411.11,264.59 921.53,-230.38 1671.13,-803.33 2222.5,-1710.98 595.26,-979.88 1067.03,-2084.55 1481.67,-3245.55 26.53,-74.29 319.46,158.43 934.86,511.53 466.06,267.41 909.51,150.76 1252.36,-211.67 274.81,-290.51 505.99,-628.91 670.28,-970.14 65.38,-135.78 372.73,-869.18 811.39,-2222.5 390.72,-1205.43 740.83,-1816.81 1199.44,-1816.81 282.23,0 405.7,370.42 405.7,1093.62 0,1675.69 -331.31,3483.23 -1075.97,5362.22 -772.36,1948.88 -1572.53,3364.83 -2381.25,4250.97 -849.56,930.89 -1666.65,1636.97 -2434.17,2116.67 -784.96,490.6 -1194.74,807.35 -1287.64,934.86 -808.1,1109.15 -1739.3,1985.65 -2734.03,2663.47 -998.56,680.44 -1993.19,1111.25 -2945.69,1358.19 -758.47,829.03 -1906.1,1737.28 -3369.03,2786.95 -1659.6,1190.78 -2662.35,1907.51 -3051.53,2081.39 -439.85,196.52 -911.94,518.51 -1446.39,917.22 -576.88,430.37 -881.94,776.11 -917.22,1093.61l776.11 -4445zm-140257.03 12452.79c-723.19,899.58 -1340.55,1534.58 -1869.72,1905 -687.91,493.89 -1375.83,881.94 -2081.39,1164.16 -705.55,299.87 -1481.66,529.17 -2328.33,723.2 -846.67,194.03 -1675.69,388.05 -2504.72,599.72l-3421.95 829.03c-1375.83,229.3 -2222.5,264.58 -2522.36,105.83 0,-493.89 564.45,-1093.61 1710.98,-1816.8 1023.05,-652.64 2081.38,-1322.92 3139.72,-1993.2 1075.97,-670.28 2134.3,-1322.91 3210.28,-1975.55 2716.38,-1905 4762.49,-3686.53 6103.05,-5326.95 1023.06,-1287.64 1834.44,-2398.89 2416.53,-3369.02 388.05,-546.81 952.5,-1499.31 1710.97,-2839.87l2222.5 -4550.83c511.53,-1058.33 1023.06,-1922.64 1499.31,-2575.28 440.97,-652.64 864.3,-970.14 1234.72,-934.86 352.78,176.39 458.61,511.53 317.5,1040.7 -388.06,1128.89 -617.36,1869.72 -723.2,2222.5 -546.8,1816.8 -829.02,3104.44 -829.02,3827.64 -211.67,617.36 -352.78,1005.41 -405.7,1181.8 -829.03,1852.08 -1693.33,3615.97 -2592.92,5274.03 -282.22,652.64 -1710.97,2822.22 -4286.25,6508.75zm2786.95 -7655.28c687.92,-2963.33 1481.67,-5150.55 2345.98,-6561.67 881.94,-1411.11 1605.13,-2187.22 2151.94,-2328.33l0 2275.42c0,2892.78 776.11,4921.25 2328.33,6050.14 934.86,617.36 1852.09,829.02 2786.95,617.36 934.86,-194.03 1640.41,-687.92 2151.94,-1446.39 493.89,-758.47 917.22,-1640.42 1252.36,-2663.47 352.78,-1005.42 687.92,-1516.95 987.78,-1516.95 388.06,0 529.17,352.78 458.61,1075.97 -35.28,1252.37 -405.69,3263.2 -1146.53,6050.14 -740.83,2786.95 -1763.88,5080 -3033.88,6879.17 -1270,1781.53 -2822.23,2734.03 -4639.03,2839.86 -1869.72,-70.56 -3316.11,-1128.89 -4356.81,-3157.36 -917.22,-1993.2 -1358.19,-4586.11 -1287.64,-7743.47l0 -370.42zm-4429.92 41628.29c0,-440.97 701.91,-1995.13 2116.67,-4656.66 1407.45,-2647.78 2275.42,-3968.75 2592.92,-3968.75 582.08,-246.95 1428.62,176.54 2557.64,1270 1111.11,1076.11 1957.91,2028.47 2557.64,2857.5 687.91,-1128.89 1446.38,-2416.53 2293.05,-3827.64 846.67,-1411.11 1411.11,-2116.67 1675.7,-2116.67 864.3,0 1891.99,630.59 3086.8,1887.36 1186.44,1247.96 1854.87,2432.41 1887.36,3545.42 38.09,1304.72 -651.94,2858 -1922.64,4656.67 -1234.01,1746.74 -2151.94,2628.19 -2734.02,2628.19 -388.06,0 -1071.52,-498.3 -2063.75,-1499.31 -1000.97,-1009.83 -1887.37,-1781.52 -2645.84,-2328.33 -1852.08,3757.08 -3333.75,5626.81 -4445,5626.81 -264.58,0 -664.78,-217.89 -1181.8,-670.28 -470.82,-411.97 -1231.19,-1027.38 -2240.14,-1852.08 -1019.53,-833.35 -1534.59,-1340.56 -1534.59,-1552.23zm108403.75 -32667.47c0,-582.09 -1241.65,-1431.27 -3721.8,-2575.28 -2529.37,-1166.72 -3774.73,-2610.56 -3774.73,-4303.89 0,-1199.44 269.67,-2573.49 811.39,-4109.86 534.24,-1515.15 1160.94,-2982.76 1922.64,-4356.81 137.89,-248.75 355.26,-415.31 652.64,-511.52 302.55,-97.88 582.08,-158.75 881.95,-158.75 282.22,0 559.86,63.46 793.75,158.75 242.83,98.93 411.18,262.37 423.33,511.52 23.2,475.68 388.06,970.14 1164.17,1446.39 776.11,476.24 1556.39,999.61 2345.97,1569.86 797.95,576.3 1378.65,1207.47 1710.97,1940.28 355.84,784.68 511.53,1957.92 511.53,3510.14 0,2275.42 -291.62,4605.79 -881.95,6985 -573.84,2312.74 -1661.13,5175.02 -3263.19,8572.5 -2490.18,5280.9 -5861.88,9538.03 -10230.56,12611.8 -1524.65,1072.73 -3120.31,1769.18 -4639.02,2275.42 -1656.3,552.1 -3439.59,829.03 -5326.95,829.03 -4445,0 -7852.48,-1655.77 -10230.55,-4956.53 -2031.65,-2819.93 -3051.53,-6455.83 -3051.53,-10865.55 0,-1957.92 392.56,-4519.02 1234.72,-7690.56 815.91,-3072.67 1675.53,-5722.24 2592.92,-7955.14 952.38,-2318.06 1753.86,-4281.03 2469.44,-5838.47 184.54,-401.65 500.91,-975.31 881.95,-1746.25 377.49,-763.77 831.61,-1797.48 1446.39,-3016.25 391.19,-775.53 786.84,-1450 1111.25,-2063.75 328.26,-621.04 573.69,-1194.25 811.38,-1658.05 486.03,-948.36 900.88,-1384.92 1181.81,-1340.56 389.59,61.51 470.44,457.36 317.5,1181.81 -182.2,863.09 -403.61,1606.04 -670.28,2222.5 -2449.71,5662.98 -4178.5,9581.93 -5080,11835.69 -1638.64,4096.61 -2416.52,7267.22 -2416.52,9507.36 0,4250.97 1280.07,7303.63 3915.83,9101.67 1915.67,1306.81 4427.36,1905 7496.53,1905 5520.97,0 10132.72,-1542.62 13846.52,-4639.03 3183.02,-2653.87 4762.5,-5450.42 4762.5,-8378.47zm-2028.47 -15363.47c0,388.05 -157.06,638.46 -440.97,776.11 -298.2,144.58 -599.83,194.97 -934.86,158.75 -317.6,-34.33 -637,-119.76 -934.86,-282.22 -284.27,-155.05 -423.34,-370.42 -423.34,-652.64 1305.28,-1993.2 2197.46,-3671.72 2839.86,-4956.53 751.71,-1503.43 1181.81,-3245.55 1181.81,-5274.03l0 -4956.52c0,-1411.11 -28.44,-2558.12 0,-3404.31 42.14,-1253.63 138.06,-2390.53 476.25,-3369.03 986.63,-2854.67 1746.25,-4515.56 2010.83,-5062.36 264.58,-546.8 715.78,-1573.07 1358.2,-3051.52 645.23,-1484.91 1058.33,-2222.5 1234.72,-2222.5 105.83,0 176.39,70.55 211.67,211.66 70.55,105.84 148.17,442.48 105.83,1040.7l-423.33 5979.58 -211.67 9454.44c-22.49,1005.16 -319.11,2451.3 -934.86,4356.81 -689.52,2133.78 -1817.12,5019.27 -3668.89,8519.58l-1446.39 2734.03z"/>
 </g>
</svg>
