<?xml version="1.0" encoding="UTF-8"?>
<!DOCTYPE svg PUBLIC "-//W3C//DTD SVG 1.1//EN" "http://www.w3.org/Graphics/SVG/1.1/DTD/svg11.dtd">
<!-- Creator: CorelDRAW 2021.5 -->
<svg xmlns="http://www.w3.org/2000/svg" xml:space="preserve" width="1021.64mm" height="501.549mm" version="1.1" style="shape-rendering:geometricPrecision; text-rendering:geometricPrecision; image-rendering:optimizeQuality; fill-rule:evenodd; clip-rule:evenodd"
viewBox="0 0 102164.4 50154.9"
 xmlns:xlink="http://www.w3.org/1999/xlink"
 xmlns:xodm="http://www.corel.com/coreldraw/odm/2003">
 <defs>
  <style type="text/css">
   <![CDATA[
    .fil0 {fill:#D7ECE9;fill-rule:nonzero}
   ]]>
  </style>
 </defs>
 <g id="Layer_x0020_1">
  <metadata id="CorelCorpID_0Corel-Layer"/>
  <path class="fil0" d="M5666.36 22999.87c-1371.8,1945.83 -2052.82,3609.48 -2052.82,5020.2 0,622.66 106.99,1148.02 321.05,1556.62 223.74,408.64 428.08,612.94 612.91,612.94 194.58,0 467,-447.55 826.97,-1342.6 194.58,-476.72 311.33,-710.21 350.24,-710.21 379.45,0 749.14,311.33 1109.11,933.96 223.78,418.36 340.52,865.88 340.52,1342.6 0,1293.96 -408.6,2578.21 -1225.85,3852.7 -933.99,1517.74 -2004.18,2276.59 -3220.31,2276.59 -778.33,0 -1430.16,-359.97 -1955.51,-1079.9 -515.67,-729.7 -778.33,-1537.19 -778.33,-2422.55 0,-1449.63 486.44,-3142.48 1449.63,-5078.55 778.3,-1556.62 1887.4,-3288.39 3337.03,-5185.54 -778.3,-321.05 -1478.79,-836.69 -2091.74,-1556.66 -622.66,-710.22 -933.99,-1731.76 -933.99,-3064.65 0,-963.15 194.58,-2286.31 574.02,-3959.69 282.14,-1099.38 486.44,-1838.79 593.47,-2218.2 457.28,-1449.63 1118.86,-3142.48 1974.99,-5088.27 846.44,-1955.55 1420.43,-2928.46 1702.57,-2928.46 214.06,19.48 233.5,321.09 58.39,885.36 -321.05,972.91 -612.94,1916.59 -885.36,2850.59 -126.47,554.55 -301.58,1293.96 -525.35,2227.96 -214.03,924.24 -350.25,1906.87 -408.61,2928.42 -19.48,895.08 145.91,1663.66 505.91,2296.04 369.69,642.14 1196.66,1011.83 2480.9,1128.58 233.47,0 437.81,0 632.39,0 184.83,0 282.13,126.47 282.13,369.69 0,379.44 -87.55,817.24 -252.97,1293.96 -175.11,486.44 -573.99,1323.16 -1196.66,2500.34 -457.27,778.33 -904.8,1498.3 -1342.6,2159.85 -77.83,116.75 -175.14,252.97 -282.13,398.88zm29955.62 233.5c-340.53,4066.76 -1138.3,7705.4 -2393.34,10915.96 -836.69,2130.65 -1906.88,4125.11 -3220.32,5983.34 -3074.36,4164.03 -6771.36,6265.49 -11081.34,6304.41 -2247.4,-97.28 -4027.8,-836.69 -5331.49,-2208.49 -1313.4,-1381.52 -2004.18,-3298.15 -2082.01,-5749.85 -19.44,-3872.14 1255.05,-8084.8 3813.78,-12628.24 496.19,-904.8 788.05,-1196.69 885.33,-865.88 97.3,330.77 87.58,671.3 -29.17,1011.79 -1692.85,3346.78 -2549.01,6236.32 -2587.93,8668.55 87.56,1897.15 758.86,3317.62 2004.19,4261.3 1245.29,934 2850.59,1420.47 4806.13,1439.91 2471.18,0 4845.05,-661.58 7121.65,-1974.98 1692.81,-1138.3 3054.89,-2549.01 4076.44,-4241.86 1556.62,-2373.88 2257.12,-5642.83 2082.01,-9806.85 -19.47,-554.56 -77.83,-1099.35 -165.38,-1634.46 -97.31,-544.83 -155.67,-1089.66 -175.15,-1644.21 0,-583.75 165.39,-1011.8 486.44,-1284.21 321.09,-262.7 700.5,-359.97 1138.3,-282.14 797.81,359.97 1011.83,1605.26 651.86,3735.91zm-9291.21 4416.97c77.83,379.45 48.63,797.81 -87.56,1255.05 -126.47,457.28 -350.24,963.19 -651.86,1537.18 -282.13,554.56 -671.3,1060.47 -1167.46,1537.19 -321.05,301.61 -583.74,457.27 -768.61,457.27 -116.74,0 -379.41,-165.38 -788.05,-496.19 -408.6,-330.77 -778.29,-642.1 -1109.1,-914.52 -330.77,-272.41 -622.66,-525.35 -865.88,-758.85 -233.5,-223.78 -340.49,-418.36 -340.49,-564.31 739.37,-1634.46 1235.57,-2704.64 1507.98,-3191.08 282.14,-496.2 719.94,-1225.89 1313.41,-2198.77 340.53,282.14 758.85,622.67 1264.77,1011.8 505.91,389.16 895.08,758.89 1167.49,1099.38 272.42,340.53 447.52,749.13 525.36,1225.85zm8639.35 -8152.91c155.67,38.91 554.55,77.83 1216.13,116.75 651.83,38.91 1138.3,-48.64 1459.35,-262.67 330.78,-204.33 564.28,-505.91 719.94,-904.79 379.45,-1089.67 710.22,-1624.78 992.36,-1624.78 194.58,0 282.13,165.42 282.13,505.92 -9.72,194.58 -68.08,554.55 -165.39,1089.66 -97.27,525.35 -223.74,972.91 -369.68,1332.88 -116.75,398.89 -359.97,875.6 -739.42,1430.15 -515.63,758.86 -1128.54,1332.89 -1829.04,1712.3 -223.78,107.02 -418.36,233.49 -564.3,369.72 -155.67,126.47 -301.58,418.33 -428.05,856.16 -311.33,1177.18 -496.19,1965.23 -574.03,2364.15 -58.36,-593.47 -126.47,-1177.21 -214.02,-1770.68 -87.59,-583.75 -145.95,-1167.49 -175.14,-1751.24 -19.44,-583.75 -19.44,-1157.74 29.19,-1741.49 48.64,-574.03 175.11,-1148.02 359.97,-1722.04zm-2727.4 28400.86c0,116.75 272.41,398.92 836.68,856.17 564.24,457.24 969.08,802.2 1235.58,1031.27 288.08,247.64 505.91,369.72 661.58,369.72 603.18,0 1420.43,-1041.02 2451.7,-3113.28 418.36,311.33 902.38,732.11 1449.63,1284.21 552.1,556.93 934,826.96 1138.3,826.96 330.77,0 830.67,-483.84 1517.71,-1449.63 704.13,-989.72 1071.74,-1848.83 1050.74,-2568.45 -17.88,-613.88 -379.65,-1254.95 -1040.99,-1955.51 -652,-690.6 -1216.13,-1041.03 -1692.85,-1041.03 -155.66,0 -465.54,390.1 -924.27,1167.5 -465.48,788.91 -895.08,1488.55 -1274.49,2111.17 -321.05,-457.24 -792.83,-977.72 -1410.72,-1576.1 -617.68,-598.24 -1089.66,-836.68 -1410.71,-700.46 -165.39,0 -644.14,728.66 -1420.43,2189.01 -780.3,1468 -1167.46,2325.23 -1167.46,2568.45zm24987.39 -28916.5c-953.44,3385.7 -2013.9,5370.44 -3191.12,5963.91 -1653.93,797.77 -2665.76,1323.12 -3025.73,1595.54 -359.97,282.14 -593.47,496.19 -710.22,651.86 -379.41,535.08 -749.13,1216.13 -1109.1,2052.82 -632.38,1595.54 -1138.3,2821.39 -1517.71,3677.55 -622.66,1313.44 -1556.66,2237.68 -2792.23,2792.24 -583.75,223.77 -1362.08,428.08 -2334.95,603.18 -1002.11,204.34 -1790.16,311.34 -2364.15,311.34 -496.2,58.39 -807.53,-58.36 -943.72,-340.5 -38.92,-175.14 155.67,-408.64 573.99,-719.97 145.95,-106.99 671.3,-486.44 1566.38,-1138.3 97.28,-97.27 778.33,-535.07 2052.82,-1332.84 982.63,-671.31 1449.63,-982.64 1391.24,-943.72 1109.1,-875.64 1867.99,-1556.66 2286.32,-2052.82 136.22,-175.14 574.02,-1118.86 1342.6,-2850.62 778.33,-1731.77 1362.07,-2850.59 1760.96,-3366.23 398.89,-525.35 1031.27,-1070.18 1887.43,-1624.73 321.05,-165.43 875.61,-467 1673.38,-885.36 710.21,-340.5 1196.69,-632.39 1488.54,-875.61 262.7,-233.5 603.19,-729.69 1021.55,-1488.54 418.36,-739.42 710.22,-1099.39 885.36,-1079.91 175.11,58.36 194.58,408.61 58.36,1050.71zm-5477.44 -13221.71c0,-243.22 389.17,-1099.38 1167.5,-2568.45 788.05,-1459.35 1255.05,-2189.05 1430.15,-2189.05 321.06,-136.19 797.77,97.31 1410.72,690.78 612.91,603.19 1089.62,1128.54 1410.71,1585.82 379.41,-622.66 797.77,-1332.88 1264.77,-2111.18 467,-778.33 778.29,-1167.49 933.96,-1167.49 467,0 1041.02,350.25 1692.85,1040.99 651.86,690.78 1002.11,1342.6 1041.02,1955.54 0,719.94 -350.24,1576.1 -1060.46,2558.74 -681.02,972.91 -1186.94,1459.35 -1507.99,1459.35 -204.34,0 -583.75,-272.42 -1138.3,-826.97 -554.55,-554.55 -1031.27,-982.63 -1449.63,-1284.24 -1031.27,2072.29 -1848.51,3103.56 -2451.7,3103.56 -155.67,0 -369.73,-116.75 -661.58,-369.69 -262.7,-223.78 -681.02,-564.3 -1235.57,-1021.55 -564.31,-457.27 -846.45,-739.41 -846.45,-856.16zm16665.81 21257.88c0,817.24 -136.19,1741.52 -418.33,2753.31 -272.42,1021.55 -632.38,1936.07 -1070.22,2753.32 -681.02,1313.4 -1381.52,2305.79 -2101.46,2996.53 -729.65,681.02 -1537.18,1021.55 -2422.5,1021.55 -1410.72,0 -2111.21,-856.16 -2111.21,-2568.45 0,-583.75 97.3,-1216.13 282.13,-1877.71 243.22,-700.5 554.55,-1362.05 914.52,-1965.27 360,-612.91 661.58,-1128.54 914.56,-1546.9 -252.98,-68.11 -398.89,-116.75 -457.28,-136.19 -58.36,-19.48 -107.03,-29.2 -145.95,-29.2 -38.91,-155.66 87.59,-564.27 369.73,-1225.85l2023.62 -4592.11c194.58,-476.72 408.6,-710.22 661.58,-710.22 184.86,0 476.72,116.75 865.88,359.97 389.17,233.5 719.94,447.56 982.63,642.14 622.67,564.27 1070.19,1118.82 1323.13,1644.18 262.7,535.11 389.17,1362.08 389.17,2480.9zm-2763.04 4504.55c0,-544.83 -194.58,-992.38 -573.99,-1332.88 -194.58,-194.58 -457.28,-398.88 -817.25,-612.94 -350.25,-223.74 -632.38,-350.25 -865.88,-389.16 -165.39,0 -467,330.8 -895.08,1002.1 -428.08,661.58 -642.11,1225.86 -642.11,1683.13 0,846.41 515.64,1274.49 1537.19,1274.49 457.24,0 943.71,-165.38 1469.07,-496.19 525.36,-330.77 788.05,-710.22 788.05,-1128.55zm16617.17 -9748.49c-19.48,515.64 -214.06,1449.63 -583.75,2792.23 -369.69,1352.33 -856.16,2821.43 -1449.63,4426.69 -603.19,1595.58 -1128.55,2801.99 -1585.82,3619.2 -457.28,817.25 -953.44,1439.91 -1498.27,1867.99 -544.83,418.33 -1410.71,817.21 -2617.09,1167.46 -1206.41,350.25 -2179.32,583.75 -2908.98,710.22 -729.69,126.5 -1196.69,184.86 -1381.52,184.86 -194.58,-19.44 -311.33,-97.27 -340.53,-223.78 -38.91,-136.19 19.48,-311.33 165.39,-515.63 214.06,-321.05 739.41,-749.13 1585.85,-1274.49 846.41,-515.63 1829.04,-1177.22 2947.87,-1965.27 1118.85,-788.05 1916.63,-1478.79 2393.34,-2062.53 476.72,-593.47 1011.83,-1469.11 1615.02,-2656.05 593.47,-1177.21 1138.3,-2364.15 1624.74,-3560.8 476.72,-1196.66 826.96,-2013.9 1041.02,-2451.71 204.3,-437.8 428.08,-642.1 681.02,-622.66 204.31,38.92 311.34,223.78 311.34,564.27zm-2354.43 -12112.61c0,-418.36 350.24,-1323.16 1070.18,-2724.11 710.22,-1401 1167.5,-2091.74 1381.52,-2091.74 418.36,-175.14 1021.55,145.95 1819.32,953.44 797.8,807.52 1225.89,1439.91 1284.24,1897.15 0,603.19 -330.77,1478.83 -992.35,2617.12 -671.3,1138.27 -1157.74,1712.29 -1459.35,1712.29 -116.75,-58.35 -505.92,-311.33 -1177.22,-758.85 -681.02,-447.56 -1177.21,-778.33 -1498.26,-1011.83 -282.14,-184.86 -428.08,-389.16 -428.08,-593.47zm8366.97 15965.31c-58.39,2296.04 379.41,3765.14 1303.68,4387.77 515.64,340.53 1031.27,457.28 1537.19,340.53 515.63,-107.03 914.52,-379.44 1186.93,-797.77 272.42,-418.36 505.92,-904.8 700.5,-1469.07 184.83,-554.59 369.69,-836.72 535.08,-836.72 214.05,0 301.61,194.58 262.69,593.46 -19.47,690.78 -233.5,1799.88 -642.1,3337.07 -408.64,1537.18 -963.2,2801.95 -1663.69,3794.3 -710.22,982.63 -1566.35,1508.02 -2568.46,1566.38 -1031.26,-38.91 -1829.04,-622.66 -2393.34,-1741.48 -515.64,-1099.39 -749.14,-2529.54 -710.22,-4271.06 29.2,-1274.49 214.06,-3317.59 525.39,-6129.26 311.33,-2811.67 719.94,-5827.68 1235.57,-9038.24 301.61,-924.28 924.28,-2568.49 1858.24,-4932.61 87.55,-223.77 194.58,-321.08 291.89,-282.17 106.99,38.92 155.67,136.23 155.67,282.17 -48.68,1167.46 -291.89,3375.95 -710.22,6644.9 -418.36,3268.95 -719.97,6119.54 -904.8,8551.8zm3531.61 -16675.52c0,-243.22 389.16,-1099.38 1167.49,-2568.46 778.33,-1459.35 1255.05,-2189.04 1420.44,-2189.04 330.77,-136.19 797.77,97.31 1410.71,700.5 622.63,593.46 1089.63,1118.82 1410.68,1576.1 379.45,-622.67 807.53,-1332.88 1274.53,-2111.21 466.99,-778.3 768.57,-1167.46 924.24,-1167.46 476.71,0 1041.02,350.25 1692.85,1040.99 661.58,690.77 1002.1,1342.6 1041.02,1955.54 0,719.94 -350.25,1576.1 -1050.75,2568.45 -681.02,963.16 -1186.93,1449.64 -1507.98,1449.64 -214.06,0 -593.47,-272.42 -1148.02,-826.97 -544.83,-554.55 -1031.31,-982.63 -1449.63,-1284.25 -1021.55,2072.3 -1838.8,3113.29 -2451.71,3113.29 -155.66,0 -369.72,-126.47 -651.86,-379.41 -272.41,-223.78 -681.02,-564.31 -1245.32,-1021.55 -554.55,-457.28 -836.69,-739.41 -836.69,-856.16z"/>
 </g>
</svg>
