<?xml version="1.0" encoding="UTF-8"?>
<!DOCTYPE svg PUBLIC "-//W3C//DTD SVG 1.1//EN" "http://www.w3.org/Graphics/SVG/1.1/DTD/svg11.dtd">
<!-- Creator: CorelDRAW 2021.5 -->
<svg xmlns="http://www.w3.org/2000/svg" xml:space="preserve" width="482.136mm" height="419.04mm" version="1.1" style="shape-rendering:geometricPrecision; text-rendering:geometricPrecision; image-rendering:optimizeQuality; fill-rule:evenodd; clip-rule:evenodd"
viewBox="0 0 48213.6 41904"
 xmlns:xlink="http://www.w3.org/1999/xlink"
 xmlns:xodm="http://www.corel.com/coreldraw/odm/2003">
 <defs>
  <style type="text/css">
   <![CDATA[
    .fil0 {fill:#FCEB0A}
   ]]>
  </style>
 </defs>
 <g id="Layer_x0020_1">
  <metadata id="CorelCorpID_0Corel-Layer"/>
  <path class="fil0" d="M17597.62 39368.27c-593.39,-99.24 -1060.86,-462.11 -1307.68,-1010.21l-5138.87 -11412.27 -10155.09 -4845.24c-638.87,-304.83 -1016.29,-919.39 -999.21,-1627.03 17.09,-707.62 423.72,-1303.3 1076.53,-1576.93l44697.73 -18735.25c650.75,-272.75 1357.86,-146.88 1874.49,333.63 516.68,480.55 693.37,1176.68 468.39,1845.46l-12911.09 38382.53c-186.38,554.08 -591.7,948.32 -1150.74,1119.24 -559.05,170.95 -1115.57,70.8 -1579.93,-284.3l-9141.47 -6990.51 -4181.83 4294.68c-415.24,426.45 -965.48,605.87 -1551.23,506.2zm235.34 -5924.88l-357.54 -4409.13c35.93,-387.62 197.73,-736.21 480.28,-1031.42l6974.53 -7287.33 -10179.47 5671.81 3082.2 7056.07zm14823.68 3834.96l10891.13 -32377.55 -37501.12 15718.75 6378.81 3043.51 18827.63 -9141.27c1760.65,-980.9 2529.81,-164.74 1159.46,1267.1l-10563.65 13224.8c3602.59,2754.89 7205.15,5509.78 10807.74,8264.66z"/>
 </g>
</svg>
