<?xml version="1.0" encoding="UTF-8"?>
<!DOCTYPE svg PUBLIC "-//W3C//DTD SVG 1.1//EN" "http://www.w3.org/Graphics/SVG/1.1/DTD/svg11.dtd">
<!-- Creator: CorelDRAW 2021.5 -->
<svg xmlns="http://www.w3.org/2000/svg" xml:space="preserve" width="820.289mm" height="818.411mm" version="1.1" style="shape-rendering:geometricPrecision; text-rendering:geometricPrecision; image-rendering:optimizeQuality; fill-rule:evenodd; clip-rule:evenodd"
viewBox="0 0 82028.9 81841.08"
 xmlns:xlink="http://www.w3.org/1999/xlink"
 xmlns:xodm="http://www.corel.com/coreldraw/odm/2003">
 <defs>
  <style type="text/css">
   <![CDATA[
    .fil0 {fill:#FCEB0A}
   ]]>
  </style>
 </defs>
 <g id="Layer_x0020_1">
  <metadata id="CorelCorpID_0Corel-Layer"/>
  <path class="fil0" d="M30977.35 51044.49c4001.52,4000.49 8716.13,7113.24 14233.73,9440.58 2995.97,1262.88 6126.3,1456.13 8979.66,126.08 1736.2,-809.19 3115.86,-2242.59 4552.35,-3794.84 1761,-1900.51 2129.95,-3794.83 442.32,-5122.82 -2455.48,-1930.48 -5246.83,-3397.99 -7967.91,-4931.63 -943.54,-532.22 -2121.68,-433.01 -3288.45,758.56 -669.67,685.17 -1196.73,1498.5 -1834.37,2213.65 -1239.11,1392.06 -2537.13,1279.41 -3792.77,632.47 -2439.98,-1253.57 -4164.81,-2591.89 -6109.77,-4535.82 -1943.92,-1944.95 -3282.24,-3669.78 -4535.82,-6108.73 -645.9,-1256.68 -759.58,-2554.69 632.48,-3794.84 715.14,-637.63 1527.44,-1164.7 2213.65,-1834.37 1191.57,-1166.77 1290.78,-2343.87 757.52,-3287.41 -1533.64,-2722.11 -3001.14,-5513.47 -4931.63,-7968.95 -1326.95,-1687.62 -3222.3,-1317.65 -5121.79,442.32 -1553.28,1437.53 -2986.67,2818.22 -3794.83,4554.42 -1330.06,2853.36 -1137.83,5982.65 126.08,8979.66 2326.3,5516.57 5439.05,10232.21 9439.55,14231.67zm-20830.26 20830.25c9403.38,-3812.4 12317.71,-4090.4 14762.86,-2686.98 12443.79,7138.06 28594.58,5392.56 39226.73,-5237.53 12719.72,-12721.79 12719.72,-33343.28 0,-46065.08 -12720.76,-12719.72 -33343.29,-12719.72 -46063.01,0 -10632.15,10632.16 -12376.62,26782.94 -5238.57,39227.77 1403.43,2446.18 1125.43,5358.44 -2688.01,14761.82zm11282.2 4930.6c15902.75,8732.66 35739.86,5916.51 48609.43,-6954.1 15978.2,-15977.16 15978.2,-41889.93 0,-57867.09 -15977.16,-15978.2 -41890.96,-15978.2 -57868.13,0 -12870.61,12869.57 -15685.73,32706.68 -6954.1,48610.46 -876.36,5732.56 -2818.22,15317.83 -5223.06,21246.74 5929.95,-2404.84 15702.27,-4158.61 21435.86,-5036.01z"/>
 </g>
</svg>
