<?xml version="1.0" encoding="UTF-8"?>
<!DOCTYPE svg PUBLIC "-//W3C//DTD SVG 1.1//EN" "http://www.w3.org/Graphics/SVG/1.1/DTD/svg11.dtd">
<!-- Creator: CorelDRAW 2021.5 -->
<svg xmlns="http://www.w3.org/2000/svg" xml:space="preserve" width="759.108mm" height="815.589mm" version="1.1" style="shape-rendering:geometricPrecision; text-rendering:geometricPrecision; image-rendering:optimizeQuality; fill-rule:evenodd; clip-rule:evenodd"
viewBox="0 0 75910.78 81558.9"
 xmlns:xlink="http://www.w3.org/1999/xlink"
 xmlns:xodm="http://www.corel.com/coreldraw/odm/2003">
 <defs>
  <style type="text/css">
   <![CDATA[
    .fil0 {fill:#8B8624}
    .fil2 {fill:#D3C807}
    .fil1 {fill:#E8DE02}
    .fil3 {fill:#F9EA3A}
   ]]>
  </style>
 </defs>
 <g id="Layer_x0020_1">
  <metadata id="CorelCorpID_0Corel-Layer"/>
  <g id="_1761126703552">
   <path class="fil0" d="M19196.96 5358.1c-43.37,178.31 -112.07,350.96 -205.2,512.02 -27.88,12.81 -55.54,26.27 -82.95,40.5l-38.03 -49.11c136.67,-152.02 245.66,-322.32 326.18,-503.41zm3769.7 4869.38c-43.37,178.33 -112.06,350.97 -205.21,512.06 -27.88,12.81 -55.55,26.27 -82.96,40.5l-38.02 -49.11c136.67,-152.03 245.66,-322.34 326.19,-503.45zm3769.68 4869.41c-43.37,178.33 -112.05,350.99 -205.21,512.07 -27.87,12.81 -55.55,26.27 -82.96,40.51l-38.02 -49.12c136.68,-152.03 245.67,-322.34 326.19,-503.46zm3769.67 4869.46c-43.38,178.33 -112.08,350.97 -205.23,512.05 -27.87,12.81 -55.53,26.27 -82.93,40.5l-38.03 -49.12c136.68,-152.03 245.66,-322.32 326.19,-503.43zm3769.68 4869.45c-43.37,178.32 -112.07,350.96 -205.21,512.03 -27.87,12.8 -55.54,26.26 -82.95,40.49l-38.02 -49.11c136.67,-152.02 245.66,-322.32 326.18,-503.41zm3769.69 4869.39c-43.36,178.32 -112.06,350.97 -205.21,512.05 -27.88,12.82 -55.54,26.27 -82.95,40.5l-38.02 -49.11c136.67,-152.03 245.66,-322.34 326.18,-503.44zm3769.69 4869.4c-43.37,178.33 -112.06,350.99 -205.21,512.07 -27.87,12.81 -55.56,26.28 -82.97,40.51l-38.02 -49.11c136.69,-152.04 245.67,-322.35 326.2,-503.47zm3769.66 4869.46c-43.37,178.33 -112.07,350.97 -205.22,512.06 -27.87,12.81 -55.53,26.27 -82.94,40.49l-38.02 -49.12c136.67,-152.02 245.66,-322.32 326.18,-503.43zm3769.68 4869.45c-43.37,178.32 -112.06,350.97 -205.2,512.03 -27.87,12.81 -55.54,26.26 -82.95,40.49l-38.02 -49.11c136.67,-152.02 245.65,-322.31 326.17,-503.41zm3769.7 4869.39c-43.36,178.32 -112.06,350.97 -205.21,512.05 -27.88,12.82 -55.55,26.27 -82.96,40.51l-38.02 -49.12c136.68,-152.02 245.67,-322.33 326.19,-503.44zm3769.69 4869.4c-43.38,178.33 -112.06,351 -205.21,512.07 -27.88,12.81 -55.56,26.28 -82.97,40.51l-38.02 -49.11c136.68,-152.03 245.67,-322.34 326.2,-503.47zm3769.66 4869.47c-43.37,178.33 -112.08,350.97 -205.22,512.05 -27.88,12.81 -55.54,26.27 -82.94,40.5l-38.03 -49.12c136.68,-152.03 245.67,-322.33 326.19,-503.43zm3769.68 4869.45c-43.37,178.31 -112.07,350.96 -205.2,512.02 -27.88,12.81 -55.54,26.26 -82.95,40.5l-38.02 -49.12c136.66,-152.02 245.65,-322.31 326.17,-503.4zm3769.7 4869.38c-43.37,178.32 -112.06,350.97 -205.21,512.06 -27.88,12.81 -55.55,26.26 -82.96,40.5l-38.02 -49.12c136.67,-152.02 245.66,-322.33 326.19,-503.44zm3769.68 4869.41c-43.37,178.33 -112.05,350.99 -205.21,512.07 -27.87,12.8 -55.55,26.27 -82.96,40.5l-38.02 -49.11c136.68,-152.03 245.67,-322.34 326.19,-503.46zm3769.64 4869.63c-99.92,410.71 -333.84,791.53 -692.68,1069.33 -841.64,651.54 -2059.87,496.48 -2711.41,-345.16l-1403.44 -1812.9c-450.01,-581.29 -515.12,-1342.17 -235.1,-1971.97 -134.39,552.53 -26.16,1159.13 347.56,1641.87l1403.44 1812.89c651.54,841.65 1869.77,996.7 2711.41,345.16 260.29,-201.5 454.82,-457.23 580.22,-739.22zm-4837.42 -3572.75c-798.23,366.84 -1776.49,150.7 -2336.35,-572.51l-1403.43 -1812.9c-450.02,-581.29 -515.13,-1342.17 -235.1,-1971.97 -134.39,552.53 -26.17,1159.13 347.56,1641.87l1403.43 1812.89c579.41,748.47 1606.99,953.91 2419.32,532l38.02 49.12c-89.87,99.97 -167.73,207.86 -233.45,321.5zm-3769.68 -4869.42c-798.22,366.85 -1776.49,150.69 -2336.35,-572.51l-1403.45 -1812.89c-450,-581.29 -515.11,-1342.17 -235.09,-1971.98 -134.38,552.54 -26.15,1159.14 347.56,1641.88l1403.44 1812.88c579.42,748.47 1606.99,953.92 2419.33,532l38.02 49.11c-89.88,99.97 -167.74,207.87 -233.46,321.51zm-3769.68 -4869.42c-798.24,366.86 -1776.49,150.69 -2336.36,-572.51l-1403.43 -1812.88c-450.01,-581.3 -515.12,-1342.18 -235.1,-1971.99 -134.39,552.54 -26.16,1159.14 347.56,1641.88l1403.43 1812.88c579.42,748.47 1606.99,953.91 2419.33,532l38.02 49.11c-89.87,99.97 -167.74,207.86 -233.45,321.51zm-3769.69 -4869.42c-798.23,366.86 -1776.49,150.69 -2336.35,-572.53l-1403.43 -1812.89c-450.02,-581.29 -515.13,-1342.18 -235.1,-1971.97 -134.4,552.52 -26.17,1159.13 347.56,1641.86l1403.43 1812.9c579.42,748.48 1606.99,953.92 2419.33,532.01l38.02 49.11c-89.87,99.97 -167.74,207.86 -233.46,321.51zm-3769.67 -4869.45c-798.23,366.85 -1776.5,150.71 -2336.36,-572.5l-1403.43 -1812.9c-450.02,-581.29 -515.13,-1342.17 -235.1,-1971.97 -134.39,552.53 -26.16,1159.13 347.56,1641.87l1403.43 1812.89c579.42,748.47 1606.99,953.91 2419.33,532l38.02 49.11c-89.88,99.98 -167.73,207.86 -233.45,321.5zm-3769.69 -4869.42c-798.22,366.86 -1776.49,150.7 -2336.35,-572.5l-1403.44 -1812.89c-450.01,-581.29 -515.11,-1342.17 -235.09,-1971.98 -134.39,552.53 -26.16,1159.14 347.55,1641.87l1403.44 1812.89c579.42,748.46 1607,953.92 2419.33,531.99l38.02 49.12c-89.87,99.97 -167.74,207.86 -233.46,321.5zm-3769.68 -4869.42c-798.23,366.87 -1776.49,150.7 -2336.36,-572.51l-1403.43 -1812.88c-450.01,-581.29 -515.12,-1342.18 -235.1,-1971.98 -134.38,552.53 -26.15,1159.14 347.56,1641.88l1403.44 1812.88c579.42,748.46 1606.98,953.91 2419.33,531.99l38.02 49.12c-89.88,99.97 -167.74,207.86 -233.46,321.5zm-3769.68 -4869.42c-798.24,366.86 -1776.49,150.7 -2336.36,-572.52l-1403.43 -1812.9c-450.02,-581.29 -515.13,-1342.17 -235.1,-1971.96 -134.39,552.52 -26.16,1159.12 347.56,1641.86l1403.43 1812.9c579.42,748.47 1606.99,953.92 2419.33,532l38.02 49.12c-89.87,99.97 -167.74,207.86 -233.45,321.5zm-3769.68 -4869.44c-798.23,366.85 -1776.5,150.7 -2336.35,-572.51l-1403.44 -1812.89c-450.01,-581.29 -515.12,-1342.18 -235.09,-1971.97 -134.4,552.52 -26.17,1159.13 347.55,1641.86l1403.44 1812.9c579.41,748.47 1606.99,953.91 2419.32,532l38.02 49.11c-89.87,99.97 -167.73,207.86 -233.45,321.5zm-3769.68 -4869.42c-798.23,366.86 -1776.49,150.7 -2336.36,-572.51l-1403.44 -1812.89c-450,-581.29 -515.11,-1342.17 -235.09,-1971.97 -134.39,552.53 -26.16,1159.13 347.55,1641.87l1403.44 1812.89c579.42,748.46 1607,953.92 2419.33,531.99l38.02 49.11c-89.87,99.98 -167.73,207.87 -233.45,321.51zm-3769.69 -4869.42c-798.23,366.86 -1776.49,150.7 -2336.35,-572.51l-1403.44 -1812.88c-450.01,-581.3 -515.12,-1342.18 -235.09,-1971.98 -134.39,552.53 -26.16,1159.13 347.55,1641.88l1403.44 1812.88c579.42,748.46 1606.99,953.91 2419.33,531.99l38.02 49.11c-89.87,99.98 -167.74,207.87 -233.46,321.51zm-3769.68 -4869.42c-798.23,366.86 -1776.49,150.7 -2336.35,-572.52l-1403.44 -1812.9c-450.01,-581.29 -515.12,-1342.17 -235.1,-1971.97 -134.39,552.53 -26.16,1159.13 347.56,1641.87l1403.44 1812.89c579.42,748.48 1606.98,953.93 2419.32,532.01l38.03 49.11c-89.88,99.98 -167.74,207.87 -233.46,321.51zm-3769.68 -4869.44c-798.23,366.85 -1776.49,150.7 -2336.35,-572.51l-1403.43 -1812.9c-450.02,-581.29 -515.13,-1342.17 -235.1,-1971.96 -134.39,552.52 -26.17,1159.12 347.56,1641.86l1403.43 1812.9c579.41,748.47 1606.99,953.91 2419.32,532l38.02 49.11c-89.87,99.97 -167.73,207.86 -233.45,321.5zm-3769.68 -4869.42c-798.22,366.85 -1776.49,150.69 -2336.35,-572.51l-1403.45 -1812.89c-450,-581.29 -515.11,-1342.17 -235.09,-1971.97 -134.38,552.53 -26.15,1159.13 347.56,1641.87l1403.44 1812.89c579.42,748.46 1606.99,953.91 2419.33,531.99l38.02 49.11c-89.88,99.97 -167.74,207.87 -233.46,321.51zm-3769.68 -4869.42c-798.24,366.86 -1776.49,150.69 -2336.36,-572.51l-1403.43 -1812.88c-450.05,-581.35 -515.15,-1342.34 -235.06,-1972.18 -134.45,552.58 -26.24,1159.28 347.52,1642.07l1403.43 1812.89c579.42,748.46 1606.99,953.9 2419.33,531.99l38.02 49.11c-89.87,99.97 -167.74,207.87 -233.45,321.51zm53185.79 66650.03c64.61,-338.37 -10,-701.87 -236.19,-994.02l-1403.42 -1812.89c-276.07,-356.59 -711.57,-521.2 -1131.12,-471.63l-195.68 -252.77c500.58,-197.13 1094.36,-51.21 1439.26,394.3l1403.43 1812.89c302.47,390.69 333.88,908.98 123.72,1324.12zm-2178.49 -1979.63c24.98,124.73 -19.87,259.06 -126.8,341.84 -150.19,116.28 -368.2,88.52 -484.47,-61.66l-835.26 -1078.95c-38.9,53.54 -73.1,109.76 -102.58,167.99 33.92,-177.61 106.19,-348.29 215.04,-498.09l835.26 1078.94c116.27,150.19 334.28,177.94 484.48,61.67 4.91,-3.8 9.68,-7.72 14.33,-11.74zm1221.62 2647.77l-639.59 -826.19c-112.46,-145.27 -90.16,-354 47.35,-472.72 10.1,50.46 31.62,99.36 65.12,142.62l835.26 1078.95c-99.91,39.34 -203.53,64.97 -308.14,77.34zm2548.06 2221.66c24.97,124.73 -19.87,259.06 -126.8,341.84 -150.19,116.27 -368.21,88.52 -484.47,-61.67l-835.26 -1078.94c-38.91,53.54 -73.11,109.76 -102.59,167.98 33.92,-177.61 106.19,-348.28 215.05,-498.09l835.26 1078.95c116.27,150.19 334.28,177.94 484.47,61.67 4.91,-3.81 9.68,-7.73 14.34,-11.74zm2178.41 1979.81c64.67,-338.43 -9.89,-702 -236.1,-994.21l-1403.44 -1812.88c-276.07,-356.6 -711.58,-521.19 -1131.11,-471.63l-195.68 -252.77c500.56,-197.12 1094.35,-51.22 1439.26,394.3l1403.43 1812.88c302.51,390.76 333.87,909.13 123.64,1324.31zm-7539.28 -9739.01c64.62,-338.38 -9.99,-701.87 -236.18,-994.05l-1403.44 -1812.88c-276.05,-356.59 -711.57,-521.21 -1131.11,-471.63l-195.68 -252.77c500.57,-197.13 1094.36,-51.22 1439.25,394.3l1403.44 1812.88c302.47,390.72 333.88,908.99 123.72,1324.15zm-2178.49 -1979.65c24.97,124.73 -19.87,259.06 -126.8,341.84 -150.19,116.28 -368.21,88.52 -484.47,-61.66l-835.26 -1078.95c-38.91,53.54 -73.11,109.76 -102.59,167.99 33.92,-177.61 106.19,-348.29 215.05,-498.09l835.26 1078.94c116.27,150.19 334.28,177.94 484.47,61.67 4.91,-3.8 9.68,-7.72 14.34,-11.74zm1221.63 2647.76l-639.59 -826.18c-112.46,-145.27 -90.16,-354.01 47.34,-472.73 10.1,50.46 31.63,99.36 65.12,142.62l835.26 1078.95c-99.9,39.34 -203.53,64.98 -308.13,77.34zm-2812.84 -5537.51c64.62,-338.39 -9.98,-701.89 -236.17,-994.07l-1403.43 -1812.88c-276.06,-356.6 -711.57,-521.2 -1131.12,-471.63l-195.67 -252.77c500.57,-197.12 1094.36,-51.22 1439.25,394.3l1403.44 1812.88c302.47,390.72 333.86,909.01 123.7,1324.17zm-2178.48 -1979.67c24.98,124.73 -19.86,259.06 -126.79,341.84 -150.2,116.27 -368.21,88.52 -484.48,-61.66l-835.25 -1078.94c-38.91,53.54 -73.1,109.76 -102.58,167.98 33.91,-177.59 106.19,-348.28 215.04,-498.09l835.26 1078.94c116.26,150.19 334.27,177.94 484.47,61.67 4.91,-3.8 9.68,-7.72 14.33,-11.74zm1221.63 2647.76l-639.59 -826.18c-112.46,-145.28 -90.16,-354.01 47.35,-472.73 10.1,50.46 31.62,99.36 65.12,142.62l835.26 1078.95c-99.91,39.34 -203.53,64.97 -308.14,77.34zm-2812.83 -5537.57c64.62,-338.37 -9.99,-701.86 -236.17,-994.02l-1403.43 -1812.88c-276.08,-356.6 -711.59,-521.2 -1131.11,-471.63l-195.69 -252.77c500.56,-197.13 1094.35,-51.22 1439.26,394.29l1403.43 1812.88c302.46,390.71 333.86,908.97 123.71,1324.13zm-2178.48 -1979.63c24.98,124.74 -19.87,259.07 -126.8,341.85 -150.19,116.27 -368.2,88.52 -484.47,-61.67l-835.26 -1078.95c-38.9,53.55 -73.1,109.76 -102.58,167.99 33.92,-177.61 106.19,-348.29 215.04,-498.09l835.26 1078.95c116.27,150.18 334.28,177.94 484.47,61.66 4.92,-3.8 9.69,-7.72 14.34,-11.74zm1221.62 2647.77l-639.58 -826.17c-112.46,-145.28 -90.16,-354.01 47.35,-472.73 10.09,50.46 31.62,99.36 65.11,142.62l835.26 1078.94c-99.91,39.34 -203.53,64.98 -308.14,77.34zm-2812.81 -5537.56c64.62,-338.38 -10,-701.87 -236.18,-994.02l-1403.43 -1812.89c-276.07,-356.59 -711.57,-521.2 -1131.12,-471.64l-195.67 -252.76c500.57,-197.14 1094.35,-51.21 1439.25,394.3l1403.43 1812.88c302.47,390.7 333.88,908.98 123.72,1324.13zm-2178.49 -1979.63c24.98,124.73 -19.86,259.06 -126.79,341.84 -150.2,116.27 -368.21,88.52 -484.47,-61.67l-835.27 -1078.94c-38.9,53.54 -73.1,109.76 -102.58,167.98 33.92,-177.61 106.19,-348.28 215.04,-498.09l835.27 1078.95c116.26,150.19 334.28,177.94 484.47,61.67 4.91,-3.81 9.68,-7.73 14.33,-11.74zm1221.62 2647.77l-639.58 -826.19c-112.46,-145.27 -90.16,-354 47.34,-472.73 10.1,50.47 31.63,99.36 65.12,142.63l835.26 1078.94c-99.9,39.35 -203.53,64.98 -308.14,77.35zm-2812.81 -5537.54c64.63,-338.38 -9.99,-701.87 -236.18,-994.05l-1403.43 -1812.88c-276.06,-356.6 -711.58,-521.21 -1131.12,-471.64l-195.68 -252.76c500.57,-197.13 1094.36,-51.22 1439.26,394.3l1403.43 1812.88c302.48,390.72 333.88,908.99 123.72,1324.15zm-2178.49 -1979.65c24.98,124.73 -19.87,259.06 -126.8,341.84 -150.19,116.27 -368.2,88.52 -484.47,-61.67l-835.26 -1078.94c-38.9,53.54 -73.1,109.76 -102.58,167.98 33.91,-177.6 106.19,-348.28 215.04,-498.09l835.26 1078.95c116.27,150.18 334.28,177.94 484.47,61.67 4.92,-3.81 9.69,-7.73 14.34,-11.74zm1221.63 2647.76l-639.59 -826.19c-112.46,-145.27 -90.16,-354 47.35,-472.72 10.1,50.46 31.62,99.36 65.11,142.62l835.27 1078.95c-99.91,39.34 -203.53,64.97 -308.14,77.34zm-2812.84 -5537.52c64.62,-338.38 -9.98,-701.88 -236.16,-994.06l-1403.44 -1812.88c-276.06,-356.6 -711.57,-521.21 -1131.12,-471.64l-195.67 -252.76c500.57,-197.12 1094.36,-51.22 1439.25,394.3l1403.44 1812.88c302.47,390.72 333.87,909.01 123.7,1324.16zm-2178.47 -1979.66c24.97,124.73 -19.87,259.06 -126.8,341.84 -150.19,116.27 -368.21,88.52 -484.47,-61.67l-835.26 -1078.94c-38.9,53.55 -73.1,109.76 -102.58,167.99 33.92,-177.59 106.19,-348.28 215.04,-498.09l835.26 1078.94c116.26,150.18 334.28,177.94 484.47,61.67 4.91,-3.81 9.68,-7.73 14.34,-11.74zm1221.62 2647.76l-639.58 -826.19c-112.46,-145.27 -90.16,-354 47.34,-472.72 10.1,50.46 31.63,99.36 65.12,142.62l835.26 1078.95c-99.9,39.34 -203.53,64.97 -308.14,77.34zm-2812.83 -5537.58c64.63,-338.36 -9.99,-701.86 -236.16,-994.02l-1403.44 -1812.88c-276.07,-356.6 -711.59,-521.19 -1131.11,-471.62l-195.68 -252.77c500.56,-197.13 1094.34,-51.23 1439.25,394.29l1403.44 1812.88c302.46,390.7 333.85,908.97 123.7,1324.12zm-2178.48 -1979.62c24.98,124.73 -19.86,259.07 -126.79,341.85 -150.2,116.27 -368.21,88.51 -484.47,-61.67l-835.27 -1078.95c-38.9,53.54 -73.1,109.76 -102.58,167.99 33.92,-177.61 106.19,-348.29 215.04,-498.09l835.27 1078.94c116.26,150.19 334.27,177.94 484.47,61.67 4.91,-3.8 9.68,-7.72 14.33,-11.74zm1221.62 2647.77l-639.58 -826.18c-112.46,-145.27 -90.16,-354 47.35,-472.72 10.1,50.46 31.62,99.36 65.11,142.62l835.26 1078.94c-99.91,39.34 -203.53,64.97 -308.14,77.34zm-2812.81 -5537.56c64.62,-338.38 -10,-701.87 -236.18,-994.03l-1403.43 -1812.88c-276.06,-356.59 -711.57,-521.21 -1131.11,-471.64l-195.68 -252.76c500.58,-197.14 1094.35,-51.22 1439.26,394.29l1403.42 1812.89c302.47,390.7 333.88,908.98 123.72,1324.13zm-2178.48 -1979.64c24.97,124.74 -19.87,259.07 -126.8,341.85 -150.19,116.27 -368.21,88.52 -484.47,-61.67l-835.26 -1078.95c-38.91,53.55 -73.1,109.76 -102.59,167.99 33.92,-177.61 106.19,-348.28 215.05,-498.09l835.26 1078.95c116.27,150.18 334.28,177.94 484.47,61.66 4.91,-3.8 9.68,-7.72 14.34,-11.74zm1221.62 2647.77l-639.59 -826.18c-112.46,-145.27 -90.16,-354.01 47.35,-472.73 10.1,50.46 31.62,99.36 65.11,142.62l835.27 1078.95c-99.91,39.34 -203.54,64.98 -308.14,77.34zm-2812.82 -5537.53c64.63,-338.38 -9.99,-701.88 -236.17,-994.05l-1403.44 -1812.88c-276.06,-356.6 -711.58,-521.22 -1131.12,-471.64l-195.67 -252.76c500.57,-197.13 1094.36,-51.22 1439.25,394.29l1403.44 1812.88c302.47,390.72 333.87,909 123.71,1324.16zm-2178.49 -1979.66c24.98,124.74 -19.86,259.07 -126.79,341.85 -150.2,116.27 -368.21,88.52 -484.47,-61.67l-835.27 -1078.95c-38.9,53.55 -73.1,109.76 -102.58,167.99 33.91,-177.6 106.19,-348.29 215.04,-498.09l835.27 1078.95c116.26,150.18 334.27,177.94 484.47,61.66 4.91,-3.8 9.68,-7.72 14.33,-11.74zm1221.63 2647.77l-639.58 -826.19c-112.47,-145.27 -90.16,-354 47.34,-472.73 10.1,50.47 31.62,99.37 65.12,142.63l835.26 1078.94c-99.91,39.35 -203.53,64.98 -308.14,77.35zm-2812.84 -5537.52c64.63,-338.38 -9.97,-701.89 -236.16,-994.06l-1403.43 -1812.88c-276.06,-356.6 -711.58,-521.21 -1131.12,-471.64l-195.68 -252.76c500.58,-197.12 1094.36,-51.22 1439.26,394.29l1403.43 1812.88c302.48,390.72 333.87,909.02 123.7,1324.17zm-2178.47 -1979.67c24.98,124.74 -19.87,259.07 -126.8,341.85 -150.19,116.27 -368.2,88.52 -484.47,-61.67l-835.26 -1078.94c-38.9,53.54 -73.1,109.76 -102.58,167.99 33.92,-177.6 106.19,-348.29 215.05,-498.09l835.25 1078.94c116.27,150.18 334.28,177.94 484.47,61.66 4.92,-3.8 9.69,-7.72 14.34,-11.74zm1221.63 2647.76l-639.59 -826.18c-112.46,-145.27 -90.16,-354 47.35,-472.73 10.1,50.47 31.62,99.36 65.11,142.63l835.27 1078.94c-99.91,39.35 -203.54,64.98 -308.14,77.34zm-2812.83 -5537.57c64.62,-338.37 -10,-701.86 -236.17,-994.02l-1403.44 -1812.88c-276.07,-356.6 -711.58,-521.19 -1131.11,-471.63l-195.68 -252.77c500.56,-197.12 1094.35,-51.22 1439.25,394.3l1403.44 1812.88c302.46,390.7 333.86,908.97 123.71,1324.12zm-2178.48 -1979.62c24.97,124.73 -19.87,259.06 -126.8,341.84 -150.19,116.27 -368.21,88.52 -484.47,-61.66l-835.26 -1078.95c-38.91,53.54 -73.11,109.76 -102.59,167.98 33.92,-177.61 106.19,-348.28 215.05,-498.09l835.26 1078.95c116.27,150.19 334.28,177.94 484.47,61.67 4.91,-3.8 9.68,-7.72 14.34,-11.74zm1221.62 2647.77l-639.58 -826.18c-112.47,-145.27 -90.16,-354 47.34,-472.73 10.1,50.47 31.63,99.36 65.12,142.63l835.25 1078.94c-99.9,39.34 -203.53,64.97 -308.13,77.34zm-2812.81 -5537.57c64.61,-338.37 -10,-701.87 -236.19,-994.02l-1403.42 -1812.89c-276.07,-356.59 -711.57,-521.2 -1131.12,-471.63l-195.68 -252.76c500.58,-197.14 1094.36,-51.22 1439.26,394.29l1403.43 1812.89c302.47,390.69 333.88,908.98 123.72,1324.12zm-2178.49 -1979.63c24.98,124.74 -19.87,259.07 -126.8,341.85 -150.19,116.27 -368.2,88.51 -484.47,-61.67l-835.26 -1078.95c-38.9,53.54 -73.1,109.76 -102.58,167.99 33.92,-177.61 106.19,-348.29 215.04,-498.09l835.26 1078.94c116.27,150.19 334.28,177.94 484.48,61.67 4.91,-3.8 9.68,-7.72 14.33,-11.74zm1221.62 2647.77l-639.59 -826.18c-112.46,-145.28 -90.16,-354.01 47.35,-472.73 10.1,50.46 31.62,99.36 65.12,142.62l835.26 1078.95c-99.91,39.34 -203.53,64.97 -308.14,77.34zm-2812.81 -5537.53c64.62,-338.39 -9.99,-701.88 -236.18,-994.06l-1403.44 -1812.88c-276.05,-356.59 -711.57,-521.21 -1131.11,-471.63l-195.68 -252.76c500.57,-197.13 1094.36,-51.23 1439.25,394.29l1403.44 1812.88c302.47,390.72 333.88,908.99 123.72,1324.16zm-2178.49 -1979.66c24.97,124.73 -19.87,259.07 -126.8,341.85 -150.19,116.27 -368.21,88.51 -484.47,-61.67l-835.26 -1078.95c-38.91,53.54 -73.11,109.76 -102.59,167.99 33.92,-177.61 106.19,-348.29 215.05,-498.09l835.26 1078.94c116.27,150.19 334.28,177.94 484.47,61.67 4.91,-3.8 9.68,-7.72 14.34,-11.74zm1221.63 2647.76l-639.59 -826.18c-112.46,-145.27 -90.16,-354.01 47.34,-472.73 10.1,50.46 31.63,99.36 65.12,142.62l835.26 1078.95c-99.9,39.34 -203.53,64.98 -308.13,77.34zm-2812.84 -5537.51c64.62,-338.38 -9.98,-701.89 -236.17,-994.07l-1403.43 -1812.88c-418.18,-540.17 -1202.26,-639.99 -1742.43,-221.82l-0.02 0.02c-149.42,115.67 -265.08,259.38 -345.47,418.13 54.87,-287.18 209.96,-556.27 457.93,-748.23l0.02 -0.02c540.17,-418.17 1324.25,-318.36 1742.43,221.82l1403.44 1812.88c302.47,390.72 333.86,909.02 123.7,1324.17zm-956.85 668.09l-639.59 -826.18c-112.46,-145.27 -90.16,-354.01 47.35,-472.73 10.1,50.46 31.62,99.36 65.12,142.62l835.26 1078.95c-99.91,39.34 -203.53,64.98 -308.14,77.34z"/>
   <path class="fil1" d="M14847.03 1228.04c841.63,-651.54 2059.87,-496.48 2711.41,345.16l1403.44 1812.88c579.41,748.45 520.86,1794.71 -91.1,2475.43l38.03 49.11c812.33,-421.91 1839.91,-216.47 2419.31,531.99l1403.44 1812.89c579.41,748.45 520.87,1794.72 -91.09,2475.43l38.02 49.11c812.33,-421.92 1839.9,-216.48 2419.31,532l1403.45 1812.88c579.4,748.45 520.87,1794.73 -91.1,2475.43l38.02 49.12c812.32,-421.92 1839.9,-216.48 2419.3,532.01l1403.45 1812.88c579.41,748.45 520.87,1794.7 -91.1,2475.42l38.03 49.12c812.33,-421.91 1839.9,-216.46 2419.32,532l1403.43 1812.88c579.41,748.45 520.87,1794.72 -91.09,2475.43l38.02 49.11c812.34,-421.91 1839.91,-216.47 2419.32,531.99l1403.44 1812.89c579.41,748.45 520.87,1794.73 -91.09,2475.43l38.02 49.11c812.32,-421.92 1839.9,-216.48 2419.31,532.01l1403.44 1812.87c579.4,748.46 520.88,1794.74 -91.1,2475.44l38.02 49.11c812.33,-421.92 1839.91,-216.48 2419.31,532.01l1403.45 1812.88c579.4,748.45 520.87,1794.7 -91.1,2475.42l38.02 49.12c812.34,-421.91 1839.91,-216.46 2419.33,532l1403.43 1812.88c579.41,748.45 520.86,1794.72 -91.09,2475.43l38.02 49.11c812.33,-421.91 1839.91,-216.47 2419.31,532l1403.45 1812.88c579.4,748.45 520.86,1794.73 -91.1,2475.43l38.02 49.12c812.33,-421.92 1839.91,-216.48 2419.32,532l1403.44 1812.87c579.4,748.46 520.88,1794.74 -91.1,2475.44l38.02 49.11c812.33,-421.92 1839.9,-216.48 2419.3,532.01l1403.45 1812.89c579.41,748.44 520.88,1794.69 -91.1,2475.42l38.03 49.12c812.33,-421.91 1839.9,-216.47 2419.32,532l1403.44 1812.88c579.41,748.44 520.86,1794.71 -91.09,2475.42l38.02 49.12c812.33,-421.91 1839.91,-216.47 2419.31,531.99l1403.44 1812.89c579.41,748.44 520.87,1794.72 -91.09,2475.42l38.02 49.12c812.33,-421.92 1839.9,-216.48 2419.31,532l1403.45 1812.88c579.4,748.45 520.87,1794.73 -91.1,2475.43l38.02 49.11c812.32,-421.91 1839.9,-216.47 2419.3,532.02l1403.45 1812.88c651.53,841.61 496.47,2059.83 -345.16,2711.38 -841.64,651.54 -2059.87,496.49 -2711.41,-345.16l-1403.44 -1812.89c-579.42,-748.45 -520.88,-1794.71 91.1,-2475.42l-38.02 -49.12c-812.33,421.91 -1839.91,216.47 -2419.32,-532l-1403.43 -1812.89c-579.42,-748.45 -520.88,-1794.7 91.1,-2475.42l-38.02 -49.11c-812.34,421.92 -1839.91,216.47 -2419.33,-532l-1403.44 -1812.88c-579.41,-748.45 -520.88,-1794.71 91.1,-2475.43l-38.02 -49.11c-812.34,421.91 -1839.91,216.47 -2419.33,-532l-1403.43 -1812.88c-579.42,-748.45 -520.88,-1794.71 91.1,-2475.43l-38.02 -49.11c-812.34,421.91 -1839.91,216.47 -2419.33,-532.01l-1403.43 -1812.9c-579.43,-748.45 -520.88,-1794.7 91.1,-2475.42l-38.02 -49.11c-812.34,421.91 -1839.91,216.47 -2419.33,-532l-1403.43 -1812.89c-579.42,-748.45 -520.88,-1794.71 91.1,-2475.42l-38.02 -49.12c-812.33,421.93 -1839.91,216.47 -2419.33,-531.99l-1403.44 -1812.89c-579.41,-748.44 -520.87,-1794.71 91.11,-2475.42l-38.02 -49.12c-812.35,421.92 -1839.91,216.47 -2419.33,-531.99l-1403.44 -1812.88c-579.41,-748.45 -520.88,-1794.72 91.1,-2475.43l-38.02 -49.12c-812.34,421.92 -1839.91,216.47 -2419.33,-532l-1403.43 -1812.9c-579.42,-748.45 -520.88,-1794.7 91.1,-2475.42l-38.02 -49.11c-812.33,421.91 -1839.91,216.47 -2419.32,-532l-1403.44 -1812.9c-579.42,-748.45 -520.87,-1794.7 91.1,-2475.42l-38.02 -49.11c-812.33,421.93 -1839.91,216.47 -2419.33,-531.99l-1403.44 -1812.89c-579.41,-748.45 -520.87,-1794.71 91.11,-2475.43l-38.02 -49.11c-812.34,421.92 -1839.91,216.47 -2419.33,-531.99l-1403.44 -1812.88c-579.41,-748.46 -520.87,-1794.72 91.11,-2475.44l-38.03 -49.11c-812.34,421.92 -1839.9,216.47 -2419.32,-532.01l-1403.44 -1812.89c-579.42,-748.45 -520.88,-1794.71 91.1,-2475.42l-38.02 -49.11c-812.33,421.91 -1839.91,216.47 -2419.32,-532l-1403.43 -1812.9c-579.42,-748.45 -520.88,-1794.7 91.1,-2475.42l-38.02 -49.11c-812.34,421.92 -1839.91,216.47 -2419.33,-531.99l-1403.44 -1812.89c-579.41,-748.45 -520.88,-1794.71 91.1,-2475.43l-38.02 -49.11c-812.34,421.91 -1839.91,216.47 -2419.33,-531.99l-1403.43 -1812.89c-651.54,-841.62 -496.46,-2059.85 345.16,-2711.39zm55045.65 71104.3c150.19,-116.27 368.2,-88.52 484.47,61.67l835.25 1078.94c316.25,-435.21 323.76,-1046.61 -21.13,-1492.11l-1403.43 -1812.89c-344.9,-445.51 -938.68,-591.43 -1439.26,-394.3l835.27 1078.95c116.26,150.19 88.51,368.2 -61.68,484.47 -150.2,116.27 -368.21,88.52 -484.48,-61.67l-835.26 -1078.94c-316.26,435.21 -323.77,1046.6 21.13,1492.11l1403.45 1812.88c344.88,445.54 938.67,591.44 1439.25,394.31l-835.26 -1078.95c-116.27,-150.18 -88.52,-368.2 61.68,-484.47zm2225.58 2310.74l835.26 1078.95c116.27,150.18 88.51,368.2 -61.68,484.47 -150.19,116.27 -368.2,88.52 -484.47,-61.67l-835.26 -1078.95c-316.26,435.22 -323.78,1046.61 21.12,1492.13l1403.45 1812.86c418.17,540.2 1202.25,640.02 1742.43,221.84l0.02 -0.02c540.17,-418.17 640,-1202.26 221.82,-1742.43l-1403.43 -1812.88c-344.91,-445.52 -938.7,-591.42 -1439.26,-394.3zm-5995.26 -7180.17c150.19,-116.27 368.21,-88.51 484.47,61.67l835.27 1078.95c316.24,-435.23 323.74,-1046.6 -21.15,-1492.12l-1403.44 -1812.88c-344.89,-445.52 -938.68,-591.43 -1439.25,-394.3l835.26 1078.95c116.27,150.19 88.51,368.2 -61.68,484.47 -150.19,116.27 -368.2,88.52 -484.47,-61.67l-835.26 -1078.94c-316.26,435.21 -323.77,1046.61 21.13,1492.12l1403.44 1812.88c344.89,445.53 938.68,591.43 1439.26,394.29l-835.26 -1078.95c-116.27,-150.18 -88.51,-368.19 61.68,-484.47zm-3769.68 -4869.42c150.19,-116.27 368.2,-88.51 484.47,61.67l835.25 1078.94c316.23,-435.22 323.75,-1046.6 -21.13,-1492.11l-1403.44 -1812.88c-344.89,-445.52 -938.68,-591.42 -1439.25,-394.3l835.26 1078.95c116.26,150.19 88.51,368.2 -61.68,484.47 -150.2,116.27 -368.21,88.52 -484.47,-61.67l-835.26 -1078.94c-316.25,435.23 -323.76,1046.61 21.13,1492.12l1403.43 1812.88c344.91,445.53 938.69,591.43 1439.27,394.29l-835.26 -1078.95c-116.27,-150.18 -88.52,-368.19 61.68,-484.47zm-3769.69 -4869.42c150.2,-116.27 368.21,-88.51 484.47,61.67l835.25 1078.92c316.24,-435.21 323.76,-1046.6 -21.13,-1492.11l-1403.43 -1812.88c-344.91,-445.51 -938.7,-591.42 -1439.26,-394.29l835.27 1078.95c116.26,150.18 88.51,368.19 -61.69,484.46 -150.19,116.28 -368.2,88.52 -484.47,-61.66l-835.26 -1078.95c-316.26,435.21 -323.77,1046.61 21.12,1492.12l1403.45 1812.87c344.89,445.54 938.68,591.45 1439.26,394.31l-835.26 -1078.94c-116.26,-150.18 -88.51,-368.19 61.68,-484.47zm-3769.68 -4869.43c150.19,-116.27 368.21,-88.52 484.47,61.67l835.26 1078.93c316.25,-435.2 323.76,-1046.61 -21.14,-1492.11l-1403.43 -1812.88c-344.9,-445.51 -938.68,-591.44 -1439.25,-394.3l835.26 1078.95c116.27,150.18 88.51,368.2 -61.68,484.47 -150.19,116.27 -368.21,88.52 -484.47,-61.67l-835.27 -1078.95c-316.25,435.22 -323.77,1046.61 21.14,1492.12l1403.44 1812.88c344.88,445.53 938.67,591.44 1439.25,394.3l-835.26 -1078.94c-116.27,-150.19 -88.51,-368.2 61.68,-484.47zm-3769.68 -4869.43c150.2,-116.27 368.21,-88.52 484.48,61.67l835.26 1078.95c316.24,-435.23 323.75,-1046.61 -21.15,-1492.12l-1403.43 -1812.88c-344.9,-445.52 -938.69,-591.43 -1439.26,-394.3l835.27 1078.95c116.26,150.18 88.51,368.2 -61.69,484.47 -150.19,116.27 -368.2,88.51 -484.47,-61.67l-835.26 -1078.95c-316.26,435.22 -323.77,1046.62 21.14,1492.13l1403.43 1812.88c344.9,445.53 938.68,591.43 1439.27,394.29l-835.27 -1078.95c-116.26,-150.18 -88.51,-368.2 61.68,-484.47zm-3769.68 -4869.42c150.19,-116.27 368.21,-88.52 484.47,61.67l835.26 1078.94c316.23,-435.22 323.75,-1046.61 -21.14,-1492.11l-1403.44 -1812.88c-344.89,-445.52 -938.68,-591.42 -1439.25,-394.3l835.26 1078.95c116.27,150.18 88.51,368.2 -61.68,484.47 -150.19,116.27 -368.21,88.51 -484.47,-61.67l-835.26 -1078.94c-316.25,435.22 -323.75,1046.61 21.13,1492.12l1403.44 1812.88c344.9,445.52 938.68,591.42 1439.26,394.29l-835.26 -1078.95c-116.27,-150.18 -88.51,-368.2 61.68,-484.47zm-3769.68 -4869.42c150.19,-116.27 368.2,-88.52 484.47,61.67l835.24 1078.92c316.24,-435.22 323.76,-1046.6 -21.12,-1492.11l-1403.44 -1812.88c-344.91,-445.52 -938.69,-591.42 -1439.25,-394.29l835.26 1078.94c116.26,150.19 88.51,368.2 -61.68,484.47 -150.2,116.27 -368.21,88.52 -484.47,-61.67l-835.27 -1078.94c-316.25,435.21 -323.77,1046.61 21.13,1492.12l1403.45 1812.87c344.88,445.54 938.67,591.45 1439.25,394.31l-835.26 -1078.94c-116.26,-150.18 -88.51,-368.2 61.69,-484.47zm-3769.69 -4869.43c150.2,-116.28 368.21,-88.52 484.47,61.66l835.26 1078.94c316.25,-435.21 323.76,-1046.61 -21.14,-1492.11l-1403.42 -1812.89c-344.91,-445.51 -938.68,-591.43 -1439.26,-394.29l835.26 1078.95c116.27,150.18 88.51,368.19 -61.68,484.46 -150.19,116.28 -368.2,88.52 -484.47,-61.66l-835.26 -1078.95c-316.26,435.21 -323.77,1046.61 21.13,1492.12l1403.44 1812.87c344.89,445.54 938.68,591.45 1439.26,394.31l-835.27 -1078.95c-116.26,-150.18 -88.51,-368.19 61.68,-484.46zm-3769.67 -4869.43c150.19,-116.27 368.2,-88.52 484.47,61.67l835.26 1078.94c316.25,-435.23 323.75,-1046.6 -21.14,-1492.12l-1403.44 -1812.88c-344.89,-445.51 -938.68,-591.42 -1439.25,-394.29l835.26 1078.95c116.26,150.18 88.51,368.19 -61.68,484.46 -150.2,116.28 -368.21,88.52 -484.47,-61.66l-835.27 -1078.95c-316.25,435.21 -323.76,1046.62 21.14,1492.13l1403.44 1812.88c344.89,445.53 938.67,591.43 1439.26,394.28l-835.26 -1078.94c-116.27,-150.19 -88.51,-368.2 61.68,-484.47zm-3769.69 -4869.42c150.2,-116.27 368.21,-88.52 484.47,61.67l835.26 1078.93c316.23,-435.21 323.75,-1046.6 -21.14,-1492.11l-1403.43 -1812.88c-344.9,-445.51 -938.68,-591.41 -1439.26,-394.29l835.27 1078.94c116.26,150.19 88.51,368.2 -61.69,484.47 -150.19,116.28 -368.2,88.52 -484.47,-61.66l-835.25 -1078.94c-316.26,435.22 -323.76,1046.61 21.13,1492.12l1403.43 1812.88c344.9,445.52 938.69,591.42 1439.27,394.28l-835.27 -1078.94c-116.26,-150.19 -88.51,-368.2 61.68,-484.47zm-3769.68 -4869.42c150.19,-116.27 368.21,-88.52 484.47,61.67l835.24 1078.92c316.25,-435.22 323.77,-1046.6 -21.12,-1492.11l-1403.44 -1812.88c-344.9,-445.52 -938.69,-591.42 -1439.25,-394.3l835.26 1078.95c116.27,150.18 88.51,368.2 -61.68,484.47 -150.19,116.27 -368.2,88.52 -484.47,-61.67l-835.26 -1078.95c-316.26,435.22 -323.78,1046.61 21.12,1492.13l1403.45 1812.87c344.89,445.53 938.68,591.44 1439.25,394.31l-835.25 -1078.94c-116.27,-150.19 -88.51,-368.2 61.68,-484.47zm-3769.68 -4869.44c150.19,-116.27 368.2,-88.52 484.47,61.67l835.25 1078.94c316.25,-435.21 323.76,-1046.61 -21.13,-1492.11l-1403.43 -1812.89c-344.9,-445.51 -938.68,-591.43 -1439.26,-394.29l835.27 1078.94c116.26,150.19 88.51,368.2 -61.68,484.47 -150.2,116.27 -368.21,88.52 -484.48,-61.67l-835.26 -1078.94c-316.26,435.21 -323.77,1046.61 21.13,1492.12l1403.45 1812.87c344.88,445.54 938.67,591.45 1439.25,394.31l-835.26 -1078.95c-116.27,-150.18 -88.52,-368.2 61.68,-484.47zm-3769.68 -4869.42c150.19,-116.28 368.21,-88.52 484.47,61.66l835.27 1078.95c316.24,-435.23 323.74,-1046.6 -21.15,-1492.12l-1403.44 -1812.88c-344.89,-445.52 -938.68,-591.42 -1439.25,-394.29l835.26 1078.94c116.27,150.19 88.51,368.2 -61.68,484.47 -150.19,116.27 -368.2,88.52 -484.47,-61.67l-835.26 -1078.94c-316.26,435.21 -323.77,1046.61 21.13,1492.12l1403.44 1812.88c344.89,445.53 938.68,591.44 1439.26,394.29l-835.26 -1078.95c-116.27,-150.18 -88.51,-368.19 61.68,-484.46zm-3769.68 -4869.42c150.19,-116.28 368.2,-88.52 484.47,61.66l835.25 1078.94c316.23,-435.22 323.75,-1046.6 -21.13,-1492.11l-1403.44 -1812.88c-418.18,-540.18 -1202.26,-639.99 -1742.43,-221.82l-0.02 0.02c-540.18,418.17 -640,1202.26 -221.82,1742.43l1403.43 1812.88c344.91,445.53 938.69,591.43 1439.27,394.29l-835.26 -1078.95c-116.27,-150.18 -88.52,-368.19 61.68,-484.46z"/>
   <path class="fil2" d="M139.89 5454.61l1613.83 2086.03c171.99,223.51 447.23,231.1 609.58,11.58l2054.98 -2778.41c-161.85,218.82 -437.08,211.24 -609.58,-11.58l-1614.35 -2085.33c-177.17,-228.86 -189.18,-592.34 -22.67,-805.12l-2054.46 2777.71c-166.51,212.79 -154.5,576.26 22.67,805.12zm2261.92 2881.32l1613.84 2086.01c171.98,223.52 447.22,231.1 609.58,11.58l2054.96 -2778.4c-161.83,218.83 -437.08,211.24 -609.57,-11.58l-1614.35 -2085.32c-177.17,-228.86 -189.19,-592.35 -22.67,-805.13l-2054.46 2777.71c-166.52,212.78 -154.5,576.27 22.67,805.13zm2261.92 2881.31l1613.83 2086.01c171.98,223.52 447.24,231.1 609.59,11.59l2054.98 -2778.41c-161.85,218.82 -437.1,211.24 -609.6,-11.58l-1614.34 -2085.33c-177.17,-228.85 -189.18,-592.34 -22.66,-805.12l-2054.46 2777.71c-166.51,212.79 -154.51,576.27 22.66,805.13zm2246.6 2902.03l1613.83 2086.01c171.99,223.53 447.23,231.1 609.59,11.59l2054.97 -2778.41c-161.84,218.82 -437.09,211.24 -609.59,-11.58l-1614.34 -2085.32c-177.18,-228.86 -189.18,-592.35 -22.66,-805.13l-2054.46 2777.71c-166.52,212.79 -154.51,576.27 22.66,805.13zm2261.92 2881.3l1613.83 2086.03c171.99,223.51 447.24,231.09 609.59,11.57l2054.97 -2778.4c-161.84,218.82 -437.08,211.24 -609.58,-11.58l-1614.35 -2085.33c-177.17,-228.86 -189.18,-592.34 -22.67,-805.12l-2054.45 2777.71c-166.52,212.78 -154.51,576.26 22.66,805.12zm2246.6 2902.03l1613.84 2086.02c171.98,223.52 447.21,231.1 609.58,11.58l2054.97 -2778.4c-161.85,218.82 -437.09,211.23 -609.58,-11.58l-1614.35 -2085.33c-177.17,-228.86 -189.19,-592.34 -22.67,-805.12l-2054.46 2777.71c-166.51,212.78 -154.5,576.26 22.67,805.12zm2261.92 2881.32l1613.84 2086.01c171.98,223.52 447.23,231.1 609.57,11.58l2054.98 -2778.41c-161.84,218.82 -437.09,211.25 -609.59,-11.57l-1614.34 -2085.33c-177.17,-228.85 -189.18,-592.35 -22.66,-805.13l-2054.46 2777.72c-166.52,212.78 -154.51,576.27 22.66,805.13zm2261.93 2881.3l1613.82 2086.02c171.99,223.51 447.23,231.09 609.6,11.58l2054.96 -2778.4c-161.84,218.82 -437.08,211.23 -609.58,-11.59l-1614.34 -2085.32c-177.17,-228.86 -189.19,-592.34 -22.67,-805.12l-2054.46 2777.71c-166.52,212.78 -154.5,576.26 22.67,805.12zm2246.59 2902.03l1613.83 2086.02c171.99,223.51 447.23,231.09 609.59,11.58l2054.97 -2778.4c-161.84,218.82 -437.09,211.23 -609.58,-11.59l-1614.35 -2085.32c-177.17,-228.86 -189.18,-592.34 -22.67,-805.12l-2054.45 2777.71c-166.52,212.78 -154.51,576.26 22.66,805.12zm2261.92 2881.31l1613.84 2086.02c171.98,223.52 447.23,231.09 609.58,11.58l2054.98 -2778.41c-161.85,218.82 -437.1,211.24 -609.59,-11.57l-1614.35 -2085.33c-177.17,-228.86 -189.18,-592.35 -22.66,-805.13l-2054.46 2777.72c-166.51,212.78 -154.51,576.26 22.66,805.12zm2261.93 2881.31l1613.83 2086.02c171.99,223.51 447.23,231.09 609.59,11.57l2054.96 -2778.4c-161.84,218.82 -437.08,211.24 -609.58,-11.58l-1614.34 -2085.32c-177.17,-228.86 -189.19,-592.35 -22.67,-805.13l-2054.46 2777.71c-166.52,212.79 -154.5,576.27 22.67,805.13zm2261.92 2881.31l1613.83 2086.01c171.98,223.52 447.23,231.1 609.59,11.59l2054.97 -2778.4c-161.85,218.81 -437.09,211.23 -609.59,-11.59l-1614.34 -2085.33c-177.17,-228.85 -189.18,-592.33 -22.67,-805.11l-2054.46 2777.71c-166.5,212.78 -154.5,576.26 22.67,805.12zm2261.93 2881.3l1613.83 2086.03c171.98,223.52 447.22,231.08 609.58,11.58l2054.97 -2778.41c-161.84,218.82 -437.09,211.24 -609.58,-11.58l-1614.35 -2085.33c-177.18,-228.86 -189.18,-592.34 -22.66,-805.12l-2054.46 2777.71c-166.52,212.78 -154.51,576.26 22.67,805.12zm2246.59 2902.03l1613.83 2086.03c171.98,223.52 447.23,231.09 609.58,11.58l2054.98 -2778.41c-161.85,218.82 -437.1,211.24 -609.59,-11.58l-1614.35 -2085.33c-177.17,-228.86 -189.17,-592.34 -22.66,-805.12l-2054.46 2777.71c-166.51,212.78 -154.5,576.26 22.67,805.12zm2261.93 2881.32l1613.82 2086.01c171.99,223.52 447.23,231.1 609.59,11.58l2054.97 -2778.4c-161.85,218.82 -437.08,211.24 -609.58,-11.58l-1614.35 -2085.33c-177.17,-228.85 -189.19,-592.34 -22.67,-805.12l-2054.46 2777.71c-166.51,212.78 -154.5,576.27 22.68,805.13zm2261.91 2881.31l1613.84 2086.01c171.98,223.52 447.23,231.09 609.58,11.59l2054.98 -2778.41c-161.85,218.82 -437.1,211.24 -609.6,-11.59l-1614.34 -2085.32c-177.17,-228.86 -189.17,-592.34 -22.66,-805.12l-2054.46 2777.71c-166.51,212.78 -154.51,576.27 22.66,805.13zm2261.94 2881.3l1613.84 2086.01c171.98,223.52 447.23,231.1 609.57,11.58l2054.98 -2778.4c-161.84,218.82 -437.09,211.24 -609.59,-11.58l-1614.34 -2085.32c-177.17,-228.86 -189.18,-592.35 -22.66,-805.13l-2054.46 2777.71c-166.52,212.78 -154.51,576.27 22.66,805.13zm2261.93 2881.3l1613.82 2086.02c172,223.52 447.23,231.1 609.6,11.58l2054.96 -2778.4c-161.84,218.82 -437.08,211.24 -609.58,-11.59l-1614.34 -2085.32c-177.17,-228.86 -189.19,-592.34 -22.67,-805.12l-2054.46 2777.71c-166.52,212.79 -154.5,576.26 22.67,805.12zm2261.91 2881.31l1613.84 2086.02c171.98,223.52 447.23,231.1 609.58,11.58l2054.97 -2778.4c-161.84,218.82 -437.08,211.24 -609.58,-11.58l-1614.35 -2085.33c-177.17,-228.86 -189.18,-592.34 -22.66,-805.12l-2054.46 2777.71c-166.51,212.78 -154.51,576.26 22.66,805.12zm2246.6 2902.03l1613.84 2086.02c171.98,223.52 447.22,231.1 609.58,11.58l2054.97 -2778.4c-161.85,218.82 -437.08,211.24 -609.58,-11.58l-1614.35 -2085.33c-177.17,-228.86 -189.18,-592.34 -22.67,-805.12l-2054.46 2777.71c-166.5,212.78 -154.5,576.26 22.67,805.12zm2261.93 2881.31l1613.83 2086.02c171.98,223.52 447.23,231.1 609.58,11.58l2054.97 -2778.41c-161.83,218.83 -437.08,211.25 -609.58,-11.57l-1614.35 -2085.32c-177.17,-228.86 -189.18,-592.36 -22.66,-805.14l-2054.46 2777.72c-166.52,212.78 -154.5,576.26 22.67,805.12zm2261.92 2881.31l1613.82 2086.02c172,223.52 447.24,231.1 609.6,11.58l2054.97 -2778.4c-161.85,218.82 -437.09,211.23 -609.59,-11.59l-1614.34 -2085.32c-177.17,-228.86 -189.18,-592.34 -22.67,-805.12l-2054.46 2777.71c-166.51,212.78 -154.5,576.26 22.67,805.12zm2261.92 2881.31l1613.84 2086.02c171.98,223.52 447.23,231.1 609.58,11.58l2054.97 -2778.41c-161.84,218.82 -437.09,211.25 -609.58,-11.57l-1614.35 -2085.33c-177.18,-228.86 -189.18,-592.35 -22.66,-805.13l-2054.46 2777.72c-166.52,212.78 -154.51,576.26 22.66,805.12zm2261.93 2881.31l1613.82 2086.02c171.99,223.51 447.23,231.09 609.59,11.57l2054.97 -2778.4c-161.84,218.83 -437.08,211.24 -609.58,-11.58l-1614.34 -2085.32c-177.17,-228.86 -189.19,-592.35 -22.68,-805.13l-2054.45 2777.71c-166.52,212.79 -154.5,576.27 22.67,805.13zm2246.6 2902.03l1613.82 2086.02c171.99,223.51 447.23,231.09 609.59,11.58l2054.97 -2778.41c-161.84,218.83 -437.08,211.24 -609.58,-11.58l-1614.35 -2085.32c-177.17,-228.86 -189.19,-592.35 -22.67,-805.13l-2054.46 2777.71c-166.51,212.79 -154.5,576.27 22.68,805.13zm2261.91 2881.31l1613.84 2086.01c171.98,223.53 447.23,231.1 609.58,11.59l2054.97 -2778.4c-161.84,218.81 -437.09,211.23 -609.59,-11.59l-1614.34 -2085.32c-177.17,-228.86 -189.17,-592.35 -22.67,-805.12l-2054.46 2777.71c-166.5,212.78 -154.5,576.26 22.67,805.12zm2261.93 2881.3l828.09 1070.41 1989.59 -2862.23 -763.22 -985.89c-177.18,-228.86 -189.19,-592.34 -22.67,-805.12l-2054.46 2777.71c-166.52,212.78 -154.5,576.26 22.67,805.12z"/>
   <path class="fil2" d="M5294.64 4.49l733.38 946.63c173.28,222.35 115.79,531.38 -132.28,683.72l-3140 1928.25c247.3,-151.86 304.79,-460.89 132.29,-683.72l-716.35 -1007.59 3122.96 -1867.29zm1388.26 1749.44l1615.13 2084.85c173.29,222.33 115.8,531.36 -132.27,683.71l-3139.99 1928.25c247.29,-151.86 304.77,-460.89 132.27,-683.71l-1614.34 -2085.33c-177.17,-228.85 -521.91,-290.89 -764.53,-132.99l3139.2 -1927.77c242.62,-157.9 587.36,-95.87 764.53,132.99zm2270.02 2887.65l1615.13 2084.85c173.28,222.33 115.8,531.36 -132.28,683.71l-3139.99 1928.25c247.29,-151.86 304.77,-460.89 132.28,-683.71l-1614.35 -2085.32c-177.17,-228.86 -521.91,-290.9 -764.53,-133l3139.21 -1927.77c242.62,-157.9 587.36,-95.87 764.53,132.99zm2246.59 2902.03l1615.13 2084.85c173.29,222.33 115.8,531.36 -132.27,683.71l-3140 1928.25c247.3,-151.86 304.78,-460.89 132.28,-683.71l-1614.34 -2085.32c-177.17,-228.86 -521.91,-290.9 -764.53,-133l3139.2 -1927.76c242.62,-157.91 587.36,-95.88 764.53,132.98zm2270.02 2887.65l1615.13 2084.84c173.28,222.34 115.79,531.37 -132.28,683.72l-3139.99 1928.25c247.3,-151.87 304.78,-460.89 132.28,-683.72l-1614.34 -2085.32c-177.17,-228.86 -521.91,-290.89 -764.54,-132.99l3139.21 -1927.77c242.62,-157.9 587.36,-95.87 764.53,132.99zm2246.59 2902.03l1615.14 2084.84c173.28,222.34 115.79,531.37 -132.29,683.72l-3139.99 1928.25c247.3,-151.87 304.79,-460.89 132.29,-683.72l-1614.34 -2085.32c-177.18,-228.86 -521.92,-290.89 -764.54,-132.99l3139.21 -1927.77c242.61,-157.9 587.35,-95.87 764.52,132.99zm2270.02 2887.64l1615.13 2084.85c173.29,222.34 115.8,531.37 -132.28,683.71l-3139.99 1928.25c247.3,-151.86 304.78,-460.88 132.28,-683.71l-1614.34 -2085.32c-177.17,-228.86 -521.91,-290.89 -764.53,-133l3139.2 -1927.76c242.62,-157.91 587.36,-95.88 764.53,132.98zm2270.02 2887.66l1615.12 2084.84c173.29,222.34 115.8,531.37 -132.27,683.71l-3139.99 1928.25c247.29,-151.85 304.77,-460.88 132.27,-683.71l-1614.34 -2085.32c-177.17,-228.86 -521.91,-290.89 -764.53,-133l3139.2 -1927.76c242.63,-157.91 587.37,-95.87 764.54,132.99zm2246.59 2902.03l1615.13 2084.84c173.29,222.34 115.8,531.37 -132.28,683.71l-3139.99 1928.25c247.29,-151.85 304.78,-460.88 132.28,-683.71l-1614.34 -2085.32c-177.17,-228.86 -521.91,-290.89 -764.53,-133l3139.2 -1927.76c242.63,-157.9 587.36,-95.87 764.53,132.99zm2270.01 2887.65l1615.14 2084.84c173.28,222.34 115.79,531.37 -132.28,683.71l-3139.99 1928.25c247.29,-151.86 304.78,-460.89 132.28,-683.71l-1614.34 -2085.32c-177.17,-228.86 -521.91,-290.89 -764.54,-133l3139.21 -1927.76c242.62,-157.9 587.35,-95.87 764.52,132.99zm2270.02 2887.65l1615.13 2084.84c173.28,222.34 115.8,531.37 -132.28,683.72l-3139.99 1928.25c247.3,-151.87 304.78,-460.9 132.28,-683.72l-1614.34 -2085.32c-177.17,-228.86 -521.91,-290.89 -764.54,-132.99l3139.21 -1927.77c242.62,-157.9 587.36,-95.87 764.53,132.99zm2270.02 2887.64l1615.13 2084.85c173.28,222.34 115.8,531.36 -132.28,683.71l-3139.99 1928.25c247.29,-151.86 304.78,-460.89 132.28,-683.71l-1614.35 -2085.32c-177.17,-228.86 -521.91,-290.89 -764.53,-133l3139.21 -1927.76c242.62,-157.9 587.36,-95.88 764.53,132.98zm2270.01 2887.65l1615.13 2084.85c173.28,222.34 115.8,531.36 -132.28,683.71l-3139.99 1928.25c247.29,-151.86 304.78,-460.89 132.28,-683.71l-1614.35 -2085.32c-177.17,-228.86 -521.91,-290.89 -764.52,-133l3139.2 -1927.76c242.63,-157.9 587.36,-95.88 764.53,132.98zm2246.6 2902.03l1615.13 2084.85c173.28,222.34 115.8,531.36 -132.28,683.71l-3139.99 1928.25c247.29,-151.86 304.77,-460.89 132.27,-683.71l-1614.34 -2085.32c-177.17,-228.86 -521.91,-290.89 -764.53,-133l3139.21 -1927.76c242.62,-157.9 587.36,-95.88 764.53,132.98zm2270.01 2887.65l1615.14 2084.84c173.27,222.35 115.79,531.38 -132.29,683.72l-3139.99 1928.25c247.3,-151.86 304.78,-460.89 132.29,-683.72l-1614.35 -2085.32c-177.17,-228.86 -521.91,-290.89 -764.54,-132.99l3139.22 -1927.77c242.62,-157.89 587.35,-95.87 764.52,132.99zm2270.01 2887.65l1615.14 2084.84c173.28,222.35 115.8,531.38 -132.29,683.72l-3139.99 1928.25c247.3,-151.86 304.79,-460.89 132.29,-683.72l-1614.35 -2085.32c-177.17,-228.86 -521.91,-290.89 -764.53,-132.99l3139.21 -1927.77c242.62,-157.89 587.35,-95.87 764.52,132.99zm2270.04 2887.65l1615.13 2084.84c173.28,222.34 115.8,531.38 -132.28,683.72l-3139.99 1928.25c247.3,-151.87 304.78,-460.89 132.28,-683.72l-1614.34 -2085.32c-177.17,-228.86 -521.91,-290.89 -764.54,-132.99l3139.21 -1927.77c242.62,-157.89 587.36,-95.87 764.53,132.99zm2270.02 2887.64l1615.13 2084.85c173.28,222.34 115.8,531.37 -132.28,683.71l-3139.99 1928.25c247.29,-151.86 304.78,-460.88 132.28,-683.71l-1614.35 -2085.32c-177.17,-228.86 -521.91,-290.89 -764.53,-133l3139.21 -1927.76c242.62,-157.9 587.36,-95.88 764.53,132.98zm2270.01 2887.65l1615.13 2084.85c173.28,222.34 115.81,531.38 -132.28,683.71l-3139.98 1928.26c247.28,-151.86 304.77,-460.89 132.27,-683.72l-1614.34 -2085.32c-177.18,-228.86 -521.92,-290.89 -764.53,-133l3139.2 -1927.76c242.63,-157.9 587.36,-95.87 764.53,132.98zm2246.6 2902.04l1615.13 2084.84c173.28,222.34 115.8,531.38 -132.28,683.71l-3139.99 1928.26c247.29,-151.86 304.77,-460.89 132.28,-683.72l-1614.35 -2085.32c-177.17,-228.86 -521.91,-290.89 -764.52,-132.99l3139.2 -1927.77c242.62,-157.9 587.36,-95.87 764.53,132.99zm2270.01 2887.65l1615.14 2084.84c173.27,222.34 115.79,531.38 -132.29,683.71l-3139.98 1928.26c247.29,-151.87 304.78,-460.9 132.28,-683.72l-1614.35 -2085.32c-177.17,-228.86 -521.91,-290.89 -764.53,-132.99l3139.21 -1927.77c242.62,-157.9 587.35,-95.87 764.52,132.99zm2270.01 2887.65l1615.14 2084.84c173.28,222.34 115.8,531.38 -132.29,683.72l-3139.98 1928.25c247.29,-151.87 304.78,-460.9 132.28,-683.72l-1614.34 -2085.32c-177.18,-228.86 -521.92,-290.89 -764.54,-132.99l3139.21 -1927.77c242.62,-157.9 587.36,-95.86 764.52,132.99zm2270.03 2887.65l1615.12 2084.84c173.29,222.34 115.81,531.37 -132.28,683.71l-3139.98 1928.26c247.28,-151.87 304.77,-460.9 132.27,-683.72l-1614.34 -2085.32c-177.17,-228.86 -521.91,-290.89 -764.53,-132.99l3139.2 -1927.77c242.63,-157.9 587.37,-95.87 764.54,132.99zm2270.01 2887.65l1615.12 2084.84c173.3,222.34 115.81,531.37 -132.27,683.72l-3139.99 1928.25c247.29,-151.86 304.77,-460.9 132.27,-683.72l-1614.34 -2085.32c-177.17,-228.86 -521.91,-290.89 -764.52,-132.99l3139.19 -1927.77c242.63,-157.9 587.37,-95.87 764.54,132.99zm2246.6 2902.03l1615.12 2084.84c173.29,222.34 115.81,531.37 -132.27,683.72l-3139.99 1928.25c247.29,-151.86 304.77,-460.9 132.27,-683.72l-1614.34 -2085.32c-177.17,-228.86 -521.91,-290.89 -764.53,-132.99l3139.2 -1927.77c242.63,-157.9 587.37,-95.87 764.54,132.99zm2270.01 2887.65l1615.13 2084.83c173.28,222.36 115.8,531.38 -132.28,683.73l-3139.99 1928.25c247.3,-151.86 304.78,-460.9 132.28,-683.73l-1614.34 -2085.32c-177.17,-228.86 -521.91,-290.89 -764.53,-132.98l3139.2 -1927.78c242.62,-157.89 587.36,-95.86 764.53,133zm2270.01 2887.65l1615.13 2084.83c173.29,222.36 115.8,531.38 -132.28,683.73l-3139.99 1928.25c247.3,-151.86 304.78,-460.9 132.28,-683.73l-1614.34 -2085.32c-177.17,-228.86 -521.91,-290.89 -764.53,-132.98l3139.2 -1927.78c242.62,-157.89 587.36,-95.86 764.53,133z"/>
   <path class="fil3" d="M32799.31 40961.31c110.7,47.62 210.38,121.89 286.46,220.16l1614.34 2085.32c84.13,108.68 126.8,232.32 131.88,355.28l2667.2 -1637.92c161.92,-99.42 208.16,-298.47 89.85,-451.18l-1615.13 -2084.85c-126.25,-162.95 -378.52,-210.32 -552.41,-97.15 -1.23,0.8 -2.28,1.46 -3.52,2.23l-2618.67 1608.11zm-2270.02 -2887.65c110.7,47.62 210.38,121.89 286.46,220.17l1614.34 2085.32c84.13,108.68 126.81,232.31 131.87,355.27l2667.21 -1637.92c161.93,-99.42 208.15,-298.47 89.85,-451.18l-1615.13 -2084.85c-126.25,-162.96 -378.52,-210.31 -552.41,-97.14 -1.23,0.8 -2.28,1.46 -3.52,2.23l-2618.67 1608.1zm-2246.6 -2902.03c110.71,47.62 210.38,121.89 286.46,220.17l1614.34 2085.32c84.14,108.68 126.81,232.31 131.88,355.27l2667.21 -1637.92c161.92,-99.42 208.14,-298.47 89.85,-451.18l-1615.13 -2084.85c-126.25,-162.96 -378.53,-210.31 -552.42,-97.14 -1.22,0.8 -2.28,1.46 -3.52,2.23l-2618.67 1608.1zm-2270.01 -2887.65c110.7,47.62 210.38,121.89 286.46,220.17l1614.34 2085.32c84.13,108.68 126.81,232.31 131.87,355.27l2667.22 -1637.92c161.92,-99.42 208.14,-298.47 89.84,-451.18l-1615.12 -2084.85c-126.25,-162.96 -378.53,-210.31 -552.42,-97.14 -1.22,0.8 -2.28,1.46 -3.52,2.23l-2618.67 1608.1zm-2270.01 -2887.65c110.7,47.62 210.37,121.89 286.45,220.17l1614.35 2085.32c84.13,108.68 126.8,232.31 131.88,355.28l2667.19 -1637.92c161.93,-99.43 208.17,-298.47 89.86,-451.19l-1615.13 -2084.84c-126.25,-162.95 -378.52,-210.33 -552.41,-97.15 -1.23,0.8 -2.28,1.46 -3.52,2.23l-2618.67 1608.1zm-2270.01 -2887.65c110.7,47.62 210.37,121.89 286.45,220.17l1614.35 2085.32c84.13,108.68 126.79,232.31 131.87,355.28l2667.2 -1637.93c161.93,-99.42 208.16,-298.47 89.86,-451.18l-1615.14 -2084.84c-126.24,-162.96 -378.51,-210.33 -552.4,-97.15 -1.23,0.8 -2.29,1.46 -3.52,2.23l-2618.67 1608.1zm-2270.02 -2887.65c110.7,47.63 210.37,121.9 286.45,220.17l1614.34 2085.32c84.14,108.68 126.81,232.31 131.88,355.27l2667.21 -1637.92c161.92,-99.42 208.15,-298.47 89.85,-451.18l-1615.13 -2084.84c-126.25,-162.96 -378.53,-210.32 -552.41,-97.15 -1.23,0.8 -2.29,1.46 -3.53,2.23l-2618.66 1608.1zm-2246.6 -2902.03c110.7,47.63 210.37,121.9 286.45,220.17l1614.35 2085.32c84.13,108.68 126.81,232.31 131.87,355.27l2667.21 -1637.92c161.93,-99.42 208.15,-298.47 89.85,-451.18l-1615.13 -2084.84c-126.25,-162.96 -378.51,-210.33 -552.41,-97.15 -1.22,0.8 -2.28,1.45 -3.52,2.23l-2618.67 1608.1zm-2270.01 -2887.65c110.7,47.63 210.37,121.89 286.45,220.17l1614.35 2085.32c84.13,108.68 126.8,232.31 131.87,355.27l2667.21 -1637.92c161.92,-99.42 208.15,-298.47 89.85,-451.18l-1615.13 -2084.84c-126.25,-162.97 -378.52,-210.33 -552.41,-97.15 -1.22,0.8 -2.28,1.45 -3.52,2.23l-2618.67 1608.1zm-2270.01 -2887.65c110.7,47.62 210.37,121.89 286.45,220.17l1614.34 2085.32c84.14,108.68 126.8,232.32 131.88,355.28l2667.2 -1637.92c161.92,-99.43 208.16,-298.47 89.86,-451.19l-1615.14 -2084.84c-126.24,-162.95 -378.51,-210.33 -552.41,-97.15 -1.21,0.8 -2.28,1.46 -3.52,2.23l-2618.66 1608.1zm-2246.6 -2902.03c110.7,47.62 210.37,121.89 286.45,220.17l1614.35 2085.32c84.13,108.68 126.8,232.32 131.88,355.28l2667.19 -1637.92c161.93,-99.43 208.17,-298.47 89.86,-451.19l-1615.14 -2084.84c-126.24,-162.95 -378.5,-210.33 -552.4,-97.15 -1.22,0.79 -2.29,1.46 -3.52,2.23l-2618.67 1608.1zm-2270.02 -2887.64c110.7,47.62 210.37,121.89 286.45,220.17l1614.35 2085.32c84.13,108.68 126.8,232.31 131.87,355.27l2667.21 -1637.92c161.92,-99.43 208.15,-298.47 89.85,-451.18l-1615.13 -2084.85c-126.25,-162.96 -378.52,-210.32 -552.41,-97.14 -1.22,0.79 -2.28,1.45 -3.52,2.23l-2618.67 1608.1zm-2246.6 -2902.03c110.7,47.62 210.38,121.89 286.46,220.17l1614.34 2085.32c84.13,108.68 126.81,232.31 131.87,355.27l2667.21 -1637.92c161.93,-99.43 208.15,-298.48 89.85,-451.18l-1615.12 -2084.85c-126.25,-162.96 -378.52,-210.32 -552.42,-97.15 -1.22,0.8 -2.27,1.46 -3.52,2.23l-2618.67 1608.11zm-2270.01 -2887.65c110.7,47.62 210.37,121.89 286.45,220.16l1614.35 2085.33c84.13,108.68 126.8,232.3 131.87,355.27l2667.21 -1637.92c161.93,-99.43 208.15,-298.48 89.85,-451.18l-1615.13 -2084.85c-126.25,-162.96 -378.51,-210.32 -552.41,-97.15 -1.22,0.8 -2.28,1.46 -3.52,2.23l-2618.67 1608.11zm1872.53 -3151.37l-2854.66 1706.87 615.02 865.07c82.74,108.02 124.74,230.61 129.77,352.54l2667.2 -1637.92c161.92,-99.42 208.17,-298.47 89.86,-451.18l-647.19 -835.38zm29814 43635.98c110.71,47.62 210.38,121.89 286.46,220.16l1614.34 2085.33c84.14,108.67 126.8,232.31 131.88,355.27l2667.2 -1637.92c161.92,-99.42 208.16,-298.47 89.86,-451.18l-1615.14 -2084.84c-126.24,-162.96 -378.52,-210.33 -552.41,-97.16 -1.22,0.81 -2.28,1.46 -3.52,2.23l-2618.67 1608.11zm2270.04 2887.64c110.7,47.62 210.37,121.89 286.45,220.17l1614.35 2085.32c84.13,108.68 126.8,232.32 131.88,355.28l2667.19 -1637.92c161.93,-99.43 208.17,-298.47 89.86,-451.19l-1615.13 -2084.84c-126.25,-162.95 -378.52,-210.32 -552.41,-97.15 -1.23,0.8 -2.28,1.46 -3.52,2.23l-2618.67 1608.1zm2270.01 2887.65c110.7,47.63 210.38,121.89 286.46,220.17l1614.34 2085.32c84.14,108.68 126.81,232.31 131.87,355.27l2667.22 -1637.92c161.92,-99.42 208.14,-298.47 89.84,-451.18l-1615.12 -2084.84c-126.25,-162.97 -378.53,-210.32 -552.42,-97.15 -1.22,0.8 -2.28,1.46 -3.52,2.23l-2618.67 1608.1zm2270.02 2887.65c110.7,47.63 210.37,121.9 286.45,220.17l1614.34 2085.32c84.14,108.68 126.81,232.33 131.87,355.29l2667.22 -1637.94c161.92,-99.42 208.15,-298.47 89.85,-451.18l-1615.13 -2084.84c-126.25,-162.97 -378.53,-210.32 -552.42,-97.15 -1.22,0.8 -2.28,1.46 -3.52,2.23l-2618.66 1608.1zm2246.59 2902.03c110.7,47.63 210.38,121.9 286.46,220.17l1614.34 2085.32c84.13,108.68 126.81,232.33 131.87,355.29l2667.21 -1637.94c161.93,-99.42 208.15,-298.47 89.85,-451.18l-1615.12 -2084.84c-126.25,-162.96 -378.53,-210.32 -552.42,-97.15 -1.23,0.8 -2.28,1.46 -3.52,2.23l-2618.67 1608.1zm2270.02 2887.65c110.7,47.62 210.38,121.89 286.46,220.17l1614.34 2085.32c84.13,108.68 126.81,232.32 131.87,355.28l2667.21 -1637.93c161.92,-99.42 208.16,-298.47 89.85,-451.18l-1615.13 -2084.84c-126.25,-162.96 -378.52,-210.33 -552.41,-97.15 -1.22,0.8 -2.28,1.46 -3.52,2.23l-2618.67 1608.1zm2270.02 2887.65c110.7,47.62 210.37,121.89 286.45,220.17l1614.34 2085.32c84.14,108.68 126.81,232.32 131.87,355.28l2667.21 -1637.92c161.92,-99.43 208.16,-298.48 89.86,-451.19l-1615.14 -2084.84c-126.24,-162.95 -378.52,-210.33 -552.41,-97.15 -1.22,0.8 -2.28,1.46 -3.52,2.23l-2618.66 1608.1zm2270.01 2887.65c110.7,47.62 210.37,121.89 286.45,220.17l1614.35 2085.32c84.13,108.68 126.8,232.32 131.87,355.28l2667.21 -1637.93c161.92,-99.43 208.15,-298.47 89.85,-451.18l-1615.12 -2084.84c-126.25,-162.96 -378.53,-210.33 -552.42,-97.15 -1.23,0.8 -2.29,1.46 -3.52,2.23l-2618.67 1608.1zm2270.01 2887.65c110.7,47.62 210.37,121.89 286.45,220.17l1614.35 2085.32c84.13,108.68 126.8,232.32 131.88,355.28l2667.21 -1637.92c161.93,-99.43 208.15,-298.47 89.84,-451.19l-1615.12 -2084.84c-126.25,-162.96 -378.52,-210.33 -552.42,-97.15 -1.23,0.8 -2.28,1.46 -3.52,2.23l-2618.67 1608.1zm2246.6 2902.03c110.7,47.62 210.37,121.89 286.45,220.17l1614.34 2085.32c84.14,108.68 126.81,232.32 131.88,355.28l2667.22 -1637.92c161.93,-99.43 208.14,-298.47 89.84,-451.19l-1615.12 -2084.84c-126.25,-162.96 -378.53,-210.33 -552.42,-97.15 -1.23,0.8 -2.29,1.46 -3.53,2.23l-2618.66 1608.1zm2270.02 2887.65c110.7,47.62 210.37,121.89 286.45,220.16l1614.35 2085.32c84.13,108.68 126.8,232.33 131.87,355.3l2667.21 -1637.93c161.93,-99.43 208.15,-298.48 89.85,-451.19l-1615.13 -2084.84c-126.24,-162.95 -378.52,-210.33 -552.41,-97.16 -1.23,0.8 -2.29,1.46 -3.52,2.23l-2618.67 1608.11zm2270.01 2887.65c110.7,47.62 210.37,121.89 286.45,220.16l1614.35 2085.33c84.13,108.67 126.8,232.32 131.87,355.29l2667.21 -1637.93c161.93,-99.43 208.16,-298.48 89.85,-451.19l-1615.13 -2084.84c-126.24,-162.95 -378.52,-210.33 -552.41,-97.16 -1.23,0.81 -2.28,1.46 -3.52,2.23l-2618.67 1608.11z"/>
  </g>
 </g>
</svg>
