<?xml version="1.0" encoding="UTF-8"?>
<!DOCTYPE svg PUBLIC "-//W3C//DTD SVG 1.1//EN" "http://www.w3.org/Graphics/SVG/1.1/DTD/svg11.dtd">
<!-- Creator: CorelDRAW 2021.5 -->
<svg xmlns="http://www.w3.org/2000/svg" xml:space="preserve" width="820.442mm" height="881.226mm" version="1.1" style="shape-rendering:geometricPrecision; text-rendering:geometricPrecision; image-rendering:optimizeQuality; fill-rule:evenodd; clip-rule:evenodd"
viewBox="0 0 82044.2 88122.6"
 xmlns:xlink="http://www.w3.org/1999/xlink"
 xmlns:xodm="http://www.corel.com/coreldraw/odm/2003">
 <defs>
  <style type="text/css">
   <![CDATA[
    .fil0 {fill:#D7ECE9;fill-rule:nonzero}
   ]]>
  </style>
 </defs>
 <g id="Layer_x0020_1">
  <metadata id="CorelCorpID_0Corel-Layer"/>
  <path class="fil0" d="M35786.09 44746.63c295.59,-141 591.19,-239.28 886.78,-281.61 281.61,-56.33 577.6,-112.65 887.17,-168.97 520.89,718.2 858.82,1436.02 1027.79,2182.58 168.96,746.18 225.29,1478.36 168.96,2182.2 -56.32,718.2 -196.93,1422.04 -436.2,2083.92 -225.29,675.87 -492.92,1295.41 -760.55,1844.65 -380.27,-56.32 -943.49,-84.67 -1675.68,-84.67 -717.82,0 -1548.67,127.01 -2449.82,366.28 -802.5,225.29 -1900.98,661.89 -3294.66,1323.38 -2041.97,1126.45 -3745.63,2562.86 -5097.36,4294.87 -1365.72,1731.61 -2999.06,3928.18 -4914.02,6617.67 -1914.96,2675.5 -3858.27,4984.32 -5829.55,6927.63 -1985.26,1942.93 -3618.61,3379.34 -4914.02,4308.46 -1295.41,943.5 -2492.16,1732.01 -3590.25,2379.91 -1098.48,647.51 -2281.25,1224.72 -3548.3,1745.99 -112.65,56.32 -239.66,112.64 -408.63,168.97 -196.93,84.29 -408.24,168.96 -661.49,239.27 -464.95,196.93 -859.21,196.93 -1154.8,0 -84.29,-126.63 42.33,-394.26 366.28,-774.53 422.23,-436.59 1196.75,-1112.46 2351.17,-2027.6 1323.76,-844.83 2816.11,-1942.92 4477.81,-3280.67 1661.31,-1323.77 3365.35,-2942.75 5111.34,-4815.75 1745.6,-1886.6 3407.3,-4069.19 4970.34,-6547.37 746.18,-985.44 1450.01,-2013.23 2111.89,-3097.72 2450.22,-3533.93 4027.24,-5744.87 4745.06,-6589.7 2083.92,-2590.83 4111.52,-4576.09 6054.83,-5941.81 1957.3,-1379.7 3815.93,-2393.5 5575.91,-3055.38zm4336.42 7800.43c-520.88,112.65 -1013.8,154.99 -1450,141 -436.6,-13.98 -802.89,-42.33 -1112.47,-98.66 -323.95,-27.96 -605.56,-380.27 -830.85,-1070.12 -210.91,-689.85 -351.91,-1478.36 -408.24,-2393.5 -56.32,-901.16 13.99,-1816.3 211.31,-2717.45 182.95,-915.53 534.87,-1619.36 1027.78,-2112.28 1732.01,-351.92 3534.32,-464.56 5406.94,-323.95 1872.62,141 2971.1,14.37 3294.66,-379.89 464.95,422.23 704.22,999.43 704.22,1745.99 0,732.19 -239.27,1422.04 -704.22,2055.57 -760.16,1041.77 -1604.99,2041.59 -2520.13,3013.05 -901.16,957.48 -1661.7,1549.05 -2281.25,1774.34 -619.54,211.31 -1070.12,337.94 -1337.75,365.9zm-22401.88 32316.55c0,168.97 405.52,581.09 1210.73,1239.09 813.76,665.38 1408.83,1154.41 1802.31,1492.73 409.02,351.14 718.21,534.87 943.5,534.87 887.17,0 2069.94,-1506.72 3548.3,-4505.78 605.56,450.58 1305.9,1060.02 2097.91,1858.63 799,805.99 1351.73,1196.75 1661.7,1196.75 464.56,0 1197.53,-703.44 2182.58,-2097.9 1014.19,-1435.25 1551,-2675.89 1520.7,-3717.27 -25.63,-888.34 -549.62,-1816.3 -1506.71,-2830.1 -943.5,-999.43 -1759.98,-1506.71 -2450.22,-1506.71 -225.29,0 -664.6,561.66 -1337.36,1689.66 -678.58,1138.49 -1281.43,2154.23 -1844.65,3055.39 -464.56,-661.5 -1147.42,-1415.05 -2041.58,-2280.86 -893.78,-865.42 -1563.04,-1210.73 -2041.98,-1013.8 -239.27,0 -932.23,1054.59 -2055.57,3168.03 -1129.16,2124.32 -1689.66,3365.35 -1689.66,3717.27zm29033.93 -51170.13c-84.68,84.29 -183.34,211.31 -309.97,365.9 -126.63,168.97 -225.29,366.29 -309.58,577.6 281.61,112.64 802.5,182.95 1577.02,210.91 464.56,28.36 1182.77,42.34 2140.25,42.34 1478.36,0 2816.11,-56.32 3998.88,-168.97 1351.73,-112.64 2294.84,-239.27 2844.08,-408.23 549.24,-112.65 901.15,-112.65 1042.15,0 98.28,56.32 98.28,351.91 0,901.15 -112.64,520.89 -309.96,1041.77 -591.57,1534.69 -267.63,492.91 -718.21,971.46 -1351.74,1436.41 -943.49,774.14 -1591,1337.36 -1942.92,1689.67 -605.56,506.9 -3140.06,2999.06 -7589.52,7518.82 -225.29,-27.96 -408.24,-196.93 -577.21,-478.54 -168.96,-295.99 -267.63,-633.92 -309.96,-1013.8 -41.95,-380.28 0,-788.51 127.01,-1211.13 126.63,-436.59 379.89,-788.51 760.16,-1098.09 323.95,-323.95 492.92,-492.91 492.92,-492.91 1154.41,-1042.16 2590.82,-2520.52 4294.47,-4421.49 267.63,-267.24 408.24,-492.53 408.24,-647.52 -1788.33,-225.28 -3393.32,-323.95 -4829.73,-295.59 -703.84,0 -1323.38,13.98 -1830.28,27.97 -506.9,13.98 -929.12,13.98 -1253.07,13.98 -718.21,0 -1042.16,-267.24 -957.48,-788.51 140.61,-436.21 365.9,-943.11 689.85,-1506.33 309.97,-563.22 591.58,-1013.8 844.83,-1380.09 239.27,-351.92 605.56,-816.48 1070.13,-1393.68 436.59,-521.28 957.47,-1056.14 1563.04,-1577.03 281.61,225.29 422.22,591.19 436.2,1098.09 14.37,506.9 -126.63,999.82 -436.2,1464.38zm-3376.23 40186.9c0,295.6 216.74,583.81 619.54,858.82 483.98,330.16 1194.81,819.97 2168.21,1464.38 983.51,650.62 1549.06,1013.8 1718.03,1098.09 436.59,0 1135.38,-833.57 2097.9,-2478.18 966.03,-1650.05 1498.18,-2915.94 1450.4,-3787.58 -36.51,-665.77 -704.22,-1577.41 -1858.63,-2745.42 -1154.42,-1168.78 -2041.59,-1633.34 -2647.15,-1380.09 -295.6,0 -962.92,997.1 -1999.25,3027.42 -1033.22,2024.5 -1549.05,3337 -1549.05,3942.56zm23426.95 -55943.15c295.59,0 408.24,141 323.95,408.63 -98.66,309.58 -605.56,1154.41 -1478.75,2534.5 -886.79,1393.69 -1492.35,2266.88 -1816.3,2618.79 -492.91,577.21 -1013.8,1013.8 -1563.04,1281.43 -253.25,196.93 -2435.84,1281.43 -6561.35,3266.69 -4125.5,1971.28 -7110.58,3857.88 -8955.23,5646.21 -140.62,-225.29 -239.28,-549.24 -309.58,-971.46 -70.7,-422.61 41.95,-957.48 309.58,-1591.01 858.81,-816.86 1999.24,-1816.68 3449.64,-2985.08 1436.41,-1168.78 3041.4,-2365.53 4815.74,-3562.67 1773.96,-1210.74 3632.59,-2393.5 5575.91,-3533.93 1942.92,-1140.82 3815.54,-2112.28 5632.22,-2900.79l577.21 -211.31zm-11207.35 -10892.72c0,-605.56 521.27,-1915.35 1548.66,-3942.56 1027.79,-2027.21 1704.04,-3027.03 1999.64,-3027.03 605.56,-253.64 1478.75,211.31 2633.16,1379.7 1154.02,1168.4 1822.12,2080.04 1858.64,2745.81 47.38,871.25 -473.89,2143.74 -1436.42,3787.57 -965.63,1650.05 -1661.31,2478.18 -2111.89,2478.18 -154.98,-84.67 -730.63,-454.07 -1704.04,-1098.48 -983.11,-650.23 -1696.27,-1137.71 -2168.21,-1464.37 -400.47,-277.73 -619.54,-563.23 -619.54,-858.82zm21809.92 39842.36c-28.36,746.17 -309.97,2097.91 -844.84,4040.83 -535.25,1957.3 -1239.09,4083.56 -2098.29,6406.76 -872.8,2309.21 -1633.35,4055.2 -2294.84,5237.97 -661.89,1182.76 -1380.09,2083.92 -2168.61,2703.46 -788.51,605.57 -2041.58,1182.77 -3787.57,1689.67 -1745.99,506.9 -3154.05,844.84 -4210.19,1027.79 -1056.14,183.33 -1732,267.62 -1999.24,267.62 -281.61,-27.96 -450.58,-140.61 -492.92,-323.95 -56.32,-196.93 28.36,-450.57 239.27,-746.17 309.97,-464.56 1070.13,-1084.11 2295.23,-1844.65 1225.11,-746.17 2647.15,-1703.65 4266.51,-2844.08 1618.97,-1140.43 2773.78,-2140.25 3463.63,-2985.08 689.85,-858.82 1464.37,-2126.26 2337.56,-3843.9 858.82,-1704.04 1647.33,-3421.67 2351.17,-5153.68 690.24,-1732 1197.14,-2914.77 1506.71,-3548.3 295.6,-633.53 619.55,-929.12 985.84,-901.15 295.59,56.32 450.58,323.95 450.58,816.86zm-3407.7 -17530.2c0,-605.56 506.91,-1914.96 1549.06,-3942.56 1027.79,-2027.6 1689.67,-3027.42 1999.25,-3027.42 605.56,-253.25 1478.36,211.31 2633.16,1380.09 1154.41,1168.4 1773.96,2083.92 1858.63,2745.42 0,873.19 -478.93,2140.24 -1436.41,3787.57 -971.46,1647.72 -1675.29,2478.18 -2111.89,2478.18 -168.97,-84.29 -732.19,-450.58 -1703.65,-1098.09 -985.83,-647.9 -1704.04,-1126.44 -2168.6,-1464.38 -408.24,-267.62 -619.55,-563.22 -619.55,-858.81z"/>
 </g>
</svg>
